G04*
G04 #@! TF.GenerationSoftware,Altium Limited,Altium Designer,22.0.2 (36)*
G04*
G04 Layer_Color=4660084*
%FSLAX44Y44*%
%MOMM*%
G71*
G04*
G04 #@! TF.SameCoordinates,5265F303-A955-4834-83B4-5BE1E65ADB8C*
G04*
G04*
G04 #@! TF.FilePolarity,Positive*
G04*
G01*
G75*
%ADD10C,0.2000*%
%ADD11C,0.1500*%
%ADD12C,0.3000*%
%ADD13C,0.1000*%
%ADD17C,0.2540*%
%ADD109C,0.6000*%
%ADD118C,0.1524*%
%ADD119C,0.1778*%
%ADD120C,0.1400*%
D10*
X134490Y70840D02*
X167510D01*
X134490D02*
Y91160D01*
X167510D01*
Y70840D02*
Y91160D01*
X191490Y93840D02*
X224510D01*
X191490D02*
Y114160D01*
X224510D01*
Y93840D02*
Y114160D01*
X206960Y116840D02*
X227280D01*
X191720D02*
X206960D01*
X191720D02*
Y137160D01*
X227280D01*
Y116840D02*
Y137160D01*
X134490Y93840D02*
X167510D01*
X134490D02*
Y114160D01*
X167510D01*
Y93840D02*
Y114160D01*
X460160Y59990D02*
Y93010D01*
X439840D02*
X460160D01*
X439840Y59990D02*
Y93010D01*
Y59990D02*
X460160D01*
X489010Y467840D02*
Y488160D01*
X455990D02*
X489010D01*
X455990Y467840D02*
Y488160D01*
Y467840D02*
X489010D01*
X507510Y506840D02*
Y527160D01*
X474490D02*
X507510D01*
X474490Y506840D02*
Y527160D01*
Y506840D02*
X507510D01*
X526510Y467840D02*
Y488160D01*
X493490D02*
X526510D01*
X493490Y467840D02*
Y488160D01*
Y467840D02*
X526510D01*
X191720Y70840D02*
Y91160D01*
Y70840D02*
X227280D01*
Y91160D01*
X212040D02*
X227280D01*
X191720D02*
X212040D01*
X546780Y506840D02*
Y527160D01*
X511220D02*
X546780D01*
X511220Y506840D02*
Y527160D01*
Y506840D02*
X526460D01*
X546780D01*
X532840Y452220D02*
X553160D01*
Y487780D01*
X532840D02*
X553160D01*
X532840Y472540D02*
Y487780D01*
Y452220D02*
Y472540D01*
X147000Y492500D02*
Y525000D01*
X161000D01*
Y492500D02*
Y525000D01*
X147000Y492500D02*
X161000D01*
X147250Y495000D02*
X160000D01*
X128000Y492500D02*
Y525000D01*
X142000D01*
Y492500D02*
Y525000D01*
X128000Y492500D02*
X142000D01*
X128250Y495000D02*
X141000D01*
X146840Y454990D02*
X167160D01*
Y488010D01*
X146840D02*
X167160D01*
X146840Y454990D02*
Y488010D01*
X121840Y454990D02*
X142160D01*
Y488010D01*
X121840D02*
X142160D01*
X121840Y454990D02*
Y488010D01*
X255510Y498840D02*
Y519160D01*
X222490D02*
X255510D01*
X222490Y498840D02*
Y519160D01*
Y498840D02*
X255510D01*
Y461840D02*
Y482160D01*
X222490D02*
X255510D01*
X222490Y461840D02*
Y482160D01*
Y461840D02*
X255510D01*
X715000Y35375D02*
X795000D01*
X715000D02*
Y93375D01*
X795000D01*
Y35375D02*
Y93375D01*
X152000Y339000D02*
X212000D01*
Y279000D02*
Y339000D01*
X152000Y279000D02*
X212000D01*
X152000D02*
Y339000D01*
X674000Y51000D02*
X706000D01*
X674000D02*
Y109000D01*
X706000D01*
Y51000D02*
Y109000D01*
X765000Y469500D02*
Y487500D01*
X733000Y469500D02*
X765000D01*
X733000D02*
Y487500D01*
X735000D01*
X765000D01*
X599000Y493500D02*
X617000D01*
Y461500D02*
Y493500D01*
X599000Y461500D02*
X617000D01*
X599000D02*
Y463500D01*
Y493500D01*
X302840Y96500D02*
X315590D01*
X301840Y94000D02*
X315840D01*
X301840D02*
Y126500D01*
X315840D01*
Y94000D02*
Y126500D01*
X319840Y96500D02*
X332590D01*
X318840Y94000D02*
X332840D01*
X318840D02*
Y126500D01*
X332840D01*
Y94000D02*
Y126500D01*
X806250Y98000D02*
X819000D01*
X806000Y95500D02*
X820000D01*
Y128000D01*
X806000D02*
X820000D01*
X806000Y95500D02*
Y128000D01*
X823250Y98000D02*
X836000D01*
X823000Y95500D02*
X837000D01*
Y128000D01*
X823000D02*
X837000D01*
X823000Y95500D02*
Y128000D01*
X740192Y508000D02*
Y516000D01*
X742192Y512000D02*
X746192Y516000D01*
X742192Y512000D02*
X746192Y508000D01*
Y516000D01*
X725192Y505000D02*
Y519000D01*
Y505000D02*
X761192D01*
Y519000D01*
X725192D02*
X761192D01*
X415000Y119000D02*
Y127000D01*
X409000Y119000D02*
X413000Y123000D01*
X409000Y127000D02*
X413000Y123000D01*
X409000Y119000D02*
Y127000D01*
X430000Y116000D02*
Y130000D01*
X394000D02*
X430000D01*
X394000Y116000D02*
Y130000D01*
Y116000D02*
X430000D01*
X570840Y95990D02*
X591160D01*
Y129010D01*
X570840D02*
X591160D01*
X570840Y95990D02*
Y129010D01*
X801840Y530010D02*
X822160D01*
X801840Y496990D02*
Y530010D01*
Y496990D02*
X822160D01*
Y530010D01*
X319840Y161510D02*
X340160D01*
X319840Y128490D02*
Y161510D01*
Y128490D02*
X340160D01*
Y161510D01*
X353990Y153840D02*
Y174160D01*
Y153840D02*
X387010D01*
Y174160D01*
X353990D02*
X387010D01*
X471990Y155840D02*
Y176160D01*
Y155840D02*
X505010D01*
Y176160D01*
X471990D02*
X505010D01*
X318680Y57490D02*
X339000D01*
X318680D02*
Y90510D01*
X339000D01*
Y57490D02*
Y90510D01*
X295680Y57490D02*
X316000D01*
X295680D02*
Y90510D01*
X316000D01*
Y57490D02*
Y90510D01*
X683490Y500840D02*
Y521160D01*
Y500840D02*
X716510D01*
Y521160D01*
X683490D02*
X716510D01*
X668010Y459340D02*
Y479660D01*
X634990D02*
X668010D01*
X634990Y459340D02*
Y479660D01*
Y459340D02*
X668010D01*
X625010Y435340D02*
Y455660D01*
X591990D02*
X625010D01*
X591990Y435340D02*
Y455660D01*
Y435340D02*
X625010D01*
X682840Y495510D02*
X703160D01*
X682840Y462490D02*
Y495510D01*
Y462490D02*
X703160D01*
Y495510D01*
X668010Y435340D02*
Y455660D01*
X634990D02*
X668010D01*
X634990Y435340D02*
Y455660D01*
Y435340D02*
X668010D01*
X350490Y116840D02*
Y137160D01*
X383510D01*
Y116840D02*
Y137160D01*
X350490Y116840D02*
X383510D01*
X429510Y155840D02*
Y176160D01*
X396490Y155840D02*
X429510D01*
X396490D02*
Y176160D01*
X429510D01*
X794840Y138490D02*
X815160D01*
Y171510D01*
X794840D02*
X815160D01*
X794840Y138490D02*
Y171510D01*
X817840Y138490D02*
X838160D01*
Y171510D01*
X817840D02*
X838160D01*
X817840Y138490D02*
Y171510D01*
X635010Y51840D02*
Y72160D01*
X601990D02*
X635010D01*
X601990Y51840D02*
Y72160D01*
Y51840D02*
X635010D01*
X729840Y103490D02*
X750160D01*
Y136510D01*
X729840D02*
X750160D01*
X729840Y103490D02*
Y136510D01*
X752840Y103490D02*
X773160D01*
Y136510D01*
X752840D02*
X773160D01*
X752840Y103490D02*
Y136510D01*
X809840Y84010D02*
X830160D01*
X809840Y50990D02*
Y84010D01*
Y50990D02*
X830160D01*
Y84010D01*
X645840Y90490D02*
X666160D01*
Y123510D01*
X645840D02*
X666160D01*
X645840Y90490D02*
Y123510D01*
X779000Y129500D02*
X793000D01*
X779000Y103500D02*
Y129500D01*
Y103500D02*
X793000D01*
Y129500D01*
X709000Y130000D02*
X723000D01*
X709000Y104000D02*
Y130000D01*
Y104000D02*
X723000D01*
Y130000D01*
X737460Y430340D02*
X757780D01*
X722220D02*
X737460D01*
X722220D02*
Y450660D01*
X757780D01*
Y430340D02*
Y450660D01*
X683220D02*
X703540D01*
X718780D01*
Y430340D02*
Y450660D01*
X683220Y430340D02*
X718780D01*
X683220D02*
Y450660D01*
X808460Y178840D02*
X828780D01*
X793220D02*
X808460D01*
X793220D02*
Y199160D01*
X828780D01*
Y178840D02*
Y199160D01*
X801840Y458720D02*
Y479040D01*
Y494280D01*
X822160D01*
Y458720D02*
Y494280D01*
X801840Y458720D02*
X822160D01*
X394220Y176160D02*
X414540D01*
X429780D01*
Y155840D02*
Y176160D01*
X394220Y155840D02*
X429780D01*
X394220D02*
Y176160D01*
Y153160D02*
X414540D01*
X429780D01*
Y132840D02*
Y153160D01*
X394220Y132840D02*
X429780D01*
X394220D02*
Y153160D01*
X448460Y155840D02*
X468780D01*
X433220D02*
X448460D01*
X433220D02*
Y176160D01*
X468780D01*
Y155840D02*
Y176160D01*
X523960Y155840D02*
X544280D01*
X508720D02*
X523960D01*
X508720D02*
Y176160D01*
X544280D01*
Y155840D02*
Y176160D01*
X456840Y118460D02*
Y138780D01*
Y103220D02*
Y118460D01*
Y103220D02*
X477160D01*
Y138780D01*
X456840D02*
X477160D01*
X791160Y476460D02*
Y496780D01*
Y461220D02*
Y476460D01*
X770840Y461220D02*
X791160D01*
X770840D02*
Y496780D01*
X791160D01*
X649460Y482340D02*
X669780D01*
X634220D02*
X649460D01*
X634220D02*
Y502660D01*
X669780D01*
Y482340D02*
Y502660D01*
X727160Y476460D02*
Y496780D01*
Y461220D02*
Y476460D01*
X706840Y461220D02*
X727160D01*
X706840D02*
Y496780D01*
X727160D01*
X590220Y519660D02*
X610540D01*
X625780D01*
Y499340D02*
Y519660D01*
X590220Y499340D02*
X625780D01*
X590220D02*
Y519660D01*
X312840Y150460D02*
Y170780D01*
Y135220D02*
Y150460D01*
Y135220D02*
X333160D01*
Y170780D01*
X312840D02*
X333160D01*
X262460Y474160D02*
X282780D01*
X247220D02*
X262460D01*
X247220Y453840D02*
Y474160D01*
Y453840D02*
X282780D01*
Y474160D01*
X262460Y497160D02*
X282780D01*
X247220D02*
X262460D01*
X247220Y476840D02*
Y497160D01*
Y476840D02*
X282780D01*
Y497160D01*
X262460Y520160D02*
X282780D01*
X247220D02*
X262460D01*
X247220Y499840D02*
Y520160D01*
Y499840D02*
X282780D01*
Y520160D01*
X66160Y447220D02*
Y467540D01*
Y482780D01*
X45840D02*
X66160D01*
X45840Y447220D02*
Y482780D01*
Y447220D02*
X66160D01*
X601220Y96160D02*
X621540D01*
X636780D01*
Y75840D02*
Y96160D01*
X601220Y75840D02*
X636780D01*
X601220D02*
Y96160D01*
X601220Y142160D02*
X621540D01*
X636780D01*
Y121840D02*
Y142160D01*
X601220Y121840D02*
X636780D01*
X601220D02*
Y142160D01*
Y165160D02*
X621540D01*
X636780D01*
Y144840D02*
Y165160D01*
X601220Y144840D02*
X636780D01*
X601220D02*
Y165160D01*
X645840Y51720D02*
Y72040D01*
Y87280D01*
X666160D01*
Y51720D02*
Y87280D01*
X645840Y51720D02*
X666160D01*
X591160Y70960D02*
Y91280D01*
Y55720D02*
Y70960D01*
X570840Y55720D02*
X591160D01*
X570840D02*
Y91280D01*
X591160D01*
X776460Y430340D02*
X796780D01*
X761220D02*
X776460D01*
X761220D02*
Y450660D01*
X796780D01*
Y430340D02*
Y450660D01*
X601220Y119160D02*
X621540D01*
X636780D01*
Y98840D02*
Y119160D01*
X601220Y98840D02*
X636780D01*
X601220D02*
Y119160D01*
X394000Y501000D02*
Y493003D01*
X390001Y489004D01*
X386003Y493003D01*
Y501000D01*
Y495002D01*
X394000D01*
X382004Y501000D02*
Y489004D01*
X374006Y501000D01*
Y489004D01*
X370008D02*
X362010D01*
X366009D01*
Y501000D01*
X358012D02*
X354013D01*
X356012D01*
Y489004D01*
X358012Y491003D01*
X145000Y158000D02*
X137002D01*
X133004Y161999D01*
X137002Y165997D01*
X145000D01*
X139002D01*
Y158000D01*
X145000Y169996D02*
X133004D01*
X145000Y177994D01*
X133004D01*
Y181992D02*
Y189990D01*
Y185991D01*
X145000D01*
Y201986D02*
Y193988D01*
X137002Y201986D01*
X135003D01*
X133004Y199986D01*
Y195988D01*
X135003Y193988D01*
X401000Y83996D02*
Y74833D01*
X399167Y73000D01*
X395502D01*
X393669Y74833D01*
Y83996D01*
X390004Y82164D02*
X388171Y83996D01*
X384505D01*
X382673Y82164D01*
Y80331D01*
X384505Y78498D01*
X386338D01*
X384505D01*
X382673Y76666D01*
Y74833D01*
X384505Y73000D01*
X388171D01*
X390004Y74833D01*
D11*
X405000Y489000D02*
Y507000D01*
X369000Y489000D02*
Y507000D01*
Y489000D02*
X405000D01*
X369000Y507000D02*
X405000D01*
X133000Y147000D02*
X151000D01*
X133000Y183000D02*
X151000D01*
X133000Y147000D02*
Y183000D01*
X151000Y147000D02*
Y183000D01*
X299000Y175000D02*
Y535000D01*
X839000Y175000D02*
Y535000D01*
X299000Y175000D02*
X839000D01*
X299000Y535000D02*
X839000D01*
X435000Y503000D02*
X465000D01*
X435000Y533000D02*
X465000D01*
X435000Y503000D02*
Y533000D01*
X465000Y503000D02*
Y533000D01*
X75000Y66000D02*
X105000D01*
X75000Y96000D02*
X105000D01*
X75000Y66000D02*
Y96000D01*
X105000Y66000D02*
Y96000D01*
X357000Y174000D02*
X375000D01*
X357000Y144000D02*
X375000D01*
X357000D02*
Y174000D01*
X375000Y144000D02*
Y174000D01*
X253000Y419000D02*
X277000D01*
X253000Y439000D02*
X277000D01*
Y419000D02*
Y439000D01*
X253000Y419000D02*
Y439000D01*
X182000Y494000D02*
Y524002D01*
X205002Y494000D02*
Y524002D01*
X182000D02*
X205002D01*
X182000Y494000D02*
X205002D01*
X182000Y457000D02*
Y487002D01*
X205002Y457000D02*
Y487002D01*
X182000D02*
X205002D01*
X182000Y457000D02*
X205002D01*
X587600Y230000D02*
Y410000D01*
X842600Y230000D02*
Y410000D01*
X587600Y230000D02*
X842600D01*
X587600Y410000D02*
X842600D01*
X381000Y117998D02*
Y148000D01*
X357998Y117998D02*
Y148000D01*
Y117998D02*
X381000D01*
X357998Y148000D02*
X381000D01*
X305000Y201000D02*
X547000D01*
X305000Y443000D02*
X547000D01*
X305000Y201000D02*
Y443000D01*
X547000Y201000D02*
Y443000D01*
X683000Y159000D02*
X733000D01*
X683000Y209000D02*
X733000D01*
X683000Y159000D02*
Y209000D01*
X733000Y159000D02*
Y209000D01*
X404000Y146000D02*
X422000D01*
X404000Y116000D02*
X422000D01*
X404000D02*
Y146000D01*
X422000Y116000D02*
Y146000D01*
X756000Y166000D02*
X780000D01*
X756000Y186000D02*
X780000D01*
X756000Y166000D02*
Y186000D01*
X780000Y166000D02*
Y186000D01*
X411000Y56000D02*
Y108000D01*
X370000Y56000D02*
Y108000D01*
X411000D01*
X370000Y56000D02*
X411000D01*
X243000Y397971D02*
Y536000D01*
X73411Y397971D02*
Y536000D01*
X243000D01*
X73411Y397971D02*
X243000D01*
X363503Y170500D02*
X372667D01*
X374500Y168667D01*
Y165002D01*
X372667Y163169D01*
X363503D01*
Y152173D02*
X365336Y155838D01*
X369002Y159504D01*
X372667D01*
X374500Y157671D01*
Y154005D01*
X372667Y152173D01*
X370835D01*
X369002Y154005D01*
Y159504D01*
X136503Y500000D02*
X146500D01*
Y504998D01*
X144834Y506665D01*
X138169D01*
X136503Y504998D01*
Y500000D01*
X144834Y509997D02*
X146500Y511663D01*
Y514995D01*
X144834Y516661D01*
X138169D01*
X136503Y514995D01*
Y511663D01*
X138169Y509997D01*
X139836D01*
X141502Y511663D01*
Y516661D01*
X117503Y500000D02*
X127500D01*
Y504998D01*
X125834Y506665D01*
X119169D01*
X117503Y504998D01*
Y500000D01*
X119169Y509997D02*
X117503Y511663D01*
Y514995D01*
X119169Y516661D01*
X120835D01*
X122502Y514995D01*
X124168Y516661D01*
X125834D01*
X127500Y514995D01*
Y511663D01*
X125834Y509997D01*
X124168D01*
X122502Y511663D01*
X120835Y509997D01*
X119169D01*
X122502Y511663D02*
Y514995D01*
X757500Y475003D02*
Y483334D01*
X755834Y485000D01*
X752502D01*
X750835Y483334D01*
Y475003D01*
X742505Y485000D02*
Y475003D01*
X747503Y480001D01*
X740839D01*
X611497Y486000D02*
X603166D01*
X601500Y484334D01*
Y481002D01*
X603166Y479336D01*
X611497D01*
Y469339D02*
Y476003D01*
X606498D01*
X608164Y472671D01*
Y471005D01*
X606498Y469339D01*
X603166D01*
X601500Y471005D01*
Y474337D01*
X603166Y476003D01*
X410504Y142500D02*
X419667D01*
X421500Y140667D01*
Y137002D01*
X419667Y135169D01*
X410504D01*
Y131503D02*
Y124172D01*
X412336D01*
X419667Y131503D01*
X421500D01*
X326337Y101500D02*
X316340D01*
Y106498D01*
X318006Y108165D01*
X324670D01*
X326337Y106498D01*
Y101500D01*
X316340Y111497D02*
Y114829D01*
Y113163D01*
X326337D01*
X324670Y111497D01*
X343337Y101500D02*
X333340D01*
Y106498D01*
X335006Y108165D01*
X341670D01*
X343337Y106498D01*
Y101500D01*
X333340Y118161D02*
Y111497D01*
X340004Y118161D01*
X341670D01*
X343337Y116495D01*
Y113163D01*
X341670Y111497D01*
X795503Y103000D02*
X805500D01*
Y107998D01*
X803834Y109664D01*
X797169D01*
X795503Y107998D01*
Y103000D01*
Y119661D02*
Y112997D01*
X800502D01*
X798836Y116329D01*
Y117995D01*
X800502Y119661D01*
X803834D01*
X805500Y117995D01*
Y114663D01*
X803834Y112997D01*
X812503Y103000D02*
X822500D01*
Y107998D01*
X820834Y109664D01*
X814169D01*
X812503Y107998D01*
Y103000D01*
Y119661D02*
X814169Y116329D01*
X817502Y112997D01*
X820834D01*
X822500Y114663D01*
Y117995D01*
X820834Y119661D01*
X819168D01*
X817502Y117995D01*
Y112997D01*
D12*
X761000Y482500D02*
G03*
X761000Y482500I-1000J0D01*
G01*
X605000Y488500D02*
G03*
X605000Y488500I-1000J0D01*
G01*
X549000Y54000D02*
Y142000D01*
X463000Y54000D02*
Y142000D01*
X549000D01*
X463000Y54000D02*
X549000D01*
X234500Y375250D02*
X255500D01*
X234500Y417500D02*
X255500D01*
X234500Y375250D02*
Y417500D01*
X255500Y375250D02*
Y417500D01*
X151000Y361000D02*
Y429000D01*
X215000Y361000D02*
Y429000D01*
X151000D02*
X215000D01*
X151000Y361000D02*
X215000D01*
D13*
X732192Y499998D02*
Y493000D01*
X735691D01*
X736857Y494166D01*
Y498831D01*
X735691Y499998D01*
X732192D01*
X742689Y493000D02*
Y499998D01*
X739190Y496499D01*
X743855D01*
X423000Y135002D02*
Y142000D01*
X419501D01*
X418335Y140834D01*
Y136169D01*
X419501Y135002D01*
X423000D01*
X416002Y136169D02*
X414836Y135002D01*
X412503D01*
X411337Y136169D01*
Y137335D01*
X412503Y138501D01*
X413670D01*
X412503D01*
X411337Y139667D01*
Y140834D01*
X412503Y142000D01*
X414836D01*
X416002Y140834D01*
D17*
X379000Y178000D02*
G03*
X379000Y178000I-1000J0D01*
G01*
X348236Y182000D02*
G03*
X348236Y182000I-2236J0D01*
G01*
X694000Y149000D02*
G03*
X694000Y149000I-1000J0D01*
G01*
X426000Y150000D02*
G03*
X426000Y150000I-1000J0D01*
G01*
X421414Y111000D02*
G03*
X421414Y111000I-1414J0D01*
G01*
X531540Y277225D02*
Y292460D01*
X539158D01*
X541697Y289921D01*
Y287382D01*
X539158Y284842D01*
X531540D01*
X539158D01*
X541697Y282303D01*
Y279764D01*
X539158Y277225D01*
X531540D01*
X546775Y292460D02*
Y282303D01*
X551853Y277225D01*
X556932Y282303D01*
Y292460D01*
Y284842D01*
X546775D01*
X562010Y279764D02*
X564549Y277225D01*
X569628D01*
X572167Y279764D01*
Y289921D01*
X569628Y292460D01*
X564549D01*
X562010Y289921D01*
Y279764D01*
X577245D02*
X579785Y277225D01*
X584863D01*
X587402Y279764D01*
Y289921D01*
X584863Y292460D01*
X579785D01*
X577245Y289921D01*
Y279764D01*
X592480Y292460D02*
X597559D01*
X595019D01*
Y277225D01*
X592480Y279764D01*
X605176Y277225D02*
X615333D01*
Y279764D01*
X605176Y289921D01*
Y292460D01*
X409225Y324540D02*
X421921D01*
X424460Y327079D01*
Y332158D01*
X421921Y334697D01*
X409225D01*
X424460Y349932D02*
Y339775D01*
X414303Y349932D01*
X411764D01*
X409225Y347393D01*
Y342314D01*
X411764Y339775D01*
X432225Y530697D02*
Y525618D01*
Y528158D01*
X444921D01*
X447460Y525618D01*
Y523079D01*
X444921Y520540D01*
X434764Y535775D02*
X432225Y538314D01*
Y543393D01*
X434764Y545932D01*
X437303D01*
X439842Y543393D01*
Y540854D01*
Y543393D01*
X442382Y545932D01*
X444921D01*
X447460Y543393D01*
Y538314D01*
X444921Y535775D01*
X72225Y93697D02*
Y88618D01*
Y91158D01*
X84921D01*
X87460Y88618D01*
Y86079D01*
X84921Y83540D01*
X87460Y106393D02*
X72225D01*
X79842Y98775D01*
Y108932D01*
X499225Y83540D02*
X514460D01*
Y91158D01*
X511921Y93697D01*
X509382D01*
X506842Y91158D01*
Y83540D01*
Y91158D01*
X504303Y93697D01*
X501764D01*
X499225Y91158D01*
Y83540D01*
X514460Y98775D02*
Y103854D01*
Y101314D01*
X499225D01*
X501764Y98775D01*
X271775Y414540D02*
X259079D01*
X256540Y417079D01*
Y422158D01*
X259079Y424697D01*
X271775D01*
X256540Y429775D02*
Y434853D01*
Y432314D01*
X271775D01*
X269236Y429775D01*
Y442471D02*
X271775Y445010D01*
Y450089D01*
X269236Y452628D01*
X259079D01*
X256540Y450089D01*
Y445010D01*
X259079Y442471D01*
X269236D01*
X222475Y393790D02*
X237710D01*
Y401408D01*
X235171Y403947D01*
X225014D01*
X222475Y401408D01*
Y393790D01*
Y409025D02*
Y419182D01*
X225014D01*
X235171Y409025D01*
X237710D01*
X174541Y377775D02*
Y362540D01*
X182158D01*
X184698Y365079D01*
Y367618D01*
X182158Y370158D01*
X174541D01*
X182158D01*
X184698Y372697D01*
Y375236D01*
X182158Y377775D01*
X174541D01*
X189776Y362540D02*
Y372697D01*
X194854Y377775D01*
X199933Y372697D01*
Y362540D01*
Y370158D01*
X189776D01*
X205011Y377775D02*
X215168D01*
X210089D01*
Y362540D01*
X220246D02*
X225324D01*
X222785D01*
Y377775D01*
X220246Y375236D01*
X189540Y515775D02*
X199697D01*
X194618D01*
Y500540D01*
X204775Y513236D02*
X207314Y515775D01*
X212393D01*
X214932Y513236D01*
Y510697D01*
X212393Y508158D01*
X209853D01*
X212393D01*
X214932Y505618D01*
Y503079D01*
X212393Y500540D01*
X207314D01*
X204775Y503079D01*
X189540Y478775D02*
X199697D01*
X194618D01*
Y463540D01*
X214932D02*
X204775D01*
X214932Y473697D01*
Y476236D01*
X212393Y478775D01*
X207314D01*
X204775Y476236D01*
X754375Y349460D02*
X741679D01*
X739140Y346921D01*
Y341842D01*
X741679Y339303D01*
X754375D01*
X739140Y334225D02*
Y329146D01*
Y331686D01*
X754375D01*
X751836Y334225D01*
X373460Y126225D02*
X363303D01*
X368382D01*
Y141460D01*
X358225D02*
X353147D01*
X355686D01*
Y126225D01*
X358225Y128764D01*
X752697Y70150D02*
X747618D01*
X750157D01*
Y57454D01*
X747618Y54915D01*
X745079D01*
X742540Y57454D01*
X767932Y54915D02*
X757775D01*
X767932Y65072D01*
Y67611D01*
X765393Y70150D01*
X760314D01*
X757775Y67611D01*
X175697Y309236D02*
X173158Y311775D01*
X168079D01*
X165540Y309236D01*
Y306696D01*
X168079Y304157D01*
X173158D01*
X175697Y301618D01*
Y299079D01*
X173158Y296540D01*
X168079D01*
X165540Y299079D01*
X180775Y311775D02*
Y296540D01*
X185854Y301618D01*
X190932Y296540D01*
Y311775D01*
X206167Y296540D02*
X196010D01*
X206167Y306696D01*
Y309236D01*
X203628Y311775D01*
X198549D01*
X196010Y309236D01*
X694775Y93460D02*
X679540D01*
Y83303D01*
Y78225D02*
Y73147D01*
Y75686D01*
X694775D01*
X692236Y78225D01*
X706225Y176540D02*
X718921D01*
X721460Y179079D01*
Y184158D01*
X718921Y186697D01*
X706225D01*
X708764Y191775D02*
X706225Y194314D01*
Y199393D01*
X708764Y201932D01*
X711303D01*
X713842Y199393D01*
X716382Y201932D01*
X718921D01*
X721460Y199393D01*
Y194314D01*
X718921Y191775D01*
X716382D01*
X713842Y194314D01*
X711303Y191775D01*
X708764D01*
X713842Y194314D02*
Y199393D01*
X761225Y161540D02*
X773921D01*
X776460Y164079D01*
Y169158D01*
X773921Y171697D01*
X761225D01*
X773921Y176775D02*
X776460Y179314D01*
Y184393D01*
X773921Y186932D01*
X763764D01*
X761225Y184393D01*
Y179314D01*
X763764Y176775D01*
X766303D01*
X768842Y179314D01*
Y186932D01*
X172303Y484775D02*
X177382D01*
X174842D01*
Y472079D01*
X177382Y469540D01*
X179921D01*
X182460Y472079D01*
X167225Y469540D02*
X162147D01*
X164686D01*
Y484775D01*
X167225Y482236D01*
D109*
X205162Y329000D02*
G03*
X205162Y329000I-3162J0D01*
G01*
D118*
X213905Y127172D02*
X215598Y125479D01*
X218983D01*
X220676Y127172D01*
Y133943D01*
X218983Y135636D01*
X215598D01*
X213905Y133943D01*
X203748Y135636D02*
X210519D01*
X203748Y128865D01*
Y127172D01*
X205441Y125479D01*
X208826D01*
X210519Y127172D01*
X200362Y125479D02*
X193591D01*
Y127172D01*
X200362Y133943D01*
Y135636D01*
X205095Y80828D02*
X203402Y82521D01*
X200017D01*
X198324Y80828D01*
Y74057D01*
X200017Y72364D01*
X203402D01*
X205095Y74057D01*
X215252Y72364D02*
X208481D01*
X215252Y79135D01*
Y80828D01*
X213559Y82521D01*
X210173D01*
X208481Y80828D01*
X225409Y82521D02*
X222023Y80828D01*
X218637Y77442D01*
Y74057D01*
X220330Y72364D01*
X223716D01*
X225409Y74057D01*
Y75750D01*
X223716Y77442D01*
X218637D01*
X533405Y517172D02*
X535098Y515479D01*
X538483D01*
X540176Y517172D01*
Y523943D01*
X538483Y525636D01*
X535098D01*
X533405Y523943D01*
X523248Y525636D02*
X530019D01*
X523248Y518865D01*
Y517172D01*
X524941Y515479D01*
X528326D01*
X530019Y517172D01*
X513091Y515479D02*
X519863D01*
Y520558D01*
X516477Y518865D01*
X514784D01*
X513091Y520558D01*
Y523943D01*
X514784Y525636D01*
X518170D01*
X519863Y523943D01*
X543172Y465595D02*
X541479Y463902D01*
Y460517D01*
X543172Y458824D01*
X549943D01*
X551636Y460517D01*
Y463902D01*
X549943Y465595D01*
X551636Y475752D02*
Y468981D01*
X544865Y475752D01*
X543172D01*
X541479Y474059D01*
Y470673D01*
X543172Y468981D01*
X551636Y484216D02*
X541479D01*
X546558Y479137D01*
Y485909D01*
X744405Y440672D02*
X746098Y438979D01*
X749483D01*
X751176Y440672D01*
Y447443D01*
X749483Y449136D01*
X746098D01*
X744405Y447443D01*
X741019Y449136D02*
X737634D01*
X739326D01*
Y438979D01*
X741019Y440672D01*
X696595Y440328D02*
X694902Y442021D01*
X691517D01*
X689824Y440328D01*
Y433557D01*
X691517Y431864D01*
X694902D01*
X696595Y433557D01*
X706752Y431864D02*
X699981D01*
X706752Y438635D01*
Y440328D01*
X705059Y442021D01*
X701674D01*
X699981Y440328D01*
X815405Y189172D02*
X817098Y187479D01*
X820483D01*
X822176Y189172D01*
Y195943D01*
X820483Y197636D01*
X817098D01*
X815405Y195943D01*
X812019Y189172D02*
X810327Y187479D01*
X806941D01*
X805248Y189172D01*
Y190865D01*
X806941Y192558D01*
X808634D01*
X806941D01*
X805248Y194250D01*
Y195943D01*
X806941Y197636D01*
X810327D01*
X812019Y195943D01*
X812172Y472095D02*
X810479Y470402D01*
Y467017D01*
X812172Y465324D01*
X818943D01*
X820636Y467017D01*
Y470402D01*
X818943Y472095D01*
X820636Y480559D02*
X810479D01*
X815558Y475481D01*
Y482252D01*
X407595Y165828D02*
X405902Y167521D01*
X402517D01*
X400824Y165828D01*
Y159057D01*
X402517Y157364D01*
X405902D01*
X407595Y159057D01*
X417752Y167521D02*
X410981D01*
Y162442D01*
X414366Y164135D01*
X416059D01*
X417752Y162442D01*
Y159057D01*
X416059Y157364D01*
X412673D01*
X410981Y159057D01*
X407595Y142828D02*
X405902Y144521D01*
X402517D01*
X400824Y142828D01*
Y136057D01*
X402517Y134364D01*
X405902D01*
X407595Y136057D01*
X417752Y144521D02*
X414366Y142828D01*
X410981Y139442D01*
Y136057D01*
X412673Y134364D01*
X416059D01*
X417752Y136057D01*
Y137750D01*
X416059Y139442D01*
X410981D01*
X455405Y166172D02*
X457098Y164479D01*
X460483D01*
X462176Y166172D01*
Y172943D01*
X460483Y174636D01*
X457098D01*
X455405Y172943D01*
X452019Y164479D02*
X445248D01*
Y166172D01*
X452019Y172943D01*
Y174636D01*
X530905Y166172D02*
X532598Y164479D01*
X535983D01*
X537676Y166172D01*
Y172943D01*
X535983Y174636D01*
X532598D01*
X530905Y172943D01*
X527519Y166172D02*
X525826Y164479D01*
X522441D01*
X520748Y166172D01*
Y167864D01*
X522441Y169557D01*
X520748Y171250D01*
Y172943D01*
X522441Y174636D01*
X525826D01*
X527519Y172943D01*
Y171250D01*
X525826Y169557D01*
X527519Y167864D01*
Y166172D01*
X525826Y169557D02*
X522441D01*
X467172Y125405D02*
X465479Y127098D01*
Y130483D01*
X467172Y132176D01*
X473943D01*
X475636Y130483D01*
Y127098D01*
X473943Y125405D01*
Y122019D02*
X475636Y120326D01*
Y116941D01*
X473943Y115248D01*
X467172D01*
X465479Y116941D01*
Y120326D01*
X467172Y122019D01*
X468865D01*
X470558Y120326D01*
Y115248D01*
X780828Y483405D02*
X782521Y485098D01*
Y488483D01*
X780828Y490176D01*
X774057D01*
X772364Y488483D01*
Y485098D01*
X774057Y483405D01*
X772364Y480019D02*
Y476634D01*
Y478326D01*
X782521D01*
X780828Y480019D01*
Y471555D02*
X782521Y469863D01*
Y466477D01*
X780828Y464784D01*
X774057D01*
X772364Y466477D01*
Y469863D01*
X774057Y471555D01*
X780828D01*
X656405Y492672D02*
X658098Y490979D01*
X661483D01*
X663176Y492672D01*
Y499443D01*
X661483Y501136D01*
X658098D01*
X656405Y499443D01*
X653019Y501136D02*
X649634D01*
X651327D01*
Y490979D01*
X653019Y492672D01*
X644555Y501136D02*
X641170D01*
X642862D01*
Y490979D01*
X644555Y492672D01*
X716828Y483405D02*
X718521Y485098D01*
Y488483D01*
X716828Y490176D01*
X710057D01*
X708364Y488483D01*
Y485098D01*
X710057Y483405D01*
X708364Y480019D02*
Y476634D01*
Y478326D01*
X718521D01*
X716828Y480019D01*
X708364Y464784D02*
Y471555D01*
X715135Y464784D01*
X716828D01*
X718521Y466477D01*
Y469863D01*
X716828Y471555D01*
X603595Y509328D02*
X601902Y511021D01*
X598517D01*
X596824Y509328D01*
Y502557D01*
X598517Y500864D01*
X601902D01*
X603595Y502557D01*
X606981Y500864D02*
X610366D01*
X608674D01*
Y511021D01*
X606981Y509328D01*
X615445D02*
X617137Y511021D01*
X620523D01*
X622216Y509328D01*
Y507635D01*
X620523Y505942D01*
X618830D01*
X620523D01*
X622216Y504249D01*
Y502557D01*
X620523Y500864D01*
X617137D01*
X615445Y502557D01*
X323172Y157405D02*
X321479Y159098D01*
Y162483D01*
X323172Y164176D01*
X329943D01*
X331636Y162483D01*
Y159098D01*
X329943Y157405D01*
X331636Y154019D02*
Y150634D01*
Y152326D01*
X321479D01*
X323172Y154019D01*
X331636Y140477D02*
X321479D01*
X326558Y145555D01*
Y138784D01*
X269405Y463828D02*
X271098Y465521D01*
X274483D01*
X276176Y463828D01*
Y457057D01*
X274483Y455364D01*
X271098D01*
X269405Y457057D01*
X266019Y455364D02*
X262634D01*
X264326D01*
Y465521D01*
X266019Y463828D01*
X250784Y465521D02*
X257555D01*
Y460442D01*
X254170Y462135D01*
X252477D01*
X250784Y460442D01*
Y457057D01*
X252477Y455364D01*
X255863D01*
X257555Y457057D01*
X269405Y486828D02*
X271098Y488521D01*
X274483D01*
X276176Y486828D01*
Y480057D01*
X274483Y478364D01*
X271098D01*
X269405Y480057D01*
X266019Y478364D02*
X262634D01*
X264326D01*
Y488521D01*
X266019Y486828D01*
X250784Y488521D02*
X254170Y486828D01*
X257555Y483442D01*
Y480057D01*
X255863Y478364D01*
X252477D01*
X250784Y480057D01*
Y481750D01*
X252477Y483442D01*
X257555D01*
X269405Y509828D02*
X271098Y511521D01*
X274483D01*
X276176Y509828D01*
Y503057D01*
X274483Y501364D01*
X271098D01*
X269405Y503057D01*
X266019Y501364D02*
X262634D01*
X264326D01*
Y511521D01*
X266019Y509828D01*
X257555Y511521D02*
X250784D01*
Y509828D01*
X257555Y503057D01*
Y501364D01*
X55828Y460595D02*
X57521Y458902D01*
Y455517D01*
X55828Y453824D01*
X49057D01*
X47364Y455517D01*
Y458902D01*
X49057Y460595D01*
X47364Y463981D02*
Y467366D01*
Y465673D01*
X57521D01*
X55828Y463981D01*
Y472445D02*
X57521Y474137D01*
Y477523D01*
X55828Y479216D01*
X54135D01*
X52442Y477523D01*
X50750Y479216D01*
X49057D01*
X47364Y477523D01*
Y474137D01*
X49057Y472445D01*
X50750D01*
X52442Y474137D01*
X54135Y472445D01*
X55828D01*
X52442Y474137D02*
Y477523D01*
X614595Y85828D02*
X612902Y87521D01*
X609517D01*
X607824Y85828D01*
Y79057D01*
X609517Y77364D01*
X612902D01*
X614595Y79057D01*
X617981Y77364D02*
X621366D01*
X619674D01*
Y87521D01*
X617981Y85828D01*
X626445Y79057D02*
X628137Y77364D01*
X631523D01*
X633216Y79057D01*
Y85828D01*
X631523Y87521D01*
X628137D01*
X626445Y85828D01*
Y84135D01*
X628137Y82442D01*
X633216D01*
X614595Y131828D02*
X612902Y133521D01*
X609517D01*
X607824Y131828D01*
Y125057D01*
X609517Y123364D01*
X612902D01*
X614595Y125057D01*
X624752Y123364D02*
X617981D01*
X624752Y130135D01*
Y131828D01*
X623059Y133521D01*
X619674D01*
X617981Y131828D01*
X628137D02*
X629830Y133521D01*
X633216D01*
X634908Y131828D01*
Y125057D01*
X633216Y123364D01*
X629830D01*
X628137Y125057D01*
Y131828D01*
X614595Y154828D02*
X612902Y156521D01*
X609517D01*
X607824Y154828D01*
Y148057D01*
X609517Y146364D01*
X612902D01*
X614595Y148057D01*
X624752Y146364D02*
X617981D01*
X624752Y153135D01*
Y154828D01*
X623059Y156521D01*
X619674D01*
X617981Y154828D01*
X628137Y146364D02*
X631523D01*
X629830D01*
Y156521D01*
X628137Y154828D01*
X656172Y65095D02*
X654479Y63402D01*
Y60017D01*
X656172Y58324D01*
X662943D01*
X664636Y60017D01*
Y63402D01*
X662943Y65095D01*
X664636Y75252D02*
Y68481D01*
X657865Y75252D01*
X656172D01*
X654479Y73559D01*
Y70174D01*
X656172Y68481D01*
X664636Y85408D02*
Y78637D01*
X657865Y85408D01*
X656172D01*
X654479Y83716D01*
Y80330D01*
X656172Y78637D01*
X580828Y77905D02*
X582521Y79598D01*
Y82983D01*
X580828Y84676D01*
X574057D01*
X572364Y82983D01*
Y79598D01*
X574057Y77905D01*
X572364Y67748D02*
Y74519D01*
X579135Y67748D01*
X580828D01*
X582521Y69441D01*
Y72826D01*
X580828Y74519D01*
Y64363D02*
X582521Y62670D01*
Y59284D01*
X580828Y57591D01*
X579135D01*
X577442Y59284D01*
Y60977D01*
Y59284D01*
X575750Y57591D01*
X574057D01*
X572364Y59284D01*
Y62670D01*
X574057Y64363D01*
X783405Y438979D02*
X790176D01*
Y444058D01*
X786790D01*
X790176D01*
Y449136D01*
X780019Y438979D02*
Y449136D01*
X774941D01*
X773248Y447443D01*
Y445750D01*
X774941Y444058D01*
X780019D01*
X774941D01*
X773248Y442365D01*
Y440672D01*
X774941Y438979D01*
X780019D01*
X769863Y449136D02*
X766477D01*
X768170D01*
Y438979D01*
X769863Y440672D01*
X614595Y110521D02*
X607824D01*
Y105442D01*
X611209D01*
X607824D01*
Y100364D01*
X617981Y110521D02*
Y100364D01*
X623059D01*
X624752Y102057D01*
Y103750D01*
X623059Y105442D01*
X617981D01*
X623059D01*
X624752Y107135D01*
Y108828D01*
X623059Y110521D01*
X617981D01*
X634909Y100364D02*
X628137D01*
X634909Y107135D01*
Y108828D01*
X633216Y110521D01*
X629830D01*
X628137Y108828D01*
D119*
X161922Y89382D02*
Y79225D01*
X156844D01*
X155151Y80918D01*
Y84304D01*
X156844Y85996D01*
X161922D01*
X158536D02*
X155151Y89382D01*
X144994D02*
X151765D01*
X144994Y82611D01*
Y80918D01*
X146687Y79225D01*
X150072D01*
X151765Y80918D01*
X141608D02*
X139916Y79225D01*
X136530D01*
X134837Y80918D01*
Y82611D01*
X136530Y84304D01*
X134837Y85996D01*
Y87689D01*
X136530Y89382D01*
X139916D01*
X141608Y87689D01*
Y85996D01*
X139916Y84304D01*
X141608Y82611D01*
Y80918D01*
X139916Y84304D02*
X136530D01*
X218922Y112382D02*
Y102225D01*
X213844D01*
X212151Y103918D01*
Y107304D01*
X213844Y108996D01*
X218922D01*
X215536D02*
X212151Y112382D01*
X201994D02*
X208765D01*
X201994Y105611D01*
Y103918D01*
X203687Y102225D01*
X207073D01*
X208765Y103918D01*
X198608Y102225D02*
X191837D01*
Y103918D01*
X198608Y110689D01*
Y112382D01*
X161922D02*
Y102225D01*
X156844D01*
X155151Y103918D01*
Y107304D01*
X156844Y108996D01*
X161922D01*
X158536D02*
X155151Y112382D01*
X144994D02*
X151765D01*
X144994Y105611D01*
Y103918D01*
X146687Y102225D01*
X150072D01*
X151765Y103918D01*
X136530Y112382D02*
Y102225D01*
X141608Y107304D01*
X134837D01*
X441618Y65578D02*
X451775D01*
Y70656D01*
X450082Y72349D01*
X446696D01*
X445004Y70656D01*
Y65578D01*
Y68964D02*
X441618Y72349D01*
X450082Y75735D02*
X451775Y77428D01*
Y80813D01*
X450082Y82506D01*
X448389D01*
X446696Y80813D01*
X445004Y82506D01*
X443311D01*
X441618Y80813D01*
Y77428D01*
X443311Y75735D01*
X445004D01*
X446696Y77428D01*
X448389Y75735D01*
X450082D01*
X446696Y77428D02*
Y80813D01*
X483422Y486382D02*
Y476225D01*
X478344D01*
X476651Y477918D01*
Y481304D01*
X478344Y482996D01*
X483422D01*
X480036D02*
X476651Y486382D01*
X466494D02*
X473265D01*
X466494Y479611D01*
Y477918D01*
X468187Y476225D01*
X471572D01*
X473265Y477918D01*
X463108D02*
X461416Y476225D01*
X458030D01*
X456337Y477918D01*
Y479611D01*
X458030Y481304D01*
X459723D01*
X458030D01*
X456337Y482996D01*
Y484689D01*
X458030Y486382D01*
X461416D01*
X463108Y484689D01*
X501922Y525382D02*
Y515225D01*
X496844D01*
X495151Y516918D01*
Y520304D01*
X496844Y521996D01*
X501922D01*
X498536D02*
X495151Y525382D01*
X484994D02*
X491765D01*
X484994Y518611D01*
Y516918D01*
X486687Y515225D01*
X490073D01*
X491765Y516918D01*
X474837Y515225D02*
X478223Y516918D01*
X481609Y520304D01*
Y523689D01*
X479916Y525382D01*
X476530D01*
X474837Y523689D01*
Y521996D01*
X476530Y520304D01*
X481609D01*
X520922Y486382D02*
Y476225D01*
X515844D01*
X514151Y477918D01*
Y481304D01*
X515844Y482996D01*
X520922D01*
X517536D02*
X514151Y486382D01*
X503994D02*
X510765D01*
X503994Y479611D01*
Y477918D01*
X505687Y476225D01*
X509072D01*
X510765Y477918D01*
X493837Y476225D02*
X500608D01*
Y481304D01*
X497223Y479611D01*
X495530D01*
X493837Y481304D01*
Y484689D01*
X495530Y486382D01*
X498916D01*
X500608Y484689D01*
X165382Y460578D02*
X155225D01*
Y465656D01*
X156918Y467349D01*
X160304D01*
X161996Y465656D01*
Y460578D01*
Y463964D02*
X165382Y467349D01*
X156918Y470735D02*
X155225Y472427D01*
Y475813D01*
X156918Y477506D01*
X158611D01*
X160304Y475813D01*
Y474120D01*
Y475813D01*
X161996Y477506D01*
X163689D01*
X165382Y475813D01*
Y472427D01*
X163689Y470735D01*
X156918Y480891D02*
X155225Y482584D01*
Y485970D01*
X156918Y487663D01*
X163689D01*
X165382Y485970D01*
Y482584D01*
X163689Y480891D01*
X156918D01*
X140382Y460578D02*
X130225D01*
Y465656D01*
X131918Y467349D01*
X135304D01*
X136996Y465656D01*
Y460578D01*
Y463964D02*
X140382Y467349D01*
Y477506D02*
Y470735D01*
X133611Y477506D01*
X131918D01*
X130225Y475813D01*
Y472427D01*
X131918Y470735D01*
X138689Y480891D02*
X140382Y482584D01*
Y485970D01*
X138689Y487663D01*
X131918D01*
X130225Y485970D01*
Y482584D01*
X131918Y480891D01*
X133611D01*
X135304Y482584D01*
Y487663D01*
X249922Y517382D02*
Y507225D01*
X244844D01*
X243151Y508918D01*
Y512304D01*
X244844Y513997D01*
X249922D01*
X246536D02*
X243151Y517382D01*
X239765Y508918D02*
X238072Y507225D01*
X234687D01*
X232994Y508918D01*
Y510611D01*
X234687Y512304D01*
X236380D01*
X234687D01*
X232994Y513997D01*
Y515689D01*
X234687Y517382D01*
X238072D01*
X239765Y515689D01*
X222837Y517382D02*
X229608D01*
X222837Y510611D01*
Y508918D01*
X224530Y507225D01*
X227916D01*
X229608Y508918D01*
X249922Y480382D02*
Y470225D01*
X244844D01*
X243151Y471918D01*
Y475304D01*
X244844Y476996D01*
X249922D01*
X246536D02*
X243151Y480382D01*
X239765Y471918D02*
X238072Y470225D01*
X234687D01*
X232994Y471918D01*
Y473611D01*
X234687Y475304D01*
X236380D01*
X234687D01*
X232994Y476996D01*
Y478689D01*
X234687Y480382D01*
X238072D01*
X239765Y478689D01*
X229608Y480382D02*
X226223D01*
X227916D01*
Y470225D01*
X229608Y471918D01*
X649849Y198082D02*
X648156Y199775D01*
X644771D01*
X643078Y198082D01*
Y191311D01*
X644771Y189618D01*
X648156D01*
X649849Y191311D01*
Y194696D01*
X646464D01*
X653235Y189618D02*
X656620D01*
X654928D01*
Y199775D01*
X653235Y198082D01*
X649849Y179082D02*
X648156Y180775D01*
X644771D01*
X643078Y179082D01*
Y172311D01*
X644771Y170618D01*
X648156D01*
X649849Y172311D01*
Y175696D01*
X646464D01*
X660006Y170618D02*
X653235D01*
X660006Y177389D01*
Y179082D01*
X658313Y180775D01*
X654928D01*
X653235Y179082D01*
X784151Y511918D02*
X785844Y510225D01*
X789229D01*
X790922Y511918D01*
Y518689D01*
X789229Y520382D01*
X785844D01*
X784151Y518689D01*
Y515304D01*
X787536D01*
X780765Y511918D02*
X779072Y510225D01*
X775687D01*
X773994Y511918D01*
Y513611D01*
X775687Y515304D01*
X777380D01*
X775687D01*
X773994Y516996D01*
Y518689D01*
X775687Y520382D01*
X779072D01*
X780765Y518689D01*
X589382Y101578D02*
X579225D01*
Y106656D01*
X580918Y108349D01*
X584304D01*
X585996Y106656D01*
Y101578D01*
Y104964D02*
X589382Y108349D01*
Y111735D02*
Y115120D01*
Y113427D01*
X579225D01*
X580918Y111735D01*
X803618Y524422D02*
X813775D01*
Y519344D01*
X812082Y517651D01*
X808696D01*
X807004Y519344D01*
Y524422D01*
Y521036D02*
X803618Y517651D01*
Y507494D02*
Y514265D01*
X810389Y507494D01*
X812082D01*
X813775Y509187D01*
Y512573D01*
X812082Y514265D01*
X321618Y155922D02*
X331775D01*
Y150844D01*
X330082Y149151D01*
X326696D01*
X325004Y150844D01*
Y155922D01*
Y152536D02*
X321618Y149151D01*
X330082Y145765D02*
X331775Y144073D01*
Y140687D01*
X330082Y138994D01*
X328389D01*
X326696Y140687D01*
Y142380D01*
Y140687D01*
X325004Y138994D01*
X323311D01*
X321618Y140687D01*
Y144073D01*
X323311Y145765D01*
X359578Y155618D02*
Y165775D01*
X364656D01*
X366349Y164082D01*
Y160696D01*
X364656Y159004D01*
X359578D01*
X362963D02*
X366349Y155618D01*
X374813D02*
Y165775D01*
X369735Y160696D01*
X376506D01*
X477578Y157618D02*
Y167775D01*
X482656D01*
X484349Y166082D01*
Y162696D01*
X482656Y161004D01*
X477578D01*
X480964D02*
X484349Y157618D01*
X494506Y167775D02*
X487735D01*
Y162696D01*
X491120Y164389D01*
X492813D01*
X494506Y162696D01*
Y159311D01*
X492813Y157618D01*
X489427D01*
X487735Y159311D01*
X320458Y63078D02*
X330615D01*
Y68156D01*
X328922Y69849D01*
X325536D01*
X323844Y68156D01*
Y63078D01*
Y66464D02*
X320458Y69849D01*
X330615Y80006D02*
X328922Y76620D01*
X325536Y73235D01*
X322151D01*
X320458Y74928D01*
Y78313D01*
X322151Y80006D01*
X323844D01*
X325536Y78313D01*
Y73235D01*
X297458Y63078D02*
X307615D01*
Y68156D01*
X305922Y69849D01*
X302536D01*
X300844Y68156D01*
Y63078D01*
Y66464D02*
X297458Y69849D01*
X307615Y73235D02*
Y80006D01*
X305922D01*
X299151Y73235D01*
X297458D01*
X689078Y502618D02*
Y512775D01*
X694156D01*
X695849Y511082D01*
Y507696D01*
X694156Y506003D01*
X689078D01*
X692464D02*
X695849Y502618D01*
X699235Y504311D02*
X700927Y502618D01*
X704313D01*
X706006Y504311D01*
Y511082D01*
X704313Y512775D01*
X700927D01*
X699235Y511082D01*
Y509389D01*
X700927Y507696D01*
X706006D01*
X662422Y477882D02*
Y467725D01*
X657344D01*
X655651Y469418D01*
Y472804D01*
X657344Y474496D01*
X662422D01*
X659036D02*
X655651Y477882D01*
X652265D02*
X648880D01*
X650573D01*
Y467725D01*
X652265Y469418D01*
X643801D02*
X642109Y467725D01*
X638723D01*
X637030Y469418D01*
Y476189D01*
X638723Y477882D01*
X642109D01*
X643801Y476189D01*
Y469418D01*
X619422Y453882D02*
Y443725D01*
X614344D01*
X612651Y445418D01*
Y448804D01*
X614344Y450496D01*
X619422D01*
X616036D02*
X612651Y453882D01*
X609265D02*
X605880D01*
X607573D01*
Y443725D01*
X609265Y445418D01*
X600801Y453882D02*
X597416D01*
X599109D01*
Y443725D01*
X600801Y445418D01*
X684618Y489922D02*
X694775D01*
Y484844D01*
X693082Y483151D01*
X689696D01*
X688003Y484844D01*
Y489922D01*
Y486536D02*
X684618Y483151D01*
Y479765D02*
Y476380D01*
Y478072D01*
X694775D01*
X693082Y479765D01*
X684618Y464530D02*
Y471301D01*
X691389Y464530D01*
X693082D01*
X694775Y466223D01*
Y469608D01*
X693082Y471301D01*
X662422Y453882D02*
Y443725D01*
X657344D01*
X655651Y445418D01*
Y448804D01*
X657344Y450496D01*
X662422D01*
X659036D02*
X655651Y453882D01*
X652265D02*
X648880D01*
X650573D01*
Y443725D01*
X652265Y445418D01*
X643801D02*
X642109Y443725D01*
X638723D01*
X637030Y445418D01*
Y447111D01*
X638723Y448804D01*
X640416D01*
X638723D01*
X637030Y450496D01*
Y452189D01*
X638723Y453882D01*
X642109D01*
X643801Y452189D01*
X356078Y135382D02*
Y125225D01*
X361156D01*
X362849Y126918D01*
Y130304D01*
X361156Y131996D01*
X356078D01*
X359464D02*
X362849Y135382D01*
X366235D02*
X369620D01*
X367928D01*
Y125225D01*
X366235Y126918D01*
X379777Y135382D02*
Y125225D01*
X374699Y130304D01*
X381470D01*
X423922Y157618D02*
Y167775D01*
X418844D01*
X417151Y166082D01*
Y162696D01*
X418844Y161004D01*
X423922D01*
X420536D02*
X417151Y157618D01*
X413765D02*
X410380D01*
X412072D01*
Y167775D01*
X413765Y166082D01*
X398530Y167775D02*
X405301D01*
Y162696D01*
X401916Y164389D01*
X400223D01*
X398530Y162696D01*
Y159311D01*
X400223Y157618D01*
X403609D01*
X405301Y159311D01*
X813382Y144078D02*
X803225D01*
Y149156D01*
X804918Y150849D01*
X808304D01*
X809996Y149156D01*
Y144078D01*
Y147464D02*
X813382Y150849D01*
Y154235D02*
Y157620D01*
Y155927D01*
X803225D01*
X804918Y154235D01*
X803225Y169470D02*
X804918Y166084D01*
X808304Y162699D01*
X811689D01*
X813382Y164391D01*
Y167777D01*
X811689Y169470D01*
X809996D01*
X808304Y167777D01*
Y162699D01*
X836382Y144078D02*
X826225D01*
Y149156D01*
X827918Y150849D01*
X831304D01*
X832996Y149156D01*
Y144078D01*
Y147464D02*
X836382Y150849D01*
Y154235D02*
Y157620D01*
Y155927D01*
X826225D01*
X827918Y154235D01*
X826225Y162699D02*
Y169470D01*
X827918D01*
X834689Y162699D01*
X836382D01*
X629422Y70382D02*
Y60225D01*
X624344D01*
X622651Y61918D01*
Y65304D01*
X624344Y66996D01*
X629422D01*
X626036D02*
X622651Y70382D01*
X619265D02*
X615880D01*
X617573D01*
Y60225D01*
X619265Y61918D01*
X610801D02*
X609109Y60225D01*
X605723D01*
X604030Y61918D01*
Y63611D01*
X605723Y65304D01*
X604030Y66996D01*
Y68689D01*
X605723Y70382D01*
X609109D01*
X610801Y68689D01*
Y66996D01*
X609109Y65304D01*
X610801Y63611D01*
Y61918D01*
X609109Y65304D02*
X605723D01*
X748382Y109078D02*
X738225D01*
Y114156D01*
X739918Y115849D01*
X743304D01*
X744996Y114156D01*
Y109078D01*
Y112464D02*
X748382Y115849D01*
Y119235D02*
Y122620D01*
Y120927D01*
X738225D01*
X739918Y119235D01*
X746689Y127699D02*
X748382Y129391D01*
Y132777D01*
X746689Y134470D01*
X739918D01*
X738225Y132777D01*
Y129391D01*
X739918Y127699D01*
X741611D01*
X743304Y129391D01*
Y134470D01*
X771382Y109078D02*
X761225D01*
Y114156D01*
X762918Y115849D01*
X766304D01*
X767996Y114156D01*
Y109078D01*
Y112464D02*
X771382Y115849D01*
Y126006D02*
Y119235D01*
X764611Y126006D01*
X762918D01*
X761225Y124313D01*
Y120927D01*
X762918Y119235D01*
Y129391D02*
X761225Y131084D01*
Y134470D01*
X762918Y136163D01*
X769689D01*
X771382Y134470D01*
Y131084D01*
X769689Y129391D01*
X762918D01*
X811618Y78422D02*
X821775D01*
Y73344D01*
X820082Y71651D01*
X816696D01*
X815004Y73344D01*
Y78422D01*
Y75037D02*
X811618Y71651D01*
Y61494D02*
Y68265D01*
X818389Y61494D01*
X820082D01*
X821775Y63187D01*
Y66572D01*
X820082Y68265D01*
X811618Y58109D02*
Y54723D01*
Y56416D01*
X821775D01*
X820082Y58109D01*
X664382Y96078D02*
X654225D01*
Y101156D01*
X655918Y102849D01*
X659304D01*
X660996Y101156D01*
Y96078D01*
Y99464D02*
X664382Y102849D01*
Y113006D02*
Y106235D01*
X657611Y113006D01*
X655918D01*
X654225Y111313D01*
Y107928D01*
X655918Y106235D01*
X664382Y123162D02*
Y116391D01*
X657611Y123162D01*
X655918D01*
X654225Y121470D01*
Y118084D01*
X655918Y116391D01*
D120*
X802397Y124100D02*
Y117436D01*
X800731D01*
X794066Y124100D01*
X792400D01*
Y117436D01*
Y114103D02*
Y110771D01*
Y112437D01*
X802397D01*
X800731Y114103D01*
X732397Y124600D02*
Y117935D01*
X730731D01*
X724066Y124600D01*
X722400D01*
Y117935D01*
Y107939D02*
Y114603D01*
X729064Y107939D01*
X730731D01*
X732397Y109605D01*
Y112937D01*
X730731Y114603D01*
M02*
