G04*
G04 #@! TF.GenerationSoftware,Altium Limited,Altium Designer,22.0.2 (36)*
G04*
G04 Layer_Color=7674933*
%FSLAX44Y44*%
%MOMM*%
G71*
G04*
G04 #@! TF.SameCoordinates,5265F303-A955-4834-83B4-5BE1E65ADB8C*
G04*
G04*
G04 #@! TF.FilePolarity,Negative*
G04*
G01*
G75*
%ADD20O,2.3000X0.6000*%
%ADD35R,1.5000X0.9000*%
%ADD55R,0.9000X1.5000*%
%ADD56R,1.1000X1.5000*%
%ADD64R,1.5000X1.1000*%
%ADD65R,1.0000X1.0000*%
%ADD82R,0.5000X1.1900*%
G04:AMPARAMS|DCode=85|XSize=2.1mm|YSize=1.3mm|CornerRadius=0.41mm|HoleSize=0mm|Usage=FLASHONLY|Rotation=90.000|XOffset=0mm|YOffset=0mm|HoleType=Round|Shape=RoundedRectangle|*
%AMROUNDEDRECTD85*
21,1,2.1000,0.4800,0,0,90.0*
21,1,1.2800,1.3000,0,0,90.0*
1,1,0.8200,0.2400,0.6400*
1,1,0.8200,0.2400,-0.6400*
1,1,0.8200,-0.2400,-0.6400*
1,1,0.8200,-0.2400,0.6400*
%
%ADD85ROUNDEDRECTD85*%
%ADD86C,2.1000*%
%ADD87R,2.1000X2.1000*%
%ADD88C,0.8000*%
%ADD111R,3.2000X4.2000*%
%ADD112R,1.4000X0.7500*%
%ADD113R,2.0900X0.7200*%
%ADD114R,2.5330X3.4220*%
%ADD115R,1.6000X1.1500*%
%ADD116R,1.1500X1.4000*%
%ADD117R,1.0000X1.1000*%
G36*
X42000Y518500D02*
Y245500D01*
X10000D01*
Y518500D01*
X42000D01*
D02*
G37*
D20*
X24000Y264000D02*
D03*
Y272000D02*
D03*
Y280000D02*
D03*
Y288000D02*
D03*
Y296000D02*
D03*
Y304000D02*
D03*
Y312000D02*
D03*
Y320000D02*
D03*
Y328000D02*
D03*
Y336000D02*
D03*
Y344000D02*
D03*
Y352000D02*
D03*
Y360000D02*
D03*
Y368000D02*
D03*
Y376000D02*
D03*
Y384000D02*
D03*
Y392000D02*
D03*
Y400000D02*
D03*
Y440000D02*
D03*
Y448000D02*
D03*
Y456000D02*
D03*
Y464000D02*
D03*
Y472000D02*
D03*
Y480000D02*
D03*
Y488000D02*
D03*
Y496000D02*
D03*
D35*
X450000Y86000D02*
D03*
Y67000D02*
D03*
X328840Y64500D02*
D03*
Y83500D02*
D03*
X305840Y64500D02*
D03*
Y83500D02*
D03*
D55*
X357500Y127000D02*
D03*
X376500D02*
D03*
X422500Y166000D02*
D03*
X403500D02*
D03*
D56*
X274500Y464000D02*
D03*
X255500D02*
D03*
X274500Y487000D02*
D03*
X255500D02*
D03*
X274500Y510000D02*
D03*
X255500D02*
D03*
D64*
X467000Y130500D02*
D03*
Y111500D02*
D03*
X323000Y162500D02*
D03*
Y143500D02*
D03*
X56000Y455500D02*
D03*
Y474500D02*
D03*
D65*
X308840Y119500D02*
D03*
Y103500D02*
D03*
X325840Y119500D02*
D03*
Y103500D02*
D03*
D82*
X271500Y438200D02*
D03*
X265000D02*
D03*
X258500D02*
D03*
Y419800D02*
D03*
X265000D02*
D03*
X271500D02*
D03*
D85*
X788000Y64000D02*
D03*
X722000D02*
D03*
D86*
X204500Y276500D02*
D03*
X159500D02*
D03*
Y341500D02*
D03*
D87*
X204500D02*
D03*
D88*
X426000Y247000D02*
D03*
X684000Y135000D02*
D03*
X750000Y144000D02*
D03*
X677832Y389761D02*
D03*
X688239Y391168D02*
D03*
X667000Y390000D02*
D03*
X655000D02*
D03*
X641000D02*
D03*
X629000D02*
D03*
X672000Y169000D02*
D03*
Y199000D02*
D03*
X744000Y174000D02*
D03*
Y184000D02*
D03*
X575000Y364000D02*
D03*
X480000Y504000D02*
D03*
X459000Y491000D02*
D03*
X470000D02*
D03*
X482000D02*
D03*
X669000Y98000D02*
D03*
X636000Y182000D02*
D03*
X669000Y60000D02*
D03*
X528000Y182000D02*
D03*
X143000Y68000D02*
D03*
X575000Y525000D02*
D03*
X560000Y500000D02*
D03*
X535000D02*
D03*
X120000Y280000D02*
D03*
X80000D02*
D03*
X285000Y235000D02*
D03*
Y210000D02*
D03*
Y185000D02*
D03*
Y160000D02*
D03*
Y135000D02*
D03*
Y110000D02*
D03*
Y85000D02*
D03*
X260000D02*
D03*
X235000Y60000D02*
D03*
X170000Y135000D02*
D03*
X60000D02*
D03*
X110000D02*
D03*
X85000D02*
D03*
X210000Y60000D02*
D03*
X185000D02*
D03*
X160000Y59000D02*
D03*
X135000D02*
D03*
X110000Y60000D02*
D03*
X85000D02*
D03*
X60000Y65000D02*
D03*
Y90000D02*
D03*
Y115000D02*
D03*
X85000D02*
D03*
X110000D02*
D03*
X504000Y530000D02*
D03*
X492000D02*
D03*
X481000D02*
D03*
X469000Y528000D02*
D03*
X511000Y501000D02*
D03*
Y489000D02*
D03*
X468000Y508000D02*
D03*
X490000Y496000D02*
D03*
X448000Y488000D02*
D03*
X437000D02*
D03*
X426000D02*
D03*
X418000Y496000D02*
D03*
X410000Y504000D02*
D03*
X401000Y481000D02*
D03*
X409000Y473000D02*
D03*
X421000Y468000D02*
D03*
X432000D02*
D03*
X443000D02*
D03*
X454000Y465000D02*
D03*
X465000D02*
D03*
X476000D02*
D03*
X487000D02*
D03*
X498000D02*
D03*
X509000Y464000D02*
D03*
X526000Y447000D02*
D03*
X171000Y82000D02*
D03*
X169000Y69000D02*
D03*
X156000Y68000D02*
D03*
X131000Y71000D02*
D03*
X121000D02*
D03*
X109000D02*
D03*
Y91000D02*
D03*
X121000D02*
D03*
X131000Y94000D02*
D03*
Y105000D02*
D03*
Y115000D02*
D03*
Y125000D02*
D03*
Y135000D02*
D03*
X129000Y146000D02*
D03*
X153000Y125000D02*
D03*
Y135000D02*
D03*
X155000Y146000D02*
D03*
X181000Y114000D02*
D03*
X191000D02*
D03*
X171000D02*
D03*
Y94000D02*
D03*
X181000D02*
D03*
X191490Y93840D02*
D03*
X229000Y95000D02*
D03*
X240000Y99000D02*
D03*
X248000Y107000D02*
D03*
X256000Y115000D02*
D03*
X264000Y123000D02*
D03*
X266000Y133000D02*
D03*
Y143000D02*
D03*
Y153000D02*
D03*
Y164000D02*
D03*
Y174000D02*
D03*
Y184000D02*
D03*
Y194000D02*
D03*
Y204000D02*
D03*
Y214000D02*
D03*
Y224000D02*
D03*
X270000Y234000D02*
D03*
X278000Y242000D02*
D03*
X286000Y250000D02*
D03*
X233000Y122000D02*
D03*
X240000Y129000D02*
D03*
X246000Y137000D02*
D03*
Y147000D02*
D03*
Y157000D02*
D03*
Y167000D02*
D03*
Y177000D02*
D03*
Y187000D02*
D03*
Y197000D02*
D03*
Y207000D02*
D03*
Y217000D02*
D03*
Y227000D02*
D03*
Y237000D02*
D03*
X251000Y245000D02*
D03*
X259000Y253000D02*
D03*
X267000Y261000D02*
D03*
X275000Y269000D02*
D03*
X285000Y272000D02*
D03*
X304000Y150000D02*
D03*
Y161000D02*
D03*
X575000Y203000D02*
D03*
Y195000D02*
D03*
Y247000D02*
D03*
Y240000D02*
D03*
Y330000D02*
D03*
X330000Y47000D02*
D03*
X60000Y236000D02*
D03*
Y386000D02*
D03*
Y228000D02*
D03*
Y378000D02*
D03*
X628000Y488000D02*
D03*
X621000Y485000D02*
D03*
X701000Y116000D02*
D03*
X494000Y247000D02*
D03*
X506000D02*
D03*
X500000Y254000D02*
D03*
Y247000D02*
D03*
Y345000D02*
D03*
X485000Y357000D02*
D03*
X605000Y260000D02*
D03*
X729000Y264000D02*
D03*
Y272000D02*
D03*
X666000Y255000D02*
D03*
X678150Y254850D02*
D03*
X704000Y255000D02*
D03*
X752000Y263000D02*
D03*
X761000Y258000D02*
D03*
X615000Y391000D02*
D03*
X692000Y458000D02*
D03*
X619000Y97000D02*
D03*
X794000Y189000D02*
D03*
X258522Y407748D02*
D03*
X438000Y101000D02*
D03*
X452000Y125000D02*
D03*
X439000Y146000D02*
D03*
X821000Y204000D02*
D03*
X638000Y79000D02*
D03*
X747000Y371000D02*
D03*
X738000Y382000D02*
D03*
X346000Y456000D02*
D03*
X266000Y464000D02*
D03*
X265000Y487000D02*
D03*
Y511000D02*
D03*
X320000Y242000D02*
D03*
X319000Y282000D02*
D03*
X726000Y461000D02*
D03*
X173500Y518500D02*
D03*
X746000Y451500D02*
D03*
X802000Y455000D02*
D03*
X788000Y499000D02*
D03*
X768000Y77875D02*
D03*
X782000Y135000D02*
D03*
X356000Y218000D02*
D03*
X564000Y84000D02*
D03*
X609500Y143500D02*
D03*
X581000Y468000D02*
D03*
X617500Y525500D02*
D03*
X429000Y518000D02*
D03*
X549000Y517000D02*
D03*
X558000Y403000D02*
D03*
X556000Y460000D02*
D03*
X496000Y428000D02*
D03*
X456000D02*
D03*
X183000Y365000D02*
D03*
X290000Y382000D02*
D03*
X291000Y402000D02*
D03*
X344290Y101050D02*
D03*
X433000Y63000D02*
D03*
X698000Y135000D02*
D03*
X724000Y152000D02*
D03*
X598000Y103000D02*
D03*
X816500Y164500D02*
D03*
X153000Y532000D02*
D03*
X643000Y508000D02*
D03*
X799500Y518500D02*
D03*
X720067Y511000D02*
D03*
X561000Y103000D02*
D03*
X482000Y184000D02*
D03*
X386000Y221000D02*
D03*
X581000Y134000D02*
D03*
X590000Y233000D02*
D03*
X520000Y202000D02*
D03*
X484624Y229000D02*
D03*
X471000Y381000D02*
D03*
X470000Y361000D02*
D03*
X501000Y372000D02*
D03*
X778000Y198000D02*
D03*
X770000D02*
D03*
X656000Y126000D02*
D03*
X729000Y248000D02*
D03*
X718000D02*
D03*
X655000Y211000D02*
D03*
X662000Y426000D02*
D03*
X762000Y198000D02*
D03*
D111*
X609000Y355000D02*
D03*
X529000D02*
D03*
D112*
X379000Y168500D02*
D03*
Y159000D02*
D03*
Y149500D02*
D03*
X353000D02*
D03*
Y168500D02*
D03*
Y159000D02*
D03*
X426000Y140500D02*
D03*
Y131000D02*
D03*
Y121500D02*
D03*
X400000D02*
D03*
Y140500D02*
D03*
Y131000D02*
D03*
D113*
X414750Y101050D02*
D03*
Y88350D02*
D03*
Y75650D02*
D03*
Y62950D02*
D03*
X365250D02*
D03*
Y75650D02*
D03*
Y88350D02*
D03*
Y101050D02*
D03*
D114*
X390000Y82000D02*
D03*
D115*
X94300Y404400D02*
D03*
Y529600D02*
D03*
D116*
X227400Y412750D02*
D03*
Y521250D02*
D03*
D117*
X225100Y441300D02*
D03*
Y453700D02*
D03*
Y479100D02*
D03*
X75700Y441300D02*
D03*
Y453700D02*
D03*
Y479100D02*
D03*
M02*
