G04*
G04 #@! TF.GenerationSoftware,Altium Limited,Altium Designer,22.0.2 (36)*
G04*
G04 Layer_Color=65535*
%FSLAX44Y44*%
%MOMM*%
G71*
G04*
G04 #@! TF.SameCoordinates,5265F303-A955-4834-83B4-5BE1E65ADB8C*
G04*
G04*
G04 #@! TF.FilePolarity,Positive*
G04*
G01*
G75*
%ADD10C,0.2000*%
%ADD11C,0.1500*%
%ADD12C,0.3000*%
%ADD13C,0.1000*%
%ADD14C,0.1270*%
%ADD15C,1.0000*%
%ADD16C,0.4000*%
%ADD17C,0.2540*%
G36*
X181765Y227673D02*
X182080D01*
Y227568D01*
X182185D01*
Y227463D01*
X182080D01*
Y227358D01*
X182185D01*
Y227253D01*
X182290D01*
Y227148D01*
X182395D01*
Y227043D01*
X182500D01*
Y226938D01*
Y226833D01*
Y226728D01*
X182605D01*
Y226623D01*
X182710D01*
Y226519D01*
X182815D01*
Y226414D01*
X182710D01*
Y226309D01*
X182815D01*
Y226204D01*
X182920D01*
Y226099D01*
X183025D01*
Y225994D01*
Y225889D01*
Y225784D01*
X183130D01*
Y225679D01*
X183235D01*
Y225574D01*
Y225469D01*
X183339D01*
Y225364D01*
Y225259D01*
X183444D01*
Y225154D01*
X183549D01*
Y225049D01*
X183654D01*
Y224944D01*
Y224840D01*
Y224735D01*
X183759D01*
Y224630D01*
X183864D01*
Y224525D01*
Y224420D01*
X183969D01*
Y224315D01*
Y224210D01*
X184074D01*
Y224105D01*
X184179D01*
Y224000D01*
X184284D01*
Y223895D01*
X184179D01*
Y223790D01*
X184284D01*
Y223685D01*
X184389D01*
Y223580D01*
X184494D01*
Y223475D01*
X184389D01*
Y223370D01*
X184599D01*
Y223265D01*
Y223160D01*
X184704D01*
Y223056D01*
X184809D01*
Y222951D01*
X184914D01*
Y222846D01*
X184809D01*
Y222741D01*
X184914D01*
Y222636D01*
X185018D01*
Y222531D01*
X185123D01*
Y222426D01*
X185018D01*
Y222321D01*
X185123D01*
Y222216D01*
X185228D01*
Y222111D01*
X185333D01*
Y222006D01*
Y221901D01*
Y221796D01*
X185438D01*
Y221691D01*
X185543D01*
Y221586D01*
X185648D01*
Y221481D01*
Y221377D01*
Y221272D01*
X185753D01*
Y221167D01*
X185858D01*
Y221062D01*
X185963D01*
Y220957D01*
Y220852D01*
Y220747D01*
X186068D01*
Y220642D01*
X186173D01*
Y220537D01*
Y220432D01*
X186278D01*
Y220327D01*
Y220222D01*
X186383D01*
Y220117D01*
X186488D01*
Y220012D01*
X186593D01*
Y219907D01*
X186488D01*
Y219802D01*
X186593D01*
Y219698D01*
X186697D01*
Y219593D01*
X186802D01*
Y219488D01*
Y219383D01*
X186907D01*
Y219278D01*
Y219173D01*
X187012D01*
Y219068D01*
X187117D01*
Y218963D01*
X187222D01*
Y218858D01*
X187117D01*
Y218753D01*
X187222D01*
Y218648D01*
X187327D01*
Y218543D01*
X187432D01*
Y218438D01*
X187327D01*
Y218333D01*
X187432D01*
Y218228D01*
X187537D01*
Y218123D01*
X187642D01*
Y218018D01*
Y217914D01*
X187852D01*
Y217809D01*
X187747D01*
Y217704D01*
X187852D01*
Y217599D01*
X187957D01*
Y217494D01*
X188062D01*
Y217389D01*
X187957D01*
Y217284D01*
X188062D01*
Y217179D01*
X188167D01*
Y217074D01*
X188272D01*
Y216969D01*
Y216864D01*
Y216759D01*
X188377D01*
Y216654D01*
X188481D01*
Y216549D01*
Y216444D01*
X188586D01*
Y216339D01*
Y216235D01*
X188691D01*
Y216130D01*
X188796D01*
Y216025D01*
X188901D01*
Y215920D01*
X188796D01*
Y215815D01*
X188901D01*
Y215710D01*
X189006D01*
Y215605D01*
X189111D01*
Y215500D01*
X189006D01*
Y215395D01*
X189216D01*
Y215290D01*
Y215185D01*
X189321D01*
Y215080D01*
X189426D01*
Y214975D01*
X189531D01*
Y214870D01*
X189426D01*
Y214765D01*
X189531D01*
Y214660D01*
X189636D01*
Y214556D01*
X189741D01*
Y214451D01*
X189636D01*
Y214346D01*
X189741D01*
Y214241D01*
X189846D01*
Y214136D01*
X189951D01*
Y214031D01*
X190056D01*
Y213926D01*
Y213821D01*
Y213716D01*
X190160D01*
Y213611D01*
X190265D01*
Y213506D01*
X190370D01*
Y213401D01*
X190265D01*
Y213296D01*
X190370D01*
Y213191D01*
X190475D01*
Y213086D01*
X190580D01*
Y212981D01*
Y212877D01*
Y212772D01*
X190685D01*
Y212667D01*
X190790D01*
Y212562D01*
X190895D01*
Y212457D01*
Y212352D01*
Y212247D01*
X191000D01*
Y212142D01*
X191105D01*
Y212037D01*
X191210D01*
Y211932D01*
Y211827D01*
Y211722D01*
X191315D01*
Y211617D01*
X191420D01*
Y211512D01*
Y211407D01*
X191525D01*
Y211303D01*
Y211197D01*
X191630D01*
Y211093D01*
X191735D01*
Y210988D01*
X191839D01*
Y210883D01*
X191735D01*
Y210778D01*
X191839D01*
Y210673D01*
X191944D01*
Y210568D01*
X192049D01*
Y210463D01*
X191944D01*
Y210358D01*
X192154D01*
Y210253D01*
Y210148D01*
X192259D01*
Y210043D01*
X192364D01*
Y209938D01*
X192469D01*
Y209833D01*
X192364D01*
Y209728D01*
X192469D01*
Y209624D01*
X192574D01*
Y209519D01*
X192679D01*
Y209414D01*
X192574D01*
Y209309D01*
X192679D01*
Y209204D01*
X192784D01*
Y209099D01*
X192889D01*
Y208994D01*
Y208889D01*
X192994D01*
Y208784D01*
Y208679D01*
X193099D01*
Y208574D01*
X193204D01*
Y208469D01*
X193309D01*
Y208364D01*
X193204D01*
Y208259D01*
X193309D01*
Y208154D01*
X193414D01*
Y208049D01*
X193519D01*
Y207944D01*
Y207840D01*
Y207735D01*
X193623D01*
Y207630D01*
X193728D01*
Y207525D01*
Y207420D01*
X193833D01*
Y207315D01*
Y207210D01*
X193938D01*
Y207105D01*
X194043D01*
Y207000D01*
X194148D01*
Y206895D01*
Y206790D01*
Y206685D01*
X194253D01*
Y206580D01*
X194358D01*
Y206475D01*
Y206370D01*
X194463D01*
Y206265D01*
Y206161D01*
X194568D01*
Y206056D01*
X194673D01*
Y205951D01*
X194778D01*
Y205846D01*
X194673D01*
Y205741D01*
X194778D01*
Y205636D01*
X194883D01*
Y205531D01*
X194988D01*
Y205426D01*
X194883D01*
Y205321D01*
X195093D01*
Y205216D01*
Y205111D01*
X195198D01*
Y205006D01*
X195302D01*
Y204901D01*
X195407D01*
Y204796D01*
X195302D01*
Y204691D01*
X195407D01*
Y204586D01*
X195512D01*
Y204482D01*
X195617D01*
Y204377D01*
X195512D01*
Y204272D01*
X195617D01*
Y204167D01*
X195722D01*
Y204062D01*
X195827D01*
Y203957D01*
Y203852D01*
Y203747D01*
X195932D01*
Y203642D01*
X196037D01*
Y203537D01*
X196142D01*
Y203432D01*
Y203327D01*
Y203222D01*
X196247D01*
Y203117D01*
X196352D01*
Y203012D01*
X196457D01*
Y202907D01*
X196352D01*
Y202802D01*
X196457D01*
Y202698D01*
X196562D01*
Y202593D01*
X196667D01*
Y202488D01*
Y202383D01*
X196772D01*
Y202278D01*
Y202173D01*
X196877D01*
Y202068D01*
X196981D01*
Y201963D01*
X197086D01*
Y201858D01*
X196981D01*
Y201753D01*
X197086D01*
Y201648D01*
X197191D01*
Y201543D01*
X197296D01*
Y201438D01*
Y201333D01*
X197401D01*
Y201228D01*
Y201123D01*
X197506D01*
Y201019D01*
X197611D01*
Y200914D01*
X197716D01*
Y200809D01*
X197611D01*
Y200704D01*
X197716D01*
Y200599D01*
X197821D01*
Y200494D01*
X197926D01*
Y200389D01*
X197821D01*
Y200284D01*
X197926D01*
Y200179D01*
X198031D01*
Y200074D01*
X198136D01*
Y199969D01*
Y199864D01*
X198241D01*
Y199759D01*
Y199654D01*
X198346D01*
Y199549D01*
X198451D01*
Y199444D01*
X198556D01*
Y199340D01*
X198451D01*
Y199235D01*
X198556D01*
Y199130D01*
X198660D01*
Y199025D01*
X198765D01*
Y198920D01*
Y198815D01*
Y198710D01*
X198870D01*
Y198605D01*
X198975D01*
Y198500D01*
Y198395D01*
X199080D01*
Y198290D01*
Y198185D01*
X199185D01*
Y198080D01*
X199290D01*
Y197975D01*
X199395D01*
Y197870D01*
X199290D01*
Y197765D01*
X199395D01*
Y197660D01*
X199500D01*
Y197556D01*
X199605D01*
Y197451D01*
X199500D01*
Y197346D01*
X199710D01*
Y197241D01*
Y197136D01*
X199815D01*
Y197031D01*
X199920D01*
Y196926D01*
X200025D01*
Y196821D01*
X199920D01*
Y196716D01*
X200025D01*
Y196611D01*
X200130D01*
Y196506D01*
X200235D01*
Y196401D01*
X200130D01*
Y196296D01*
X200235D01*
Y196191D01*
X200340D01*
Y196086D01*
X200444D01*
Y195981D01*
X200549D01*
Y195877D01*
Y195772D01*
Y195667D01*
X200654D01*
Y195562D01*
X200759D01*
Y195457D01*
X200864D01*
Y195352D01*
X200759D01*
Y195247D01*
X200864D01*
Y195142D01*
X200969D01*
Y195037D01*
X201074D01*
Y194932D01*
Y194827D01*
Y194722D01*
X201179D01*
Y194617D01*
X201284D01*
Y194512D01*
Y194407D01*
X201389D01*
Y194302D01*
Y194198D01*
X201494D01*
Y194093D01*
X201599D01*
Y193988D01*
X201704D01*
Y193883D01*
X201599D01*
Y193778D01*
X201704D01*
Y193673D01*
X201809D01*
Y193568D01*
X201914D01*
Y193463D01*
Y193358D01*
X202019D01*
Y193253D01*
Y193148D01*
X202123D01*
Y193043D01*
X202228D01*
Y192938D01*
X202333D01*
Y192833D01*
X202228D01*
Y192728D01*
X202333D01*
Y192623D01*
X202438D01*
Y192519D01*
X202543D01*
Y192414D01*
X202438D01*
Y192309D01*
X202648D01*
Y192204D01*
Y192099D01*
X202753D01*
Y191994D01*
X202858D01*
Y191889D01*
X202963D01*
Y191784D01*
X202858D01*
Y191679D01*
X202963D01*
Y191574D01*
X203068D01*
Y191469D01*
X203173D01*
Y191364D01*
X203068D01*
Y191259D01*
X203173D01*
Y191154D01*
X203278D01*
Y191049D01*
X203383D01*
Y190944D01*
Y190839D01*
X203488D01*
Y190735D01*
Y190630D01*
X203593D01*
Y190525D01*
X203697D01*
Y190420D01*
Y190315D01*
Y190210D01*
X203802D01*
Y190105D01*
X203907D01*
Y190000D01*
X204012D01*
Y189895D01*
Y189790D01*
Y189685D01*
X204117D01*
Y189580D01*
X204222D01*
Y189475D01*
X204117D01*
Y189370D01*
X204327D01*
Y189265D01*
Y189160D01*
X204432D01*
Y189056D01*
X204537D01*
Y188951D01*
X204642D01*
Y188846D01*
X204537D01*
Y188741D01*
X204642D01*
Y188636D01*
X204747D01*
Y188531D01*
X204852D01*
Y188426D01*
Y188321D01*
X204957D01*
Y188216D01*
Y188111D01*
X205062D01*
Y188006D01*
X205167D01*
Y187901D01*
X205272D01*
Y187796D01*
X205167D01*
Y187691D01*
X205272D01*
Y187586D01*
X205376D01*
Y187481D01*
X205481D01*
Y187376D01*
X205376D01*
Y187271D01*
X205481D01*
Y187167D01*
X205586D01*
Y187062D01*
X205691D01*
Y186957D01*
Y186852D01*
X205901D01*
Y186747D01*
X205796D01*
Y186642D01*
X205901D01*
Y186537D01*
X206006D01*
Y186432D01*
X206111D01*
Y186327D01*
X206006D01*
Y186222D01*
X206111D01*
Y186117D01*
X206216D01*
Y186012D01*
X206321D01*
Y185907D01*
Y185802D01*
Y185697D01*
X206426D01*
Y185592D01*
X206531D01*
Y185488D01*
X206636D01*
Y185383D01*
Y185278D01*
Y185173D01*
X206741D01*
Y185068D01*
X206846D01*
Y184963D01*
X206951D01*
Y184858D01*
X206846D01*
Y184753D01*
X206951D01*
Y184648D01*
X207055D01*
Y184543D01*
X207160D01*
Y184438D01*
Y184333D01*
X207265D01*
Y184228D01*
Y184123D01*
X207370D01*
Y184018D01*
X207475D01*
Y183913D01*
X207580D01*
Y183808D01*
X207475D01*
Y183704D01*
X207580D01*
Y183599D01*
X207685D01*
Y183494D01*
X207790D01*
Y183389D01*
X207685D01*
Y183284D01*
X207895D01*
Y183179D01*
Y183074D01*
X208000D01*
Y182969D01*
X208105D01*
Y182864D01*
X208210D01*
Y182759D01*
X208105D01*
Y182654D01*
X208210D01*
Y182549D01*
X208315D01*
Y182444D01*
X208420D01*
Y182339D01*
X208315D01*
Y182234D01*
X208420D01*
Y182129D01*
X208525D01*
Y182025D01*
X208630D01*
Y181920D01*
Y181815D01*
X208839D01*
Y181710D01*
X208735D01*
Y181605D01*
X208839D01*
Y181500D01*
X208944D01*
Y181395D01*
X209049D01*
Y181290D01*
X208944D01*
Y181185D01*
X209049D01*
Y181080D01*
X209154D01*
Y180975D01*
X209259D01*
Y180870D01*
Y180765D01*
Y180660D01*
X209364D01*
Y180555D01*
X209469D01*
Y180450D01*
Y180346D01*
X209574D01*
Y180241D01*
Y180136D01*
X209679D01*
Y180031D01*
X209784D01*
Y179926D01*
X209889D01*
Y179821D01*
X209784D01*
Y179716D01*
X209889D01*
Y179611D01*
X209994D01*
Y179506D01*
X210099D01*
Y179401D01*
X209994D01*
Y179296D01*
X210204D01*
Y179191D01*
Y179086D01*
X210309D01*
Y178981D01*
X210414D01*
Y178876D01*
X210518D01*
Y178771D01*
X210414D01*
Y178666D01*
X210518D01*
Y178562D01*
X210623D01*
Y178457D01*
X210728D01*
Y178352D01*
X210623D01*
Y178247D01*
X210728D01*
Y178142D01*
X210833D01*
Y178037D01*
X210938D01*
Y177932D01*
Y177827D01*
X211043D01*
Y177722D01*
Y177617D01*
X211148D01*
Y177512D01*
X211253D01*
Y177407D01*
X211358D01*
Y177302D01*
X211253D01*
Y177197D01*
X211358D01*
Y177092D01*
X211463D01*
Y176987D01*
X211568D01*
Y176883D01*
Y176778D01*
Y176673D01*
X211673D01*
Y176568D01*
X211778D01*
Y176463D01*
Y176358D01*
X211883D01*
Y176253D01*
Y176148D01*
X211988D01*
Y176043D01*
X212093D01*
Y175938D01*
X212197D01*
Y175833D01*
X212093D01*
Y175728D01*
X212197D01*
Y175623D01*
X212302D01*
Y175518D01*
X212407D01*
Y175413D01*
Y175308D01*
X212512D01*
Y175204D01*
Y175099D01*
X212617D01*
Y174994D01*
X212722D01*
Y174889D01*
X212827D01*
Y174784D01*
X212722D01*
Y174679D01*
X212827D01*
Y174574D01*
X212932D01*
Y174469D01*
X213037D01*
Y174364D01*
X212932D01*
Y174259D01*
X213142D01*
Y174154D01*
Y174049D01*
X213247D01*
Y173944D01*
X213352D01*
Y173839D01*
X213457D01*
Y173734D01*
X213352D01*
Y173629D01*
X213457D01*
Y173525D01*
X213562D01*
Y173420D01*
X213667D01*
Y173315D01*
X213562D01*
Y173210D01*
X213667D01*
Y173105D01*
X213772D01*
Y173000D01*
X213877D01*
Y172895D01*
Y172790D01*
Y172685D01*
X213981D01*
Y172580D01*
X214086D01*
Y172475D01*
X214191D01*
Y172370D01*
Y172265D01*
Y172160D01*
X214296D01*
Y172055D01*
X214401D01*
Y171950D01*
X214506D01*
Y171846D01*
X214401D01*
Y171741D01*
X214506D01*
Y171636D01*
X214611D01*
Y171531D01*
X214716D01*
Y171426D01*
X214611D01*
Y171321D01*
X214821D01*
Y171216D01*
Y171111D01*
X214926D01*
Y171006D01*
X215031D01*
Y170901D01*
X215136D01*
Y170796D01*
X215031D01*
Y170691D01*
X215136D01*
Y170586D01*
X215241D01*
Y170481D01*
X215346D01*
Y170376D01*
X215241D01*
Y170271D01*
X215451D01*
Y170166D01*
Y170062D01*
X215556D01*
Y169957D01*
X215660D01*
Y169852D01*
X215765D01*
Y169747D01*
X215660D01*
Y169642D01*
X215765D01*
Y169537D01*
X215870D01*
Y169432D01*
X215975D01*
Y169327D01*
X215870D01*
Y169222D01*
X215975D01*
Y169117D01*
X216080D01*
Y169012D01*
X216185D01*
Y168907D01*
Y168802D01*
X216395D01*
Y168697D01*
X216290D01*
Y168592D01*
X216395D01*
Y168487D01*
X216500D01*
Y168383D01*
X216605D01*
Y168278D01*
X216500D01*
Y168173D01*
X216605D01*
Y168068D01*
X216710D01*
Y167963D01*
X216815D01*
Y167858D01*
Y167753D01*
Y167648D01*
X216920D01*
Y167543D01*
X217025D01*
Y167438D01*
Y167333D01*
X217130D01*
Y167228D01*
Y167123D01*
X217235D01*
Y167018D01*
X217339D01*
Y166913D01*
X217444D01*
Y166808D01*
X217339D01*
Y166704D01*
X217444D01*
Y166599D01*
X217549D01*
Y166494D01*
X217654D01*
Y166389D01*
X217549D01*
Y166284D01*
X217759D01*
Y166179D01*
Y166074D01*
X217864D01*
Y165969D01*
X217969D01*
Y165864D01*
X218074D01*
Y165759D01*
X217969D01*
Y165654D01*
X218074D01*
Y165549D01*
X218179D01*
Y165444D01*
X218284D01*
Y165339D01*
X218179D01*
Y165234D01*
X218284D01*
Y165130D01*
X218389D01*
Y165025D01*
X218284D01*
Y164920D01*
X218179D01*
Y164815D01*
X218074D01*
Y164710D01*
X217969D01*
Y164605D01*
X218074D01*
Y164500D01*
X217969D01*
Y164395D01*
X217864D01*
Y164290D01*
X217759D01*
Y164185D01*
X217864D01*
Y164080D01*
X217759D01*
Y163975D01*
X217654D01*
Y163870D01*
X217549D01*
Y163765D01*
X217444D01*
Y163660D01*
X217339D01*
Y163555D01*
X217444D01*
Y163450D01*
X217339D01*
Y163346D01*
X217235D01*
Y163241D01*
X217130D01*
Y163136D01*
Y163031D01*
Y162926D01*
X217025D01*
Y162821D01*
X216920D01*
Y162716D01*
X216815D01*
Y162611D01*
X216710D01*
Y162506D01*
X216815D01*
Y162401D01*
X216710D01*
Y162296D01*
X216605D01*
Y162191D01*
X216500D01*
Y162086D01*
X216605D01*
Y161981D01*
X216500D01*
Y161876D01*
X216395D01*
Y161771D01*
X216290D01*
Y161667D01*
Y161562D01*
X216185D01*
Y161457D01*
Y161352D01*
X216080D01*
Y161247D01*
X215975D01*
Y161142D01*
X215870D01*
Y161037D01*
Y160932D01*
Y160827D01*
X215765D01*
Y160722D01*
X215660D01*
Y160617D01*
X215556D01*
Y160512D01*
X215451D01*
Y160407D01*
X215556D01*
Y160302D01*
X215451D01*
Y160197D01*
X215346D01*
Y160092D01*
X215241D01*
Y159987D01*
X215346D01*
Y159882D01*
X215241D01*
Y159987D01*
X215136D01*
Y160092D01*
X215031D01*
Y160197D01*
X215136D01*
Y160302D01*
X215031D01*
Y160407D01*
X214926D01*
Y160512D01*
X214821D01*
Y160617D01*
X214926D01*
Y160722D01*
X214716D01*
Y160827D01*
Y160932D01*
X214611D01*
Y161037D01*
X214506D01*
Y161142D01*
Y161247D01*
Y161352D01*
X214401D01*
Y161457D01*
X214296D01*
Y161562D01*
X214191D01*
Y161667D01*
X214296D01*
Y161771D01*
X214191D01*
Y161876D01*
X214086D01*
Y161981D01*
X213981D01*
Y162086D01*
Y162191D01*
X213877D01*
Y162296D01*
Y162401D01*
X213772D01*
Y162506D01*
X213667D01*
Y162611D01*
X213562D01*
Y162716D01*
X213667D01*
Y162821D01*
X213562D01*
Y162926D01*
X213457D01*
Y163031D01*
X213352D01*
Y163136D01*
Y163241D01*
Y163346D01*
X213247D01*
Y163450D01*
X213142D01*
Y163555D01*
X213037D01*
Y163660D01*
X212932D01*
Y163765D01*
X213037D01*
Y163870D01*
X212932D01*
Y163975D01*
X212827D01*
Y164080D01*
X212722D01*
Y164185D01*
X212827D01*
Y164290D01*
X212722D01*
Y164395D01*
X212617D01*
Y164500D01*
X212512D01*
Y164605D01*
X212617D01*
Y164710D01*
X212407D01*
Y164815D01*
Y164920D01*
X212302D01*
Y165025D01*
X212197D01*
Y165130D01*
X212093D01*
Y165234D01*
X212197D01*
Y165339D01*
X212093D01*
Y165444D01*
X211988D01*
Y165549D01*
X211883D01*
Y165654D01*
Y165759D01*
X211778D01*
Y165864D01*
Y165969D01*
X211673D01*
Y166074D01*
X211568D01*
Y166179D01*
Y166284D01*
Y166389D01*
X211463D01*
Y166494D01*
X211358D01*
Y166599D01*
X211253D01*
Y166704D01*
X211358D01*
Y166808D01*
X211253D01*
Y166913D01*
X211148D01*
Y167018D01*
X211043D01*
Y167123D01*
Y167228D01*
X210938D01*
Y167333D01*
Y167438D01*
X210833D01*
Y167543D01*
X210728D01*
Y167648D01*
X210623D01*
Y167753D01*
X210728D01*
Y167858D01*
X210623D01*
Y167963D01*
X210518D01*
Y168068D01*
X210414D01*
Y168173D01*
Y168278D01*
Y168383D01*
X210309D01*
Y168487D01*
X210204D01*
Y168592D01*
X210099D01*
Y168697D01*
X209994D01*
Y168802D01*
X210099D01*
Y168907D01*
X209994D01*
Y169012D01*
X209889D01*
Y169117D01*
X209784D01*
Y169222D01*
X209889D01*
Y169327D01*
X209784D01*
Y169432D01*
X209679D01*
Y169537D01*
X209574D01*
Y169642D01*
X209679D01*
Y169747D01*
X209469D01*
Y169852D01*
Y169957D01*
X209364D01*
Y170062D01*
X209259D01*
Y170166D01*
Y170271D01*
Y170376D01*
X209154D01*
Y170481D01*
X209049D01*
Y170586D01*
X208944D01*
Y170691D01*
X209049D01*
Y170796D01*
X208839D01*
Y170901D01*
Y171006D01*
X208735D01*
Y171111D01*
Y171216D01*
X208630D01*
Y171321D01*
Y171426D01*
X208525D01*
Y171531D01*
X208420D01*
Y171636D01*
X208315D01*
Y171741D01*
X208420D01*
Y171846D01*
X208315D01*
Y171950D01*
X208210D01*
Y172055D01*
X208105D01*
Y172160D01*
Y172265D01*
Y172370D01*
X208000D01*
Y172475D01*
X207895D01*
Y172580D01*
X207790D01*
Y172685D01*
X207685D01*
Y172790D01*
X207790D01*
Y172895D01*
X207685D01*
Y173000D01*
X207580D01*
Y173105D01*
X207475D01*
Y173210D01*
Y173315D01*
Y173420D01*
X207370D01*
Y173525D01*
X207265D01*
Y173629D01*
X207160D01*
Y173734D01*
X207055D01*
Y173839D01*
X207160D01*
Y173944D01*
X207055D01*
Y174049D01*
X206951D01*
Y174154D01*
X206846D01*
Y174259D01*
X206951D01*
Y174364D01*
X206846D01*
Y174469D01*
X206741D01*
Y174574D01*
X206636D01*
Y174679D01*
Y174784D01*
X206531D01*
Y174889D01*
Y174994D01*
X206426D01*
Y175099D01*
X206321D01*
Y175204D01*
Y175308D01*
Y175413D01*
X206216D01*
Y175518D01*
X206111D01*
Y175623D01*
X206006D01*
Y175728D01*
X206111D01*
Y175833D01*
X205901D01*
Y175938D01*
Y176043D01*
X205796D01*
Y176148D01*
Y176253D01*
X205691D01*
Y176358D01*
Y176463D01*
X205586D01*
Y176568D01*
X205481D01*
Y176673D01*
X205376D01*
Y176778D01*
X205481D01*
Y176883D01*
X205376D01*
Y176987D01*
X205272D01*
Y177092D01*
X205167D01*
Y177197D01*
Y177302D01*
Y177407D01*
X205062D01*
Y177512D01*
X204957D01*
Y177617D01*
X204852D01*
Y177722D01*
X204747D01*
Y177827D01*
X204852D01*
Y177932D01*
X204747D01*
Y178037D01*
X204642D01*
Y178142D01*
X204537D01*
Y178247D01*
Y178352D01*
Y178457D01*
X204432D01*
Y178562D01*
X204327D01*
Y178666D01*
X204222D01*
Y178771D01*
X204117D01*
Y178876D01*
X204222D01*
Y178981D01*
X204117D01*
Y179086D01*
X204012D01*
Y179191D01*
X203907D01*
Y179296D01*
X204012D01*
Y179401D01*
X203907D01*
Y179506D01*
X203802D01*
Y179611D01*
X203697D01*
Y179716D01*
X203802D01*
Y179821D01*
X203593D01*
Y179926D01*
Y180031D01*
X203488D01*
Y180136D01*
Y180241D01*
X203383D01*
Y180346D01*
Y180450D01*
X203278D01*
Y180555D01*
X203173D01*
Y180660D01*
X203068D01*
Y180765D01*
X203173D01*
Y180870D01*
X202963D01*
Y180975D01*
Y181080D01*
X202858D01*
Y181185D01*
Y181290D01*
X202753D01*
Y181395D01*
Y181500D01*
X202648D01*
Y181605D01*
X202543D01*
Y181710D01*
X202438D01*
Y181815D01*
X202543D01*
Y181920D01*
X202438D01*
Y182025D01*
X202333D01*
Y182129D01*
X202228D01*
Y182234D01*
Y182339D01*
Y182444D01*
X202123D01*
Y182549D01*
X202019D01*
Y182654D01*
X201914D01*
Y182759D01*
X201809D01*
Y182864D01*
X201914D01*
Y182969D01*
X201809D01*
Y183074D01*
X201704D01*
Y183179D01*
X201599D01*
Y183284D01*
Y183389D01*
Y183494D01*
X201494D01*
Y183599D01*
X201389D01*
Y183704D01*
X201284D01*
Y183808D01*
X201179D01*
Y183913D01*
X201284D01*
Y184018D01*
X201179D01*
Y184123D01*
X201074D01*
Y184228D01*
X200969D01*
Y184333D01*
X201074D01*
Y184438D01*
X200969D01*
Y184543D01*
X200864D01*
Y184648D01*
X200759D01*
Y184753D01*
X200864D01*
Y184858D01*
X200654D01*
Y184963D01*
Y185068D01*
X200549D01*
Y185173D01*
Y185278D01*
X200444D01*
Y185383D01*
Y185488D01*
X200340D01*
Y185592D01*
X200235D01*
Y185697D01*
X200130D01*
Y185802D01*
X200235D01*
Y185907D01*
X200130D01*
Y186012D01*
X200025D01*
Y186117D01*
X199920D01*
Y186222D01*
Y186327D01*
X199815D01*
Y186432D01*
Y186537D01*
X199710D01*
Y186642D01*
X199605D01*
Y186747D01*
X199500D01*
Y186852D01*
X199605D01*
Y186957D01*
X199500D01*
Y187062D01*
X199395D01*
Y187167D01*
X199290D01*
Y187271D01*
Y187376D01*
Y187481D01*
X199185D01*
Y187586D01*
X199080D01*
Y187691D01*
X198975D01*
Y187796D01*
X198870D01*
Y187901D01*
X198975D01*
Y188006D01*
X198870D01*
Y188111D01*
X198765D01*
Y188216D01*
X198660D01*
Y188321D01*
Y188426D01*
Y188531D01*
X198556D01*
Y188636D01*
X198451D01*
Y188741D01*
Y188846D01*
X198241D01*
Y188951D01*
X198346D01*
Y189056D01*
X198241D01*
Y189160D01*
X198136D01*
Y189265D01*
X198031D01*
Y189370D01*
X198136D01*
Y189475D01*
X198031D01*
Y189580D01*
X197926D01*
Y189685D01*
X197821D01*
Y189790D01*
X197926D01*
Y189895D01*
X197716D01*
Y190000D01*
Y190105D01*
X197611D01*
Y190210D01*
Y190315D01*
X197506D01*
Y190420D01*
Y190525D01*
X197401D01*
Y190630D01*
X197296D01*
Y190735D01*
X197191D01*
Y190839D01*
X197296D01*
Y190944D01*
X197191D01*
Y191049D01*
X197086D01*
Y191154D01*
X196981D01*
Y191259D01*
Y191364D01*
X196877D01*
Y191469D01*
Y191574D01*
X196772D01*
Y191679D01*
X196667D01*
Y191784D01*
X196562D01*
Y191889D01*
X196667D01*
Y191994D01*
X196562D01*
Y192099D01*
X196457D01*
Y192204D01*
X196352D01*
Y192309D01*
Y192414D01*
Y192519D01*
X196247D01*
Y192623D01*
X196142D01*
Y192728D01*
X196037D01*
Y192833D01*
X195932D01*
Y192938D01*
X196037D01*
Y193043D01*
X195932D01*
Y193148D01*
X195827D01*
Y193253D01*
X195722D01*
Y193358D01*
Y193463D01*
Y193568D01*
X195617D01*
Y193673D01*
X195512D01*
Y193778D01*
Y193883D01*
X195302D01*
Y193988D01*
X195407D01*
Y194093D01*
X195302D01*
Y194198D01*
X195198D01*
Y194302D01*
X195093D01*
Y194407D01*
X195198D01*
Y194512D01*
X195093D01*
Y194617D01*
X194988D01*
Y194722D01*
X194883D01*
Y194827D01*
X194988D01*
Y194932D01*
X194778D01*
Y195037D01*
Y195142D01*
X194673D01*
Y195247D01*
Y195352D01*
X194568D01*
Y195457D01*
Y195562D01*
X194463D01*
Y195667D01*
X194358D01*
Y195772D01*
X194253D01*
Y195877D01*
X194358D01*
Y195981D01*
X194253D01*
Y196086D01*
X194148D01*
Y196191D01*
X194043D01*
Y196296D01*
Y196401D01*
X193938D01*
Y196506D01*
Y196611D01*
X193833D01*
Y196716D01*
X193728D01*
Y196821D01*
X193623D01*
Y196926D01*
X193728D01*
Y197031D01*
X193623D01*
Y197136D01*
X193519D01*
Y197241D01*
X193414D01*
Y197346D01*
Y197451D01*
Y197556D01*
X193309D01*
Y197660D01*
X193204D01*
Y197765D01*
X193099D01*
Y197870D01*
X192994D01*
Y197975D01*
X193099D01*
Y198080D01*
X192994D01*
Y198185D01*
X192889D01*
Y198290D01*
X192784D01*
Y198395D01*
X192889D01*
Y198500D01*
X192784D01*
Y198605D01*
X192679D01*
Y198710D01*
X192574D01*
Y198815D01*
Y198920D01*
X192469D01*
Y199025D01*
Y199130D01*
X192364D01*
Y199235D01*
X192259D01*
Y199340D01*
X192154D01*
Y199444D01*
X192259D01*
Y199549D01*
X192154D01*
Y199654D01*
X192049D01*
Y199759D01*
X191944D01*
Y199864D01*
X192049D01*
Y199969D01*
X191839D01*
Y200074D01*
Y200179D01*
X191735D01*
Y200284D01*
Y200389D01*
X191630D01*
Y200494D01*
Y200599D01*
X191525D01*
Y200704D01*
X191420D01*
Y200809D01*
X191315D01*
Y200914D01*
X191420D01*
Y201019D01*
X191315D01*
Y201123D01*
X191210D01*
Y201228D01*
X191105D01*
Y201333D01*
Y201438D01*
X191000D01*
Y201543D01*
Y201648D01*
X190895D01*
Y201753D01*
X190790D01*
Y201858D01*
X190685D01*
Y201963D01*
X190790D01*
Y202068D01*
X190685D01*
Y202173D01*
X190580D01*
Y202278D01*
X190475D01*
Y202383D01*
X190580D01*
Y202488D01*
X190475D01*
Y202593D01*
X190370D01*
Y202698D01*
X190265D01*
Y202802D01*
Y202907D01*
X190160D01*
Y203012D01*
Y203117D01*
X190056D01*
Y203222D01*
X189951D01*
Y203327D01*
X189846D01*
Y203432D01*
X189951D01*
Y203537D01*
X189846D01*
Y203642D01*
X189741D01*
Y203747D01*
X189636D01*
Y203852D01*
Y203957D01*
X189426D01*
Y204062D01*
X189531D01*
Y204167D01*
X189426D01*
Y204272D01*
X189321D01*
Y204377D01*
X189216D01*
Y204482D01*
X189321D01*
Y204586D01*
X189216D01*
Y204691D01*
X189111D01*
Y204796D01*
X189006D01*
Y204901D01*
X189111D01*
Y205006D01*
X189006D01*
Y205111D01*
X188901D01*
Y205216D01*
X188796D01*
Y205321D01*
Y205426D01*
X188691D01*
Y205531D01*
Y205636D01*
X188586D01*
Y205741D01*
X188481D01*
Y205846D01*
X188377D01*
Y205951D01*
X188481D01*
Y206056D01*
X188377D01*
Y206161D01*
X188272D01*
Y206265D01*
X188167D01*
Y206370D01*
Y206475D01*
X188062D01*
Y206580D01*
Y206685D01*
X187957D01*
Y206790D01*
X187852D01*
Y206895D01*
X187747D01*
Y207000D01*
X187852D01*
Y207105D01*
X187747D01*
Y207210D01*
X187642D01*
Y207315D01*
X187537D01*
Y207420D01*
Y207525D01*
Y207630D01*
X187432D01*
Y207735D01*
X187327D01*
Y207840D01*
X187432D01*
Y207944D01*
X187117D01*
Y208049D01*
X187222D01*
Y208154D01*
X187117D01*
Y208259D01*
X187012D01*
Y208364D01*
X186907D01*
Y208469D01*
X187012D01*
Y208574D01*
X186907D01*
Y208679D01*
X186802D01*
Y208784D01*
X186697D01*
Y208889D01*
X186802D01*
Y208994D01*
X186593D01*
Y209099D01*
Y209204D01*
X186488D01*
Y209309D01*
X186383D01*
Y209414D01*
Y209519D01*
Y209624D01*
X186278D01*
Y209728D01*
X186173D01*
Y209833D01*
X186068D01*
Y209938D01*
X186173D01*
Y210043D01*
X186068D01*
Y210148D01*
X185963D01*
Y210253D01*
X185858D01*
Y210358D01*
Y210463D01*
X185753D01*
Y210568D01*
Y210673D01*
X185648D01*
Y210778D01*
X185543D01*
Y210883D01*
X185438D01*
Y210988D01*
X185543D01*
Y211093D01*
X185438D01*
Y211197D01*
X185333D01*
Y211303D01*
X185228D01*
Y211407D01*
Y211512D01*
Y211617D01*
X185123D01*
Y211722D01*
X185018D01*
Y211827D01*
X184914D01*
Y211932D01*
X184809D01*
Y212037D01*
X184914D01*
Y212142D01*
X184809D01*
Y212247D01*
X184704D01*
Y212352D01*
X184599D01*
Y212457D01*
X184704D01*
Y212562D01*
X184599D01*
Y212667D01*
X184494D01*
Y212772D01*
X184389D01*
Y212877D01*
Y212981D01*
X184284D01*
Y213086D01*
Y213191D01*
X184179D01*
Y213296D01*
X184074D01*
Y213401D01*
X183969D01*
Y213506D01*
X184074D01*
Y213611D01*
X183969D01*
Y213716D01*
X183864D01*
Y213821D01*
X183759D01*
Y213926D01*
Y214031D01*
X183654D01*
Y214136D01*
Y214241D01*
X183549D01*
Y214346D01*
X183444D01*
Y214451D01*
Y214556D01*
Y214660D01*
X183339D01*
Y214765D01*
X183235D01*
Y214870D01*
X183130D01*
Y214975D01*
X183235D01*
Y215080D01*
X183130D01*
Y215185D01*
X183025D01*
Y215290D01*
X182920D01*
Y215395D01*
Y215500D01*
X182815D01*
Y215605D01*
Y215710D01*
X182710D01*
Y215815D01*
X182605D01*
Y215920D01*
X182500D01*
Y216025D01*
X182605D01*
Y216130D01*
X182500D01*
Y216235D01*
X182395D01*
Y216339D01*
X182290D01*
Y216444D01*
Y216549D01*
Y216654D01*
X182185D01*
Y216759D01*
X182080D01*
Y216864D01*
X181975D01*
Y216969D01*
X181870D01*
Y217074D01*
X181975D01*
Y217179D01*
X181870D01*
Y217284D01*
X181765D01*
Y217389D01*
X181660D01*
Y217494D01*
X181765D01*
Y217599D01*
X181660D01*
Y217704D01*
X181555D01*
Y217809D01*
X181451D01*
Y217914D01*
X181555D01*
Y218018D01*
X181346D01*
Y218123D01*
Y218228D01*
X181241D01*
Y218333D01*
X181136D01*
Y218438D01*
Y218543D01*
Y218648D01*
X181031D01*
Y218753D01*
X180926D01*
Y218858D01*
X180821D01*
Y218963D01*
X180926D01*
Y219068D01*
X180716D01*
Y219173D01*
Y219278D01*
X180611D01*
Y219383D01*
Y219488D01*
X180506D01*
Y219593D01*
Y219698D01*
X180401D01*
Y219802D01*
X180296D01*
Y219907D01*
X180191D01*
Y220012D01*
X180296D01*
Y220117D01*
X180191D01*
Y220222D01*
X180086D01*
Y220327D01*
X179981D01*
Y220432D01*
Y220537D01*
Y220642D01*
X179876D01*
Y220747D01*
X179771D01*
Y220852D01*
X179667D01*
Y220957D01*
X179562D01*
Y221062D01*
X179667D01*
Y221167D01*
X179562D01*
Y221272D01*
X179457D01*
Y221377D01*
X179352D01*
Y221481D01*
Y221586D01*
Y221691D01*
X179247D01*
Y221796D01*
X179142D01*
Y221901D01*
X179037D01*
Y222006D01*
X178932D01*
Y222111D01*
X179037D01*
Y222216D01*
X178932D01*
Y222321D01*
X178827D01*
Y222426D01*
X178722D01*
Y222531D01*
X178827D01*
Y222636D01*
X178722D01*
Y222741D01*
X178617D01*
Y222846D01*
X178512D01*
Y222951D01*
Y223056D01*
X178407D01*
Y223160D01*
Y223265D01*
X178302D01*
Y223370D01*
X178197D01*
Y223475D01*
X178092D01*
Y223580D01*
X178197D01*
Y223685D01*
X178092D01*
Y223790D01*
X177987D01*
Y223895D01*
X177883D01*
Y224000D01*
X177987D01*
Y224105D01*
X177778D01*
Y224210D01*
Y224315D01*
X177673D01*
Y224420D01*
X177568D01*
Y224525D01*
Y224630D01*
Y224735D01*
X177463D01*
Y224840D01*
X177358D01*
Y224944D01*
X177253D01*
Y225049D01*
X177358D01*
Y225154D01*
X177253D01*
Y225259D01*
X177148D01*
Y225364D01*
X177043D01*
Y225469D01*
Y225574D01*
Y225679D01*
X176938D01*
Y225784D01*
X176833D01*
Y225889D01*
X176728D01*
Y225994D01*
X176623D01*
Y226099D01*
X176728D01*
Y226204D01*
X176623D01*
Y226309D01*
X176518D01*
Y226414D01*
X176413D01*
Y226519D01*
Y226623D01*
Y226728D01*
X176308D01*
Y226833D01*
X176204D01*
Y226938D01*
X176099D01*
Y227043D01*
X175994D01*
Y227148D01*
X176099D01*
Y227253D01*
X175994D01*
Y227358D01*
X175889D01*
Y227463D01*
X175784D01*
Y227568D01*
X175889D01*
Y227673D01*
X175784D01*
Y227778D01*
X176938D01*
Y227673D01*
X177043D01*
Y227778D01*
X177358D01*
Y227673D01*
X177463D01*
Y227778D01*
X177778D01*
Y227673D01*
X177883D01*
Y227778D01*
X177987D01*
Y227673D01*
X178092D01*
Y227778D01*
X178197D01*
Y227673D01*
X178302D01*
Y227778D01*
X178407D01*
Y227673D01*
X178512D01*
Y227778D01*
X178617D01*
Y227673D01*
X178722D01*
Y227778D01*
X178827D01*
Y227673D01*
X178932D01*
Y227778D01*
X179037D01*
Y227673D01*
X179142D01*
Y227778D01*
X179247D01*
Y227673D01*
X179352D01*
Y227778D01*
X179457D01*
Y227673D01*
X179562D01*
Y227778D01*
X179667D01*
Y227673D01*
X179771D01*
Y227778D01*
X179876D01*
Y227673D01*
X179981D01*
Y227778D01*
X180086D01*
Y227673D01*
X180191D01*
Y227778D01*
X180296D01*
Y227673D01*
X180401D01*
Y227778D01*
X180506D01*
Y227673D01*
X180611D01*
Y227778D01*
X180716D01*
Y227673D01*
X180821D01*
Y227778D01*
X180926D01*
Y227673D01*
X181031D01*
Y227778D01*
X181136D01*
Y227673D01*
X181241D01*
Y227778D01*
X181346D01*
Y227673D01*
X181660D01*
Y227778D01*
X181765D01*
Y227673D01*
D02*
G37*
G36*
X254803D02*
X254698D01*
Y227568D01*
X254593D01*
Y227463D01*
X254488D01*
Y227358D01*
X254593D01*
Y227253D01*
X254488D01*
Y227148D01*
X254383D01*
Y227043D01*
X254278D01*
Y226938D01*
Y226833D01*
X254173D01*
Y226728D01*
Y226623D01*
X254068D01*
Y226519D01*
X253963D01*
Y226414D01*
Y226309D01*
Y226204D01*
X253858D01*
Y226099D01*
X253753D01*
Y225994D01*
X253648D01*
Y225889D01*
X253753D01*
Y225784D01*
X253648D01*
Y225679D01*
X253543D01*
Y225574D01*
X253438D01*
Y225469D01*
Y225364D01*
X253333D01*
Y225259D01*
Y225154D01*
X253228D01*
Y225049D01*
X253124D01*
Y224944D01*
X253019D01*
Y224840D01*
X253124D01*
Y224735D01*
X253019D01*
Y224630D01*
X252914D01*
Y224525D01*
X252809D01*
Y224420D01*
Y224315D01*
X252704D01*
Y224210D01*
Y224105D01*
X252599D01*
Y224000D01*
X252494D01*
Y223895D01*
X252389D01*
Y223790D01*
X252494D01*
Y223685D01*
X252389D01*
Y223580D01*
X252284D01*
Y223475D01*
X252179D01*
Y223370D01*
X252284D01*
Y223265D01*
X252179D01*
Y223160D01*
X252074D01*
Y223056D01*
X251969D01*
Y222951D01*
X252074D01*
Y222846D01*
X251864D01*
Y222741D01*
Y222636D01*
X251759D01*
Y222531D01*
X251654D01*
Y222426D01*
X251549D01*
Y222321D01*
X251654D01*
Y222216D01*
X251549D01*
Y222111D01*
X251445D01*
Y222006D01*
X251340D01*
Y221901D01*
X251445D01*
Y221796D01*
X251235D01*
Y221691D01*
Y221586D01*
X251130D01*
Y221481D01*
X251025D01*
Y221377D01*
Y221272D01*
Y221167D01*
X250920D01*
Y221062D01*
X250815D01*
Y220957D01*
X250710D01*
Y220852D01*
X250815D01*
Y220747D01*
X250710D01*
Y220642D01*
X250605D01*
Y220537D01*
X250500D01*
Y220432D01*
Y220327D01*
X250395D01*
Y220222D01*
Y220117D01*
X250290D01*
Y220012D01*
X250185D01*
Y219907D01*
X250080D01*
Y219802D01*
X250185D01*
Y219698D01*
X250080D01*
Y219593D01*
X249975D01*
Y219488D01*
X249870D01*
Y219383D01*
Y219278D01*
X249766D01*
Y219173D01*
Y219068D01*
X249661D01*
Y218963D01*
X249556D01*
Y218858D01*
X249451D01*
Y218753D01*
X249556D01*
Y218648D01*
X249451D01*
Y218543D01*
X249346D01*
Y218438D01*
X249241D01*
Y218333D01*
X249346D01*
Y218228D01*
X249241D01*
Y218123D01*
X249136D01*
Y218018D01*
X249031D01*
Y217914D01*
Y217809D01*
X248926D01*
Y217704D01*
Y217599D01*
X248821D01*
Y217494D01*
X248716D01*
Y217389D01*
X248611D01*
Y217284D01*
X248716D01*
Y217179D01*
X248611D01*
Y217074D01*
X248506D01*
Y216969D01*
X248401D01*
Y216864D01*
Y216759D01*
X248296D01*
Y216654D01*
Y216549D01*
X248192D01*
Y216444D01*
X248086D01*
Y216339D01*
X247982D01*
Y216235D01*
X248086D01*
Y216130D01*
X247982D01*
Y216025D01*
X247877D01*
Y215920D01*
X247772D01*
Y215815D01*
X247877D01*
Y215710D01*
X247772D01*
Y215605D01*
X247667D01*
Y215500D01*
X247562D01*
Y215395D01*
Y215290D01*
X247457D01*
Y215185D01*
Y215080D01*
X247352D01*
Y214975D01*
X247247D01*
Y214870D01*
X247142D01*
Y214765D01*
X247247D01*
Y214660D01*
X247142D01*
Y214556D01*
X247037D01*
Y214451D01*
X246932D01*
Y214346D01*
Y214241D01*
X246827D01*
Y214136D01*
Y214031D01*
X246722D01*
Y213926D01*
X246617D01*
Y213821D01*
X246513D01*
Y213716D01*
X246617D01*
Y213611D01*
X246513D01*
Y213506D01*
X246408D01*
Y213401D01*
X246303D01*
Y213296D01*
Y213191D01*
Y213086D01*
X246198D01*
Y212981D01*
X246093D01*
Y212877D01*
X246198D01*
Y212772D01*
X246093D01*
Y212877D01*
X245988D01*
Y212772D01*
X245883D01*
Y212667D01*
X245988D01*
Y212562D01*
X245883D01*
Y212457D01*
X245778D01*
Y212352D01*
X245673D01*
Y212247D01*
X245778D01*
Y212142D01*
X245673D01*
Y212037D01*
X245568D01*
Y211932D01*
X245463D01*
Y211827D01*
Y211722D01*
X245358D01*
Y211617D01*
Y211512D01*
X245253D01*
Y211407D01*
X245148D01*
Y211303D01*
X245043D01*
Y211197D01*
X245148D01*
Y211093D01*
X245043D01*
Y210988D01*
X244938D01*
Y210883D01*
X244833D01*
Y210778D01*
X244938D01*
Y210673D01*
X244729D01*
Y210568D01*
Y210463D01*
X244624D01*
Y210358D01*
Y210253D01*
X244519D01*
Y210148D01*
Y210043D01*
X244414D01*
Y209938D01*
X244309D01*
Y209833D01*
X244204D01*
Y209728D01*
X244309D01*
Y209624D01*
X244204D01*
Y209519D01*
X244099D01*
Y209414D01*
X243994D01*
Y209309D01*
Y209204D01*
X243889D01*
Y209099D01*
Y208994D01*
X243784D01*
Y208889D01*
X243679D01*
Y208784D01*
X243574D01*
Y208679D01*
X243679D01*
Y208574D01*
X243574D01*
Y208469D01*
X243469D01*
Y208364D01*
X243364D01*
Y208259D01*
Y208154D01*
Y208049D01*
X243259D01*
Y207944D01*
X243154D01*
Y207840D01*
X243050D01*
Y207735D01*
X242945D01*
Y207630D01*
X243050D01*
Y207525D01*
X242945D01*
Y207420D01*
X242840D01*
Y207315D01*
X242735D01*
Y207210D01*
Y207105D01*
Y207000D01*
X242630D01*
Y206895D01*
X242525D01*
Y206790D01*
Y206685D01*
X242315D01*
Y206580D01*
X242420D01*
Y206475D01*
X242315D01*
Y206370D01*
X242210D01*
Y206265D01*
X242105D01*
Y206161D01*
X242210D01*
Y206056D01*
X242105D01*
Y205951D01*
X242000D01*
Y205846D01*
X241895D01*
Y205741D01*
X242000D01*
Y205636D01*
X241895D01*
Y205531D01*
X241790D01*
Y205426D01*
X241685D01*
Y205321D01*
Y205216D01*
X241580D01*
Y205111D01*
Y205006D01*
X241475D01*
Y204901D01*
X241371D01*
Y204796D01*
X241266D01*
Y204691D01*
X241371D01*
Y204586D01*
X241266D01*
Y204482D01*
X241161D01*
Y204377D01*
X241056D01*
Y204272D01*
Y204167D01*
X240951D01*
Y204062D01*
Y203957D01*
X240846D01*
Y203852D01*
X240741D01*
Y203747D01*
X240636D01*
Y203642D01*
X240741D01*
Y203537D01*
X240636D01*
Y203432D01*
X240531D01*
Y203327D01*
X240426D01*
Y203222D01*
Y203117D01*
Y203012D01*
X240321D01*
Y202907D01*
X240216D01*
Y202802D01*
X240111D01*
Y202698D01*
X240006D01*
Y202593D01*
X240111D01*
Y202488D01*
X240006D01*
Y202383D01*
X239901D01*
Y202278D01*
X239796D01*
Y202173D01*
Y202068D01*
Y201963D01*
X239691D01*
Y201858D01*
X239587D01*
Y201753D01*
Y201648D01*
X239377D01*
Y201543D01*
X239482D01*
Y201438D01*
X239377D01*
Y201333D01*
X239272D01*
Y201228D01*
X239167D01*
Y201123D01*
X239272D01*
Y201019D01*
X239167D01*
Y200914D01*
X239062D01*
Y200809D01*
X238957D01*
Y200704D01*
X239062D01*
Y200599D01*
X238852D01*
Y200494D01*
Y200389D01*
X238747D01*
Y200284D01*
Y200179D01*
X238642D01*
Y200074D01*
Y199969D01*
X238537D01*
Y199864D01*
X238432D01*
Y199759D01*
X238327D01*
Y199654D01*
X238432D01*
Y199549D01*
X238327D01*
Y199444D01*
X238222D01*
Y199340D01*
X238117D01*
Y199235D01*
Y199130D01*
X238012D01*
Y199025D01*
Y198920D01*
X237908D01*
Y198815D01*
X237803D01*
Y198710D01*
X237698D01*
Y198605D01*
X237803D01*
Y198500D01*
X237698D01*
Y198395D01*
X237593D01*
Y198290D01*
X237488D01*
Y198185D01*
Y198080D01*
Y197975D01*
X237383D01*
Y197870D01*
X237278D01*
Y197765D01*
X237173D01*
Y197660D01*
X237068D01*
Y197556D01*
X237173D01*
Y197451D01*
X237068D01*
Y197346D01*
X236963D01*
Y197241D01*
X236858D01*
Y197136D01*
Y197031D01*
Y196926D01*
X236753D01*
Y196821D01*
X236648D01*
Y196716D01*
X236543D01*
Y196611D01*
X236438D01*
Y196506D01*
X236543D01*
Y196401D01*
X236438D01*
Y196296D01*
X236333D01*
Y196191D01*
X236229D01*
Y196086D01*
X236333D01*
Y195981D01*
X236229D01*
Y195877D01*
X236124D01*
Y195772D01*
X236019D01*
Y195667D01*
X236124D01*
Y195562D01*
X235914D01*
Y195457D01*
Y195352D01*
X235809D01*
Y195247D01*
Y195142D01*
X235704D01*
Y195037D01*
Y194932D01*
X235599D01*
Y194827D01*
X235494D01*
Y194722D01*
X235389D01*
Y194617D01*
X235494D01*
Y194512D01*
X235284D01*
Y194407D01*
Y194302D01*
X235179D01*
Y194198D01*
Y194093D01*
X235074D01*
Y193988D01*
Y193883D01*
X234969D01*
Y193778D01*
X234864D01*
Y193673D01*
X234759D01*
Y193568D01*
X234864D01*
Y193463D01*
X234759D01*
Y193358D01*
X234654D01*
Y193253D01*
X234550D01*
Y193148D01*
Y193043D01*
Y192938D01*
X234445D01*
Y192833D01*
X234340D01*
Y192728D01*
X234235D01*
Y192623D01*
X234130D01*
Y192519D01*
X234235D01*
Y192414D01*
X234130D01*
Y192309D01*
X234025D01*
Y192204D01*
X233920D01*
Y192099D01*
Y191994D01*
Y191889D01*
X233815D01*
Y191784D01*
X233710D01*
Y191679D01*
X233605D01*
Y191574D01*
X233500D01*
Y191469D01*
X233605D01*
Y191364D01*
X233500D01*
Y191259D01*
X233395D01*
Y191154D01*
X233290D01*
Y191049D01*
X233395D01*
Y190944D01*
X233290D01*
Y190839D01*
X233185D01*
Y190735D01*
X233080D01*
Y190630D01*
X233185D01*
Y190525D01*
X232975D01*
Y190420D01*
Y190315D01*
X232871D01*
Y190210D01*
X232766D01*
Y190105D01*
Y190000D01*
Y189895D01*
X232661D01*
Y189790D01*
X232556D01*
Y189685D01*
X232451D01*
Y189580D01*
X232556D01*
Y189475D01*
X232346D01*
Y189370D01*
Y189265D01*
X232241D01*
Y189160D01*
Y189056D01*
X232136D01*
Y188951D01*
Y188846D01*
X232031D01*
Y188741D01*
X231926D01*
Y188636D01*
X231821D01*
Y188531D01*
X231926D01*
Y188426D01*
X231821D01*
Y188321D01*
X231716D01*
Y188216D01*
X231611D01*
Y188111D01*
Y188006D01*
Y187901D01*
X231506D01*
Y187796D01*
X231401D01*
Y187691D01*
X231296D01*
Y187586D01*
X231191D01*
Y187481D01*
X231296D01*
Y187376D01*
X231191D01*
Y187271D01*
X231087D01*
Y187167D01*
X230982D01*
Y187062D01*
Y186957D01*
Y186852D01*
X230877D01*
Y186747D01*
X230772D01*
Y186642D01*
X230667D01*
Y186537D01*
X230562D01*
Y186432D01*
X230667D01*
Y186327D01*
X230562D01*
Y186222D01*
X230457D01*
Y186117D01*
X230352D01*
Y186012D01*
X230457D01*
Y185907D01*
X230352D01*
Y185802D01*
X230247D01*
Y185697D01*
X230142D01*
Y185592D01*
Y185488D01*
X230037D01*
Y185383D01*
Y185278D01*
X229932D01*
Y185173D01*
X229827D01*
Y185068D01*
Y184963D01*
Y184858D01*
X229722D01*
Y184753D01*
X229617D01*
Y184648D01*
X229512D01*
Y184543D01*
Y184438D01*
X229408D01*
Y184333D01*
Y184228D01*
X229303D01*
Y184123D01*
X229198D01*
Y184018D01*
Y183913D01*
Y183808D01*
X229093D01*
Y183704D01*
X228988D01*
Y183599D01*
X228883D01*
Y183494D01*
X228988D01*
Y183389D01*
X228883D01*
Y183284D01*
X228778D01*
Y183179D01*
X228673D01*
Y183074D01*
Y182969D01*
X228568D01*
Y182864D01*
Y182759D01*
X228463D01*
Y182654D01*
X228358D01*
Y182549D01*
X228253D01*
Y182444D01*
X228358D01*
Y182339D01*
X228253D01*
Y182234D01*
X228148D01*
Y182129D01*
X228043D01*
Y182025D01*
Y181920D01*
Y181815D01*
X227938D01*
Y181710D01*
X227833D01*
Y181605D01*
X227728D01*
Y181500D01*
X227624D01*
Y181395D01*
X227728D01*
Y181290D01*
X227624D01*
Y181185D01*
X227519D01*
Y181080D01*
X227414D01*
Y180975D01*
X227519D01*
Y180870D01*
X227414D01*
Y180765D01*
X227309D01*
Y180660D01*
X227204D01*
Y180555D01*
X227309D01*
Y180450D01*
X227099D01*
Y180346D01*
Y180241D01*
X226994D01*
Y180136D01*
X226889D01*
Y180031D01*
Y179926D01*
Y179821D01*
X226784D01*
Y179716D01*
X226679D01*
Y179611D01*
X226574D01*
Y179506D01*
X226679D01*
Y179401D01*
X226469D01*
Y179296D01*
Y179191D01*
X226364D01*
Y179086D01*
Y178981D01*
X226259D01*
Y178876D01*
Y178771D01*
X226154D01*
Y178666D01*
X226049D01*
Y178562D01*
X225944D01*
Y178457D01*
X226049D01*
Y178352D01*
X225944D01*
Y178247D01*
X225840D01*
Y178142D01*
X225735D01*
Y178037D01*
Y177932D01*
X225630D01*
Y177827D01*
Y177722D01*
X225525D01*
Y177617D01*
X225420D01*
Y177512D01*
X225315D01*
Y177407D01*
X225420D01*
Y177302D01*
X225315D01*
Y177197D01*
X225210D01*
Y177092D01*
X225105D01*
Y176987D01*
Y176883D01*
Y176778D01*
X225000D01*
Y176673D01*
X224895D01*
Y176568D01*
X224790D01*
Y176463D01*
X224685D01*
Y176358D01*
X224790D01*
Y176253D01*
X224685D01*
Y176148D01*
X224580D01*
Y176043D01*
X224475D01*
Y175938D01*
X224580D01*
Y175833D01*
X224475D01*
Y175728D01*
X224370D01*
Y175623D01*
X224265D01*
Y175518D01*
Y175413D01*
X224160D01*
Y175308D01*
Y175204D01*
X224056D01*
Y175099D01*
X223951D01*
Y174994D01*
X223846D01*
Y174889D01*
X223951D01*
Y174784D01*
X223846D01*
Y174679D01*
X223741D01*
Y174574D01*
X223636D01*
Y174469D01*
Y174364D01*
X223426D01*
Y174259D01*
X223531D01*
Y174154D01*
X223426D01*
Y174049D01*
X223321D01*
Y173944D01*
X223216D01*
Y173839D01*
X223321D01*
Y173734D01*
X223216D01*
Y173629D01*
X223111D01*
Y173525D01*
X223006D01*
Y173420D01*
X223111D01*
Y173315D01*
X223006D01*
Y173210D01*
X222901D01*
Y173105D01*
X222796D01*
Y173000D01*
Y172895D01*
X222691D01*
Y172790D01*
Y172685D01*
X222586D01*
Y172580D01*
X222481D01*
Y172475D01*
X222377D01*
Y172370D01*
X222481D01*
Y172265D01*
X222377D01*
Y172370D01*
X222272D01*
Y172475D01*
X222167D01*
Y172580D01*
X222062D01*
Y172685D01*
X221957D01*
Y172790D01*
X222062D01*
Y172895D01*
X221957D01*
Y173000D01*
X221852D01*
Y173105D01*
X221747D01*
Y173210D01*
Y173315D01*
Y173420D01*
X221642D01*
Y173525D01*
X221537D01*
Y173629D01*
X221432D01*
Y173734D01*
X221327D01*
Y173839D01*
X221432D01*
Y173944D01*
X221327D01*
Y174049D01*
X221222D01*
Y174154D01*
X221117D01*
Y174259D01*
X221222D01*
Y174364D01*
X221117D01*
Y174469D01*
X221012D01*
Y174574D01*
X220907D01*
Y174679D01*
X221012D01*
Y174784D01*
X220802D01*
Y174889D01*
Y174994D01*
X220698D01*
Y175099D01*
Y175204D01*
X220593D01*
Y175308D01*
Y175413D01*
X220488D01*
Y175518D01*
X220383D01*
Y175623D01*
X220278D01*
Y175728D01*
X220383D01*
Y175833D01*
X220278D01*
Y175938D01*
X220173D01*
Y176043D01*
X220068D01*
Y176148D01*
Y176253D01*
X219963D01*
Y176358D01*
Y176463D01*
X219858D01*
Y176568D01*
X219753D01*
Y176673D01*
X219648D01*
Y176778D01*
X219753D01*
Y176883D01*
X219648D01*
Y176987D01*
X219543D01*
Y177092D01*
X219438D01*
Y177197D01*
Y177302D01*
Y177407D01*
X219333D01*
Y177512D01*
X219228D01*
Y177617D01*
X219123D01*
Y177722D01*
X219018D01*
Y177827D01*
X219123D01*
Y177932D01*
X219018D01*
Y178037D01*
X218914D01*
Y178142D01*
X218809D01*
Y178247D01*
Y178352D01*
Y178457D01*
X218704D01*
Y178562D01*
X218599D01*
Y178666D01*
Y178771D01*
X218389D01*
Y178876D01*
X218494D01*
Y178981D01*
X218389D01*
Y179086D01*
X218284D01*
Y179191D01*
X218179D01*
Y179296D01*
X218284D01*
Y179401D01*
X218179D01*
Y179506D01*
X218074D01*
Y179611D01*
X217969D01*
Y179716D01*
X218074D01*
Y179821D01*
X217864D01*
Y179926D01*
Y180031D01*
X217759D01*
Y180136D01*
Y180241D01*
X217654D01*
Y180346D01*
Y180450D01*
X217549D01*
Y180555D01*
X217444D01*
Y180660D01*
X217339D01*
Y180765D01*
X217444D01*
Y180870D01*
X217339D01*
Y180975D01*
X217235D01*
Y181080D01*
X217130D01*
Y181185D01*
Y181290D01*
X217025D01*
Y181395D01*
Y181500D01*
X216920D01*
Y181605D01*
X216815D01*
Y181710D01*
X216710D01*
Y181815D01*
X216815D01*
Y181920D01*
X216710D01*
Y182025D01*
X216605D01*
Y182129D01*
X216500D01*
Y182234D01*
Y182339D01*
Y182444D01*
X216395D01*
Y182549D01*
X216290D01*
Y182654D01*
X216185D01*
Y182759D01*
Y182864D01*
Y182969D01*
X216080D01*
Y183074D01*
X215975D01*
Y183179D01*
X215870D01*
Y183284D01*
X215975D01*
Y183389D01*
X215870D01*
Y183494D01*
X215765D01*
Y183599D01*
X215660D01*
Y183704D01*
Y183808D01*
X215556D01*
Y183913D01*
Y184018D01*
X215451D01*
Y184123D01*
X215346D01*
Y184228D01*
X215241D01*
Y184333D01*
X215346D01*
Y184438D01*
X215241D01*
Y184543D01*
X215136D01*
Y184648D01*
X215031D01*
Y184753D01*
X215136D01*
Y184858D01*
X215031D01*
Y184963D01*
X214926D01*
Y185068D01*
X214821D01*
Y185173D01*
Y185278D01*
X214716D01*
Y185383D01*
Y185488D01*
X214611D01*
Y185592D01*
X214506D01*
Y185697D01*
X214401D01*
Y185802D01*
X214506D01*
Y185907D01*
X214401D01*
Y186012D01*
X214296D01*
Y186117D01*
X214191D01*
Y186222D01*
Y186327D01*
X214086D01*
Y186432D01*
Y186537D01*
X213981D01*
Y186642D01*
X213877D01*
Y186747D01*
X213772D01*
Y186852D01*
X213877D01*
Y186957D01*
X213772D01*
Y187062D01*
X213667D01*
Y187167D01*
X213562D01*
Y187271D01*
Y187376D01*
Y187481D01*
X213457D01*
Y187586D01*
X213352D01*
Y187691D01*
X213457D01*
Y187796D01*
X213247D01*
Y187901D01*
Y188006D01*
X213142D01*
Y188111D01*
X213037D01*
Y188216D01*
X212932D01*
Y188321D01*
X213037D01*
Y188426D01*
X212932D01*
Y188531D01*
X212827D01*
Y188636D01*
X212722D01*
Y188741D01*
X212827D01*
Y188846D01*
X212617D01*
Y188951D01*
Y189056D01*
X212512D01*
Y189160D01*
X212407D01*
Y189265D01*
Y189370D01*
Y189475D01*
X212302D01*
Y189580D01*
X212197D01*
Y189685D01*
X212093D01*
Y189790D01*
X212197D01*
Y189895D01*
X212093D01*
Y190000D01*
X211988D01*
Y190105D01*
X211883D01*
Y190210D01*
Y190315D01*
Y190420D01*
X211778D01*
Y190525D01*
X211673D01*
Y190630D01*
X211568D01*
Y190735D01*
X211463D01*
Y190839D01*
X211568D01*
Y190944D01*
X211463D01*
Y191049D01*
X211358D01*
Y191154D01*
X211253D01*
Y191259D01*
Y191364D01*
Y191469D01*
X211148D01*
Y191574D01*
X211043D01*
Y191679D01*
X210938D01*
Y191784D01*
X210833D01*
Y191889D01*
X210938D01*
Y191994D01*
X210833D01*
Y192099D01*
X210728D01*
Y192204D01*
X210623D01*
Y192309D01*
X210728D01*
Y192414D01*
X210623D01*
Y192519D01*
X210518D01*
Y192623D01*
X210414D01*
Y192728D01*
X210518D01*
Y192833D01*
X210309D01*
Y192938D01*
Y193043D01*
X210204D01*
Y193148D01*
X210099D01*
Y193253D01*
Y193358D01*
Y193463D01*
X209994D01*
Y193568D01*
X209889D01*
Y193673D01*
X209784D01*
Y193778D01*
X209889D01*
Y193883D01*
X209679D01*
Y193988D01*
Y194093D01*
X209574D01*
Y194198D01*
Y194302D01*
X209469D01*
Y194407D01*
Y194512D01*
X209364D01*
Y194617D01*
X209259D01*
Y194722D01*
X209154D01*
Y194827D01*
X209259D01*
Y194932D01*
X209154D01*
Y195037D01*
X209049D01*
Y195142D01*
X208944D01*
Y195247D01*
Y195352D01*
Y195457D01*
X208839D01*
Y195562D01*
X208735D01*
Y195667D01*
X208630D01*
Y195772D01*
X208525D01*
Y195877D01*
X208630D01*
Y195981D01*
X208525D01*
Y196086D01*
X208420D01*
Y196191D01*
X208315D01*
Y196296D01*
Y196401D01*
Y196506D01*
X208210D01*
Y196611D01*
X208105D01*
Y196716D01*
X208000D01*
Y196821D01*
X207895D01*
Y196926D01*
X208000D01*
Y197031D01*
X207895D01*
Y197136D01*
X207790D01*
Y197241D01*
X207685D01*
Y197346D01*
X207790D01*
Y197451D01*
X207685D01*
Y197556D01*
X207580D01*
Y197660D01*
X207475D01*
Y197765D01*
X207580D01*
Y197870D01*
X207370D01*
Y197975D01*
Y198080D01*
X207265D01*
Y198185D01*
Y198290D01*
X207160D01*
Y198395D01*
Y198500D01*
X207055D01*
Y198605D01*
X206951D01*
Y198710D01*
X206846D01*
Y198815D01*
X206951D01*
Y198920D01*
X206846D01*
Y199025D01*
X206741D01*
Y199130D01*
X206636D01*
Y199235D01*
Y199340D01*
X206531D01*
Y199444D01*
Y199549D01*
X206426D01*
Y199654D01*
X206321D01*
Y199759D01*
X206216D01*
Y199864D01*
X206321D01*
Y199969D01*
X206216D01*
Y200074D01*
X206111D01*
Y200179D01*
X206006D01*
Y200284D01*
Y200389D01*
Y200494D01*
X205901D01*
Y200599D01*
X205796D01*
Y200704D01*
X205691D01*
Y200809D01*
X205586D01*
Y200914D01*
X205691D01*
Y201019D01*
X205586D01*
Y201123D01*
X205481D01*
Y201228D01*
X205376D01*
Y201333D01*
Y201438D01*
Y201543D01*
X205272D01*
Y201648D01*
X205167D01*
Y201753D01*
X205062D01*
Y201858D01*
X204957D01*
Y201963D01*
X205062D01*
Y202068D01*
X204957D01*
Y202173D01*
X204852D01*
Y202278D01*
X204747D01*
Y202383D01*
X204852D01*
Y202488D01*
X204747D01*
Y202593D01*
X204642D01*
Y202698D01*
X204537D01*
Y202802D01*
X204642D01*
Y202907D01*
X204537D01*
Y203012D01*
X204432D01*
Y203117D01*
X204327D01*
Y203222D01*
Y203327D01*
X204222D01*
Y203432D01*
Y203537D01*
X204117D01*
Y203642D01*
X204012D01*
Y203747D01*
X203907D01*
Y203852D01*
X204012D01*
Y203957D01*
X203907D01*
Y204062D01*
X203802D01*
Y204167D01*
X203697D01*
Y204272D01*
Y204377D01*
X203593D01*
Y204482D01*
Y204586D01*
X203488D01*
Y204691D01*
X203383D01*
Y204796D01*
X203278D01*
Y204901D01*
X203383D01*
Y205006D01*
X203278D01*
Y205111D01*
X203173D01*
Y205216D01*
X203068D01*
Y205321D01*
Y205426D01*
Y205531D01*
X202963D01*
Y205636D01*
X202858D01*
Y205741D01*
X202753D01*
Y205846D01*
X202648D01*
Y205951D01*
X202753D01*
Y206056D01*
X202648D01*
Y206161D01*
X202543D01*
Y206265D01*
X202438D01*
Y206370D01*
X202543D01*
Y206475D01*
X202438D01*
Y206580D01*
X202333D01*
Y206685D01*
X202228D01*
Y206790D01*
Y206895D01*
X202123D01*
Y207000D01*
Y207105D01*
X202019D01*
Y207210D01*
X201914D01*
Y207315D01*
Y207420D01*
Y207525D01*
X201809D01*
Y207630D01*
X201704D01*
Y207735D01*
X201599D01*
Y207840D01*
X201704D01*
Y207944D01*
X201599D01*
Y208049D01*
X201494D01*
Y208154D01*
X201389D01*
Y208259D01*
Y208364D01*
X201284D01*
Y208469D01*
Y208574D01*
X201179D01*
Y208679D01*
X201074D01*
Y208784D01*
X200969D01*
Y208889D01*
X201074D01*
Y208994D01*
X200969D01*
Y209099D01*
X200864D01*
Y209204D01*
X200759D01*
Y209309D01*
Y209414D01*
Y209519D01*
X200654D01*
Y209624D01*
X200549D01*
Y209728D01*
X200444D01*
Y209833D01*
X200340D01*
Y209938D01*
X200444D01*
Y210043D01*
X200340D01*
Y210148D01*
X200235D01*
Y210253D01*
X200130D01*
Y210358D01*
X200235D01*
Y210463D01*
X200130D01*
Y210568D01*
X200025D01*
Y210673D01*
X199920D01*
Y210778D01*
Y210883D01*
X199815D01*
Y210988D01*
Y211093D01*
X199710D01*
Y211197D01*
X199605D01*
Y211303D01*
X199500D01*
Y211407D01*
X199605D01*
Y211512D01*
X199500D01*
Y211617D01*
X199395D01*
Y211722D01*
X199290D01*
Y211827D01*
Y211932D01*
X199185D01*
Y212037D01*
Y212142D01*
X199080D01*
Y212247D01*
Y212352D01*
X198975D01*
Y212457D01*
Y212562D01*
X198870D01*
Y212667D01*
X198765D01*
Y212772D01*
X198660D01*
Y212877D01*
X198765D01*
Y212981D01*
X198660D01*
Y213086D01*
X198556D01*
Y213191D01*
X198451D01*
Y213296D01*
Y213401D01*
X198346D01*
Y213506D01*
Y213611D01*
X198241D01*
Y213716D01*
X198136D01*
Y213821D01*
X198031D01*
Y213926D01*
X198136D01*
Y214031D01*
X198031D01*
Y214136D01*
X197926D01*
Y214241D01*
X197821D01*
Y214346D01*
Y214451D01*
Y214556D01*
X197716D01*
Y214660D01*
X197611D01*
Y214765D01*
X197506D01*
Y214870D01*
X197401D01*
Y214975D01*
X197506D01*
Y215080D01*
X197401D01*
Y215185D01*
X197296D01*
Y215290D01*
X197191D01*
Y215395D01*
X197296D01*
Y215500D01*
X197191D01*
Y215605D01*
X197086D01*
Y215710D01*
X196981D01*
Y215815D01*
X197086D01*
Y215920D01*
X196877D01*
Y216025D01*
Y216130D01*
X196772D01*
Y216235D01*
X196667D01*
Y216339D01*
Y216444D01*
Y216549D01*
X196562D01*
Y216654D01*
X196457D01*
Y216759D01*
X196352D01*
Y216864D01*
X196457D01*
Y216969D01*
X196247D01*
Y217074D01*
Y217179D01*
X196142D01*
Y217284D01*
Y217389D01*
X196037D01*
Y217494D01*
Y217599D01*
X195932D01*
Y217704D01*
X195827D01*
Y217809D01*
X195722D01*
Y217914D01*
X195827D01*
Y218018D01*
X195722D01*
Y218123D01*
X195617D01*
Y218228D01*
X195512D01*
Y218333D01*
Y218438D01*
Y218543D01*
X195407D01*
Y218648D01*
X195302D01*
Y218753D01*
X195198D01*
Y218858D01*
X195093D01*
Y218963D01*
X195198D01*
Y219068D01*
X195093D01*
Y219173D01*
X194988D01*
Y219278D01*
X194883D01*
Y219383D01*
Y219488D01*
Y219593D01*
X194778D01*
Y219698D01*
X194673D01*
Y219802D01*
X194568D01*
Y219907D01*
X194463D01*
Y220012D01*
X194568D01*
Y220117D01*
X194463D01*
Y220222D01*
X194358D01*
Y220327D01*
X194253D01*
Y220432D01*
X194358D01*
Y220537D01*
X194253D01*
Y220642D01*
X194148D01*
Y220747D01*
X194043D01*
Y220852D01*
X194148D01*
Y220957D01*
X193938D01*
Y221062D01*
Y221167D01*
X193833D01*
Y221272D01*
Y221377D01*
X193728D01*
Y221481D01*
Y221586D01*
X193623D01*
Y221691D01*
X193519D01*
Y221796D01*
X193414D01*
Y221901D01*
X193519D01*
Y222006D01*
X193414D01*
Y222111D01*
X193309D01*
Y222216D01*
X193204D01*
Y222321D01*
Y222426D01*
X193099D01*
Y222531D01*
Y222636D01*
X192994D01*
Y222741D01*
X192889D01*
Y222846D01*
X192784D01*
Y222951D01*
X192889D01*
Y223056D01*
X192784D01*
Y223160D01*
X192679D01*
Y223265D01*
X192574D01*
Y223370D01*
Y223475D01*
Y223580D01*
X192469D01*
Y223685D01*
X192364D01*
Y223790D01*
X192259D01*
Y223895D01*
X192154D01*
Y224000D01*
X192259D01*
Y224105D01*
X192154D01*
Y224210D01*
X192049D01*
Y224315D01*
X191944D01*
Y224420D01*
X192049D01*
Y224525D01*
X191944D01*
Y224630D01*
X191839D01*
Y224735D01*
X191735D01*
Y224840D01*
Y224944D01*
X191525D01*
Y225049D01*
X191630D01*
Y225154D01*
X191525D01*
Y225259D01*
X191420D01*
Y225364D01*
X191315D01*
Y225469D01*
X191420D01*
Y225574D01*
X191315D01*
Y225679D01*
X191210D01*
Y225784D01*
X191105D01*
Y225889D01*
X191210D01*
Y225994D01*
X191000D01*
Y226099D01*
Y226204D01*
X190895D01*
Y226309D01*
Y226414D01*
X190790D01*
Y226519D01*
Y226623D01*
X190685D01*
Y226728D01*
X190580D01*
Y226833D01*
X190475D01*
Y226938D01*
X190580D01*
Y227043D01*
X190475D01*
Y227148D01*
X190370D01*
Y227253D01*
X190265D01*
Y227358D01*
Y227463D01*
X190160D01*
Y227568D01*
Y227673D01*
X190056D01*
Y227778D01*
X196247D01*
Y227673D01*
X196142D01*
Y227568D01*
X196352D01*
Y227463D01*
Y227358D01*
X196457D01*
Y227253D01*
X196562D01*
Y227148D01*
X196667D01*
Y227043D01*
X196562D01*
Y226938D01*
X196667D01*
Y226833D01*
X196772D01*
Y226728D01*
X196877D01*
Y226623D01*
X196772D01*
Y226519D01*
X196877D01*
Y226414D01*
X196981D01*
Y226309D01*
X197086D01*
Y226204D01*
Y226099D01*
Y225994D01*
X197191D01*
Y225889D01*
X197296D01*
Y225784D01*
X197401D01*
Y225679D01*
Y225574D01*
Y225469D01*
X197506D01*
Y225364D01*
X197611D01*
Y225259D01*
X197716D01*
Y225154D01*
X197611D01*
Y225049D01*
X197716D01*
Y224944D01*
X197821D01*
Y224840D01*
X197926D01*
Y224735D01*
X197821D01*
Y224630D01*
X198031D01*
Y224525D01*
Y224420D01*
X198136D01*
Y224315D01*
X198241D01*
Y224210D01*
X198346D01*
Y224105D01*
X198241D01*
Y224000D01*
X198346D01*
Y223895D01*
X198451D01*
Y223790D01*
X198556D01*
Y223685D01*
X198451D01*
Y223580D01*
X198556D01*
Y223475D01*
X198660D01*
Y223370D01*
X198765D01*
Y223265D01*
X198870D01*
Y223160D01*
Y223056D01*
Y222951D01*
X198975D01*
Y222846D01*
X199080D01*
Y222741D01*
Y222636D01*
Y222531D01*
X199185D01*
Y222426D01*
X199290D01*
Y222321D01*
X199395D01*
Y222216D01*
X199290D01*
Y222111D01*
X199395D01*
Y222006D01*
X199500D01*
Y221901D01*
X199605D01*
Y221796D01*
X199500D01*
Y221691D01*
X199710D01*
Y221586D01*
Y221481D01*
X199815D01*
Y221377D01*
X199920D01*
Y221272D01*
X200025D01*
Y221167D01*
X199920D01*
Y221062D01*
X200025D01*
Y220957D01*
X200130D01*
Y220852D01*
X200235D01*
Y220747D01*
X200130D01*
Y220642D01*
X200235D01*
Y220537D01*
X200340D01*
Y220432D01*
X200444D01*
Y220327D01*
X200549D01*
Y220222D01*
Y220117D01*
Y220012D01*
X200654D01*
Y219907D01*
X200759D01*
Y219802D01*
Y219698D01*
Y219593D01*
X200864D01*
Y219488D01*
X200969D01*
Y219383D01*
X201074D01*
Y219278D01*
Y219173D01*
Y219068D01*
X201179D01*
Y218963D01*
X201284D01*
Y218858D01*
Y218753D01*
X201389D01*
Y218648D01*
Y218543D01*
X201494D01*
Y218438D01*
X201599D01*
Y218333D01*
X201704D01*
Y218228D01*
X201599D01*
Y218123D01*
X201704D01*
Y218018D01*
X201809D01*
Y217914D01*
X201914D01*
Y217809D01*
X201809D01*
Y217704D01*
X201914D01*
Y217599D01*
X202019D01*
Y217494D01*
X202123D01*
Y217389D01*
X202228D01*
Y217284D01*
Y217179D01*
Y217074D01*
X202333D01*
Y216969D01*
X202438D01*
Y216864D01*
X202543D01*
Y216759D01*
X202438D01*
Y216654D01*
X202543D01*
Y216549D01*
X202648D01*
Y216444D01*
X202753D01*
Y216339D01*
Y216235D01*
Y216130D01*
X202858D01*
Y216025D01*
X202963D01*
Y215920D01*
Y215815D01*
X203068D01*
Y215710D01*
Y215605D01*
X203173D01*
Y215500D01*
X203278D01*
Y215395D01*
X203383D01*
Y215290D01*
X203278D01*
Y215185D01*
X203383D01*
Y215080D01*
X203488D01*
Y214975D01*
X203593D01*
Y214870D01*
X203488D01*
Y214765D01*
X203593D01*
Y214660D01*
X203697D01*
Y214556D01*
X203802D01*
Y214451D01*
X203907D01*
Y214346D01*
Y214241D01*
Y214136D01*
X204012D01*
Y214031D01*
X204117D01*
Y213926D01*
X204222D01*
Y213821D01*
X204117D01*
Y213716D01*
X204222D01*
Y213611D01*
X204327D01*
Y213506D01*
X204432D01*
Y213401D01*
Y213296D01*
Y213191D01*
X204537D01*
Y213086D01*
X204642D01*
Y212981D01*
Y212877D01*
X204747D01*
Y212772D01*
Y212667D01*
X204852D01*
Y212562D01*
X204957D01*
Y212457D01*
X205062D01*
Y212352D01*
X204957D01*
Y212247D01*
X205062D01*
Y212142D01*
X205167D01*
Y212037D01*
X205272D01*
Y211932D01*
Y211827D01*
X205376D01*
Y211722D01*
Y211617D01*
X205481D01*
Y211512D01*
X205586D01*
Y211407D01*
X205691D01*
Y211303D01*
X205586D01*
Y211197D01*
X205691D01*
Y211093D01*
X205796D01*
Y210988D01*
X205901D01*
Y210883D01*
X205796D01*
Y210778D01*
X205901D01*
Y210673D01*
X206006D01*
Y210568D01*
X206111D01*
Y210463D01*
Y210358D01*
X206216D01*
Y210253D01*
Y210148D01*
X206321D01*
Y210043D01*
Y209938D01*
X206426D01*
Y209833D01*
Y209728D01*
X206531D01*
Y209624D01*
X206636D01*
Y209519D01*
X206741D01*
Y209414D01*
Y209309D01*
Y209204D01*
X206846D01*
Y209099D01*
X206951D01*
Y208994D01*
X206846D01*
Y208889D01*
X207055D01*
Y208784D01*
Y208679D01*
X207160D01*
Y208574D01*
X207265D01*
Y208469D01*
X207370D01*
Y208364D01*
X207265D01*
Y208259D01*
X207370D01*
Y208154D01*
X207475D01*
Y208049D01*
X207580D01*
Y207944D01*
X207475D01*
Y207840D01*
X207580D01*
Y207735D01*
X207685D01*
Y207630D01*
X207790D01*
Y207525D01*
Y207420D01*
X207895D01*
Y207315D01*
Y207210D01*
X208000D01*
Y207105D01*
Y207000D01*
X208105D01*
Y206895D01*
Y206790D01*
X208210D01*
Y206685D01*
X208315D01*
Y206580D01*
X208420D01*
Y206475D01*
X208315D01*
Y206370D01*
X208420D01*
Y206265D01*
X208525D01*
Y206161D01*
X208630D01*
Y206056D01*
Y205951D01*
X208735D01*
Y205846D01*
Y205741D01*
X208839D01*
Y205636D01*
X208944D01*
Y205531D01*
X209049D01*
Y205426D01*
X208944D01*
Y205321D01*
X209049D01*
Y205216D01*
X209154D01*
Y205111D01*
X209259D01*
Y205006D01*
X209154D01*
Y204901D01*
X209259D01*
Y204796D01*
X209364D01*
Y204691D01*
X209469D01*
Y204586D01*
Y204482D01*
X209679D01*
Y204377D01*
X209574D01*
Y204272D01*
X209679D01*
Y204167D01*
X209784D01*
Y204062D01*
X209889D01*
Y203957D01*
X209784D01*
Y203852D01*
X209889D01*
Y203747D01*
X209994D01*
Y203642D01*
X210099D01*
Y203537D01*
Y203432D01*
Y203327D01*
X210204D01*
Y203222D01*
X210309D01*
Y203117D01*
Y203012D01*
X210414D01*
Y202907D01*
Y202802D01*
X210518D01*
Y202698D01*
X210623D01*
Y202593D01*
X210728D01*
Y202488D01*
X210623D01*
Y202383D01*
X210728D01*
Y202278D01*
X210833D01*
Y202173D01*
X210938D01*
Y202068D01*
X210833D01*
Y201963D01*
X210938D01*
Y201858D01*
X211043D01*
Y201753D01*
X211148D01*
Y201648D01*
Y201543D01*
X211358D01*
Y201438D01*
X211253D01*
Y201333D01*
X211358D01*
Y201228D01*
X211463D01*
Y201123D01*
X211568D01*
Y201019D01*
X211463D01*
Y200914D01*
X211568D01*
Y200809D01*
X211673D01*
Y200704D01*
X211778D01*
Y200599D01*
Y200494D01*
Y200389D01*
X211883D01*
Y200284D01*
X211988D01*
Y200179D01*
Y200074D01*
X212093D01*
Y199969D01*
Y199864D01*
X212197D01*
Y199759D01*
X212302D01*
Y199654D01*
X212407D01*
Y199549D01*
X212302D01*
Y199444D01*
X212407D01*
Y199340D01*
X212512D01*
Y199235D01*
X212617D01*
Y199130D01*
X212512D01*
Y199025D01*
X212617D01*
Y198920D01*
X212722D01*
Y198815D01*
X212827D01*
Y198710D01*
Y198605D01*
X213037D01*
Y198500D01*
X212932D01*
Y198395D01*
X213037D01*
Y198290D01*
X213142D01*
Y198185D01*
X213247D01*
Y198080D01*
X213142D01*
Y197975D01*
X213247D01*
Y197870D01*
X213352D01*
Y197765D01*
X213457D01*
Y197660D01*
Y197556D01*
Y197451D01*
X213562D01*
Y197346D01*
X213667D01*
Y197241D01*
Y197136D01*
X213772D01*
Y197031D01*
Y196926D01*
X213877D01*
Y196821D01*
X213981D01*
Y196716D01*
X214086D01*
Y196611D01*
X213981D01*
Y196506D01*
X214086D01*
Y196401D01*
X214191D01*
Y196296D01*
X214296D01*
Y196191D01*
X214191D01*
Y196086D01*
X214401D01*
Y195981D01*
Y195877D01*
X214506D01*
Y195772D01*
X214611D01*
Y195667D01*
X214716D01*
Y195562D01*
X214611D01*
Y195457D01*
X214716D01*
Y195352D01*
X214821D01*
Y195247D01*
X214926D01*
Y195142D01*
X214821D01*
Y195037D01*
X214926D01*
Y194932D01*
X215031D01*
Y194827D01*
X215136D01*
Y194722D01*
Y194617D01*
Y194512D01*
X215241D01*
Y194407D01*
X215346D01*
Y194302D01*
Y194198D01*
X215451D01*
Y194093D01*
Y193988D01*
X215556D01*
Y193883D01*
X215660D01*
Y193778D01*
X215765D01*
Y193673D01*
X215660D01*
Y193568D01*
X215765D01*
Y193463D01*
X215870D01*
Y193358D01*
X215975D01*
Y193253D01*
X215870D01*
Y193148D01*
X216080D01*
Y193043D01*
Y192938D01*
X216185D01*
Y192833D01*
X216290D01*
Y192728D01*
X216395D01*
Y192623D01*
X216290D01*
Y192519D01*
X216395D01*
Y192414D01*
X216500D01*
Y192309D01*
X216605D01*
Y192204D01*
X216500D01*
Y192099D01*
X216605D01*
Y191994D01*
X216710D01*
Y191889D01*
X216815D01*
Y191784D01*
Y191679D01*
Y191574D01*
X216920D01*
Y191469D01*
X217025D01*
Y191364D01*
Y191259D01*
X217130D01*
Y191154D01*
Y191049D01*
X217235D01*
Y190944D01*
X217339D01*
Y190839D01*
X217444D01*
Y190735D01*
X217339D01*
Y190630D01*
X217444D01*
Y190525D01*
X217549D01*
Y190420D01*
X217654D01*
Y190315D01*
X217549D01*
Y190210D01*
X217759D01*
Y190105D01*
Y190000D01*
X217864D01*
Y189895D01*
X217969D01*
Y189790D01*
X218074D01*
Y189685D01*
X217969D01*
Y189580D01*
X218074D01*
Y189475D01*
X218179D01*
Y189370D01*
X218284D01*
Y189265D01*
X218179D01*
Y189160D01*
X218284D01*
Y189056D01*
X218389D01*
Y188951D01*
X218494D01*
Y188846D01*
Y188741D01*
Y188636D01*
X218599D01*
Y188531D01*
X218704D01*
Y188426D01*
X218809D01*
Y188321D01*
Y188216D01*
Y188111D01*
X218914D01*
Y188006D01*
X219018D01*
Y187901D01*
X219123D01*
Y187796D01*
X219018D01*
Y187691D01*
X219123D01*
Y187586D01*
X219228D01*
Y187481D01*
X219333D01*
Y187376D01*
X219228D01*
Y187271D01*
X219438D01*
Y187167D01*
Y187062D01*
X219543D01*
Y186957D01*
X219648D01*
Y186852D01*
X219753D01*
Y186747D01*
X219648D01*
Y186642D01*
X219753D01*
Y186537D01*
X219858D01*
Y186432D01*
X219963D01*
Y186327D01*
X219858D01*
Y186222D01*
X219963D01*
Y186117D01*
X220068D01*
Y186012D01*
X220173D01*
Y185907D01*
Y185802D01*
Y185697D01*
X220278D01*
Y185592D01*
X220383D01*
Y185488D01*
X220488D01*
Y185383D01*
Y185278D01*
Y185173D01*
X220593D01*
Y185068D01*
X220698D01*
Y184963D01*
X220802D01*
Y184858D01*
X220698D01*
Y184753D01*
X220802D01*
Y184648D01*
X220907D01*
Y184543D01*
X221012D01*
Y184438D01*
X220907D01*
Y184333D01*
X221117D01*
Y184228D01*
Y184123D01*
X221222D01*
Y184018D01*
X221327D01*
Y183913D01*
X221432D01*
Y183808D01*
X221327D01*
Y183704D01*
X221432D01*
Y183599D01*
X221537D01*
Y183494D01*
X221642D01*
Y183389D01*
X221537D01*
Y183284D01*
X221642D01*
Y183179D01*
X221747D01*
Y183074D01*
X221852D01*
Y182969D01*
Y182864D01*
Y182759D01*
X221957D01*
Y182654D01*
X222062D01*
Y182549D01*
X222167D01*
Y182444D01*
Y182339D01*
Y182234D01*
X222272D01*
Y182129D01*
X222377D01*
Y182025D01*
X222481D01*
Y182129D01*
X222377D01*
Y182234D01*
X222481D01*
Y182339D01*
X222586D01*
Y182444D01*
X222691D01*
Y182549D01*
X222586D01*
Y182654D01*
X222796D01*
Y182759D01*
Y182864D01*
X222901D01*
Y182969D01*
X223006D01*
Y183074D01*
X223111D01*
Y183179D01*
X223006D01*
Y183284D01*
X223111D01*
Y183389D01*
X223216D01*
Y183494D01*
X223321D01*
Y183599D01*
X223216D01*
Y183704D01*
X223321D01*
Y183808D01*
X223426D01*
Y183913D01*
X223531D01*
Y184018D01*
X223636D01*
Y184123D01*
Y184228D01*
Y184333D01*
X223741D01*
Y184438D01*
X223846D01*
Y184543D01*
X223951D01*
Y184648D01*
X223846D01*
Y184753D01*
X223951D01*
Y184858D01*
X224056D01*
Y184963D01*
X224160D01*
Y185068D01*
Y185173D01*
X224265D01*
Y185278D01*
Y185383D01*
X224370D01*
Y185488D01*
X224475D01*
Y185592D01*
Y185697D01*
Y185802D01*
X224580D01*
Y185907D01*
X224685D01*
Y186012D01*
X224790D01*
Y186117D01*
Y186222D01*
Y186327D01*
X224895D01*
Y186432D01*
X225000D01*
Y186537D01*
Y186642D01*
X225105D01*
Y186747D01*
Y186852D01*
X225210D01*
Y186957D01*
X225315D01*
Y187062D01*
X225420D01*
Y187167D01*
X225315D01*
Y187271D01*
X225420D01*
Y187376D01*
X225525D01*
Y187481D01*
X225630D01*
Y187586D01*
X225525D01*
Y187691D01*
X225735D01*
Y187796D01*
Y187901D01*
X225840D01*
Y188006D01*
X225944D01*
Y188111D01*
X226049D01*
Y188216D01*
X225944D01*
Y188321D01*
X226049D01*
Y188426D01*
X226154D01*
Y188531D01*
X226259D01*
Y188636D01*
X226154D01*
Y188741D01*
X226259D01*
Y188846D01*
X226364D01*
Y188951D01*
X226469D01*
Y189056D01*
Y189160D01*
X226574D01*
Y189265D01*
Y189370D01*
X226679D01*
Y189475D01*
X226784D01*
Y189580D01*
X226889D01*
Y189685D01*
X226784D01*
Y189790D01*
X226889D01*
Y189895D01*
X226994D01*
Y190000D01*
X227099D01*
Y190105D01*
Y190210D01*
Y190315D01*
X227204D01*
Y190420D01*
X227309D01*
Y190525D01*
Y190630D01*
X227414D01*
Y190735D01*
Y190839D01*
X227519D01*
Y190944D01*
X227624D01*
Y191049D01*
X227728D01*
Y191154D01*
Y191259D01*
Y191364D01*
X227833D01*
Y191469D01*
X227938D01*
Y191574D01*
Y191679D01*
X228043D01*
Y191784D01*
Y191889D01*
X228148D01*
Y191994D01*
X228253D01*
Y192099D01*
X228358D01*
Y192204D01*
X228253D01*
Y192309D01*
X228358D01*
Y192414D01*
X228463D01*
Y192519D01*
X228568D01*
Y192623D01*
X228463D01*
Y192728D01*
X228673D01*
Y192833D01*
Y192938D01*
X228778D01*
Y193043D01*
X228883D01*
Y193148D01*
X228988D01*
Y193253D01*
X228883D01*
Y193358D01*
X228988D01*
Y193463D01*
X229093D01*
Y193568D01*
X229198D01*
Y193673D01*
X229093D01*
Y193778D01*
X229198D01*
Y193883D01*
X229303D01*
Y193988D01*
X229408D01*
Y194093D01*
Y194198D01*
Y194302D01*
X229512D01*
Y194407D01*
X229617D01*
Y194512D01*
X229722D01*
Y194617D01*
Y194722D01*
Y194827D01*
X229827D01*
Y194932D01*
X229932D01*
Y195037D01*
X230037D01*
Y195142D01*
X229932D01*
Y195247D01*
X230037D01*
Y195352D01*
X230142D01*
Y195457D01*
X230247D01*
Y195562D01*
Y195667D01*
X230352D01*
Y195772D01*
Y195877D01*
X230457D01*
Y195981D01*
X230562D01*
Y196086D01*
X230667D01*
Y196191D01*
X230562D01*
Y196296D01*
X230667D01*
Y196401D01*
X230772D01*
Y196506D01*
X230877D01*
Y196611D01*
Y196716D01*
X230982D01*
Y196821D01*
Y196926D01*
X231087D01*
Y197031D01*
X231191D01*
Y197136D01*
X231296D01*
Y197241D01*
X231191D01*
Y197346D01*
X231296D01*
Y197451D01*
X231401D01*
Y197556D01*
X231506D01*
Y197660D01*
X231401D01*
Y197765D01*
X231506D01*
Y197870D01*
X231611D01*
Y197975D01*
X231716D01*
Y198080D01*
Y198185D01*
X231926D01*
Y198290D01*
X231821D01*
Y198395D01*
X231926D01*
Y198500D01*
X232031D01*
Y198605D01*
X232136D01*
Y198710D01*
X232031D01*
Y198815D01*
X232136D01*
Y198920D01*
X232241D01*
Y199025D01*
X232346D01*
Y199130D01*
Y199235D01*
Y199340D01*
X232451D01*
Y199444D01*
X232556D01*
Y199549D01*
Y199654D01*
X232661D01*
Y199759D01*
Y199864D01*
X232766D01*
Y199969D01*
X232871D01*
Y200074D01*
X232975D01*
Y200179D01*
X232871D01*
Y200284D01*
X232975D01*
Y200389D01*
X233080D01*
Y200494D01*
X233185D01*
Y200599D01*
X233080D01*
Y200704D01*
X233290D01*
Y200809D01*
Y200914D01*
X233395D01*
Y201019D01*
X233500D01*
Y201123D01*
X233605D01*
Y201228D01*
X233500D01*
Y201333D01*
X233605D01*
Y201438D01*
X233710D01*
Y201543D01*
X233815D01*
Y201648D01*
X233710D01*
Y201753D01*
X233815D01*
Y201858D01*
X233920D01*
Y201963D01*
X234025D01*
Y202068D01*
X234130D01*
Y202173D01*
Y202278D01*
Y202383D01*
X234235D01*
Y202488D01*
X234340D01*
Y202593D01*
X234445D01*
Y202698D01*
X234340D01*
Y202802D01*
X234445D01*
Y202907D01*
X234550D01*
Y203012D01*
X234654D01*
Y203117D01*
Y203222D01*
X234864D01*
Y203327D01*
X234759D01*
Y203432D01*
X234864D01*
Y203537D01*
X234969D01*
Y203642D01*
Y203747D01*
Y203852D01*
X235074D01*
Y203957D01*
X235179D01*
Y204062D01*
X235284D01*
Y204167D01*
Y204272D01*
Y204377D01*
X235389D01*
Y204482D01*
X235494D01*
Y204586D01*
Y204691D01*
X235599D01*
Y204796D01*
Y204901D01*
X235704D01*
Y205006D01*
X235809D01*
Y205111D01*
X235914D01*
Y205216D01*
X235809D01*
Y205321D01*
X235914D01*
Y205426D01*
X236019D01*
Y205531D01*
X236124D01*
Y205636D01*
X236019D01*
Y205741D01*
X236229D01*
Y205846D01*
Y205951D01*
X236333D01*
Y206056D01*
X236438D01*
Y206161D01*
X236543D01*
Y206265D01*
X236438D01*
Y206370D01*
X236543D01*
Y206475D01*
X236648D01*
Y206580D01*
X236753D01*
Y206685D01*
X236648D01*
Y206790D01*
X236753D01*
Y206895D01*
X236858D01*
Y207000D01*
X236963D01*
Y207105D01*
X237068D01*
Y207210D01*
X237173D01*
Y207315D01*
X237068D01*
Y207420D01*
X237173D01*
Y207525D01*
X237278D01*
Y207630D01*
X237383D01*
Y207735D01*
X237278D01*
Y207840D01*
X237383D01*
Y207944D01*
X237488D01*
Y208049D01*
X237593D01*
Y208154D01*
Y208259D01*
Y208364D01*
X237698D01*
Y208469D01*
X237803D01*
Y208574D01*
X237698D01*
Y208679D01*
X237908D01*
Y208784D01*
Y208889D01*
X238012D01*
Y208994D01*
X238117D01*
Y209099D01*
X238222D01*
Y209204D01*
Y209309D01*
Y209414D01*
X238327D01*
Y209519D01*
X238432D01*
Y209624D01*
Y209728D01*
X238537D01*
Y209833D01*
Y209938D01*
X238642D01*
Y210043D01*
X238747D01*
Y210148D01*
X238852D01*
Y210253D01*
X238747D01*
Y210358D01*
X238852D01*
Y210463D01*
X238957D01*
Y210568D01*
X239062D01*
Y210673D01*
X238957D01*
Y210778D01*
X239167D01*
Y210883D01*
Y210988D01*
X239272D01*
Y211093D01*
X239377D01*
Y211197D01*
X239482D01*
Y211303D01*
X239377D01*
Y211407D01*
X239482D01*
Y211512D01*
X239587D01*
Y211617D01*
X239691D01*
Y211722D01*
X239587D01*
Y211827D01*
X239691D01*
Y211932D01*
X239796D01*
Y212037D01*
X239901D01*
Y212142D01*
Y212247D01*
Y212352D01*
X240006D01*
Y212457D01*
X240111D01*
Y212562D01*
X240216D01*
Y212667D01*
Y212772D01*
Y212877D01*
X240321D01*
Y212981D01*
X240426D01*
Y213086D01*
X240531D01*
Y213191D01*
Y213296D01*
Y213401D01*
X240636D01*
Y213506D01*
X240741D01*
Y213611D01*
Y213716D01*
X240846D01*
Y213821D01*
Y213926D01*
X240951D01*
Y214031D01*
X241056D01*
Y214136D01*
X241161D01*
Y214241D01*
X241056D01*
Y214346D01*
X241161D01*
Y214451D01*
X241266D01*
Y214556D01*
X241371D01*
Y214660D01*
Y214765D01*
X241475D01*
Y214870D01*
Y214975D01*
X241580D01*
Y215080D01*
X241685D01*
Y215185D01*
X241790D01*
Y215290D01*
X241685D01*
Y215395D01*
X241790D01*
Y215500D01*
X241895D01*
Y215605D01*
X242000D01*
Y215710D01*
X241895D01*
Y215815D01*
X242000D01*
Y215920D01*
X242105D01*
Y216025D01*
X242210D01*
Y216130D01*
Y216235D01*
X242420D01*
Y216339D01*
X242315D01*
Y216444D01*
X242420D01*
Y216549D01*
X242525D01*
Y216654D01*
X242630D01*
Y216759D01*
X242525D01*
Y216864D01*
X242630D01*
Y216969D01*
X242735D01*
Y217074D01*
X242840D01*
Y217179D01*
Y217284D01*
Y217389D01*
X242945D01*
Y217494D01*
X243050D01*
Y217599D01*
Y217704D01*
X243154D01*
Y217809D01*
Y217914D01*
X243259D01*
Y218018D01*
X243364D01*
Y218123D01*
X243469D01*
Y218228D01*
X243364D01*
Y218333D01*
X243469D01*
Y218438D01*
X243574D01*
Y218543D01*
X243679D01*
Y218648D01*
X243574D01*
Y218753D01*
X243784D01*
Y218858D01*
Y218963D01*
X243889D01*
Y219068D01*
X243994D01*
Y219173D01*
X244099D01*
Y219278D01*
X243994D01*
Y219383D01*
X244099D01*
Y219488D01*
X244204D01*
Y219593D01*
X244309D01*
Y219698D01*
X244204D01*
Y219802D01*
X244309D01*
Y219907D01*
X244414D01*
Y220012D01*
X244519D01*
Y220117D01*
X244624D01*
Y220222D01*
Y220327D01*
Y220432D01*
X244729D01*
Y220537D01*
X244833D01*
Y220642D01*
X244938D01*
Y220747D01*
X244833D01*
Y220852D01*
X244938D01*
Y220957D01*
X245043D01*
Y221062D01*
X245148D01*
Y221167D01*
Y221272D01*
X245358D01*
Y221377D01*
X245253D01*
Y221481D01*
X245358D01*
Y221586D01*
X245463D01*
Y221691D01*
Y221796D01*
Y221901D01*
X245568D01*
Y222006D01*
X245673D01*
Y222111D01*
X245778D01*
Y222216D01*
Y222321D01*
Y222426D01*
X245673D01*
Y222531D01*
X245568D01*
Y222426D01*
X245463D01*
Y222531D01*
X245358D01*
Y222426D01*
X245253D01*
Y222531D01*
X245148D01*
Y222426D01*
X245043D01*
Y222531D01*
X244938D01*
Y222426D01*
X244833D01*
Y222531D01*
X244729D01*
Y222426D01*
X244624D01*
Y222531D01*
X244519D01*
Y222426D01*
X244414D01*
Y222531D01*
X244309D01*
Y222426D01*
X244204D01*
Y222531D01*
X244099D01*
Y222426D01*
X243994D01*
Y222531D01*
X243889D01*
Y222426D01*
X243784D01*
Y222531D01*
X243679D01*
Y222426D01*
X243574D01*
Y222531D01*
X243469D01*
Y222426D01*
X243364D01*
Y222531D01*
X243259D01*
Y222426D01*
X243154D01*
Y222531D01*
X243050D01*
Y222426D01*
X242945D01*
Y222531D01*
X242840D01*
Y222426D01*
X242735D01*
Y222531D01*
X242630D01*
Y222426D01*
X242525D01*
Y222531D01*
X242420D01*
Y222426D01*
X242315D01*
Y222531D01*
X242210D01*
Y222426D01*
X242105D01*
Y222531D01*
X242000D01*
Y222426D01*
X241895D01*
Y222531D01*
X241790D01*
Y222426D01*
X241685D01*
Y222531D01*
X241580D01*
Y222426D01*
X241475D01*
Y222531D01*
X241371D01*
Y222426D01*
X241266D01*
Y222531D01*
X241161D01*
Y222426D01*
X241056D01*
Y222531D01*
X240951D01*
Y222426D01*
X240846D01*
Y222531D01*
X240741D01*
Y222426D01*
X240636D01*
Y222531D01*
X240531D01*
Y222426D01*
X240426D01*
Y222531D01*
X240321D01*
Y222426D01*
X240216D01*
Y222531D01*
X240111D01*
Y222426D01*
X240006D01*
Y222531D01*
X239901D01*
Y222426D01*
X239796D01*
Y222531D01*
X239691D01*
Y222426D01*
X239587D01*
Y222531D01*
X239482D01*
Y222426D01*
X239377D01*
Y222531D01*
X239272D01*
Y222426D01*
X238957D01*
Y222531D01*
X238852D01*
Y222426D01*
X238747D01*
Y222531D01*
X238642D01*
Y222426D01*
X238537D01*
Y222531D01*
X238432D01*
Y222426D01*
X238117D01*
Y222531D01*
X238012D01*
Y222426D01*
X237698D01*
Y222321D01*
X237593D01*
Y222216D01*
X237488D01*
Y222111D01*
X237593D01*
Y222006D01*
X237488D01*
Y221901D01*
X237383D01*
Y221796D01*
X237278D01*
Y221691D01*
X237383D01*
Y221586D01*
X237173D01*
Y221481D01*
Y221377D01*
X237068D01*
Y221272D01*
Y221167D01*
X236963D01*
Y221062D01*
Y220957D01*
X236858D01*
Y220852D01*
X236753D01*
Y220747D01*
X236648D01*
Y220642D01*
X236753D01*
Y220537D01*
X236543D01*
Y220432D01*
Y220327D01*
X236438D01*
Y220222D01*
Y220117D01*
X236333D01*
Y220012D01*
Y219907D01*
X236229D01*
Y219802D01*
X236124D01*
Y219698D01*
X236019D01*
Y219593D01*
X236124D01*
Y219488D01*
X236019D01*
Y219383D01*
X235914D01*
Y219278D01*
X235809D01*
Y219173D01*
Y219068D01*
X235704D01*
Y218963D01*
Y218858D01*
X235599D01*
Y218753D01*
X235494D01*
Y218648D01*
X235389D01*
Y218543D01*
X235494D01*
Y218438D01*
X235389D01*
Y218333D01*
X235284D01*
Y218228D01*
X235179D01*
Y218123D01*
Y218018D01*
X235074D01*
Y217914D01*
Y217809D01*
X234969D01*
Y217704D01*
X234864D01*
Y217599D01*
X234759D01*
Y217494D01*
X234864D01*
Y217389D01*
X234759D01*
Y217284D01*
X234654D01*
Y217179D01*
X234550D01*
Y217074D01*
Y216969D01*
Y216864D01*
X234445D01*
Y216759D01*
X234340D01*
Y216654D01*
X234235D01*
Y216549D01*
X234130D01*
Y216444D01*
X234235D01*
Y216339D01*
X234130D01*
Y216235D01*
X234025D01*
Y216130D01*
X233920D01*
Y216025D01*
Y215920D01*
Y215815D01*
X233815D01*
Y215710D01*
X233710D01*
Y215605D01*
X233605D01*
Y215500D01*
X233500D01*
Y215395D01*
X233605D01*
Y215290D01*
X233500D01*
Y215185D01*
X233395D01*
Y215080D01*
X233290D01*
Y214975D01*
X233395D01*
Y214870D01*
X233290D01*
Y214765D01*
X233185D01*
Y214660D01*
X233080D01*
Y214556D01*
Y214451D01*
X232975D01*
Y214346D01*
Y214241D01*
X232871D01*
Y214136D01*
X232766D01*
Y214031D01*
X232661D01*
Y213926D01*
X232766D01*
Y213821D01*
X232661D01*
Y213716D01*
X232556D01*
Y213611D01*
X232451D01*
Y213506D01*
Y213401D01*
X232346D01*
Y213296D01*
Y213191D01*
X232241D01*
Y213086D01*
X232136D01*
Y212981D01*
X232031D01*
Y212877D01*
X232136D01*
Y212772D01*
X232031D01*
Y212667D01*
X231926D01*
Y212562D01*
X231821D01*
Y212457D01*
X231926D01*
Y212352D01*
X231821D01*
Y212247D01*
X231716D01*
Y212142D01*
X231611D01*
Y212037D01*
Y211932D01*
X231506D01*
Y211827D01*
Y211722D01*
X231401D01*
Y211617D01*
X231296D01*
Y211512D01*
X231191D01*
Y211407D01*
X231296D01*
Y211303D01*
X230982D01*
Y211197D01*
X231087D01*
Y211093D01*
X230982D01*
Y210988D01*
Y210883D01*
X230877D01*
Y210778D01*
Y210673D01*
X230772D01*
Y210568D01*
X230667D01*
Y210463D01*
X230562D01*
Y210358D01*
X230667D01*
Y210253D01*
X230562D01*
Y210148D01*
X230457D01*
Y210043D01*
X230352D01*
Y209938D01*
Y209833D01*
X230247D01*
Y209728D01*
Y209624D01*
X230142D01*
Y209519D01*
X230037D01*
Y209414D01*
X229932D01*
Y209309D01*
X230037D01*
Y209204D01*
X229932D01*
Y209099D01*
X229827D01*
Y208994D01*
X229722D01*
Y208889D01*
Y208784D01*
X229617D01*
Y208679D01*
Y208574D01*
X229512D01*
Y208469D01*
X229408D01*
Y208364D01*
X229303D01*
Y208259D01*
X229408D01*
Y208154D01*
X229303D01*
Y208049D01*
X229198D01*
Y207944D01*
X229093D01*
Y207840D01*
Y207735D01*
Y207630D01*
X228988D01*
Y207525D01*
X228883D01*
Y207420D01*
X228778D01*
Y207315D01*
X228673D01*
Y207210D01*
X228778D01*
Y207105D01*
X228673D01*
Y207000D01*
X228568D01*
Y206895D01*
X228463D01*
Y206790D01*
Y206685D01*
Y206580D01*
X228358D01*
Y206475D01*
X228253D01*
Y206370D01*
X228148D01*
Y206265D01*
X228043D01*
Y206161D01*
X228148D01*
Y206056D01*
X228043D01*
Y205951D01*
X227938D01*
Y205846D01*
X227833D01*
Y205741D01*
X227938D01*
Y205636D01*
X227833D01*
Y205531D01*
X227728D01*
Y205426D01*
X227624D01*
Y205321D01*
X227728D01*
Y205216D01*
X227519D01*
Y205111D01*
Y205006D01*
X227414D01*
Y204901D01*
X227309D01*
Y204796D01*
X227204D01*
Y204691D01*
X227309D01*
Y204586D01*
X227204D01*
Y204482D01*
X227099D01*
Y204377D01*
X226994D01*
Y204272D01*
X227099D01*
Y204167D01*
X226889D01*
Y204062D01*
Y203957D01*
X226784D01*
Y203852D01*
X226679D01*
Y203747D01*
X226574D01*
Y203642D01*
X226679D01*
Y203537D01*
X226574D01*
Y203432D01*
X226469D01*
Y203327D01*
X226364D01*
Y203222D01*
X226469D01*
Y203117D01*
X226259D01*
Y203012D01*
Y202907D01*
X226154D01*
Y202802D01*
Y202698D01*
X226049D01*
Y202593D01*
Y202488D01*
X225944D01*
Y202383D01*
X225840D01*
Y202278D01*
X225735D01*
Y202173D01*
X225840D01*
Y202068D01*
X225735D01*
Y201963D01*
X225630D01*
Y201858D01*
X225525D01*
Y201753D01*
Y201648D01*
X225420D01*
Y201543D01*
Y201438D01*
X225315D01*
Y201333D01*
X225210D01*
Y201228D01*
X225105D01*
Y201123D01*
X225210D01*
Y201019D01*
X225105D01*
Y200914D01*
X225000D01*
Y200809D01*
X224895D01*
Y200704D01*
Y200599D01*
Y200494D01*
X224790D01*
Y200389D01*
X224685D01*
Y200284D01*
X224580D01*
Y200179D01*
X224475D01*
Y200074D01*
X224580D01*
Y199969D01*
X224475D01*
Y199864D01*
X224370D01*
Y199759D01*
X224265D01*
Y199654D01*
Y199549D01*
Y199444D01*
X224160D01*
Y199340D01*
X224056D01*
Y199235D01*
X223951D01*
Y199130D01*
X223846D01*
Y199025D01*
X223951D01*
Y198920D01*
X223846D01*
Y198815D01*
X223741D01*
Y198710D01*
X223636D01*
Y198605D01*
X223741D01*
Y198500D01*
X223636D01*
Y198395D01*
X223531D01*
Y198290D01*
X223426D01*
Y198185D01*
X223321D01*
Y198080D01*
X223216D01*
Y197975D01*
X223321D01*
Y197870D01*
X223216D01*
Y197765D01*
X223111D01*
Y197660D01*
X223006D01*
Y197556D01*
Y197451D01*
Y197346D01*
X222901D01*
Y197241D01*
X222796D01*
Y197136D01*
X222691D01*
Y197031D01*
X222586D01*
Y196926D01*
X222691D01*
Y196821D01*
X222586D01*
Y196926D01*
X222481D01*
Y197031D01*
X222377D01*
Y197136D01*
X222481D01*
Y197241D01*
X222377D01*
Y197346D01*
X222272D01*
Y197451D01*
X222167D01*
Y197556D01*
Y197660D01*
Y197765D01*
X222062D01*
Y197870D01*
X221957D01*
Y197975D01*
Y198080D01*
X221747D01*
Y198185D01*
X221852D01*
Y198290D01*
X221747D01*
Y198395D01*
X221642D01*
Y198500D01*
X221537D01*
Y198605D01*
X221642D01*
Y198710D01*
X221537D01*
Y198815D01*
X221432D01*
Y198920D01*
X221327D01*
Y199025D01*
X221432D01*
Y199130D01*
X221327D01*
Y199235D01*
X221222D01*
Y199340D01*
X221117D01*
Y199444D01*
Y199549D01*
Y199654D01*
X221012D01*
Y199759D01*
X220907D01*
Y199864D01*
X220802D01*
Y199969D01*
X220698D01*
Y200074D01*
X220802D01*
Y200179D01*
X220698D01*
Y200284D01*
X220593D01*
Y200389D01*
X220488D01*
Y200494D01*
Y200599D01*
Y200704D01*
X220383D01*
Y200809D01*
X220278D01*
Y200914D01*
X220173D01*
Y201019D01*
X220068D01*
Y201123D01*
X220173D01*
Y201228D01*
X220068D01*
Y201333D01*
X219963D01*
Y201438D01*
X219858D01*
Y201543D01*
X219963D01*
Y201648D01*
X219858D01*
Y201753D01*
X219753D01*
Y201858D01*
X219648D01*
Y201963D01*
X219753D01*
Y202068D01*
Y202173D01*
Y202278D01*
X219858D01*
Y202383D01*
X219963D01*
Y202488D01*
Y202593D01*
X220068D01*
Y202698D01*
Y202802D01*
X220173D01*
Y202907D01*
X220278D01*
Y203012D01*
X220383D01*
Y203117D01*
X220278D01*
Y203222D01*
X220383D01*
Y203327D01*
X220488D01*
Y203432D01*
X220593D01*
Y203537D01*
X220488D01*
Y203642D01*
X220698D01*
Y203747D01*
Y203852D01*
X220802D01*
Y203957D01*
X220907D01*
Y204062D01*
X221012D01*
Y204167D01*
X220907D01*
Y204272D01*
X221012D01*
Y204377D01*
X221117D01*
Y204482D01*
X221222D01*
Y204586D01*
X221117D01*
Y204691D01*
X221327D01*
Y204796D01*
Y204901D01*
X221432D01*
Y205006D01*
X221537D01*
Y205111D01*
X221642D01*
Y205216D01*
X221537D01*
Y205321D01*
X221642D01*
Y205426D01*
X221747D01*
Y205531D01*
X221852D01*
Y205636D01*
X221747D01*
Y205741D01*
X221852D01*
Y205846D01*
X221957D01*
Y205951D01*
X222062D01*
Y206056D01*
Y206161D01*
X222167D01*
Y206265D01*
Y206370D01*
X222272D01*
Y206475D01*
X222377D01*
Y206580D01*
X222481D01*
Y206685D01*
X222377D01*
Y206790D01*
X222481D01*
Y206895D01*
X222586D01*
Y207000D01*
X222691D01*
Y207105D01*
Y207210D01*
Y207315D01*
X222796D01*
Y207420D01*
X222901D01*
Y207525D01*
Y207630D01*
X223006D01*
Y207735D01*
Y207840D01*
X223111D01*
Y207944D01*
X223216D01*
Y208049D01*
X223321D01*
Y208154D01*
X223216D01*
Y208259D01*
X223321D01*
Y208364D01*
X223426D01*
Y208469D01*
X223531D01*
Y208574D01*
X223426D01*
Y208679D01*
X223636D01*
Y208784D01*
Y208889D01*
X223741D01*
Y208994D01*
X223846D01*
Y209099D01*
X223951D01*
Y209204D01*
X223846D01*
Y209309D01*
X223951D01*
Y209414D01*
X224056D01*
Y209519D01*
X224160D01*
Y209624D01*
X224056D01*
Y209728D01*
X224160D01*
Y209833D01*
X224265D01*
Y209938D01*
X224370D01*
Y210043D01*
X224475D01*
Y210148D01*
X224580D01*
Y210253D01*
X224475D01*
Y210358D01*
X224580D01*
Y210463D01*
X224685D01*
Y210568D01*
X224790D01*
Y210673D01*
X224685D01*
Y210778D01*
X224790D01*
Y210883D01*
X224895D01*
Y210988D01*
X225000D01*
Y211093D01*
Y211197D01*
X225210D01*
Y211303D01*
X225105D01*
Y211407D01*
X225210D01*
Y211512D01*
X225315D01*
Y211617D01*
X225420D01*
Y211722D01*
X225315D01*
Y211827D01*
X225420D01*
Y211932D01*
X225525D01*
Y212037D01*
X225630D01*
Y212142D01*
Y212247D01*
Y212352D01*
X225735D01*
Y212457D01*
X225840D01*
Y212562D01*
X225944D01*
Y212667D01*
Y212772D01*
Y212877D01*
X226049D01*
Y212981D01*
X226154D01*
Y213086D01*
X226259D01*
Y213191D01*
X226154D01*
Y213296D01*
X226259D01*
Y213401D01*
X226364D01*
Y213506D01*
X226469D01*
Y213611D01*
Y213716D01*
X226574D01*
Y213821D01*
Y213926D01*
X226679D01*
Y214031D01*
X226784D01*
Y214136D01*
X226889D01*
Y214241D01*
X226784D01*
Y214346D01*
X226889D01*
Y214451D01*
X226994D01*
Y214556D01*
X227099D01*
Y214660D01*
Y214765D01*
X227204D01*
Y214870D01*
Y214975D01*
X227309D01*
Y215080D01*
X227414D01*
Y215185D01*
X227519D01*
Y215290D01*
X227414D01*
Y215395D01*
X227519D01*
Y215500D01*
X227624D01*
Y215605D01*
X227728D01*
Y215710D01*
X227624D01*
Y215815D01*
X227728D01*
Y215920D01*
X227833D01*
Y216025D01*
X227938D01*
Y216130D01*
Y216235D01*
X228148D01*
Y216339D01*
X228043D01*
Y216444D01*
X228148D01*
Y216549D01*
X228253D01*
Y216654D01*
X228358D01*
Y216759D01*
X228253D01*
Y216864D01*
X228358D01*
Y216969D01*
X228463D01*
Y217074D01*
X228568D01*
Y217179D01*
Y217284D01*
Y217389D01*
X228673D01*
Y217494D01*
X228778D01*
Y217599D01*
X228883D01*
Y217704D01*
Y217809D01*
Y217914D01*
X228988D01*
Y218018D01*
X229093D01*
Y218123D01*
X229198D01*
Y218228D01*
X229093D01*
Y218333D01*
X229198D01*
Y218438D01*
X229303D01*
Y218543D01*
X229408D01*
Y218648D01*
X229303D01*
Y218753D01*
X229512D01*
Y218858D01*
Y218963D01*
X229617D01*
Y219068D01*
X229722D01*
Y219173D01*
X229827D01*
Y219278D01*
X229722D01*
Y219383D01*
X229827D01*
Y219488D01*
X229932D01*
Y219593D01*
X230037D01*
Y219698D01*
Y219802D01*
X230142D01*
Y219907D01*
Y220012D01*
X230247D01*
Y220117D01*
X230352D01*
Y220222D01*
X230457D01*
Y220327D01*
X230352D01*
Y220432D01*
X230457D01*
Y220537D01*
X230562D01*
Y220642D01*
X230667D01*
Y220747D01*
X230562D01*
Y220852D01*
X230772D01*
Y220957D01*
Y221062D01*
X230877D01*
Y221167D01*
Y221272D01*
X231087D01*
Y221377D01*
X230982D01*
Y221481D01*
X231087D01*
Y221586D01*
X231191D01*
Y221691D01*
X231296D01*
Y221796D01*
X231191D01*
Y221901D01*
X231296D01*
Y222006D01*
X231401D01*
Y222111D01*
X231506D01*
Y222216D01*
Y222321D01*
Y222426D01*
X231611D01*
Y222531D01*
X231716D01*
Y222636D01*
X231821D01*
Y222741D01*
Y222846D01*
Y222951D01*
X231926D01*
Y223056D01*
X232031D01*
Y223160D01*
X232136D01*
Y223265D01*
Y223370D01*
Y223475D01*
X232241D01*
Y223580D01*
X232346D01*
Y223685D01*
Y223790D01*
X232451D01*
Y223895D01*
Y224000D01*
X232556D01*
Y224105D01*
X232661D01*
Y224210D01*
X232766D01*
Y224315D01*
X232661D01*
Y224420D01*
X232766D01*
Y224525D01*
X232871D01*
Y224630D01*
X232975D01*
Y224735D01*
Y224840D01*
X233080D01*
Y224944D01*
Y225049D01*
X233185D01*
Y225154D01*
X233290D01*
Y225259D01*
X233395D01*
Y225364D01*
X233290D01*
Y225469D01*
X233395D01*
Y225574D01*
X233500D01*
Y225679D01*
X233605D01*
Y225784D01*
X233500D01*
Y225889D01*
X233710D01*
Y225994D01*
Y226099D01*
X233815D01*
Y226204D01*
Y226309D01*
X234025D01*
Y226414D01*
X233920D01*
Y226519D01*
X234025D01*
Y226623D01*
X234130D01*
Y226728D01*
X234235D01*
Y226833D01*
X234130D01*
Y226938D01*
X234235D01*
Y227043D01*
X234340D01*
Y227148D01*
X234445D01*
Y227253D01*
Y227358D01*
Y227463D01*
X234550D01*
Y227568D01*
X234654D01*
Y227673D01*
X234550D01*
Y227778D01*
X254803D01*
Y227673D01*
D02*
G37*
%LPC*%
G36*
X193309Y197870D02*
X193204D01*
Y197765D01*
X193309D01*
Y197870D01*
D02*
G37*
G36*
X245778Y222636D02*
X245673D01*
Y222531D01*
X245778D01*
Y222426D01*
X245883D01*
Y222531D01*
X245778D01*
Y222636D01*
D02*
G37*
G36*
X219333Y177722D02*
X219228D01*
Y177617D01*
X219333D01*
Y177722D01*
D02*
G37*
%LPD*%
D10*
X468500Y518000D02*
G03*
X468500Y518000I-1000J0D01*
G01*
X108500Y81000D02*
G03*
X108500Y81000I-1000J0D01*
G01*
X178000Y519000D02*
G03*
X178000Y519000I-1000J0D01*
G01*
Y482000D02*
G03*
X178000Y482000I-1000J0D01*
G01*
X768200Y422000D02*
G03*
X768200Y422000I-1000J0D01*
G01*
X387000Y123000D02*
G03*
X387000Y123000I-1000J0D01*
G01*
X347000Y182000D02*
G03*
X347000Y182000I-1000J0D01*
G01*
X694000Y149450D02*
G03*
X694000Y149450I-1000J0D01*
G01*
X762000Y155000D02*
G03*
X762000Y155000I-1000J0D01*
G01*
X601220Y107000D02*
Y119160D01*
X645840Y123510D02*
X649510D01*
X662490D02*
X666160D01*
X625000Y98840D02*
X636780D01*
X601220D02*
X613000D01*
X637000Y85000D02*
Y96000D01*
X625000D02*
X637000D01*
X601220Y96160D02*
X613000D01*
X666160Y103000D02*
Y123510D01*
Y90490D02*
Y92840D01*
Y51720D02*
Y54000D01*
Y66000D02*
Y87280D01*
X801840Y496990D02*
Y514160D01*
Y522160D02*
Y530010D01*
X770840Y496780D02*
X783780D01*
X706840Y461220D02*
X721780D01*
X727160Y465160D02*
Y496780D01*
X722220Y450660D02*
X741340D01*
X750340D02*
X757780D01*
X493490Y488160D02*
X505840D01*
X516160D02*
X526510D01*
X464000Y488000D02*
X465000D01*
X475000D02*
X477000D01*
X487000Y488160D02*
X489010D01*
X546780Y506840D02*
Y512780D01*
Y521220D02*
Y527160D01*
X495160Y506840D02*
X507510D01*
X614160Y142160D02*
X636780D01*
X614160Y144840D02*
X636780D01*
X601220Y142160D02*
X604840D01*
X601220Y144840D02*
X604840D01*
X601220D02*
Y165160D01*
X134490Y91160D02*
X167510D01*
X134490Y70840D02*
X167510D01*
Y91160D01*
X134490Y70840D02*
Y91160D01*
X191490Y114160D02*
X224510D01*
X191490Y93840D02*
X224510D01*
Y114160D01*
X191490Y93840D02*
Y114160D01*
X191720Y116840D02*
Y137160D01*
Y116840D02*
X227280D01*
X191720Y137160D02*
X227280D01*
Y116840D02*
Y137160D01*
X134490Y114160D02*
X167510D01*
X134490Y93840D02*
X167510D01*
Y114160D01*
X134490Y93840D02*
Y114160D01*
X485000Y141000D02*
X527000D01*
X549000Y75000D02*
Y119000D01*
X485000Y55000D02*
X529000D01*
X463000Y77000D02*
Y119000D01*
X455990Y467840D02*
Y488160D01*
X489010Y467840D02*
Y488160D01*
X455990Y467840D02*
X489010D01*
X474490Y506840D02*
Y527160D01*
X507510Y506840D02*
Y527160D01*
X474490D02*
X507510D01*
X493490Y467840D02*
Y488160D01*
X526510Y467840D02*
Y488160D01*
X493490Y467840D02*
X526510D01*
X245000Y398000D02*
X248000D01*
X245000D02*
X247500Y400500D01*
X248000D01*
Y399000D02*
Y400500D01*
Y398000D02*
Y399000D01*
X246250Y399750D02*
X248000Y398000D01*
X246250Y399750D02*
Y400250D01*
X246000Y400000D02*
X246250Y400250D01*
X245750D02*
X246000Y400000D01*
X245250Y400250D02*
X245750D01*
X243000Y398000D02*
X245250Y400250D01*
X243000Y398000D02*
X245000D01*
X242000Y401000D02*
X245000Y398000D01*
X242000Y399000D02*
Y401000D01*
Y399000D02*
X243000Y398000D01*
X242000D02*
Y399000D01*
Y398000D02*
X245000Y401000D01*
Y395000D02*
Y401000D01*
Y395000D02*
X251000Y401000D01*
X239000D02*
X251000D01*
X239000D02*
X245000Y395000D01*
X239000Y393750D02*
X251000D01*
X234000Y376750D02*
Y423750D01*
X256000Y377000D02*
Y423750D01*
X234000D02*
X256000D01*
X191720Y70840D02*
Y91160D01*
Y70840D02*
X227280D01*
X191720Y91160D02*
X227280D01*
Y70840D02*
Y91160D01*
X511220Y527160D02*
X546780D01*
X511220Y506840D02*
X546780D01*
X511220D02*
Y527160D01*
X532840Y452220D02*
X553160D01*
Y487780D01*
X532840Y452220D02*
Y487780D01*
X553160D01*
X161000Y492500D02*
Y495000D01*
X147000Y492500D02*
Y495000D01*
X154000D02*
X161000D01*
X147000D02*
X154000D01*
X147000D02*
Y525000D01*
X161000Y495000D02*
Y525000D01*
X147000D02*
X161000D01*
X147000Y492500D02*
X161000D01*
X142000D02*
Y495000D01*
X128000Y492500D02*
Y495000D01*
X135000D02*
X142000D01*
X128000D02*
X135000D01*
X128000D02*
Y525000D01*
X142000Y495000D02*
Y525000D01*
X128000D02*
X142000D01*
X128000Y492500D02*
X142000D01*
X146840Y488010D02*
X167160D01*
X146840Y454990D02*
X167160D01*
X146840D02*
Y488010D01*
X167160Y454990D02*
Y488010D01*
X121840D02*
X142160D01*
X121840Y454990D02*
X142160D01*
X121840D02*
Y488010D01*
X142160Y454990D02*
Y488010D01*
X222490Y498840D02*
Y519160D01*
X255510Y498840D02*
Y519160D01*
X222490Y498840D02*
X255510D01*
X222490Y519160D02*
X255510D01*
X222490Y461840D02*
Y482160D01*
X255510Y461840D02*
Y482160D01*
X222490Y461840D02*
X255510D01*
X222490Y482160D02*
X255510D01*
X772000Y93375D02*
X776000D01*
X734000D02*
X738000D01*
X715000Y74375D02*
Y78375D01*
X795000Y74375D02*
Y78375D01*
X715000Y35375D02*
Y53375D01*
Y35375D02*
X795000D01*
Y53375D01*
X715000Y41375D02*
X795000D01*
X716000Y49375D02*
X795000D01*
X699000Y25375D02*
X811000D01*
Y14375D02*
Y25375D01*
X699000Y14375D02*
Y25375D01*
X755000Y14375D02*
Y25375D01*
X722000D02*
Y31375D01*
X788000Y25375D02*
Y31375D01*
X750000Y20375D02*
X755000Y25375D01*
X760000Y20375D01*
X172000Y279000D02*
X192000D01*
X152000Y289000D02*
Y329000D01*
X212000Y289000D02*
Y329000D01*
X172000Y339000D02*
X192000D01*
X690000Y109500D02*
X706000D01*
Y51000D02*
Y109500D01*
X674000Y51000D02*
X706000D01*
X674000D02*
Y109500D01*
X690000D01*
X745000Y469500D02*
X753000D01*
X733000D02*
Y483000D01*
X765000Y469500D02*
Y487500D01*
X617000Y473500D02*
Y481500D01*
X599000Y461500D02*
X617000D01*
X599000Y493500D02*
X617000D01*
X806000Y95500D02*
X820000D01*
X806000Y128000D02*
X820000D01*
Y98000D02*
Y128000D01*
X806000Y98000D02*
Y128000D01*
Y98000D02*
X813000D01*
X820000D01*
X806000Y95500D02*
Y98000D01*
X820000Y95500D02*
Y98000D01*
X823000Y95500D02*
X837000D01*
X823000Y128000D02*
X837000D01*
Y98000D02*
Y128000D01*
X823000Y98000D02*
Y128000D01*
Y98000D02*
X830000D01*
X837000D01*
X823000Y95500D02*
Y98000D01*
X837000Y95500D02*
Y98000D01*
X725192Y505000D02*
X761192D01*
Y519000D01*
X725192D02*
X761192D01*
X746192Y508000D02*
Y516000D01*
X742192Y512000D02*
X746192Y508000D01*
X742192Y512000D02*
X746192Y516000D01*
Y512000D02*
Y516000D01*
X744192Y514000D02*
X746192Y512000D01*
X744192Y510000D02*
Y512000D01*
X746192D01*
X744192Y510000D02*
X746192Y512000D01*
X740192Y508000D02*
Y516000D01*
X394000Y130000D02*
X430000D01*
X394000Y116000D02*
Y130000D01*
Y116000D02*
X430000D01*
X409000Y119000D02*
Y127000D01*
X413000Y123000D01*
X409000Y119000D02*
X413000Y123000D01*
X409000Y119000D02*
Y123000D01*
X411000Y121000D01*
Y123000D02*
Y125000D01*
X409000Y123000D02*
X411000D01*
X409000D02*
X411000Y125000D01*
X415000Y119000D02*
Y127000D01*
X570840Y129010D02*
X591160D01*
X570840Y95990D02*
X591160D01*
X570840D02*
Y129010D01*
X591160Y95990D02*
Y129010D01*
X801840Y496990D02*
X822160D01*
X801840Y530010D02*
X822160D01*
Y496990D02*
Y530010D01*
X319840Y128490D02*
X340160D01*
X319840Y161510D02*
X340160D01*
Y128490D02*
Y161510D01*
X319840Y128490D02*
Y161510D01*
X387010Y153840D02*
Y174160D01*
X353990Y153840D02*
Y174160D01*
X387010D01*
X353990Y153840D02*
X387010D01*
X505010Y155840D02*
Y176160D01*
X471990Y155840D02*
Y176160D01*
X505010D01*
X471990Y155840D02*
X505010D01*
X716510Y500840D02*
Y521160D01*
X683490Y500840D02*
Y521160D01*
X716510D01*
X683490Y500840D02*
X716510D01*
X634990Y459340D02*
Y479660D01*
X668010Y459340D02*
Y479660D01*
X634990Y459340D02*
X668010D01*
X634990Y479660D02*
X668010D01*
X591990Y435340D02*
Y455660D01*
X625010Y435340D02*
Y455660D01*
X591990Y435340D02*
X625010D01*
X591990Y455660D02*
X625010D01*
X682840Y462490D02*
X703160D01*
X682840Y495510D02*
X703160D01*
Y462490D02*
Y495510D01*
X682840Y462490D02*
Y495510D01*
X634990Y435340D02*
Y455660D01*
X668010Y435340D02*
Y455660D01*
X634990Y435340D02*
X668010D01*
X634990Y455660D02*
X668010D01*
X794840Y171510D02*
X815160D01*
X794840Y138490D02*
X815160D01*
X794840D02*
Y171510D01*
X815160Y138490D02*
Y171510D01*
X817840D02*
X838160D01*
X817840Y138490D02*
X838160D01*
X817840D02*
Y171510D01*
X838160Y138490D02*
Y171510D01*
X601990Y51840D02*
Y72160D01*
X635010Y51840D02*
Y72160D01*
X601990Y51840D02*
X635010D01*
X601990Y72160D02*
X635010D01*
X729840Y136510D02*
X750160D01*
X729840Y103490D02*
X750160D01*
X729840D02*
Y136510D01*
X750160Y103490D02*
Y136510D01*
X752840D02*
X773160D01*
X752840Y103490D02*
X773160D01*
X752840D02*
Y136510D01*
X773160Y103490D02*
Y136510D01*
X809840Y50990D02*
X830160D01*
X809840Y84010D02*
X830160D01*
Y50990D02*
Y84010D01*
X809840Y50990D02*
Y84010D01*
X645840Y90490D02*
X666160D01*
X645840D02*
Y123510D01*
X793000Y103500D02*
Y129500D01*
X779000D02*
X793000D01*
X779000Y103500D02*
Y129500D01*
Y103500D02*
X793000D01*
X723000Y104000D02*
Y130000D01*
X709000D02*
X723000D01*
X709000Y104000D02*
Y130000D01*
Y104000D02*
X723000D01*
X722220Y430340D02*
Y450660D01*
Y430340D02*
X757780D01*
Y450660D01*
X718780Y430340D02*
Y450660D01*
X683220D02*
X718780D01*
X683220Y430340D02*
X718780D01*
X683220D02*
Y450660D01*
X793220Y178840D02*
Y199160D01*
Y178840D02*
X828780D01*
X793220Y199160D02*
X828780D01*
Y178840D02*
Y199160D01*
X801840Y494280D02*
X822160D01*
X801840Y458720D02*
Y494280D01*
X822160Y458720D02*
Y494280D01*
X801840Y458720D02*
X822160D01*
X429780Y155840D02*
Y176160D01*
X394220D02*
X429780D01*
X394220Y155840D02*
X429780D01*
X394220D02*
Y176160D01*
X429780Y132840D02*
Y153160D01*
X394220D02*
X429780D01*
X394220Y132840D02*
X429780D01*
X394220D02*
Y153160D01*
X433220Y155840D02*
Y176160D01*
Y155840D02*
X468780D01*
X433220Y176160D02*
X468780D01*
Y155840D02*
Y176160D01*
X508720Y155840D02*
Y176160D01*
Y155840D02*
X544280D01*
X508720Y176160D02*
X544280D01*
Y155840D02*
Y176160D01*
X770840Y461220D02*
X791160D01*
Y496780D01*
X770840Y461220D02*
Y496780D01*
X634220Y482340D02*
Y502660D01*
Y482340D02*
X669780D01*
X634220Y502660D02*
X669780D01*
Y482340D02*
Y502660D01*
X706840Y461220D02*
Y496780D01*
X727160D01*
X625780Y499340D02*
Y519660D01*
X590220D02*
X625780D01*
X590220Y499340D02*
X625780D01*
X590220D02*
Y519660D01*
X601220Y75840D02*
X632000D01*
X601220D02*
Y96160D01*
X636780Y121840D02*
Y142160D01*
X601220Y121840D02*
X636780D01*
X601220D02*
Y142160D01*
X636780Y144840D02*
Y165160D01*
X601220D02*
X636780D01*
X645840Y87280D02*
X666160D01*
X645840Y51720D02*
Y87280D01*
Y51720D02*
X666160D01*
X570840Y55720D02*
X591160D01*
Y91280D01*
X570840Y55720D02*
Y91280D01*
X591160D01*
X761220Y430340D02*
Y450660D01*
Y430340D02*
X796780D01*
X761220Y450660D02*
X796780D01*
Y430340D02*
Y450660D01*
X636780Y98840D02*
Y119160D01*
X601220D02*
X636780D01*
X115169Y271665D02*
X114002Y270499D01*
Y268166D01*
X115169Y267000D01*
X116335D01*
X117501Y268166D01*
Y270499D01*
X118667Y271665D01*
X119834D01*
X121000Y270499D01*
Y268166D01*
X119834Y267000D01*
X116335Y275164D02*
Y277497D01*
X117501Y278663D01*
X121000D01*
Y275164D01*
X119834Y273998D01*
X118667Y275164D01*
Y278663D01*
X121000Y280996D02*
Y284494D01*
X119834Y285661D01*
X118667Y284494D01*
Y282162D01*
X117501Y280996D01*
X116335Y282162D01*
Y285661D01*
X121000Y287993D02*
X116335D01*
Y289160D01*
X117501Y290326D01*
X121000D01*
X117501D01*
X116335Y291492D01*
X117501Y292658D01*
X121000D01*
Y294991D02*
Y297324D01*
Y296157D01*
X116335D01*
Y294991D01*
X115169Y301989D02*
X116335D01*
Y300823D01*
Y303155D01*
Y301989D01*
X119834D01*
X121000Y303155D01*
X114002Y306654D02*
X121000D01*
X117501D01*
X116335Y307820D01*
Y310153D01*
X117501Y311319D01*
X121000D01*
X116335Y314818D02*
Y317151D01*
X117501Y318317D01*
X121000D01*
Y314818D01*
X119834Y313652D01*
X118667Y314818D01*
Y318317D01*
X114002Y327647D02*
X121000D01*
Y331146D01*
X119834Y332312D01*
X115169D01*
X114002Y331146D01*
Y327647D01*
X121000Y334645D02*
Y336978D01*
Y335811D01*
X116335D01*
Y334645D01*
X121000Y340476D02*
Y342809D01*
Y341643D01*
X114002D01*
Y340476D01*
X121000Y346308D02*
Y349807D01*
X119834Y350973D01*
X118667Y349807D01*
Y347474D01*
X117501Y346308D01*
X116335Y347474D01*
Y350973D01*
X114002Y353306D02*
X121000D01*
X117501D01*
X116335Y354472D01*
Y356805D01*
X117501Y357971D01*
X121000D01*
X116335Y361470D02*
Y363802D01*
X117501Y364968D01*
X121000D01*
Y361470D01*
X119834Y360303D01*
X118667Y361470D01*
Y364968D01*
X121000Y367301D02*
X116335D01*
Y370800D01*
X117501Y371966D01*
X121000D01*
X102169Y271665D02*
X101002Y270499D01*
Y268166D01*
X102169Y267000D01*
X106834D01*
X108000Y268166D01*
Y270499D01*
X106834Y271665D01*
X101002Y273998D02*
X108000D01*
X104501D01*
X103335Y275164D01*
Y277497D01*
X104501Y278663D01*
X108000D01*
X103335Y282162D02*
Y284494D01*
X104501Y285661D01*
X108000D01*
Y282162D01*
X106834Y280996D01*
X105667Y282162D01*
Y285661D01*
X108000Y287993D02*
X103335D01*
Y289160D01*
X104501Y290326D01*
X108000D01*
X104501D01*
X103335Y291492D01*
X104501Y292658D01*
X108000D01*
Y294991D02*
Y297324D01*
Y296157D01*
X103335D01*
Y294991D01*
X102169Y301989D02*
X103335D01*
Y300823D01*
Y303155D01*
Y301989D01*
X106834D01*
X108000Y303155D01*
X101002Y306654D02*
X108000D01*
X104501D01*
X103335Y307820D01*
Y310153D01*
X104501Y311319D01*
X108000D01*
X101002Y320649D02*
X108000D01*
Y324148D01*
X106834Y325315D01*
X102169D01*
X101002Y324148D01*
Y320649D01*
X108000Y327647D02*
Y329980D01*
Y328814D01*
X103335D01*
Y327647D01*
X108000Y333479D02*
Y335811D01*
Y334645D01*
X101002D01*
Y333479D01*
X108000Y339310D02*
Y342809D01*
X106834Y343975D01*
X105667Y342809D01*
Y340476D01*
X104501Y339310D01*
X103335Y340476D01*
Y343975D01*
X101002Y346308D02*
X108000D01*
X104501D01*
X103335Y347474D01*
Y349807D01*
X104501Y350973D01*
X108000D01*
X103335Y354472D02*
Y356805D01*
X104501Y357971D01*
X108000D01*
Y354472D01*
X106834Y353306D01*
X105667Y354472D01*
Y357971D01*
X108000Y360303D02*
X103335D01*
Y363802D01*
X104501Y364968D01*
X108000D01*
X89836Y271665D02*
X88670Y270499D01*
Y268166D01*
X89836Y267000D01*
X91002D01*
X92169Y268166D01*
Y270499D01*
X93335Y271665D01*
X94501D01*
X95667Y270499D01*
Y268166D01*
X94501Y267000D01*
X91002Y275164D02*
Y277497D01*
X92169Y278663D01*
X95667D01*
Y275164D01*
X94501Y273998D01*
X93335Y275164D01*
Y278663D01*
X95667Y280996D02*
Y283328D01*
Y282162D01*
X88670D01*
Y280996D01*
X95667Y286827D02*
Y289160D01*
Y287993D01*
X91002D01*
Y286827D01*
Y292658D02*
X94501D01*
X95667Y293825D01*
Y297324D01*
X96834D01*
X98000Y296157D01*
Y294991D01*
X95667Y297324D02*
X91002D01*
Y300822D02*
Y303155D01*
X92169Y304321D01*
X95667D01*
Y300822D01*
X94501Y299656D01*
X93335Y300822D01*
Y304321D01*
X88670Y313652D02*
X95667D01*
Y317150D01*
X94501Y318317D01*
X89836D01*
X88670Y317150D01*
Y313652D01*
X95667Y320649D02*
Y322982D01*
Y321816D01*
X91002D01*
Y320649D01*
X95667Y326481D02*
X91002D01*
Y329980D01*
X92169Y331146D01*
X95667D01*
X91002Y333479D02*
X94501D01*
X95667Y334645D01*
Y338144D01*
X91002D01*
X95667Y340476D02*
Y343975D01*
X94501Y345141D01*
X93335Y343975D01*
Y341643D01*
X92169Y340476D01*
X91002Y341643D01*
Y345141D01*
X88670Y347474D02*
X95667D01*
X92169D01*
X91002Y348640D01*
Y350973D01*
X92169Y352139D01*
X95667D01*
X91002Y355638D02*
Y357971D01*
X92169Y359137D01*
X95667D01*
Y355638D01*
X94501Y354472D01*
X93335Y355638D01*
Y359137D01*
X76002Y267000D02*
X77169D01*
X79501Y269333D01*
X77169Y271665D01*
X76002D01*
X79501Y269333D02*
X83000D01*
X78335Y275164D02*
Y277497D01*
X79501Y278663D01*
X83000D01*
Y275164D01*
X81834Y273998D01*
X80667Y275164D01*
Y278663D01*
X83000Y280996D02*
Y284494D01*
X81834Y285661D01*
X80667Y284494D01*
Y282162D01*
X79501Y280996D01*
X78335Y282162D01*
Y285661D01*
X83000Y287993D02*
Y290326D01*
Y289160D01*
X78335D01*
Y287993D01*
Y293825D02*
X83000D01*
X80667D01*
X79501Y294991D01*
X78335Y296157D01*
Y297324D01*
Y300823D02*
X81834D01*
X83000Y301989D01*
Y305488D01*
X78335D01*
X77169Y319483D02*
X76002Y318317D01*
Y315984D01*
X77169Y314818D01*
X78335D01*
X79501Y315984D01*
Y318317D01*
X80667Y319483D01*
X81834D01*
X83000Y318317D01*
Y315984D01*
X81834Y314818D01*
X83000Y325315D02*
Y322982D01*
X81834Y321816D01*
X79501D01*
X78335Y322982D01*
Y325315D01*
X79501Y326481D01*
X80667D01*
Y321816D01*
X83000Y328814D02*
X78335D01*
Y332312D01*
X79501Y333479D01*
X83000D01*
Y339310D02*
Y336978D01*
X81834Y335811D01*
X79501D01*
X78335Y336978D01*
Y339310D01*
X79501Y340476D01*
X80667D01*
Y335811D01*
X78335Y342809D02*
X83000D01*
X80667D01*
X79501Y343975D01*
X78335Y345142D01*
Y346308D01*
Y350973D02*
Y353306D01*
X79501Y354472D01*
X83000D01*
Y350973D01*
X81834Y349807D01*
X80667Y350973D01*
Y354472D01*
X77169Y357971D02*
X78335D01*
Y356805D01*
Y359137D01*
Y357971D01*
X81834D01*
X83000Y359137D01*
X76002Y362636D02*
X83000D01*
X79501D01*
X78335Y363802D01*
Y366135D01*
X79501Y367301D01*
X83000D01*
X63667Y266000D02*
X59002D01*
X56670Y268333D01*
X59002Y270665D01*
X63667D01*
X60168D01*
Y266000D01*
X57836Y284661D02*
X56670Y283494D01*
Y281162D01*
X57836Y279995D01*
X62501D01*
X63667Y281162D01*
Y283494D01*
X62501Y284661D01*
X60168D01*
Y282328D01*
X59002Y286993D02*
X63667D01*
X61335D01*
X60168Y288160D01*
X59002Y289326D01*
Y290492D01*
X63667Y297490D02*
Y295157D01*
X62501Y293991D01*
X60168D01*
X59002Y295157D01*
Y297490D01*
X60168Y298656D01*
X61335D01*
Y293991D01*
X59002Y302155D02*
Y304488D01*
X60168Y305654D01*
X63667D01*
Y302155D01*
X62501Y300989D01*
X61335Y302155D01*
Y305654D01*
X57836Y309153D02*
X59002D01*
Y307987D01*
Y310319D01*
Y309153D01*
X62501D01*
X63667Y310319D01*
X56670Y320816D02*
Y325481D01*
Y323148D01*
X63667D01*
Y331312D02*
Y328980D01*
X62501Y327813D01*
X60168D01*
X59002Y328980D01*
Y331312D01*
X60168Y332479D01*
X61335D01*
Y327813D01*
X59002Y335978D02*
Y338310D01*
X60168Y339476D01*
X63667D01*
Y335978D01*
X62501Y334811D01*
X61335Y335978D01*
Y339476D01*
X63667Y341809D02*
X59002D01*
Y342975D01*
X60168Y344142D01*
X63667D01*
X60168D01*
X59002Y345308D01*
X60168Y346474D01*
X63667D01*
Y355804D02*
X56670D01*
Y359303D01*
X57836Y360470D01*
X60168D01*
X61335Y359303D01*
Y355804D01*
X59002Y362802D02*
X63667D01*
X61335D01*
X60168Y363969D01*
X59002Y365135D01*
Y366301D01*
X63667Y370966D02*
Y373299D01*
X62501Y374465D01*
X60168D01*
X59002Y373299D01*
Y370966D01*
X60168Y369800D01*
X62501D01*
X63667Y370966D01*
X66000Y376798D02*
Y377964D01*
X64834Y379130D01*
X59002D01*
X63667Y387294D02*
Y384962D01*
X62501Y383796D01*
X60168D01*
X59002Y384962D01*
Y387294D01*
X60168Y388461D01*
X61335D01*
Y383796D01*
X59002Y395458D02*
Y391959D01*
X60168Y390793D01*
X62501D01*
X63667Y391959D01*
Y395458D01*
X57836Y398957D02*
X59002D01*
Y397791D01*
Y400124D01*
Y398957D01*
X62501D01*
X63667Y400124D01*
X56670Y410620D02*
X63667D01*
Y414119D01*
X62501Y415285D01*
X61335D01*
X60168Y414119D01*
Y410620D01*
Y414119D01*
X59002Y415285D01*
X57836D01*
X56670Y414119D01*
Y410620D01*
X59002Y417618D02*
X62501D01*
X63667Y418784D01*
Y422283D01*
X64834D01*
X66000Y421117D01*
Y419950D01*
X63667Y422283D02*
X59002D01*
D11*
X134000Y146000D02*
X150000D01*
X368966Y488856D02*
X405034D01*
X368966D02*
Y506890D01*
X405034D01*
Y488856D02*
Y506890D01*
X150890Y148000D02*
Y183034D01*
X132856D02*
X150890D01*
X132856Y148000D02*
Y183034D01*
X435000Y503000D02*
X465000D01*
X435000Y533000D02*
X465000D01*
X435000Y503000D02*
Y533000D01*
X465000Y503000D02*
Y533000D01*
X75000Y66000D02*
X105000D01*
X75000Y96000D02*
X105000D01*
X75000Y66000D02*
Y96000D01*
X105000Y66000D02*
Y96000D01*
D12*
X237750Y369750D02*
X252000D01*
X215000Y361000D02*
Y373000D01*
X151000Y361000D02*
X215000D01*
X151000D02*
Y373000D01*
X215000Y417000D02*
Y429000D01*
X205000D02*
X215000D01*
X151000D02*
X161000D01*
X151000Y417000D02*
Y429000D01*
D13*
X151000Y511750D02*
X156750D01*
X154000Y509000D02*
X156750Y511750D01*
X153750Y509000D02*
X154000D01*
X151000Y511750D02*
X153750Y509000D01*
X150750Y508250D02*
X157000D01*
X132000Y511750D02*
X137750D01*
X135000Y509000D02*
X137750Y511750D01*
X134750Y509000D02*
X135000D01*
X132000Y511750D02*
X134750Y509000D01*
X131750Y508250D02*
X138000D01*
X809750Y111250D02*
X816000D01*
X810000Y114750D02*
X812750Y112000D01*
X813000D01*
X815750Y114750D01*
X810000D02*
X815750D01*
X826750Y111250D02*
X833000D01*
X827000Y114750D02*
X829750Y112000D01*
X830000D01*
X832750Y114750D01*
X827000D02*
X832750D01*
D14*
X196700Y494400D02*
X205500D01*
Y501500D01*
X196700Y523600D02*
X205500D01*
Y516500D02*
Y523600D01*
X196700Y457400D02*
X205500D01*
Y464500D01*
X196700Y486600D02*
X205500D01*
Y479500D02*
Y486600D01*
X587100Y410000D02*
X593600D01*
X587100Y385500D02*
Y410000D01*
Y230000D02*
Y254500D01*
Y230000D02*
X593600D01*
X777100Y410000D02*
X842100D01*
Y230000D02*
Y410000D01*
X777100Y230000D02*
X842100D01*
X780600D02*
Y410000D01*
X357500Y147600D02*
X366300D01*
X357500Y140500D02*
Y147600D01*
Y118400D02*
X366300D01*
X357500D02*
Y125500D01*
X512200Y201250D02*
X546750D01*
Y235800D01*
Y408200D02*
Y442750D01*
X512200D02*
X546750D01*
X305250D02*
X339800D01*
X305250Y408200D02*
Y442750D01*
Y201250D02*
Y235800D01*
Y201250D02*
X339800D01*
X683000Y159000D02*
Y164450D01*
Y203550D02*
Y209000D01*
X688450D01*
X727550D02*
X733000D01*
Y159000D02*
Y164450D01*
Y203550D02*
Y209000D01*
X683000Y159000D02*
X688450D01*
X727550D02*
X733000D01*
X779700Y169200D02*
Y182800D01*
X756300Y169200D02*
Y182800D01*
D15*
X793600Y364000D02*
Y391000D01*
Y364000D02*
X829600D01*
Y330000D02*
Y364000D01*
X793600Y330000D02*
X829600D01*
X793600Y297000D02*
Y330000D01*
Y297000D02*
X829600D01*
Y271000D02*
Y297000D01*
X807600Y249000D02*
X829600Y271000D01*
X785600Y249000D02*
X807600D01*
D16*
X723192Y509000D02*
Y515000D01*
X432000Y120000D02*
Y126000D01*
D17*
X305537Y527537D02*
X303538Y529536D01*
X299539D01*
X297540Y527537D01*
Y519539D01*
X299539Y517540D01*
X303538D01*
X305537Y519539D01*
Y523538D01*
X301539D01*
X309536Y517540D02*
Y529536D01*
X315534D01*
X317533Y527537D01*
Y523538D01*
X315534Y521539D01*
X309536D01*
X329530Y527537D02*
X327530Y529536D01*
X323532D01*
X321532Y527537D01*
Y525537D01*
X323532Y523538D01*
X327530D01*
X329530Y521539D01*
Y519539D01*
X327530Y517540D01*
X323532D01*
X321532Y519539D01*
X345524Y517540D02*
Y525537D01*
X349523Y529536D01*
X353522Y525537D01*
Y517540D01*
Y523538D01*
X345524D01*
X357521Y517540D02*
Y525537D01*
X363519D01*
X365518Y523538D01*
Y517540D01*
X371516Y527537D02*
Y525537D01*
X369517D01*
X373515D01*
X371516D01*
Y519539D01*
X373515Y517540D01*
X385512D02*
X381513D01*
X379514Y519539D01*
Y523538D01*
X381513Y525537D01*
X385512D01*
X387511Y523538D01*
Y521539D01*
X379514D01*
X391510Y517540D02*
Y525537D01*
X397508D01*
X399507Y523538D01*
Y517540D01*
X403506D02*
Y525537D01*
X409504D01*
X411503Y523538D01*
Y517540D01*
X417501Y525537D02*
X421500D01*
X423499Y523538D01*
Y517540D01*
X417501D01*
X415502Y519539D01*
X417501Y521539D01*
X423499D01*
X130537Y62537D02*
X128538Y64536D01*
X124539D01*
X122540Y62537D01*
Y54539D01*
X124539Y52540D01*
X128538D01*
X130537Y54539D01*
Y58538D01*
X126539D01*
X142534Y62537D02*
X140534Y64536D01*
X136536D01*
X134536Y62537D01*
Y60537D01*
X136536Y58538D01*
X140534D01*
X142534Y56539D01*
Y54539D01*
X140534Y52540D01*
X136536D01*
X134536Y54539D01*
X146532Y52540D02*
Y64536D01*
X150531Y60537D01*
X154530Y64536D01*
Y52540D01*
X170524D02*
Y60537D01*
X174523Y64536D01*
X178522Y60537D01*
Y52540D01*
Y58538D01*
X170524D01*
X182521Y52540D02*
Y60537D01*
X188519D01*
X190518Y58538D01*
Y52540D01*
X196516Y62537D02*
Y60537D01*
X194517D01*
X198515D01*
X196516D01*
Y54539D01*
X198515Y52540D01*
X210511D02*
X206513D01*
X204513Y54539D01*
Y58538D01*
X206513Y60537D01*
X210511D01*
X212511Y58538D01*
Y56539D01*
X204513D01*
X216510Y52540D02*
Y60537D01*
X222508D01*
X224507Y58538D01*
Y52540D01*
X228506D02*
Y60537D01*
X234504D01*
X236503Y58538D01*
Y52540D01*
X242501Y60537D02*
X246500D01*
X248499Y58538D01*
Y52540D01*
X242501D01*
X240502Y54539D01*
X242501Y56539D01*
X248499D01*
X165795Y502872D02*
X164463Y501539D01*
Y498873D01*
X165795Y497540D01*
X167128D01*
X168461Y498873D01*
Y501539D01*
X169794Y502872D01*
X171127D01*
X172460Y501539D01*
Y498873D01*
X171127Y497540D01*
X164463Y505537D02*
Y510869D01*
Y508203D01*
X172460D01*
Y513535D02*
X167128D01*
X164463Y516201D01*
X167128Y518867D01*
X172460D01*
X168461D01*
Y513535D01*
X164463Y521532D02*
Y526864D01*
Y524198D01*
X172460D01*
X122460Y497540D02*
X114463D01*
X122460Y502872D01*
X114463D01*
Y510869D02*
Y505537D01*
X122460D01*
Y510869D01*
X118461Y505537D02*
Y508203D01*
X114463Y513535D02*
Y518867D01*
Y516201D01*
X122460D01*
X231464Y260540D02*
X241461D01*
X243460Y262539D01*
Y266538D01*
X241461Y268537D01*
X231464D01*
X243460Y272536D02*
Y278534D01*
X241461Y280534D01*
X239461Y278534D01*
Y274536D01*
X237462Y272536D01*
X235463Y274536D01*
Y280534D01*
X243460Y290530D02*
Y286532D01*
X241461Y284532D01*
X237462D01*
X235463Y286532D01*
Y290530D01*
X237462Y292530D01*
X239461D01*
Y284532D01*
X235463Y296528D02*
X243460D01*
X239461D01*
X237462Y298528D01*
X235463Y300527D01*
Y302526D01*
X231464Y320521D02*
X243460D01*
Y326519D01*
X241461Y328518D01*
X239461D01*
X237462Y326519D01*
Y320521D01*
Y326519D01*
X235463Y328518D01*
X233463D01*
X231464Y326519D01*
Y320521D01*
Y332517D02*
Y340514D01*
Y336515D01*
X243460D01*
Y344513D02*
X231464D01*
X243460Y352510D01*
X231464D01*
X57463Y460537D02*
X55464Y458538D01*
Y454539D01*
X57463Y452540D01*
X65461D01*
X67460Y454539D01*
Y458538D01*
X65461Y460537D01*
X61462D01*
Y456539D01*
X67460Y464536D02*
X55464D01*
X67460Y472533D01*
X55464D01*
Y476532D02*
X67460D01*
Y482530D01*
X65461Y484530D01*
X57463D01*
X55464Y482530D01*
Y476532D01*
X518382Y124540D02*
Y134697D01*
X513303Y129618D02*
X523460D01*
M02*
