G04*
G04 #@! TF.GenerationSoftware,Altium Limited,Altium Designer,22.0.2 (36)*
G04*
G04 Layer_Color=128*
%FSLAX44Y44*%
%MOMM*%
G71*
G04*
G04 #@! TF.SameCoordinates,5265F303-A955-4834-83B4-5BE1E65ADB8C*
G04*
G04*
G04 #@! TF.FilePolarity,Positive*
G04*
G01*
G75*
%ADD20O,2.3000X0.6000*%
%ADD21R,0.7000X1.3000*%
%ADD22R,0.9000X1.3000*%
%ADD30R,1.3000X0.9000*%
%ADD31R,0.8000X0.8000*%
%ADD32R,1.3000X0.7000*%
%ADD48R,0.4000X1.0900*%
%ADD102R,3.0000X4.0000*%
%ADD103R,1.2000X0.5500*%
%ADD104R,1.9700X0.6000*%
%ADD106R,1.4000X0.9500*%
%ADD107R,0.9500X1.2000*%
%ADD108R,0.8000X0.9000*%
G36*
X383550Y73800D02*
X396450D01*
Y90200D01*
X383550D01*
Y73800D01*
D02*
G37*
D20*
X24000Y264000D02*
D03*
Y272000D02*
D03*
Y280000D02*
D03*
Y288000D02*
D03*
Y296000D02*
D03*
Y304000D02*
D03*
Y312000D02*
D03*
Y320000D02*
D03*
Y328000D02*
D03*
Y336000D02*
D03*
Y344000D02*
D03*
Y352000D02*
D03*
Y360000D02*
D03*
Y368000D02*
D03*
Y376000D02*
D03*
Y384000D02*
D03*
Y392000D02*
D03*
Y400000D02*
D03*
Y440000D02*
D03*
Y448000D02*
D03*
Y456000D02*
D03*
Y464000D02*
D03*
Y472000D02*
D03*
Y480000D02*
D03*
Y488000D02*
D03*
Y496000D02*
D03*
D21*
X357500Y127000D02*
D03*
X376500D02*
D03*
X422500Y166000D02*
D03*
X403500D02*
D03*
D22*
X274500Y464000D02*
D03*
X255500D02*
D03*
X274500Y487000D02*
D03*
X255500D02*
D03*
X274500Y510000D02*
D03*
X255500D02*
D03*
D30*
X467000Y130500D02*
D03*
Y111500D02*
D03*
X323000Y162500D02*
D03*
Y143500D02*
D03*
X56000Y455500D02*
D03*
Y474500D02*
D03*
D31*
X308840Y119500D02*
D03*
Y103500D02*
D03*
X325840Y119500D02*
D03*
Y103500D02*
D03*
D32*
X450000Y86000D02*
D03*
Y67000D02*
D03*
X328840Y64500D02*
D03*
Y83500D02*
D03*
X305840Y64500D02*
D03*
Y83500D02*
D03*
D48*
X271500Y438200D02*
D03*
X265000D02*
D03*
X258500D02*
D03*
Y419800D02*
D03*
X265000D02*
D03*
X271500D02*
D03*
D102*
X609000Y355000D02*
D03*
X529000D02*
D03*
D103*
X379000Y168500D02*
D03*
Y159000D02*
D03*
Y149500D02*
D03*
X353000D02*
D03*
Y168500D02*
D03*
Y159000D02*
D03*
X426000Y140500D02*
D03*
Y131000D02*
D03*
Y121500D02*
D03*
X400000D02*
D03*
Y140500D02*
D03*
Y131000D02*
D03*
D104*
X414750Y101050D02*
D03*
Y88350D02*
D03*
Y75650D02*
D03*
Y62950D02*
D03*
X365250D02*
D03*
Y75650D02*
D03*
Y88350D02*
D03*
Y101050D02*
D03*
D106*
X94300Y404400D02*
D03*
Y529600D02*
D03*
D107*
X227400Y412750D02*
D03*
Y521250D02*
D03*
D108*
X225100Y441300D02*
D03*
Y453700D02*
D03*
Y479100D02*
D03*
X75700Y441300D02*
D03*
Y453700D02*
D03*
Y479100D02*
D03*
M02*
