G04*
G04 #@! TF.GenerationSoftware,Altium Limited,Altium Designer,22.0.2 (36)*
G04*
G04 Layer_Color=8388736*
%FSLAX44Y44*%
%MOMM*%
G71*
G04*
G04 #@! TF.SameCoordinates,FC35110A-CA5B-4856-B909-DC3729F2DC72*
G04*
G04*
G04 #@! TF.FilePolarity,Negative*
G04*
G01*
G75*
%ADD34R,1.9000X1.9000*%
%ADD41R,1.2000X1.0500*%
%ADD42R,2.3000X5.8000*%
%ADD43R,1.4600X1.5600*%
%ADD44R,1.1600X1.1100*%
%ADD45R,1.5000X1.6000*%
%ADD46R,1.0000X1.7000*%
%ADD47R,1.6000X2.1000*%
%ADD48R,1.5000X0.9000*%
%ADD49R,1.1300X1.5100*%
%ADD50R,1.8000X3.2000*%
%ADD51R,2.2000X0.8000*%
%ADD52R,1.5000X1.1000*%
%ADD53R,0.8000X2.2000*%
%ADD54R,2.2000X2.9000*%
%ADD55R,1.0000X1.2000*%
%ADD56R,0.5000X1.4500*%
%ADD57R,1.1000X1.5000*%
%ADD58R,1.6200X0.6700*%
%ADD59R,2.1000X2.1000*%
%ADD60R,1.8000X1.6000*%
%ADD61R,0.9000X1.5000*%
%ADD62R,0.6700X1.6200*%
%ADD63R,3.4000X2.5000*%
%ADD64R,2.5000X3.4000*%
%ADD65R,3.4400X1.5100*%
%ADD66C,7.6000*%
%ADD67R,1.9000X1.9000*%
%ADD68C,1.9000*%
%ADD69R,2.3000X2.3000*%
G04:AMPARAMS|DCode=70|XSize=2.1mm|YSize=1.3mm|CornerRadius=0.41mm|HoleSize=0mm|Usage=FLASHONLY|Rotation=270.000|XOffset=0mm|YOffset=0mm|HoleType=Round|Shape=RoundedRectangle|*
%AMROUNDEDRECTD70*
21,1,2.1000,0.4800,0,0,270.0*
21,1,1.2800,1.3000,0,0,270.0*
1,1,0.8200,-0.2400,-0.6400*
1,1,0.8200,-0.2400,0.6400*
1,1,0.8200,0.2400,0.6400*
1,1,0.8200,0.2400,-0.6400*
%
%ADD70ROUNDEDRECTD70*%
%ADD71C,1.3000*%
%ADD72C,1.8000*%
%ADD73R,3.7000X3.7000*%
%ADD74C,3.7000*%
%ADD75C,2.3000*%
%ADD76C,0.6000*%
D34*
X884000Y616000D02*
D03*
X591000Y102617D02*
D03*
D41*
X441500Y106500D02*
D03*
Y125500D02*
D03*
X462500Y116000D02*
D03*
D42*
X839000Y393500D02*
D03*
Y488500D02*
D03*
D43*
X749400Y511400D02*
D03*
D44*
X735000Y509150D02*
D03*
D45*
X691900Y511400D02*
D03*
D46*
X757000Y620000D02*
D03*
X746000D02*
D03*
X735000Y622000D02*
D03*
X724000Y620000D02*
D03*
X713000Y622000D02*
D03*
X702000Y620000D02*
D03*
X691000Y616000D02*
D03*
X680000Y620000D02*
D03*
D47*
X764900Y642900D02*
D03*
X633400Y652900D02*
D03*
D48*
X713000Y317500D02*
D03*
X736000D02*
D03*
X426000Y265500D02*
D03*
X759000Y317500D02*
D03*
X426000Y317500D02*
D03*
Y374500D02*
D03*
Y355500D02*
D03*
X736000Y336500D02*
D03*
X713000D02*
D03*
X719000Y231000D02*
D03*
Y215000D02*
D03*
X695000Y231000D02*
D03*
Y215000D02*
D03*
X426000Y284500D02*
D03*
Y336500D02*
D03*
X759000Y336500D02*
D03*
X878000Y450500D02*
D03*
Y431500D02*
D03*
D49*
X138000Y491550D02*
D03*
X160900D02*
D03*
X115100D02*
D03*
D50*
X70000Y500500D02*
D03*
X399000Y601500D02*
D03*
X206000Y501500D02*
D03*
X339000Y601500D02*
D03*
Y642500D02*
D03*
X399000D02*
D03*
X206000Y542500D02*
D03*
X70000Y541500D02*
D03*
D51*
X1027000Y547000D02*
D03*
X945000Y551000D02*
D03*
Y543000D02*
D03*
Y511000D02*
D03*
Y503000D02*
D03*
Y527000D02*
D03*
Y519000D02*
D03*
Y535000D02*
D03*
Y495000D02*
D03*
Y455000D02*
D03*
X1027000Y363000D02*
D03*
Y315000D02*
D03*
X945000Y319000D02*
D03*
X1027000Y323000D02*
D03*
X945000Y327000D02*
D03*
X1027000Y331000D02*
D03*
X945000Y335000D02*
D03*
X1027000Y339000D02*
D03*
X945000Y343000D02*
D03*
X1027000Y347000D02*
D03*
X945000Y351000D02*
D03*
X1027000Y355000D02*
D03*
X945000Y359000D02*
D03*
Y367000D02*
D03*
X1027000Y371000D02*
D03*
X945000Y375000D02*
D03*
X1027000Y379000D02*
D03*
X945000Y383000D02*
D03*
X1027000Y387000D02*
D03*
X945000Y391000D02*
D03*
X1027000Y395000D02*
D03*
X945000Y399000D02*
D03*
X1027000Y403000D02*
D03*
X945000Y407000D02*
D03*
X1027000Y411000D02*
D03*
X945000Y415000D02*
D03*
X1027000Y419000D02*
D03*
X945000Y423000D02*
D03*
X1027000Y427000D02*
D03*
X945000Y431000D02*
D03*
X1027000Y435000D02*
D03*
X945000Y439000D02*
D03*
X1027000Y443000D02*
D03*
X945000Y447000D02*
D03*
X1027000Y451000D02*
D03*
Y491000D02*
D03*
Y499000D02*
D03*
Y507000D02*
D03*
Y515000D02*
D03*
Y523000D02*
D03*
Y531000D02*
D03*
Y539000D02*
D03*
D52*
X858000Y638500D02*
D03*
X864000Y316500D02*
D03*
X613000Y414500D02*
D03*
X858000Y619500D02*
D03*
X841000Y316500D02*
D03*
X818000Y316500D02*
D03*
X660000Y395500D02*
D03*
X636000D02*
D03*
X617000Y80000D02*
D03*
Y99000D02*
D03*
X864000Y335500D02*
D03*
X841000D02*
D03*
X818000Y335500D02*
D03*
X613000Y395500D02*
D03*
X636000Y414500D02*
D03*
X660000D02*
D03*
D53*
X939000Y13000D02*
D03*
X755000D02*
D03*
X943000Y95000D02*
D03*
X935000D02*
D03*
X931000Y13000D02*
D03*
X927000Y95000D02*
D03*
X923000Y13000D02*
D03*
X919000Y95000D02*
D03*
X915000Y13000D02*
D03*
X911000Y95000D02*
D03*
X907000Y13000D02*
D03*
X903000Y95000D02*
D03*
X899000Y13000D02*
D03*
X895000Y95000D02*
D03*
X891000Y13000D02*
D03*
X887000Y95000D02*
D03*
X883000Y13000D02*
D03*
X847000Y95000D02*
D03*
X843000Y13000D02*
D03*
X839000Y95000D02*
D03*
X835000Y13000D02*
D03*
X831000Y95000D02*
D03*
X827000Y13000D02*
D03*
X823000Y95000D02*
D03*
X819000Y13000D02*
D03*
X815000Y95000D02*
D03*
X811000Y13000D02*
D03*
X807000Y95000D02*
D03*
X803000Y13000D02*
D03*
X799000Y95000D02*
D03*
X795000Y13000D02*
D03*
X791000Y95000D02*
D03*
X787000Y13000D02*
D03*
X783000Y95000D02*
D03*
X779000Y13000D02*
D03*
X775000Y95000D02*
D03*
X771000Y13000D02*
D03*
X767000Y95000D02*
D03*
X763000Y13000D02*
D03*
X759000Y95000D02*
D03*
X751000D02*
D03*
X747000Y13000D02*
D03*
X743000Y95000D02*
D03*
X739000Y13000D02*
D03*
X735000Y95000D02*
D03*
X731000Y13000D02*
D03*
X727000Y95000D02*
D03*
X723000Y13000D02*
D03*
X719000Y95000D02*
D03*
X715000Y13000D02*
D03*
X711000Y95000D02*
D03*
X707000Y13000D02*
D03*
D54*
X387000Y561000D02*
D03*
X355000D02*
D03*
D55*
X411000Y135000D02*
D03*
Y97000D02*
D03*
D56*
X263000Y620000D02*
D03*
X237000D02*
D03*
X243500D02*
D03*
X250000D02*
D03*
X256500D02*
D03*
D57*
X895000Y471000D02*
D03*
X895500Y411000D02*
D03*
X641500Y374000D02*
D03*
X660500D02*
D03*
X876000Y471000D02*
D03*
X876500Y411000D02*
D03*
D58*
X778000Y406000D02*
D03*
X694000Y398000D02*
D03*
X778000Y374000D02*
D03*
Y382000D02*
D03*
Y390000D02*
D03*
Y398000D02*
D03*
Y414000D02*
D03*
Y422000D02*
D03*
Y430000D02*
D03*
X694000D02*
D03*
Y422000D02*
D03*
Y414000D02*
D03*
Y406000D02*
D03*
Y390000D02*
D03*
Y382000D02*
D03*
Y374000D02*
D03*
D59*
X238000Y646750D02*
D03*
X262000D02*
D03*
D60*
X282000Y622250D02*
D03*
X218000D02*
D03*
D61*
X260000Y598000D02*
D03*
X442500Y144000D02*
D03*
X443500Y88000D02*
D03*
X462500D02*
D03*
X461500Y144000D02*
D03*
X726000Y484000D02*
D03*
X707000D02*
D03*
X241000Y598000D02*
D03*
D62*
X764000Y444000D02*
D03*
X756000D02*
D03*
X748000D02*
D03*
X740000D02*
D03*
X732000D02*
D03*
X724000D02*
D03*
X716000D02*
D03*
X708000D02*
D03*
Y360000D02*
D03*
X716000D02*
D03*
X724000D02*
D03*
X732000D02*
D03*
X740000D02*
D03*
X748000D02*
D03*
X756000D02*
D03*
X764000D02*
D03*
D63*
X951000Y286500D02*
D03*
Y579500D02*
D03*
D64*
X971500Y89000D02*
D03*
X678500D02*
D03*
D65*
X138000Y558450D02*
D03*
D66*
X600000Y270000D02*
D03*
X480000Y620000D02*
D03*
X70000Y260000D02*
D03*
D67*
X483000Y265400D02*
D03*
X369000Y392400D02*
D03*
D68*
X884000Y641400D02*
D03*
X591000Y77217D02*
D03*
X934800Y641400D02*
D03*
X457600Y468600D02*
D03*
Y265400D02*
D03*
X540200Y77217D02*
D03*
X369000Y341600D02*
D03*
X457600Y443200D02*
D03*
Y417800D02*
D03*
Y392400D02*
D03*
Y367000D02*
D03*
Y341600D02*
D03*
Y316200D02*
D03*
X483000Y468600D02*
D03*
Y443200D02*
D03*
Y417800D02*
D03*
Y392400D02*
D03*
Y367000D02*
D03*
Y341600D02*
D03*
Y316200D02*
D03*
Y290800D02*
D03*
X457600D02*
D03*
X909400Y616000D02*
D03*
X934800D02*
D03*
X909400Y641400D02*
D03*
X369000Y367000D02*
D03*
X565600Y102617D02*
D03*
X540200D02*
D03*
X565600Y77217D02*
D03*
D69*
X352000Y178000D02*
D03*
D70*
X283000Y646750D02*
D03*
X217000D02*
D03*
D71*
X986000Y308000D02*
D03*
X700000Y54000D02*
D03*
D72*
X986000Y558000D02*
D03*
X950000Y54000D02*
D03*
D73*
X103000Y71000D02*
D03*
D74*
Y121800D02*
D03*
Y172600D02*
D03*
D75*
X352000Y58000D02*
D03*
X230000Y178000D02*
D03*
Y58000D02*
D03*
X372000Y118000D02*
D03*
D76*
X712429Y640571D02*
D03*
X997000Y601000D02*
D03*
X1002000Y530000D02*
D03*
X989000Y608000D02*
D03*
X872000Y120000D02*
D03*
X864000Y252000D02*
D03*
X759000Y306000D02*
D03*
X611000Y483000D02*
D03*
X665000Y51000D02*
D03*
X837000Y619000D02*
D03*
X826000Y594000D02*
D03*
X837000Y571000D02*
D03*
X925000Y496000D02*
D03*
X964000Y455000D02*
D03*
X895500Y390500D02*
D03*
X885000Y498000D02*
D03*
X793000Y406000D02*
D03*
X710000Y391000D02*
D03*
X841000Y299000D02*
D03*
X623000Y374000D02*
D03*
X493000Y216000D02*
D03*
X443000Y195000D02*
D03*
Y204000D02*
D03*
X691000Y562000D02*
D03*
X909000Y423000D02*
D03*
X722000Y382000D02*
D03*
X714000Y376000D02*
D03*
X807000Y398000D02*
D03*
X841000Y352000D02*
D03*
X749000Y484000D02*
D03*
X803000Y532000D02*
D03*
X782000Y451000D02*
D03*
X748000Y393000D02*
D03*
X711000Y118000D02*
D03*
X719000Y118000D02*
D03*
X699000Y254000D02*
D03*
X706000Y258000D02*
D03*
X699000Y287000D02*
D03*
X706000Y292000D02*
D03*
X716000Y427000D02*
D03*
X740000Y374000D02*
D03*
X426000Y405000D02*
D03*
X732000Y459000D02*
D03*
X748000Y415000D02*
D03*
X740000Y406000D02*
D03*
X756000Y421000D02*
D03*
X764000Y426000D02*
D03*
X999000Y339000D02*
D03*
X708000Y427000D02*
D03*
X774000Y360000D02*
D03*
X795000Y374000D02*
D03*
Y382000D02*
D03*
X738000Y233000D02*
D03*
Y264000D02*
D03*
X924000Y162000D02*
D03*
X948000Y114000D02*
D03*
X1005179Y331000D02*
D03*
X1005226Y355000D02*
D03*
X714841Y36000D02*
D03*
X746557D02*
D03*
X810886Y46000D02*
D03*
X803038D02*
D03*
X794913D02*
D03*
X786926D02*
D03*
X778894D02*
D03*
X771000D02*
D03*
X763000D02*
D03*
X1005000Y371338D02*
D03*
Y379100D02*
D03*
Y387186D02*
D03*
Y395164D02*
D03*
Y402711D02*
D03*
Y411120D02*
D03*
Y418775D02*
D03*
M02*
