G04*
G04 #@! TF.GenerationSoftware,Altium Limited,Altium Designer,22.0.2 (36)*
G04*
G04 Layer_Color=7674933*
%FSLAX44Y44*%
%MOMM*%
G71*
G04*
G04 #@! TF.SameCoordinates,4B74FB3E-7ACF-458F-97AA-83F66C2CEB99*
G04*
G04*
G04 #@! TF.FilePolarity,Negative*
G04*
G01*
G75*
%ADD32R,1.9000X1.9000*%
%ADD66C,7.6000*%
%ADD67R,1.9000X1.9000*%
%ADD68C,1.9000*%
%ADD69R,2.3000X2.3000*%
G04:AMPARAMS|DCode=70|XSize=2.1mm|YSize=1.3mm|CornerRadius=0.41mm|HoleSize=0mm|Usage=FLASHONLY|Rotation=270.000|XOffset=0mm|YOffset=0mm|HoleType=Round|Shape=RoundedRectangle|*
%AMROUNDEDRECTD70*
21,1,2.1000,0.4800,0,0,270.0*
21,1,1.2800,1.3000,0,0,270.0*
1,1,0.8200,-0.2400,-0.6400*
1,1,0.8200,-0.2400,0.6400*
1,1,0.8200,0.2400,0.6400*
1,1,0.8200,0.2400,-0.6400*
%
%ADD70ROUNDEDRECTD70*%
%ADD71C,1.3000*%
%ADD72C,1.8000*%
%ADD73R,3.7000X3.7000*%
%ADD74C,3.7000*%
%ADD75C,2.3000*%
%ADD76C,0.6000*%
D32*
X884000Y616000D02*
D03*
X591000Y102617D02*
D03*
D66*
X600000Y270000D02*
D03*
X480000Y620000D02*
D03*
X70000Y260000D02*
D03*
D67*
X483000Y265400D02*
D03*
X369000Y392400D02*
D03*
D68*
X884000Y641400D02*
D03*
X591000Y77217D02*
D03*
X934800Y641400D02*
D03*
X457600Y468600D02*
D03*
Y265400D02*
D03*
X540200Y77217D02*
D03*
X369000Y341600D02*
D03*
X457600Y443200D02*
D03*
Y417800D02*
D03*
Y392400D02*
D03*
Y367000D02*
D03*
Y341600D02*
D03*
Y316200D02*
D03*
X483000Y468600D02*
D03*
Y443200D02*
D03*
Y417800D02*
D03*
Y392400D02*
D03*
Y367000D02*
D03*
Y341600D02*
D03*
Y316200D02*
D03*
Y290800D02*
D03*
X457600D02*
D03*
X909400Y616000D02*
D03*
X934800D02*
D03*
X909400Y641400D02*
D03*
X369000Y367000D02*
D03*
X565600Y102617D02*
D03*
X540200D02*
D03*
X565600Y77217D02*
D03*
D69*
X352000Y178000D02*
D03*
D70*
X283000Y646750D02*
D03*
X217000D02*
D03*
D71*
X986000Y308000D02*
D03*
X700000Y54000D02*
D03*
D72*
X986000Y558000D02*
D03*
X950000Y54000D02*
D03*
D73*
X103000Y71000D02*
D03*
D74*
Y121800D02*
D03*
Y172600D02*
D03*
D75*
X352000Y58000D02*
D03*
X230000Y178000D02*
D03*
Y58000D02*
D03*
X372000Y118000D02*
D03*
D76*
X712429Y640571D02*
D03*
X997000Y601000D02*
D03*
X1002000Y530000D02*
D03*
X989000Y608000D02*
D03*
X872000Y120000D02*
D03*
X864000Y252000D02*
D03*
X759000Y306000D02*
D03*
X611000Y483000D02*
D03*
X665000Y51000D02*
D03*
X837000Y619000D02*
D03*
X826000Y594000D02*
D03*
X837000Y571000D02*
D03*
X925000Y496000D02*
D03*
X964000Y455000D02*
D03*
X895500Y390500D02*
D03*
X885000Y498000D02*
D03*
X793000Y406000D02*
D03*
X710000Y391000D02*
D03*
X841000Y299000D02*
D03*
X623000Y374000D02*
D03*
X493000Y216000D02*
D03*
X443000Y195000D02*
D03*
Y204000D02*
D03*
X691000Y562000D02*
D03*
X909000Y423000D02*
D03*
X722000Y382000D02*
D03*
X714000Y376000D02*
D03*
X807000Y398000D02*
D03*
X841000Y352000D02*
D03*
X749000Y484000D02*
D03*
X803000Y532000D02*
D03*
X782000Y451000D02*
D03*
X748000Y393000D02*
D03*
X711000Y118000D02*
D03*
X719000Y118000D02*
D03*
X699000Y254000D02*
D03*
X706000Y258000D02*
D03*
X699000Y287000D02*
D03*
X706000Y292000D02*
D03*
X716000Y427000D02*
D03*
X740000Y374000D02*
D03*
X426000Y405000D02*
D03*
X732000Y459000D02*
D03*
X748000Y415000D02*
D03*
X740000Y406000D02*
D03*
X756000Y421000D02*
D03*
X764000Y426000D02*
D03*
X999000Y339000D02*
D03*
X708000Y427000D02*
D03*
X774000Y360000D02*
D03*
X795000Y374000D02*
D03*
Y382000D02*
D03*
X738000Y233000D02*
D03*
Y264000D02*
D03*
X924000Y162000D02*
D03*
X948000Y114000D02*
D03*
X1005179Y331000D02*
D03*
X1005226Y355000D02*
D03*
X714841Y36000D02*
D03*
X746557D02*
D03*
X810886Y46000D02*
D03*
X803038D02*
D03*
X794913D02*
D03*
X786926D02*
D03*
X778894D02*
D03*
X771000D02*
D03*
X763000D02*
D03*
X1005000Y371338D02*
D03*
Y379100D02*
D03*
Y387186D02*
D03*
Y395164D02*
D03*
Y402711D02*
D03*
Y411120D02*
D03*
Y418775D02*
D03*
M02*
