G04*
G04 #@! TF.GenerationSoftware,Altium Limited,Altium Designer,22.0.2 (36)*
G04*
G04 Layer_Physical_Order=1*
G04 Layer_Color=255*
%FSLAX44Y44*%
%MOMM*%
G71*
G04*
G04 #@! TF.SameCoordinates,FC35110A-CA5B-4856-B909-DC3729F2DC72*
G04*
G04*
G04 #@! TF.FilePolarity,Positive*
G04*
G01*
G75*
%ADD13C,0.4000*%
%ADD14C,0.3000*%
%ADD15C,0.2540*%
%ADD17R,1.0000X0.8500*%
%ADD18R,2.1000X5.6000*%
%ADD19R,1.3000X1.4000*%
%ADD20R,1.0000X0.9500*%
%ADD21R,0.8000X1.5000*%
%ADD22R,1.4000X1.9000*%
%ADD23R,1.3000X0.7000*%
%ADD24R,0.9300X1.3100*%
%ADD25R,1.6000X3.0000*%
%ADD26R,2.0000X0.6000*%
%ADD27R,1.3000X0.9000*%
%ADD28R,0.6000X2.0000*%
%ADD29R,2.0000X2.7000*%
%ADD30R,0.8000X1.0000*%
%ADD31R,0.4000X1.3500*%
%ADD32R,0.9000X1.3000*%
%ADD33R,1.5000X0.5500*%
%ADD34R,1.9000X1.9000*%
%ADD35R,1.6000X1.4000*%
%ADD36R,0.7000X1.3000*%
%ADD37R,0.5500X1.5000*%
%ADD38R,3.2000X2.3000*%
%ADD39R,2.3000X3.2000*%
%ADD40R,3.2400X1.3100*%
%ADD77C,0.8000*%
%ADD78C,1.5000*%
%ADD79C,7.4000*%
%ADD80R,1.7000X1.7000*%
%ADD81C,1.7000*%
%ADD82R,2.1000X2.1000*%
G04:AMPARAMS|DCode=83|XSize=2mm|YSize=1.2mm|CornerRadius=0.36mm|HoleSize=0mm|Usage=FLASHONLY|Rotation=270.000|XOffset=0mm|YOffset=0mm|HoleType=Round|Shape=RoundedRectangle|*
%AMROUNDEDRECTD83*
21,1,2.0000,0.4800,0,0,270.0*
21,1,1.2800,1.2000,0,0,270.0*
1,1,0.7200,-0.2400,-0.6400*
1,1,0.7200,-0.2400,0.6400*
1,1,0.7200,0.2400,0.6400*
1,1,0.7200,0.2400,-0.6400*
%
%ADD83ROUNDEDRECTD83*%
%ADD84C,1.1000*%
%ADD85C,1.6000*%
%ADD86R,3.5000X3.5000*%
%ADD87C,3.5000*%
%ADD88C,2.1000*%
%ADD89R,1.7000X1.7000*%
%ADD90C,0.4000*%
G36*
X984527Y603527D02*
X984713Y603403D01*
X991903Y596213D01*
X992027Y596027D01*
X1013961Y574094D01*
Y544000D01*
X1014116Y543220D01*
X1014558Y542558D01*
X1015000Y542263D01*
Y534000D01*
Y526000D01*
Y518000D01*
Y510000D01*
Y502000D01*
Y494000D01*
Y486000D01*
X1039000D01*
Y456000D01*
X1015000D01*
Y446000D01*
Y438000D01*
Y430000D01*
Y422334D01*
X1006859D01*
X1005796Y422775D01*
X1004204D01*
X1004120Y422740D01*
X1003064Y423445D01*
Y457514D01*
X1011628Y466078D01*
X1012350Y467159D01*
X1012604Y468435D01*
Y558175D01*
X1012350Y559451D01*
X1011628Y560533D01*
X942033Y630127D01*
X940951Y630850D01*
X939675Y631104D01*
X929925D01*
X928649Y630850D01*
X927567Y630127D01*
X920642Y623203D01*
X919920Y622121D01*
X919801Y621525D01*
X918462Y621303D01*
X917802Y622447D01*
X915847Y624402D01*
X913453Y625784D01*
X910782Y626500D01*
X908018D01*
X905347Y625784D01*
X902953Y624402D01*
X900998Y622447D01*
X899615Y620053D01*
X898900Y617382D01*
Y614618D01*
X899615Y611947D01*
X899988Y611303D01*
X896249Y607564D01*
X894500D01*
Y626296D01*
X897630D01*
X898906Y626550D01*
X899987Y627272D01*
X904703Y631988D01*
X905347Y631616D01*
X908018Y630900D01*
X910782D01*
X913453Y631616D01*
X915847Y632998D01*
X917802Y634953D01*
X919184Y637347D01*
X919900Y640018D01*
Y642782D01*
X919184Y645453D01*
X917802Y647847D01*
X917040Y648609D01*
X917526Y649782D01*
X938272D01*
X984527Y603527D01*
D02*
G37*
G36*
X714394Y664750D02*
X713313Y664027D01*
X699642Y650358D01*
X698920Y649276D01*
X698666Y648000D01*
Y629500D01*
X696000D01*
Y625500D01*
X686000D01*
Y629500D01*
X674000D01*
Y610500D01*
X685000D01*
Y606500D01*
X687666D01*
Y564323D01*
X687609Y564266D01*
X687000Y562796D01*
Y561204D01*
X687609Y559734D01*
X688734Y558609D01*
X690204Y558000D01*
X691796D01*
X693266Y558609D01*
X694391Y559734D01*
X695000Y561204D01*
Y562796D01*
X694391Y564266D01*
X694334Y564323D01*
Y606500D01*
X697000D01*
Y610500D01*
X698666D01*
Y598000D01*
X698920Y596724D01*
X699642Y595643D01*
X712666Y582619D01*
Y493701D01*
X712500Y492500D01*
X701500D01*
Y480215D01*
X691643Y470358D01*
X690920Y469276D01*
X690666Y468000D01*
Y434750D01*
X684500D01*
Y425334D01*
X680990D01*
X679714Y425080D01*
X678633Y424357D01*
X672109Y417834D01*
X668500D01*
Y421000D01*
X651500D01*
Y417834D01*
X644500D01*
Y421000D01*
X627500D01*
Y412715D01*
X622759Y407975D01*
X621500Y408511D01*
Y421000D01*
X621039D01*
Y490000D01*
X620884Y490780D01*
X620442Y491442D01*
X619780Y491884D01*
X619000Y492039D01*
X558845D01*
X466442Y584442D01*
X465780Y584884D01*
X465000Y585039D01*
X442845D01*
X409442Y618442D01*
X408780Y618884D01*
X408000Y619039D01*
X389000D01*
X388220Y618884D01*
X387558Y618442D01*
X387116Y617780D01*
X386961Y617000D01*
Y588845D01*
X374558Y576442D01*
X374116Y575780D01*
X373961Y575000D01*
Y553112D01*
X368173Y547325D01*
X367000Y547811D01*
Y576500D01*
X349591D01*
X349000Y576618D01*
X348034D01*
X345117Y579534D01*
Y584500D01*
X349000D01*
Y618500D01*
X329000D01*
Y615328D01*
X268689D01*
X267078Y616939D01*
Y620000D01*
X267000Y620394D01*
Y628750D01*
X239500D01*
Y611250D01*
X240166D01*
Y606500D01*
X235500D01*
Y589500D01*
X246500D01*
Y602104D01*
X246580Y602224D01*
X246834Y603500D01*
Y611250D01*
X261232D01*
X264116Y608366D01*
X264116Y608366D01*
X265439Y607482D01*
X267000Y607172D01*
X329000D01*
Y584500D01*
X332882D01*
Y577000D01*
X333348Y574659D01*
X334674Y572674D01*
X341174Y566174D01*
X343000Y564954D01*
Y545500D01*
X364689D01*
X365175Y544327D01*
X340888Y520039D01*
X173000D01*
X172220Y519884D01*
X171558Y519442D01*
X153558Y501442D01*
X153116Y500780D01*
X152961Y500000D01*
Y486719D01*
X151691Y486193D01*
X149039Y488845D01*
Y500000D01*
X148884Y500780D01*
X148442Y501442D01*
X147780Y501884D01*
X147000Y502039D01*
X130000D01*
X129220Y501884D01*
X128558Y501442D01*
X128116Y500780D01*
X127961Y500000D01*
Y488845D01*
X124234Y485118D01*
X95039D01*
Y502000D01*
X95039Y502000D01*
X94884Y502780D01*
X94442Y503442D01*
X94442Y503442D01*
X80442Y517442D01*
X79780Y517884D01*
X79000Y518039D01*
X61000D01*
X60220Y517884D01*
X59558Y517442D01*
X59116Y516780D01*
X58961Y516000D01*
Y473000D01*
X59116Y472220D01*
X59558Y471558D01*
X60220Y471116D01*
X61000Y470961D01*
X125155D01*
X229558Y366558D01*
X230220Y366116D01*
X231000Y365961D01*
X294155D01*
X427558Y232558D01*
X428220Y232116D01*
X429000Y231961D01*
X500155D01*
X539558Y192558D01*
X540220Y192116D01*
X541000Y191961D01*
X651000D01*
X651780Y192116D01*
X652442Y192558D01*
X652442Y192558D01*
X680442Y220558D01*
X680884Y221220D01*
X681039Y222000D01*
Y275155D01*
X693766Y287882D01*
X695000Y287320D01*
Y286204D01*
X695609Y284734D01*
X695666Y284677D01*
Y256323D01*
X695609Y256266D01*
X695000Y254796D01*
Y253204D01*
X695609Y251734D01*
X696734Y250609D01*
X698204Y250000D01*
X699796D01*
X701266Y250609D01*
X702391Y251734D01*
X703000Y253204D01*
Y253643D01*
X703054Y253713D01*
X704270Y254387D01*
X705204Y254000D01*
X706796D01*
X708266Y254609D01*
X709391Y255734D01*
X710000Y257204D01*
Y258796D01*
X709391Y260266D01*
X709334Y260323D01*
Y289677D01*
X709391Y289734D01*
X710000Y291204D01*
Y292796D01*
X709391Y294266D01*
X708266Y295391D01*
X706796Y296000D01*
X705204D01*
X703734Y295391D01*
X702609Y294266D01*
X702000Y292796D01*
Y291357D01*
X701913Y291242D01*
X701546Y290932D01*
X700899Y290543D01*
X699796Y291000D01*
X698680D01*
X698118Y292234D01*
X713845Y307961D01*
X743000D01*
X743780Y308116D01*
X744442Y308558D01*
X744884Y309220D01*
X745039Y310000D01*
Y323000D01*
X744884Y323780D01*
X744442Y324442D01*
X743780Y324884D01*
X743000Y325039D01*
X722538D01*
X722052Y326213D01*
X726409Y330569D01*
X727500Y331000D01*
X727500Y331000D01*
Y331000D01*
X727500Y331000D01*
X744500D01*
Y336536D01*
X745673Y337022D01*
X746332Y336363D01*
X747414Y335640D01*
X748690Y335386D01*
X750500D01*
Y331000D01*
X767500D01*
Y333166D01*
X774671D01*
X775586Y332251D01*
Y305381D01*
X738205Y268000D01*
X737204D01*
X735734Y267391D01*
X734609Y266266D01*
X734000Y264796D01*
Y263204D01*
X734609Y261734D01*
X735734Y260609D01*
X737204Y260000D01*
X738068D01*
X738594Y258730D01*
X721699Y241834D01*
X705500D01*
X704224Y241580D01*
X703142Y240858D01*
X698785Y236500D01*
X686500D01*
Y225500D01*
X703500D01*
Y231785D01*
X706881Y235166D01*
X710500D01*
Y225500D01*
X727500D01*
Y231785D01*
X790358Y294643D01*
X791080Y295724D01*
X791334Y297000D01*
Y339000D01*
X791080Y340276D01*
X790358Y341357D01*
X781548Y350168D01*
X780466Y350890D01*
X779190Y351144D01*
X768750D01*
Y356666D01*
X771677D01*
X771734Y356609D01*
X773204Y356000D01*
X774796D01*
X776266Y356609D01*
X777391Y357734D01*
X778000Y359204D01*
Y360796D01*
X777391Y362266D01*
X776266Y363391D01*
X774796Y364000D01*
X773204D01*
X771734Y363391D01*
X771677Y363334D01*
X768750D01*
Y368333D01*
X768750Y369250D01*
X769667Y369250D01*
X787500D01*
Y370666D01*
X792677D01*
X792734Y370609D01*
X794204Y370000D01*
X795796D01*
X797266Y370609D01*
X798391Y371734D01*
X799000Y373204D01*
Y374796D01*
X798391Y376266D01*
X797376Y377280D01*
X797317Y378000D01*
X797376Y378720D01*
X798391Y379734D01*
X799000Y381204D01*
Y382796D01*
X798536Y383916D01*
X799130Y385186D01*
X803099D01*
X810666Y377619D01*
Y356881D01*
X801332Y347547D01*
X800610Y346466D01*
X800356Y345190D01*
Y208071D01*
X724642Y132358D01*
X723920Y131276D01*
X723666Y130000D01*
Y120507D01*
X722396Y120254D01*
X722391Y120266D01*
X721266Y121391D01*
X719796Y122000D01*
X718204D01*
X716734Y121391D01*
X715720Y120377D01*
X715000Y120317D01*
X714280Y120377D01*
X713266Y121391D01*
X711796Y122000D01*
X710204D01*
X708734Y121391D01*
X707609Y120266D01*
X707000Y118796D01*
Y117204D01*
X707609Y115734D01*
X707666Y115677D01*
Y107000D01*
X706000D01*
Y83000D01*
X746626D01*
X747112Y81827D01*
X695619Y30334D01*
X521881D01*
X468000Y84215D01*
Y96500D01*
X457000D01*
Y79500D01*
X463285D01*
X518143Y24643D01*
X519224Y23920D01*
X520500Y23666D01*
X697000D01*
X698276Y23920D01*
X699358Y24643D01*
X709668Y34953D01*
X711097Y34586D01*
X711450Y33734D01*
X711666Y33518D01*
Y25000D01*
X702000D01*
Y1000D01*
X700730Y1000D01*
X405000D01*
Y77449D01*
X417775Y90225D01*
X419298Y92209D01*
X419804Y93432D01*
X431250D01*
X432616Y93703D01*
X433773Y94477D01*
X439547Y100250D01*
X446044D01*
X446530Y99077D01*
X443953Y96500D01*
X438000D01*
Y79500D01*
X449000D01*
Y91453D01*
X455148Y97602D01*
X455922Y98759D01*
X456194Y100125D01*
Y104647D01*
X461297Y109750D01*
X469500D01*
Y122250D01*
X465069D01*
Y135500D01*
X467000D01*
Y152500D01*
X456000D01*
Y135500D01*
X457931D01*
Y122250D01*
X455500D01*
Y114047D01*
X450102Y108648D01*
X449770Y108152D01*
X448500Y108537D01*
Y112750D01*
X434500D01*
Y105297D01*
X429772Y100569D01*
X419804D01*
X419298Y101791D01*
X417775Y103776D01*
X415791Y105298D01*
X413480Y106256D01*
X411000Y106582D01*
X408520Y106256D01*
X406209Y105298D01*
X406139Y105245D01*
X405000Y105806D01*
Y126194D01*
X406139Y126756D01*
X406209Y126702D01*
X408520Y125745D01*
X411000Y125418D01*
X413480Y125745D01*
X415791Y126702D01*
X417775Y128225D01*
X419298Y130209D01*
X420255Y132520D01*
X420582Y135000D01*
Y141000D01*
X420255Y143480D01*
X419298Y145791D01*
X417775Y147775D01*
X405000Y160551D01*
Y211000D01*
X2000D01*
Y666000D01*
X714167D01*
X714394Y664750D01*
D02*
G37*
G36*
X819537Y627272D02*
X820619Y626550D01*
X821895Y626296D01*
X873500D01*
Y619334D01*
X870124D01*
X868848Y619080D01*
X867767Y618358D01*
X861973Y612564D01*
X763000D01*
Y629500D01*
X740000D01*
Y610500D01*
X745897D01*
X746373Y609788D01*
X747423Y608737D01*
X746937Y607564D01*
X737651D01*
X730000Y615215D01*
Y629500D01*
X719118D01*
Y640000D01*
X718652Y642341D01*
X717326Y644326D01*
X716755Y644897D01*
X714770Y646223D01*
X712429Y646689D01*
X710088Y646223D01*
X708103Y644897D01*
X706777Y642912D01*
X706604Y642042D01*
X705334Y642167D01*
Y646619D01*
X717051Y658336D01*
X788474D01*
X819537Y627272D01*
D02*
G37*
G36*
X1039000Y573000D02*
Y544000D01*
X1016000D01*
Y575000D01*
X943269Y647731D01*
X943202Y647847D01*
X941247Y649802D01*
X941131Y649869D01*
X939000Y652000D01*
X900000D01*
X894000Y646000D01*
Y633000D01*
X851000D01*
Y646176D01*
X865824Y661000D01*
X951000D01*
X1039000Y573000D01*
D02*
G37*
G36*
X927350Y608600D02*
X928353Y607598D01*
X930747Y606216D01*
X931466Y606023D01*
Y596805D01*
X906643Y571982D01*
X905920Y570900D01*
X905666Y569624D01*
Y425323D01*
X905609Y425266D01*
X905000Y423796D01*
Y422204D01*
X905609Y420734D01*
X906734Y419609D01*
X908204Y419000D01*
X909796D01*
X911266Y419609D01*
X912391Y420734D01*
X913000Y422204D01*
Y423796D01*
X912391Y425266D01*
X912334Y425323D01*
Y568243D01*
X931827Y587736D01*
X933000Y587250D01*
Y566000D01*
X969000D01*
Y591934D01*
X970270Y592460D01*
X1005936Y556794D01*
Y537039D01*
X1001000D01*
X1000220Y536884D01*
X999558Y536442D01*
X955558Y492442D01*
X955158Y491842D01*
X954558Y491442D01*
X954558Y491442D01*
X951155Y488039D01*
X939000D01*
X939000Y488039D01*
X938220Y487884D01*
X937558Y487442D01*
X937558Y487442D01*
X915558Y465442D01*
X915116Y464780D01*
X914961Y464000D01*
Y374845D01*
X873673Y333557D01*
X872500Y334043D01*
Y342000D01*
X855500D01*
Y339578D01*
X849500D01*
Y342000D01*
X845078D01*
Y352000D01*
X845000Y352394D01*
Y352796D01*
X844846Y353167D01*
X844768Y353561D01*
X844545Y353895D01*
X844391Y354266D01*
X844107Y354550D01*
X843884Y354884D01*
X843550Y355107D01*
X843266Y355391D01*
X842895Y355545D01*
X842561Y355768D01*
X842167Y355846D01*
X841796Y356000D01*
X841394D01*
X841000Y356078D01*
X840606Y356000D01*
X840204D01*
X839833Y355846D01*
X839439Y355768D01*
X839105Y355545D01*
X838734Y355391D01*
X838450Y355107D01*
X838116Y354884D01*
X837893Y354550D01*
X837609Y354266D01*
X837455Y353895D01*
X837232Y353561D01*
X837154Y353167D01*
X837000Y352796D01*
Y352394D01*
X836922Y352000D01*
Y342000D01*
X832500D01*
Y339578D01*
X826500D01*
Y342000D01*
X815250D01*
X814764Y343173D01*
X821357Y349767D01*
X822080Y350849D01*
X822334Y352124D01*
Y399000D01*
X822080Y400276D01*
X821357Y401357D01*
X806358Y416357D01*
X805917Y416652D01*
X806303Y417922D01*
X826311D01*
X826500Y417732D01*
Y363500D01*
X851500D01*
Y406922D01*
X870000D01*
Y402500D01*
X883000D01*
Y419500D01*
X880578D01*
Y426000D01*
X886500D01*
Y437000D01*
X869500D01*
Y426000D01*
X872422D01*
Y419500D01*
X870000D01*
Y415078D01*
X851500D01*
Y423500D01*
X832268D01*
X830884Y424884D01*
X829856Y425570D01*
X829688Y426619D01*
X829748Y427025D01*
X829884Y427116D01*
X841884Y439116D01*
X842768Y440439D01*
X843078Y442000D01*
X843078Y442000D01*
Y458500D01*
X851500D01*
Y466922D01*
X869500D01*
Y462500D01*
X871922D01*
Y456000D01*
X869500D01*
Y445000D01*
X886500D01*
Y456000D01*
X880078D01*
Y462500D01*
X882500D01*
Y479500D01*
X869500D01*
Y475078D01*
X851500D01*
Y518500D01*
X826500D01*
Y458500D01*
X834922D01*
Y443689D01*
X825311Y434078D01*
X787500D01*
Y434750D01*
X768750D01*
Y453500D01*
X735334D01*
Y456677D01*
X735391Y456734D01*
X736000Y458204D01*
Y459796D01*
X735391Y461266D01*
X734266Y462391D01*
X732796Y463000D01*
X731636D01*
X731043Y464203D01*
X736944Y470103D01*
X781438D01*
X782713Y470357D01*
X783795Y471080D01*
X796420Y483705D01*
X797143Y484787D01*
X797397Y486063D01*
Y536963D01*
X844162Y583728D01*
X900062D01*
X901338Y583982D01*
X902420Y584705D01*
X925358Y607643D01*
X925820Y608335D01*
X927049Y608630D01*
X927350Y608600D01*
D02*
G37*
G36*
X733913Y601872D02*
X734994Y601150D01*
X736270Y600896D01*
X897630D01*
X898906Y601150D01*
X899987Y601872D01*
X904703Y606588D01*
X905347Y606216D01*
X908018Y605500D01*
X910782D01*
X912430Y605942D01*
X913088Y604803D01*
X898681Y590396D01*
X842781D01*
X841505Y590143D01*
X840424Y589420D01*
X791705Y540701D01*
X790982Y539620D01*
X790728Y538344D01*
Y487444D01*
X780057Y476772D01*
X735563D01*
X734287Y476518D01*
X733205Y475795D01*
X732671Y475261D01*
X731500Y475886D01*
Y480666D01*
X746677D01*
X746734Y480609D01*
X748204Y480000D01*
X749796D01*
X751266Y480609D01*
X752391Y481734D01*
X753000Y483204D01*
Y484796D01*
X752391Y486266D01*
X751266Y487391D01*
X749796Y488000D01*
X748204D01*
X746734Y487391D01*
X746677Y487334D01*
X731500D01*
Y492500D01*
X727334D01*
Y606791D01*
X728507Y607278D01*
X733913Y601872D01*
D02*
G37*
G36*
X1005936Y520393D02*
Y469816D01*
X997373Y461253D01*
X996650Y460171D01*
X996396Y458895D01*
Y369155D01*
X996650Y367879D01*
X997373Y366798D01*
X1003528Y360643D01*
X1004217Y360182D01*
X1004225Y360139D01*
X1004037Y358837D01*
X1002960Y358391D01*
X1002903Y358334D01*
X999127D01*
X997851Y358080D01*
X996769Y357358D01*
X969642Y330231D01*
X968920Y329149D01*
X968666Y327873D01*
Y300000D01*
X933000D01*
Y273000D01*
X968666D01*
Y211381D01*
X923285Y166000D01*
X923204D01*
X921734Y165391D01*
X920609Y164266D01*
X920000Y162796D01*
Y161204D01*
X920609Y159734D01*
X921489Y158854D01*
X921176Y157708D01*
X921100Y157584D01*
X888377D01*
X887101Y157330D01*
X886019Y156608D01*
X854169Y124758D01*
X853447Y123676D01*
X853193Y122400D01*
Y107187D01*
X852000Y107000D01*
Y107000D01*
X738334D01*
Y126619D01*
X810587Y198873D01*
X811310Y199954D01*
X811564Y201230D01*
Y329000D01*
X826500D01*
Y331422D01*
X832500D01*
Y329000D01*
X849500D01*
Y331422D01*
X855500D01*
Y329000D01*
X867457D01*
X867943Y327827D01*
X864155Y324039D01*
X856000D01*
X855220Y323884D01*
X854558Y323442D01*
X854116Y322780D01*
X853961Y322000D01*
Y245000D01*
X854116Y244220D01*
X854558Y243558D01*
X855220Y243116D01*
X856000Y242961D01*
X872000D01*
X872780Y243116D01*
X873442Y243558D01*
X873884Y244220D01*
X874039Y245000D01*
Y304155D01*
X931443Y361559D01*
X931662Y361705D01*
X931730Y361807D01*
X933000Y361422D01*
Y354000D01*
Y346000D01*
Y338000D01*
Y330000D01*
Y322000D01*
Y314000D01*
X957000D01*
Y322000D01*
Y330000D01*
Y338000D01*
Y346000D01*
Y354000D01*
Y362000D01*
Y370000D01*
Y378000D01*
Y386000D01*
Y394000D01*
Y402000D01*
Y410000D01*
Y418000D01*
Y426000D01*
Y434000D01*
Y442000D01*
Y452000D01*
X933529D01*
X933000Y452000D01*
X932259Y452963D01*
Y458375D01*
X936845Y462961D01*
X946000D01*
X946000Y462961D01*
X946780Y463116D01*
X947442Y463558D01*
X947442Y463558D01*
X1004763Y520879D01*
X1005936Y520393D01*
D02*
G37*
G36*
X479666Y480619D02*
Y478577D01*
X478947Y478384D01*
X476553Y477002D01*
X474598Y475047D01*
X473216Y472653D01*
X472500Y469982D01*
Y467218D01*
X473216Y464547D01*
X474598Y462153D01*
X476553Y460198D01*
X477633Y459574D01*
X477293Y458304D01*
X469370D01*
X468094Y458050D01*
X467012Y457327D01*
X462297Y452612D01*
X461653Y452984D01*
X458982Y453700D01*
X456218D01*
X453547Y452984D01*
X451153Y451602D01*
X449198Y449647D01*
X447816Y447253D01*
X447100Y444582D01*
Y441818D01*
X447816Y439147D01*
X449198Y436753D01*
X451153Y434798D01*
X453547Y433416D01*
X456218Y432700D01*
X458982D01*
X461653Y433416D01*
X464047Y434798D01*
X466002Y436753D01*
X467384Y439147D01*
X468100Y441818D01*
Y444582D01*
X467384Y447253D01*
X467012Y447897D01*
X470751Y451636D01*
X474791D01*
X475317Y450366D01*
X474598Y449647D01*
X473216Y447253D01*
X472500Y444582D01*
Y441818D01*
X473216Y439147D01*
X474598Y436753D01*
X476553Y434798D01*
X477633Y434174D01*
X477293Y432904D01*
X469370D01*
X468094Y432650D01*
X467012Y431927D01*
X462297Y427212D01*
X461653Y427584D01*
X458982Y428300D01*
X456218D01*
X453547Y427584D01*
X451153Y426202D01*
X449198Y424247D01*
X447816Y421853D01*
X447100Y419182D01*
Y416418D01*
X447816Y413747D01*
X449198Y411353D01*
X451153Y409398D01*
X453547Y408016D01*
X456218Y407300D01*
X458982D01*
X461653Y408016D01*
X464047Y409398D01*
X466002Y411353D01*
X467384Y413747D01*
X468100Y416418D01*
Y419182D01*
X467384Y421853D01*
X467012Y422497D01*
X470751Y426236D01*
X474791D01*
X475317Y424966D01*
X474598Y424247D01*
X473216Y421853D01*
X472500Y419182D01*
Y416418D01*
X473216Y413747D01*
X474598Y411353D01*
X476553Y409398D01*
X478947Y408016D01*
X481618Y407300D01*
X484382D01*
X487053Y408016D01*
X487697Y408388D01*
X554981Y341104D01*
X554949Y340758D01*
X554555Y339834D01*
X519945D01*
X518669Y339580D01*
X517588Y338857D01*
X494770Y316040D01*
X493500Y316566D01*
Y317582D01*
X492784Y320253D01*
X491402Y322647D01*
X489447Y324602D01*
X487053Y325984D01*
X484382Y326700D01*
X481618D01*
X478947Y325984D01*
X476553Y324602D01*
X474598Y322647D01*
X473216Y320253D01*
X472500Y317582D01*
Y314818D01*
X473216Y312147D01*
X474598Y309753D01*
X475317Y309034D01*
X474791Y307764D01*
X471230D01*
X469954Y307510D01*
X468872Y306787D01*
X462297Y300212D01*
X461653Y300584D01*
X458982Y301300D01*
X456218D01*
X453547Y300584D01*
X451153Y299202D01*
X449198Y297247D01*
X447816Y294853D01*
X447100Y292182D01*
Y289418D01*
X447816Y286747D01*
X449198Y284353D01*
X451153Y282398D01*
X453547Y281016D01*
X456218Y280300D01*
X458982D01*
X461653Y281016D01*
X464047Y282398D01*
X466002Y284353D01*
X467384Y286747D01*
X468100Y289418D01*
Y292182D01*
X467384Y294853D01*
X467012Y295497D01*
X472611Y301096D01*
X477293D01*
X477633Y299826D01*
X476553Y299202D01*
X474598Y297247D01*
X473216Y294853D01*
X472500Y292182D01*
Y289418D01*
X473216Y286747D01*
X474598Y284353D01*
X476553Y282398D01*
X478947Y281016D01*
X481618Y280300D01*
X484382D01*
X487053Y281016D01*
X489447Y282398D01*
X491402Y284353D01*
X492784Y286747D01*
X493500Y289418D01*
Y292182D01*
X492784Y294853D01*
X492412Y295497D01*
X520581Y323666D01*
X690123D01*
X690609Y322493D01*
X652558Y284442D01*
X652116Y283780D01*
X651961Y283000D01*
Y244845D01*
X627155Y220039D01*
X543845D01*
X498039Y265845D01*
Y276000D01*
X497884Y276780D01*
X497442Y277442D01*
X496780Y277884D01*
X496000Y278039D01*
X472000D01*
X471220Y277884D01*
X470558Y277442D01*
X470116Y276780D01*
X469961Y276000D01*
Y263845D01*
X464155Y258039D01*
X462319D01*
X462187Y258013D01*
X462052Y258022D01*
X461800Y257936D01*
X461538Y257884D01*
X461426Y257809D01*
X461299Y257766D01*
X460866Y257516D01*
X459006Y257017D01*
X456194D01*
X454334Y257516D01*
X453901Y257766D01*
X453774Y257809D01*
X453662Y257884D01*
X453400Y257936D01*
X453148Y258022D01*
X453013Y258013D01*
X452881Y258039D01*
X450845D01*
X434442Y274442D01*
X433780Y274884D01*
X433000Y275039D01*
X424093D01*
X421305Y277827D01*
X421791Y279000D01*
X434500D01*
Y290000D01*
X422215D01*
X407334Y304881D01*
Y465619D01*
X430381Y488666D01*
X471619D01*
X479666Y480619D01*
D02*
G37*
G36*
X442000Y583000D02*
X465000D01*
X558000Y490000D01*
X619000D01*
Y409000D01*
X593000D01*
X456000Y546000D01*
X398000D01*
X337000Y485000D01*
X155000D01*
Y500000D01*
X173000Y518000D01*
X342000D01*
X376000Y552000D01*
Y575000D01*
X389000Y588000D01*
Y617000D01*
X408000D01*
X442000Y583000D01*
D02*
G37*
G36*
X591558Y407558D02*
X592220Y407116D01*
X593000Y406961D01*
X619000D01*
X619780Y407116D01*
X619940Y407223D01*
X620168Y407179D01*
X620592Y405807D01*
X616785Y402000D01*
X604500D01*
Y389000D01*
X621500D01*
Y397285D01*
X632215Y408000D01*
X644500D01*
Y411166D01*
X651500D01*
Y408000D01*
X668500D01*
Y411166D01*
X673490D01*
X674766Y411420D01*
X675847Y412142D01*
X682371Y418666D01*
X684500D01*
Y415626D01*
X684370Y415600D01*
X683288Y414878D01*
X672330Y403920D01*
X671608Y402838D01*
X671354Y401562D01*
Y391569D01*
X662285Y382500D01*
X654000D01*
Y365500D01*
X667000D01*
Y377785D01*
X677045Y387830D01*
X677768Y388912D01*
X678022Y390188D01*
Y400181D01*
X683327Y405486D01*
X684500Y405000D01*
Y401250D01*
X703500D01*
Y402666D01*
X707619D01*
X718666Y391619D01*
Y384323D01*
X718609Y384266D01*
X718000Y382796D01*
Y381204D01*
X718609Y379734D01*
X719734Y378609D01*
X721204Y378000D01*
X722796D01*
X724266Y378609D01*
X725391Y379734D01*
X726000Y381204D01*
Y382796D01*
X725391Y384266D01*
X725334Y384323D01*
Y393000D01*
X725080Y394276D01*
X724358Y395358D01*
X711358Y408358D01*
X710276Y409080D01*
X709000Y409334D01*
X703500D01*
Y417250D01*
Y424184D01*
X704010Y424437D01*
X704770Y424573D01*
X705734Y423609D01*
X707204Y423000D01*
X708796D01*
X710266Y423609D01*
X711280Y424623D01*
X712000Y424683D01*
X712720Y424623D01*
X713734Y423609D01*
X715204Y423000D01*
X716796D01*
X718266Y423609D01*
X719391Y424734D01*
X720000Y426204D01*
Y427796D01*
X719391Y429266D01*
X719334Y429323D01*
Y434500D01*
X736666D01*
Y408323D01*
X736609Y408266D01*
X736000Y406796D01*
Y405204D01*
X736609Y403734D01*
X737734Y402609D01*
X739204Y402000D01*
X740796D01*
X742266Y402609D01*
X743391Y403734D01*
X744000Y405204D01*
Y406796D01*
X743391Y408266D01*
X743334Y408323D01*
Y412493D01*
X744604Y412746D01*
X744609Y412734D01*
X745734Y411609D01*
X747204Y411000D01*
X748796D01*
X750266Y411609D01*
X751391Y412734D01*
X752000Y414204D01*
Y415796D01*
X751391Y417266D01*
X751366Y417291D01*
X751464Y418220D01*
X752219Y418559D01*
X752679Y418665D01*
X753734Y417609D01*
X755204Y417000D01*
X756796D01*
X758266Y417609D01*
X759391Y418734D01*
X760000Y420204D01*
Y421796D01*
X759795Y422290D01*
X759956Y422591D01*
X761520Y422823D01*
X761734Y422609D01*
X763204Y422000D01*
X764796D01*
X766266Y422609D01*
X767230Y423573D01*
X767990Y423437D01*
X768500Y423184D01*
Y417250D01*
Y409250D01*
X787500D01*
Y410666D01*
X802619D01*
X815666Y397619D01*
Y383708D01*
X814493Y383222D01*
X806838Y390877D01*
X805756Y391600D01*
X804480Y391854D01*
X787500D01*
Y393922D01*
X807000D01*
X807394Y394000D01*
X807796D01*
X808167Y394154D01*
X808561Y394232D01*
X808895Y394455D01*
X809266Y394609D01*
X809550Y394893D01*
X809884Y395116D01*
X810107Y395450D01*
X810391Y395734D01*
X810545Y396105D01*
X810768Y396439D01*
X810846Y396833D01*
X811000Y397204D01*
Y397606D01*
X811078Y398000D01*
X811000Y398394D01*
Y398796D01*
X810846Y399167D01*
X810768Y399561D01*
X810545Y399895D01*
X810391Y400266D01*
X810107Y400550D01*
X809884Y400884D01*
X809550Y401107D01*
X809266Y401391D01*
X808895Y401545D01*
X808561Y401768D01*
X808167Y401846D01*
X807796Y402000D01*
X807394D01*
X807000Y402078D01*
X787500D01*
Y402750D01*
X768500D01*
Y393250D01*
Y385250D01*
Y377250D01*
Y370416D01*
X768500Y369500D01*
X767584Y369500D01*
X751334D01*
Y390677D01*
X751391Y390734D01*
X752000Y392204D01*
Y393796D01*
X751391Y395266D01*
X750266Y396391D01*
X748796Y397000D01*
X747204D01*
X745734Y396391D01*
X744609Y395266D01*
X744000Y393796D01*
Y392204D01*
X744609Y390734D01*
X744666Y390677D01*
Y376507D01*
X743396Y376254D01*
X743391Y376266D01*
X742266Y377391D01*
X740796Y378000D01*
X739204D01*
X737734Y377391D01*
X736609Y376266D01*
X736000Y374796D01*
Y373204D01*
X736609Y371734D01*
X736666Y371677D01*
Y369500D01*
X703500D01*
Y381000D01*
X704673Y381486D01*
X710000Y376159D01*
Y375204D01*
X710609Y373734D01*
X711734Y372609D01*
X713204Y372000D01*
X714796D01*
X716266Y372609D01*
X717391Y373734D01*
X718000Y375204D01*
Y376796D01*
X717391Y378266D01*
X716266Y379391D01*
X716117Y379453D01*
X716078Y379511D01*
X704712Y390877D01*
X703630Y391600D01*
X703500Y391626D01*
Y394750D01*
X684500D01*
Y383626D01*
X684370Y383600D01*
X683288Y382878D01*
X679150Y378740D01*
X678427Y377658D01*
X678174Y376382D01*
Y374344D01*
X664164Y360334D01*
X592645D01*
X495652Y457327D01*
X494570Y458050D01*
X493294Y458304D01*
X488707D01*
X488367Y459574D01*
X489447Y460198D01*
X491402Y462153D01*
X492784Y464547D01*
X493500Y467218D01*
Y469982D01*
X492784Y472653D01*
X491402Y475047D01*
X489447Y477002D01*
X487053Y478384D01*
X486334Y478577D01*
Y482000D01*
X486080Y483276D01*
X485358Y484358D01*
X475358Y494357D01*
X474276Y495080D01*
X473000Y495334D01*
X429000D01*
X427724Y495080D01*
X426642Y494358D01*
X401642Y469357D01*
X400920Y468276D01*
X400666Y467000D01*
Y303500D01*
X400920Y302224D01*
X401642Y301143D01*
X417500Y285285D01*
Y283291D01*
X416327Y282805D01*
X365171Y333961D01*
X364949Y334109D01*
X364749Y334285D01*
X363805Y334830D01*
X362230Y336405D01*
X361685Y337349D01*
X361509Y337549D01*
X361361Y337771D01*
X356039Y343093D01*
Y378155D01*
X357845Y379961D01*
X379000D01*
X379780Y380116D01*
X380442Y380558D01*
X380884Y381220D01*
X381039Y382000D01*
Y402000D01*
X380884Y402780D01*
X380442Y403442D01*
X379780Y403884D01*
X379000Y404039D01*
X233845D01*
X156193Y481691D01*
X156719Y482961D01*
X337000D01*
X337000Y482961D01*
X337780Y483116D01*
X338442Y483558D01*
X398845Y543961D01*
X455155D01*
X591558Y407558D01*
D02*
G37*
G36*
X1005936Y524936D02*
X946000Y465000D01*
X936000D01*
X930220Y459220D01*
Y363147D01*
X930147D01*
X872000Y305000D01*
Y245000D01*
X856000D01*
Y322000D01*
X865000D01*
X872000Y329000D01*
X872500D01*
Y329500D01*
X917000Y374000D01*
Y464000D01*
X939000Y486000D01*
X952000D01*
X956000Y490000D01*
X957000D01*
Y491000D01*
X1001000Y535000D01*
X1005936D01*
Y524936D01*
D02*
G37*
G36*
X93000Y502000D02*
Y483000D01*
X125000D01*
X130000Y488000D01*
Y500000D01*
X147000D01*
Y488000D01*
X233000Y402000D01*
X379000D01*
Y382000D01*
X357000D01*
X354000Y379000D01*
Y342248D01*
X359919Y336329D01*
X360598Y335153D01*
X362553Y333198D01*
X363729Y332519D01*
X423248Y273000D01*
X433000D01*
X450000Y256000D01*
X452881D01*
X453547Y255616D01*
X456218Y254900D01*
X458982D01*
X461653Y255616D01*
X462319Y256000D01*
X465000D01*
X472000Y263000D01*
Y276000D01*
X496000D01*
Y265000D01*
X543000Y218000D01*
X628000D01*
X654000Y244000D01*
Y283000D01*
X694000Y323000D01*
X743000D01*
Y310000D01*
X713000D01*
X679000Y276000D01*
Y222000D01*
X651000Y194000D01*
X541000D01*
X501000Y234000D01*
X429000D01*
X295000Y368000D01*
X231000D01*
X126000Y473000D01*
X61000D01*
Y516000D01*
X79000D01*
X93000Y502000D01*
D02*
G37*
G36*
X877000Y81000D02*
X904000Y54000D01*
X928000D01*
X946000Y36000D01*
Y2000D01*
X936000D01*
Y31000D01*
X924000Y43000D01*
X900000D01*
X866000Y77000D01*
Y120738D01*
X867262Y122000D01*
X877000D01*
Y81000D01*
D02*
G37*
%LPC*%
G36*
X642400Y664400D02*
X624400D01*
Y641400D01*
X642400D01*
Y664400D01*
D02*
G37*
G36*
X156200Y567000D02*
X119800D01*
Y549900D01*
X156200D01*
Y567000D01*
D02*
G37*
G36*
X700400Y520400D02*
X683400D01*
Y502400D01*
X700400D01*
Y520400D01*
D02*
G37*
G36*
X759000Y323618D02*
X756659Y323152D01*
X756432Y323000D01*
X750500D01*
Y312000D01*
X752883D01*
Y306000D01*
X753348Y303659D01*
X754674Y301674D01*
X756659Y300348D01*
X759000Y299883D01*
X761341Y300348D01*
X763326Y301674D01*
X764652Y303659D01*
X765117Y306000D01*
Y312000D01*
X767500D01*
Y323000D01*
X761568D01*
X761341Y323152D01*
X759000Y323618D01*
D02*
G37*
G36*
X727500Y220500D02*
X710500D01*
Y209500D01*
X713126D01*
X713612Y208327D01*
X661619Y156334D01*
X650590D01*
X650205Y157604D01*
X650549Y157834D01*
X697357Y204643D01*
X698080Y205724D01*
X698334Y207000D01*
Y209500D01*
X703500D01*
Y220500D01*
X686500D01*
Y209500D01*
X691301D01*
X691515Y208230D01*
X646811Y163526D01*
X597775D01*
X596499Y163272D01*
X595418Y162549D01*
X544897Y112029D01*
X544253Y112401D01*
X541582Y113117D01*
X538818D01*
X536147Y112401D01*
X533753Y111019D01*
X531798Y109064D01*
X530416Y106670D01*
X529700Y103999D01*
Y101234D01*
X530416Y98564D01*
X531798Y96170D01*
X533753Y94215D01*
X536147Y92832D01*
X538818Y92117D01*
X541582D01*
X544253Y92832D01*
X546647Y94215D01*
X548602Y96170D01*
X549984Y98564D01*
X550700Y101234D01*
Y103999D01*
X549984Y106670D01*
X549612Y107314D01*
X599156Y156858D01*
X613585D01*
X613970Y155588D01*
X613626Y155358D01*
X570297Y112029D01*
X569653Y112401D01*
X566982Y113117D01*
X564218D01*
X561547Y112401D01*
X559153Y111019D01*
X557198Y109064D01*
X555816Y106670D01*
X555100Y103999D01*
Y101234D01*
X555816Y98564D01*
X557198Y96170D01*
X559153Y94215D01*
X561547Y92832D01*
X564218Y92117D01*
X566982D01*
X569653Y92832D01*
X572047Y94215D01*
X574002Y96170D01*
X575384Y98564D01*
X576100Y101234D01*
Y103999D01*
X575384Y106670D01*
X575012Y107314D01*
X579327Y111628D01*
X580500Y111142D01*
Y92321D01*
X577370D01*
X576094Y92067D01*
X575013Y91344D01*
X570297Y86629D01*
X569653Y87001D01*
X566982Y87717D01*
X564218D01*
X561547Y87001D01*
X559153Y85619D01*
X557198Y83664D01*
X555816Y81270D01*
X555100Y78599D01*
Y75834D01*
X555816Y73164D01*
X557198Y70770D01*
X559153Y68815D01*
X561547Y67432D01*
X564218Y66717D01*
X566982D01*
X569653Y67432D01*
X572047Y68815D01*
X574002Y70770D01*
X575384Y73164D01*
X576100Y75834D01*
Y78599D01*
X575384Y81270D01*
X575012Y81914D01*
X576787Y83689D01*
X577961Y83203D01*
Y64000D01*
X578116Y63220D01*
X578558Y62558D01*
X578558Y62558D01*
X601558Y39558D01*
X602220Y39116D01*
X603000Y38961D01*
X674000D01*
X674780Y39116D01*
X675442Y39558D01*
X675884Y40220D01*
X676039Y41000D01*
Y56000D01*
X675884Y56780D01*
X675442Y57442D01*
X674780Y57884D01*
X674000Y58039D01*
X623845D01*
X609654Y72230D01*
X610180Y73500D01*
X625500D01*
Y86500D01*
X608500D01*
Y83334D01*
X606243D01*
X598730Y90847D01*
X599256Y92117D01*
X601500D01*
Y113117D01*
X582474D01*
X581988Y114290D01*
X617364Y149666D01*
X663000D01*
X664276Y149920D01*
X665358Y150642D01*
X721358Y206642D01*
X722080Y207724D01*
X722334Y209000D01*
Y209500D01*
X727500D01*
Y220500D01*
D02*
G37*
G36*
X738796Y237000D02*
X737204D01*
X735734Y236391D01*
X734609Y235266D01*
X734000Y233796D01*
Y232204D01*
X734609Y230734D01*
X734666Y230677D01*
Y211381D01*
X626770Y103485D01*
X625500Y104011D01*
Y105500D01*
X608500D01*
Y92500D01*
X625500D01*
Y95666D01*
X627000D01*
X628276Y95920D01*
X629357Y96643D01*
X740358Y207642D01*
X741080Y208724D01*
X741334Y210000D01*
Y230677D01*
X741391Y230734D01*
X742000Y232204D01*
Y233796D01*
X741391Y235266D01*
X740266Y236391D01*
X738796Y237000D01*
D02*
G37*
G36*
X692000Y107000D02*
X665000D01*
Y71000D01*
X692000D01*
Y107000D01*
D02*
G37*
G36*
X700987Y61500D02*
X699013D01*
X697105Y60989D01*
X695395Y60002D01*
X693998Y58605D01*
X693011Y56895D01*
X692500Y54987D01*
Y53013D01*
X693011Y51105D01*
X693998Y49395D01*
X695395Y47998D01*
X697105Y47011D01*
X699013Y46500D01*
X700987D01*
X702895Y47011D01*
X704605Y47998D01*
X706002Y49395D01*
X706989Y51105D01*
X707500Y53013D01*
Y54987D01*
X706989Y56895D01*
X706002Y58605D01*
X704605Y60002D01*
X702895Y60989D01*
X700987Y61500D01*
D02*
G37*
%LPD*%
G36*
X601000Y79147D02*
Y78000D01*
X623000Y56000D01*
X674000D01*
Y41000D01*
X603000D01*
X580000Y64000D01*
Y85653D01*
X594494D01*
X601000Y79147D01*
D02*
G37*
%LPC*%
G36*
X773900Y654400D02*
X755900D01*
Y631400D01*
X773900D01*
Y654400D01*
D02*
G37*
G36*
X987317Y568000D02*
X984684D01*
X982140Y567318D01*
X979860Y566002D01*
X977998Y564140D01*
X976682Y561860D01*
X976000Y559317D01*
Y556684D01*
X976682Y554140D01*
X977998Y551860D01*
X979860Y549998D01*
X982140Y548681D01*
X984684Y548000D01*
X987317D01*
X989860Y548681D01*
X992140Y549998D01*
X994002Y551860D01*
X995319Y554140D01*
X996000Y556684D01*
Y559317D01*
X995319Y561860D01*
X994002Y564140D01*
X992140Y566002D01*
X989860Y567318D01*
X987317Y568000D01*
D02*
G37*
G36*
X803796Y536000D02*
X802204D01*
X800734Y535391D01*
X799609Y534266D01*
X799000Y532796D01*
Y531204D01*
X799609Y529734D01*
X799666Y529677D01*
Y473381D01*
X781285Y455000D01*
X781204D01*
X779734Y454391D01*
X778609Y453266D01*
X778000Y451796D01*
Y450204D01*
X778609Y448734D01*
X779734Y447609D01*
X781204Y447000D01*
X782796D01*
X784266Y447609D01*
X785391Y448734D01*
X786000Y450204D01*
Y450285D01*
X805358Y469642D01*
X806080Y470724D01*
X806334Y472000D01*
Y529677D01*
X806391Y529734D01*
X807000Y531204D01*
Y532796D01*
X806391Y534266D01*
X805266Y535391D01*
X803796Y536000D01*
D02*
G37*
G36*
X757900Y520400D02*
X740900D01*
Y502400D01*
X757900D01*
Y520400D01*
D02*
G37*
G36*
X484382Y402900D02*
X481618D01*
X478947Y402184D01*
X476553Y400802D01*
X474598Y398847D01*
X473216Y396453D01*
X472500Y393782D01*
Y391018D01*
X473216Y388347D01*
X474598Y385953D01*
X476553Y383998D01*
X478947Y382616D01*
X481618Y381900D01*
X484382D01*
X487053Y382616D01*
X489447Y383998D01*
X491402Y385953D01*
X492784Y388347D01*
X493500Y391018D01*
Y393782D01*
X492784Y396453D01*
X491402Y398847D01*
X489447Y400802D01*
X487053Y402184D01*
X484382Y402900D01*
D02*
G37*
G36*
X458982D02*
X456218D01*
X453547Y402184D01*
X451153Y400802D01*
X449198Y398847D01*
X447816Y396453D01*
X447100Y393782D01*
Y391018D01*
X447816Y388347D01*
X449198Y385953D01*
X451153Y383998D01*
X453547Y382616D01*
X456218Y381900D01*
X458982D01*
X461653Y382616D01*
X464047Y383998D01*
X466002Y385953D01*
X467384Y388347D01*
X468100Y391018D01*
Y393782D01*
X467384Y396453D01*
X466002Y398847D01*
X464047Y400802D01*
X461653Y402184D01*
X458982Y402900D01*
D02*
G37*
G36*
X426796Y409000D02*
X425204D01*
X423734Y408391D01*
X422609Y407266D01*
X422000Y405796D01*
Y404204D01*
X422609Y402734D01*
X422666Y402677D01*
Y380000D01*
X417500D01*
Y369000D01*
X434500D01*
Y380000D01*
X429334D01*
Y402677D01*
X429391Y402734D01*
X430000Y404204D01*
Y405796D01*
X429391Y407266D01*
X428266Y408391D01*
X426796Y409000D01*
D02*
G37*
G36*
X484382Y377500D02*
X481618D01*
X478947Y376784D01*
X476553Y375402D01*
X474598Y373447D01*
X473216Y371053D01*
X472500Y368382D01*
Y365618D01*
X473216Y362947D01*
X474598Y360553D01*
X476553Y358598D01*
X478947Y357216D01*
X481618Y356500D01*
X484382D01*
X487053Y357216D01*
X489447Y358598D01*
X491402Y360553D01*
X492784Y362947D01*
X493500Y365618D01*
Y368382D01*
X492784Y371053D01*
X491402Y373447D01*
X489447Y375402D01*
X487053Y376784D01*
X484382Y377500D01*
D02*
G37*
G36*
X458982D02*
X456218D01*
X453547Y376784D01*
X451153Y375402D01*
X449198Y373447D01*
X447816Y371053D01*
X447100Y368382D01*
Y365618D01*
X447816Y362947D01*
X449198Y360553D01*
X451153Y358598D01*
X453547Y357216D01*
X456218Y356500D01*
X458982D01*
X461653Y357216D01*
X464047Y358598D01*
X466002Y360553D01*
X467384Y362947D01*
X468100Y365618D01*
Y368382D01*
X467384Y371053D01*
X466002Y373447D01*
X464047Y375402D01*
X461653Y376784D01*
X458982Y377500D01*
D02*
G37*
G36*
X484382Y352100D02*
X481618D01*
X478947Y351384D01*
X476553Y350002D01*
X474598Y348047D01*
X473216Y345653D01*
X472500Y342982D01*
Y340218D01*
X473216Y337547D01*
X474598Y335153D01*
X476553Y333198D01*
X478947Y331816D01*
X481618Y331100D01*
X484382D01*
X487053Y331816D01*
X489447Y333198D01*
X491402Y335153D01*
X492784Y337547D01*
X493500Y340218D01*
Y342982D01*
X492784Y345653D01*
X491402Y348047D01*
X489447Y350002D01*
X487053Y351384D01*
X484382Y352100D01*
D02*
G37*
G36*
X434500Y361000D02*
X417500D01*
Y350000D01*
X422666D01*
Y342000D01*
X417500D01*
Y331000D01*
X434500D01*
Y333166D01*
X448587D01*
X449863Y333420D01*
X450503Y333848D01*
X451153Y333198D01*
X453547Y331816D01*
X456218Y331100D01*
X458982D01*
X461653Y331816D01*
X464047Y333198D01*
X466002Y335153D01*
X467384Y337547D01*
X468100Y340218D01*
Y342982D01*
X467384Y345653D01*
X466002Y348047D01*
X464047Y350002D01*
X461653Y351384D01*
X458982Y352100D01*
X456218D01*
X453547Y351384D01*
X451153Y350002D01*
X449198Y348047D01*
X447816Y345653D01*
X447100Y342982D01*
Y340218D01*
X446806Y339834D01*
X434500D01*
Y342000D01*
X429334D01*
Y350000D01*
X434500D01*
Y361000D01*
D02*
G37*
G36*
X458982Y326700D02*
X456218D01*
X453547Y325984D01*
X451153Y324602D01*
X449198Y322647D01*
X447816Y320253D01*
X447100Y317582D01*
Y314818D01*
X447816Y312147D01*
X449198Y309753D01*
X451153Y307798D01*
X453547Y306416D01*
X456218Y305700D01*
X458982D01*
X461653Y306416D01*
X464047Y307798D01*
X466002Y309753D01*
X467384Y312147D01*
X468100Y314818D01*
Y317582D01*
X467384Y320253D01*
X466002Y322647D01*
X464047Y324602D01*
X461653Y325984D01*
X458982Y326700D01*
D02*
G37*
G36*
X370382Y377500D02*
X367618D01*
X364947Y376784D01*
X362553Y375402D01*
X360598Y373447D01*
X359216Y371053D01*
X358500Y368382D01*
Y365618D01*
X359216Y362947D01*
X360598Y360553D01*
X362553Y358598D01*
X364947Y357216D01*
X367618Y356500D01*
X370382D01*
X373053Y357216D01*
X375447Y358598D01*
X377402Y360553D01*
X378784Y362947D01*
X379500Y365618D01*
Y368382D01*
X378784Y371053D01*
X377402Y373447D01*
X375447Y375402D01*
X373053Y376784D01*
X370382Y377500D01*
D02*
G37*
%LPD*%
D13*
X1027000Y565706D02*
X1029000Y567706D01*
X1027000Y547000D02*
Y565706D01*
X939000Y13000D02*
Y33000D01*
X925000Y47000D02*
X939000Y33000D01*
X872000Y77000D02*
X902000Y47000D01*
X925000D01*
X872000Y77000D02*
Y120000D01*
X267000Y611250D02*
X333000D01*
X263000Y615250D02*
Y620000D01*
X339000Y601500D02*
Y605250D01*
X263000Y615250D02*
X267000Y611250D01*
X333000D02*
X339000Y605250D01*
X890000Y503000D02*
X890000D01*
X885000Y498000D02*
X890000Y503000D01*
X824572Y619500D02*
X858000D01*
X787672Y656400D02*
X824572Y619500D01*
X735343Y635500D02*
X756243Y656400D01*
X787672D01*
X735343Y622343D02*
Y635500D01*
X735000Y622000D02*
X735343Y622343D01*
X812843Y594000D02*
X826000D01*
X738000Y519157D02*
X812843Y594000D01*
X738000Y511900D02*
Y519157D01*
X735000Y509150D02*
X735250D01*
X738000Y511900D01*
X945000Y455000D02*
X964000D01*
X778000Y406000D02*
X793000D01*
X694750Y397250D02*
X703750D01*
X694000Y398000D02*
X694750Y397250D01*
X703750D02*
X710000Y391000D01*
X818000Y316500D02*
X841000D01*
X818000Y316500D02*
X818000Y316500D01*
X841000Y299000D02*
Y316500D01*
X415500Y426500D02*
X457600Y468600D01*
X260000Y595000D02*
Y598000D01*
X247000Y582000D02*
X260000Y595000D01*
X206000Y582000D02*
X247000D01*
X237000Y645750D02*
X238000Y646750D01*
X237000Y620000D02*
Y645750D01*
X638000Y395500D02*
X660000D01*
X636000D02*
X638000D01*
X641500Y374000D02*
Y392000D01*
X638000Y395500D02*
X641500Y392000D01*
X623000Y374000D02*
X641500D01*
X426000Y300157D02*
X457600Y268557D01*
X486000Y172000D02*
X500000Y158000D01*
X467500Y172000D02*
X486000D01*
X500000Y117417D02*
X540200Y77217D01*
X500000Y117417D02*
Y158000D01*
X455000Y216000D02*
X493000D01*
X442500Y147000D02*
X467500Y172000D01*
X423000Y317500D02*
X426000D01*
X415500Y325000D02*
X423000Y317500D01*
X457600Y265400D02*
Y268557D01*
X443000Y204000D02*
X455000Y216000D01*
X426000Y300157D02*
Y317500D01*
X415500Y325000D02*
Y426500D01*
X442500Y203500D02*
X443000Y204000D01*
X442500Y147000D02*
Y203500D01*
Y144000D02*
Y147000D01*
X442000Y143500D02*
X442500Y144000D01*
X442000Y126000D02*
Y143500D01*
X441500Y125500D02*
X442000Y126000D01*
X778000Y398000D02*
X807000D01*
X778000Y398000D02*
X778000Y398000D01*
X841000Y335500D02*
Y352000D01*
X841000Y335500D02*
X841000Y335500D01*
X818000Y335500D02*
X841000D01*
X841000Y335500D02*
X864000D01*
X778000Y430000D02*
X827000D01*
X839000Y442000D02*
Y471000D01*
X827000Y430000D02*
X839000Y442000D01*
X778000Y422000D02*
X828000D01*
X839000Y411000D01*
Y393500D02*
Y411000D01*
X847500Y411000D02*
X876500D01*
Y430000D01*
X878000Y431500D01*
X876000Y452000D02*
Y471000D01*
X877500Y450500D02*
X878000D01*
X876000Y452000D02*
X877500Y450500D01*
X847500Y471000D02*
X876000D01*
D14*
X459000Y113250D02*
X461750Y116000D01*
X452625Y106125D02*
X459000Y112500D01*
X461750Y116000D02*
X462500D01*
X459000Y112500D02*
Y113250D01*
X452625Y100125D02*
Y106125D01*
X461500Y117000D02*
X462500Y116000D01*
X461500Y117000D02*
Y144000D01*
X443500Y88000D02*
Y91000D01*
X452625Y100125D01*
X431250Y97000D02*
X440750Y106500D01*
X441500D01*
X411000Y97000D02*
X431250D01*
D15*
X483000Y290800D02*
X519200Y327000D01*
X519945Y336500D02*
X713000D01*
X487875Y304430D02*
X519945Y336500D01*
X691000Y562000D02*
Y616000D01*
X691000Y616000D02*
X691000Y616000D01*
X909000Y423000D02*
Y569624D01*
X934800Y595424D01*
X842781Y587062D02*
X900062D01*
X794062Y486063D02*
Y538344D01*
X842781Y587062D01*
X709000Y406000D02*
X722000Y393000D01*
Y382000D02*
Y393000D01*
X695480Y388520D02*
X702354D01*
X713721Y377154D01*
X694000Y390000D02*
X695480Y388520D01*
X713721Y376279D02*
Y377154D01*
Y376279D02*
X714000Y376000D01*
X694000Y406000D02*
X709000D01*
X715670Y661670D02*
X789855D01*
X702000Y648000D02*
X715670Y661670D01*
X821895Y629630D02*
X897630D01*
X789855Y661670D02*
X821895Y629630D01*
X748730Y612146D02*
X751646Y609230D01*
X863354D02*
X870124Y616000D01*
X724000Y616500D02*
X736270Y604230D01*
X751646Y609230D02*
X863354D01*
X736270Y604230D02*
X897630D01*
X870124Y616000D02*
X884000D01*
X897630Y604230D02*
X909400Y616000D01*
X702000Y620000D02*
Y648000D01*
X999730Y458895D02*
X1009270Y468435D01*
Y558175D01*
X939675Y627770D02*
X1009270Y558175D01*
X999730Y369155D02*
X1005885Y363000D01*
X1027000D01*
X999730Y369155D02*
Y458895D01*
X735000Y128000D02*
X808230Y201230D01*
X803690Y345190D02*
X814000Y355500D01*
X808230Y201230D02*
Y341354D01*
X803690Y206690D02*
Y345190D01*
X727000Y130000D02*
X803690Y206690D01*
X808230Y341354D02*
X819000Y352124D01*
X634000Y414500D02*
X636000D01*
X613000Y395500D02*
X615000D01*
X634000Y414500D01*
X680990Y422000D02*
X694000D01*
X660000Y414500D02*
X673490D01*
X680990Y422000D01*
X636000Y414500D02*
X660000D01*
X890257Y149710D02*
X927630D01*
X888377Y154250D02*
X925750D01*
X856527Y85027D02*
Y122400D01*
X888377Y154250D01*
X861067Y83146D02*
Y120520D01*
X890257Y149710D01*
X854731Y76810D02*
X861067Y83146D01*
X852850Y81350D02*
X856527Y85027D01*
X751350Y81350D02*
X852850D01*
X520500Y27000D02*
X697000D01*
X751350Y81350D01*
X604862Y80000D02*
X617000D01*
X595875Y88987D02*
X604862Y80000D01*
X565600Y77217D02*
X577370Y88987D01*
X595875D01*
X734065Y334566D02*
X736000Y336500D01*
X713000D02*
X716000D01*
X404000Y303500D02*
Y467000D01*
Y303500D02*
X423000Y284500D01*
X404000Y467000D02*
X429000Y492000D01*
X726000Y484000D02*
X749000D01*
X724000Y461875D02*
X735563Y473438D01*
X781438D02*
X794062Y486063D01*
X735563Y473438D02*
X781438D01*
X782000Y451000D02*
X803000Y472000D01*
Y532000D01*
X724000Y444000D02*
Y461875D01*
X900062Y587062D02*
X923000Y610000D01*
Y620845D01*
X929925Y627770D01*
X939675D01*
X934800Y595424D02*
Y616000D01*
X748000Y360000D02*
Y393000D01*
Y360000D02*
X748000Y360000D01*
Y348690D02*
Y360000D01*
X699000Y254000D02*
Y287000D01*
X706000Y258000D02*
Y292000D01*
X716000Y427000D02*
Y584000D01*
Y427000D02*
X716000Y427000D01*
X740000Y360000D02*
Y374000D01*
X426000Y374500D02*
Y405000D01*
X732000Y444000D02*
Y459000D01*
X748000Y415000D02*
Y444000D01*
X740000Y406000D02*
Y444000D01*
X756000Y421000D02*
Y444000D01*
X764000D02*
X764000Y444000D01*
X764000Y426000D02*
Y444000D01*
X748000D02*
X748000Y444000D01*
X756000Y444000D02*
X756000Y444000D01*
X999000Y339000D02*
X1027000D01*
X1005000Y171000D02*
Y310625D01*
X1015646Y321270D02*
X1018270D01*
X1005000Y310625D02*
X1015646Y321270D01*
X1018270D02*
X1020000Y323000D01*
X1027000D01*
X948000Y114000D02*
X1005000Y171000D01*
X771810Y76810D02*
X854731D01*
X723000Y28000D02*
X771810Y76810D01*
X723000Y13000D02*
Y28000D01*
X994770Y320591D02*
X1005179Y331000D01*
X994770Y216849D02*
Y320591D01*
X927630Y149710D02*
X994770Y216849D01*
X708000Y427000D02*
X708000Y427000D01*
X708000Y427000D02*
Y444000D01*
X724000Y486000D02*
X726000Y484000D01*
X702000Y598000D02*
X716000Y584000D01*
X694000Y468000D02*
X707000Y481000D01*
X694000Y430000D02*
Y468000D01*
X707000Y481000D02*
Y484000D01*
X591264Y357000D02*
X665545D01*
X493294Y454970D02*
X591264Y357000D01*
X469370Y454970D02*
X493294D01*
X681508Y376382D02*
X685646Y380520D01*
X681508Y372963D02*
Y376382D01*
X665545Y357000D02*
X681508Y372963D01*
X685646Y380520D02*
X692520D01*
X694000Y382000D01*
X689250Y374000D02*
X694000D01*
X667710Y352460D02*
X689250Y374000D01*
X573740Y352460D02*
X667710D01*
X674688Y390188D02*
Y401562D01*
X660500Y376000D02*
X674688Y390188D01*
X660500Y374000D02*
Y376000D01*
X692520Y412520D02*
X694000Y414000D01*
X685646Y412520D02*
X692520D01*
X674688Y401562D02*
X685646Y412520D01*
X457600Y443200D02*
X469370Y454970D01*
X706255Y343380D02*
X714520Y351646D01*
X487875Y429570D02*
X569525Y347920D01*
X483000Y443200D02*
X573740Y352460D01*
X483000Y417800D02*
X557420Y343380D01*
X569525Y347920D02*
X700670D01*
X708000Y355250D02*
Y360000D01*
X557420Y343380D02*
X706255D01*
X700670Y347920D02*
X708000Y355250D01*
X469370Y429570D02*
X487875D01*
X457600Y417800D02*
X469370Y429570D01*
X714520Y358520D02*
X716000Y360000D01*
X714520Y351646D02*
Y358520D01*
X764000Y360000D02*
X774000D01*
X764000Y360000D02*
X764000Y360000D01*
X597775Y160192D02*
X648192D01*
X695000Y207000D01*
Y215000D01*
X663000Y153000D02*
X719000Y209000D01*
Y215000D01*
X615983Y153000D02*
X663000D01*
X565600Y102617D02*
X615983Y153000D01*
X617000Y99000D02*
X627000D01*
X778000Y374000D02*
X795000D01*
X778000Y382000D02*
X795000D01*
X738000Y264000D02*
X738920D01*
X778920Y304000D01*
Y333632D01*
X776052Y336500D02*
X778920Y333632D01*
X759000Y336500D02*
X776052D01*
X740000Y347411D02*
X748690Y338721D01*
X756779D01*
X759000Y336500D01*
X753420Y343270D02*
X775702D01*
X748000Y348690D02*
X753420Y343270D01*
X698000Y231000D02*
X705500Y238500D01*
X723080D01*
X783460Y298881D01*
Y335512D01*
X426000Y336500D02*
Y355500D01*
X453687Y341600D02*
X457600D01*
X426000Y336500D02*
X448587D01*
X453687Y341600D01*
X482000Y469600D02*
X483000Y470600D01*
X423000Y284500D02*
X426000D01*
X429000Y492000D02*
X473000D01*
X483000Y482000D01*
Y470600D02*
Y482000D01*
X482000Y469600D02*
X483000Y468600D01*
X718124Y327000D02*
X725690Y334566D01*
X519200Y327000D02*
X718124D01*
X725690Y334566D02*
X734065D01*
X732000Y338730D02*
X734230Y336500D01*
X736000D01*
X732000Y338730D02*
Y360000D01*
X716000Y336500D02*
X724000Y344500D01*
Y360000D01*
X775702Y343270D02*
X783460Y335512D01*
X722000Y231000D02*
X788000Y297000D01*
Y339000D01*
X779190Y347810D02*
X788000Y339000D01*
X757488Y347810D02*
X779190D01*
X727000Y95000D02*
Y130000D01*
X735000Y95000D02*
Y128000D01*
X814000Y355500D02*
Y379000D01*
X804480Y388520D02*
X814000Y379000D01*
X779480Y388520D02*
X804480D01*
X819000Y352124D02*
Y399000D01*
X804000Y414000D02*
X819000Y399000D01*
X778000Y414000D02*
X804000D01*
X738000Y210000D02*
Y233000D01*
X719000Y231000D02*
X722000D01*
X756000Y349298D02*
Y360000D01*
X740000Y347411D02*
Y360000D01*
X756000Y349298D02*
X757488Y347810D01*
X695000Y231000D02*
X698000D01*
X471230Y304430D02*
X487875D01*
X457600Y290800D02*
X471230Y304430D01*
X778000Y390000D02*
X779480Y388520D01*
X627000Y99000D02*
X738000Y210000D01*
X897630Y629630D02*
X909400Y641400D01*
X702000Y598000D02*
Y620000D01*
X925750Y154250D02*
X977230Y205730D01*
Y326683D01*
X241000Y601000D02*
X243500Y603500D01*
X241000Y598000D02*
Y601000D01*
X243500Y603500D02*
Y620000D01*
X977230Y326683D02*
X997547Y347000D01*
X972000Y327873D02*
X999127Y355000D01*
X1005226D01*
X972000Y210000D02*
Y327873D01*
X924000Y162000D02*
X972000Y210000D01*
X997547Y347000D02*
X1027000D01*
X1005179Y331000D02*
X1027000D01*
X1005226Y355000D02*
X1027000D01*
X1027000Y339000D02*
X1027000Y339000D01*
X724000Y616500D02*
Y620000D01*
Y486000D02*
Y616500D01*
X746000Y620000D02*
X748730Y617270D01*
Y612146D02*
Y617270D01*
X711000Y100000D02*
Y118000D01*
X711000Y95000D02*
Y100000D01*
X711000Y100000D02*
X711000Y100000D01*
X719000Y95000D02*
Y118000D01*
X719000Y118000D02*
X719000Y118000D01*
X462500Y85000D02*
Y88000D01*
Y85000D02*
X520500Y27000D01*
X540200Y102617D02*
X597775Y160192D01*
X715000Y13000D02*
Y35841D01*
X714841Y36000D02*
X715000Y35841D01*
X747000Y13000D02*
Y35557D01*
X746557Y36000D02*
X747000Y35557D01*
X810943Y13057D02*
X811000Y13000D01*
X810943Y13057D02*
Y45943D01*
X810886Y46000D02*
X810943Y45943D01*
X803000Y45962D02*
X803038Y46000D01*
X803000Y13000D02*
Y45962D01*
X794957Y13044D02*
Y45957D01*
X794913Y46000D02*
X794957Y45957D01*
Y13044D02*
X795000Y13000D01*
X786926Y46000D02*
X786963Y45963D01*
Y13037D02*
X787000Y13000D01*
X786963Y13037D02*
Y45963D01*
X778947Y13053D02*
X779000Y13000D01*
X778947Y13053D02*
Y45947D01*
X778894Y46000D02*
X778947Y45947D01*
X771000Y13000D02*
X771000Y13000D01*
X771000Y13000D02*
Y46000D01*
X763000Y13000D02*
Y46000D01*
X1005000Y371338D02*
X1005338Y371000D01*
X1027000D01*
X1005000Y379100D02*
X1005100Y379000D01*
X1027000D01*
X1005186Y387000D02*
X1027000D01*
X1005000Y387186D02*
X1005186Y387000D01*
X1005164Y395000D02*
X1027000D01*
X1005000Y395164D02*
X1005164Y395000D01*
X1005289Y403000D02*
X1027000D01*
X1005000Y402711D02*
X1005289Y403000D01*
X1005120Y411000D02*
X1027000D01*
X1005000Y411120D02*
X1005120Y411000D01*
X1005000Y418775D02*
X1005225Y419000D01*
X1027000D01*
D17*
X441500Y106500D02*
D03*
Y125500D02*
D03*
X462500Y116000D02*
D03*
D18*
X839000Y393500D02*
D03*
Y488500D02*
D03*
D19*
X749400Y511400D02*
D03*
X691900D02*
D03*
D20*
X735000Y509150D02*
D03*
D21*
X757000Y620000D02*
D03*
X746000D02*
D03*
X735000Y622000D02*
D03*
X724000Y620000D02*
D03*
X713000Y622000D02*
D03*
X702000Y620000D02*
D03*
X691000Y616000D02*
D03*
X680000Y620000D02*
D03*
D22*
X764900Y642900D02*
D03*
X633400Y652900D02*
D03*
D23*
X713000Y317500D02*
D03*
X736000D02*
D03*
X426000Y265500D02*
D03*
X759000Y317500D02*
D03*
X426000Y317500D02*
D03*
Y374500D02*
D03*
Y355500D02*
D03*
X736000Y336500D02*
D03*
X713000D02*
D03*
X719000Y231000D02*
D03*
Y215000D02*
D03*
X695000Y231000D02*
D03*
Y215000D02*
D03*
X426000Y284500D02*
D03*
Y336500D02*
D03*
X759000Y336500D02*
D03*
X878000Y450500D02*
D03*
Y431500D02*
D03*
D24*
X138000Y491550D02*
D03*
X160900D02*
D03*
X115100D02*
D03*
D25*
X70000Y500500D02*
D03*
X399000Y601500D02*
D03*
X206000Y501500D02*
D03*
X339000Y601500D02*
D03*
Y642500D02*
D03*
X399000D02*
D03*
X206000Y542500D02*
D03*
X70000Y541500D02*
D03*
D26*
X1027000Y547000D02*
D03*
X945000Y551000D02*
D03*
Y543000D02*
D03*
Y511000D02*
D03*
Y503000D02*
D03*
Y527000D02*
D03*
Y519000D02*
D03*
Y535000D02*
D03*
Y495000D02*
D03*
Y455000D02*
D03*
X1027000Y363000D02*
D03*
Y315000D02*
D03*
X945000Y319000D02*
D03*
X1027000Y323000D02*
D03*
X945000Y327000D02*
D03*
X1027000Y331000D02*
D03*
X945000Y335000D02*
D03*
X1027000Y339000D02*
D03*
X945000Y343000D02*
D03*
X1027000Y347000D02*
D03*
X945000Y351000D02*
D03*
X1027000Y355000D02*
D03*
X945000Y359000D02*
D03*
Y367000D02*
D03*
X1027000Y371000D02*
D03*
X945000Y375000D02*
D03*
X1027000Y379000D02*
D03*
X945000Y383000D02*
D03*
X1027000Y387000D02*
D03*
X945000Y391000D02*
D03*
X1027000Y395000D02*
D03*
X945000Y399000D02*
D03*
X1027000Y403000D02*
D03*
X945000Y407000D02*
D03*
X1027000Y411000D02*
D03*
X945000Y415000D02*
D03*
X1027000Y419000D02*
D03*
X945000Y423000D02*
D03*
X1027000Y427000D02*
D03*
X945000Y431000D02*
D03*
X1027000Y435000D02*
D03*
X945000Y439000D02*
D03*
X1027000Y443000D02*
D03*
X945000Y447000D02*
D03*
X1027000Y451000D02*
D03*
Y491000D02*
D03*
Y499000D02*
D03*
Y507000D02*
D03*
Y515000D02*
D03*
Y523000D02*
D03*
Y531000D02*
D03*
Y539000D02*
D03*
D27*
X858000Y638500D02*
D03*
X864000Y316500D02*
D03*
X613000Y414500D02*
D03*
X858000Y619500D02*
D03*
X841000Y316500D02*
D03*
X818000Y316500D02*
D03*
X660000Y395500D02*
D03*
X636000D02*
D03*
X617000Y80000D02*
D03*
Y99000D02*
D03*
X864000Y335500D02*
D03*
X841000D02*
D03*
X818000Y335500D02*
D03*
X613000Y395500D02*
D03*
X636000Y414500D02*
D03*
X660000D02*
D03*
D28*
X939000Y13000D02*
D03*
X755000D02*
D03*
X943000Y95000D02*
D03*
X935000D02*
D03*
X931000Y13000D02*
D03*
X927000Y95000D02*
D03*
X923000Y13000D02*
D03*
X919000Y95000D02*
D03*
X915000Y13000D02*
D03*
X911000Y95000D02*
D03*
X907000Y13000D02*
D03*
X903000Y95000D02*
D03*
X899000Y13000D02*
D03*
X895000Y95000D02*
D03*
X891000Y13000D02*
D03*
X887000Y95000D02*
D03*
X883000Y13000D02*
D03*
X847000Y95000D02*
D03*
X843000Y13000D02*
D03*
X839000Y95000D02*
D03*
X835000Y13000D02*
D03*
X831000Y95000D02*
D03*
X827000Y13000D02*
D03*
X823000Y95000D02*
D03*
X819000Y13000D02*
D03*
X815000Y95000D02*
D03*
X811000Y13000D02*
D03*
X807000Y95000D02*
D03*
X803000Y13000D02*
D03*
X799000Y95000D02*
D03*
X795000Y13000D02*
D03*
X791000Y95000D02*
D03*
X787000Y13000D02*
D03*
X783000Y95000D02*
D03*
X779000Y13000D02*
D03*
X775000Y95000D02*
D03*
X771000Y13000D02*
D03*
X767000Y95000D02*
D03*
X763000Y13000D02*
D03*
X759000Y95000D02*
D03*
X751000D02*
D03*
X747000Y13000D02*
D03*
X743000Y95000D02*
D03*
X739000Y13000D02*
D03*
X735000Y95000D02*
D03*
X731000Y13000D02*
D03*
X727000Y95000D02*
D03*
X723000Y13000D02*
D03*
X719000Y95000D02*
D03*
X715000Y13000D02*
D03*
X711000Y95000D02*
D03*
X707000Y13000D02*
D03*
D29*
X387000Y561000D02*
D03*
X355000D02*
D03*
D30*
X411000Y135000D02*
D03*
Y97000D02*
D03*
D31*
X263000Y620000D02*
D03*
X237000D02*
D03*
X243500D02*
D03*
X250000D02*
D03*
X256500D02*
D03*
D32*
X895000Y471000D02*
D03*
X895500Y411000D02*
D03*
X641500Y374000D02*
D03*
X660500D02*
D03*
X876000Y471000D02*
D03*
X876500Y411000D02*
D03*
D33*
X778000Y406000D02*
D03*
X694000Y398000D02*
D03*
X778000Y374000D02*
D03*
Y382000D02*
D03*
Y390000D02*
D03*
Y398000D02*
D03*
Y414000D02*
D03*
Y422000D02*
D03*
Y430000D02*
D03*
X694000D02*
D03*
Y422000D02*
D03*
Y414000D02*
D03*
Y406000D02*
D03*
Y390000D02*
D03*
Y382000D02*
D03*
Y374000D02*
D03*
D34*
X238000Y646750D02*
D03*
X262000D02*
D03*
D35*
X282000Y622250D02*
D03*
X218000D02*
D03*
D36*
X260000Y598000D02*
D03*
X442500Y144000D02*
D03*
X443500Y88000D02*
D03*
X462500D02*
D03*
X461500Y144000D02*
D03*
X726000Y484000D02*
D03*
X707000D02*
D03*
X241000Y598000D02*
D03*
D37*
X764000Y444000D02*
D03*
X756000D02*
D03*
X748000D02*
D03*
X740000D02*
D03*
X732000D02*
D03*
X724000D02*
D03*
X716000D02*
D03*
X708000D02*
D03*
Y360000D02*
D03*
X716000D02*
D03*
X724000D02*
D03*
X732000D02*
D03*
X740000D02*
D03*
X748000D02*
D03*
X756000D02*
D03*
X764000D02*
D03*
D38*
X951000Y286500D02*
D03*
Y579500D02*
D03*
D39*
X971500Y89000D02*
D03*
X678500D02*
D03*
D40*
X138000Y558450D02*
D03*
D77*
X540400Y208000D02*
X633000D01*
X667000Y242000D02*
Y273500D01*
X633000Y208000D02*
X667000Y242000D01*
X483000Y265400D02*
X540400Y208000D01*
X667000Y273500D02*
X711000Y317500D01*
X713000D01*
X713000Y622000D02*
Y640000D01*
X713000Y317500D02*
X736000D01*
X712429Y640571D02*
X713000Y640000D01*
X428000Y265500D02*
X442600Y250900D01*
X426000Y265500D02*
X428000D01*
X468500Y250900D02*
X483000Y265400D01*
X442600Y250900D02*
X468500D01*
X138000Y489650D02*
Y491550D01*
X127350Y479000D02*
X138000Y489650D01*
X70000Y493500D02*
Y500500D01*
X84500Y479000D02*
X127350D01*
X70000Y493500D02*
X84500Y479000D01*
X297100Y392400D02*
X424000Y265500D01*
X426000D01*
X138000Y489650D02*
X235250Y392400D01*
X297100D02*
X369000D01*
X235250D02*
X297100D01*
X996353Y600353D02*
X1029000Y567706D01*
X940806Y655900D02*
X988853Y607853D01*
X948000Y476000D02*
X1002000Y530000D01*
X898500Y655900D02*
X940806D01*
X884000Y641400D02*
X898500Y655900D01*
X860000Y638500D02*
X862900Y641400D01*
X884000D01*
X858000Y638500D02*
X860000D01*
X938000Y476000D02*
X948000D01*
X925177Y463177D02*
X938000Y476000D01*
X925177Y375677D02*
Y463177D01*
X866000Y316500D02*
X925177Y375677D01*
X864000Y316500D02*
X866000D01*
X864000Y252000D02*
Y316500D01*
X759000Y317500D02*
X759000Y317500D01*
X864000Y252000D02*
X864000Y252000D01*
X399000Y594500D02*
X419000Y574500D01*
Y567000D02*
Y574500D01*
X611000Y483000D02*
X613000Y481000D01*
X419000Y567000D02*
X458500D01*
X393000D02*
X419000D01*
X458500D02*
X611000Y414500D01*
X399000Y594500D02*
Y601500D01*
X387000Y561000D02*
X393000Y567000D01*
X387000Y557500D02*
Y561000D01*
X331000Y501500D02*
X387000Y557500D01*
X206000Y501500D02*
X331000D01*
X206000Y495550D02*
Y501500D01*
X202000Y491550D02*
X206000Y495550D01*
X160900Y491550D02*
X202000D01*
X613000Y414500D02*
Y481000D01*
X759000Y306000D02*
Y317500D01*
X611000Y414500D02*
X613000D01*
X591000Y77217D02*
X617217Y51000D01*
X665000D01*
X339000Y577000D02*
X345500Y570500D01*
X339000Y577000D02*
Y601500D01*
X355000Y561000D02*
Y564500D01*
X349000Y570500D02*
X355000Y564500D01*
X345500Y570500D02*
X349000D01*
X945000Y535000D02*
Y543000D01*
Y527000D02*
Y535000D01*
Y543000D02*
Y551000D01*
X837000Y571000D02*
X890000Y518000D01*
X945000Y511000D02*
Y519000D01*
Y527000D01*
Y503000D02*
Y511000D01*
X940000Y503000D02*
X945000D01*
X890000Y503000D02*
Y518000D01*
X933000Y496000D02*
X940000Y503000D01*
X925000Y496000D02*
X933000D01*
X890000Y503000D02*
X895000Y498000D01*
Y441500D02*
Y471000D01*
Y498000D01*
X895500Y390500D02*
Y411000D01*
Y441000D01*
X895000Y441500D02*
X895500Y441000D01*
X283000Y646750D02*
X335000D01*
X339000Y642500D02*
X399000D01*
X282500Y646250D02*
X283000Y646750D01*
X282500Y622750D02*
Y646250D01*
X238000Y646750D02*
X262000D01*
X283000D01*
X282000Y622250D02*
X282500Y622750D01*
X217000Y622250D02*
X218000D01*
X217500Y622750D02*
Y646250D01*
Y622750D02*
X218000Y622250D01*
X217000Y646750D02*
X238000D01*
X217000D02*
X217500Y646250D01*
X206000Y611250D02*
X217000Y622250D01*
X206000Y582000D02*
Y611250D01*
X205000Y541500D02*
X206000Y542500D01*
Y582000D01*
X115100Y491550D02*
Y493450D01*
X78050Y530500D02*
X115100Y493450D01*
X70000Y541500D02*
X205000D01*
X70000Y534500D02*
X74000Y530500D01*
X70000Y534500D02*
Y541500D01*
X74000Y530500D02*
X78050D01*
D78*
X377000Y175000D02*
X411000Y141000D01*
X355000Y175000D02*
X377000D01*
X352000Y178000D02*
X355000Y175000D01*
X411000Y135000D02*
Y141000D01*
X373000Y59000D02*
X411000Y97000D01*
X353000Y59000D02*
X373000D01*
X352000Y58000D02*
X353000Y59000D01*
X370376Y118000D02*
X372000D01*
X103000Y121800D02*
X366576D01*
X370376Y118000D01*
X215376Y71000D02*
X228376Y58000D01*
X230000D01*
X103000Y71000D02*
X215376D01*
X103000Y172600D02*
X222976D01*
X228376Y178000D01*
X230000D01*
D79*
X600000Y270000D02*
D03*
X480000Y620000D02*
D03*
X70000Y260000D02*
D03*
D80*
X483000Y265400D02*
D03*
X369000Y392400D02*
D03*
D81*
X884000Y641400D02*
D03*
X591000Y77217D02*
D03*
X934800Y641400D02*
D03*
X457600Y468600D02*
D03*
Y265400D02*
D03*
X540200Y77217D02*
D03*
X369000Y341600D02*
D03*
X457600Y443200D02*
D03*
Y417800D02*
D03*
Y392400D02*
D03*
Y367000D02*
D03*
Y341600D02*
D03*
Y316200D02*
D03*
X483000Y468600D02*
D03*
Y443200D02*
D03*
Y417800D02*
D03*
Y392400D02*
D03*
Y367000D02*
D03*
Y341600D02*
D03*
Y316200D02*
D03*
Y290800D02*
D03*
X457600D02*
D03*
X909400Y616000D02*
D03*
X934800D02*
D03*
X909400Y641400D02*
D03*
X369000Y367000D02*
D03*
X565600Y102617D02*
D03*
X540200D02*
D03*
X565600Y77217D02*
D03*
D82*
X352000Y178000D02*
D03*
D83*
X283000Y646750D02*
D03*
X217000D02*
D03*
D84*
X986000Y308000D02*
D03*
X700000Y54000D02*
D03*
D85*
X986000Y558000D02*
D03*
X950000Y54000D02*
D03*
D86*
X103000Y71000D02*
D03*
D87*
Y121800D02*
D03*
Y172600D02*
D03*
D88*
X352000Y58000D02*
D03*
X230000Y178000D02*
D03*
Y58000D02*
D03*
X372000Y118000D02*
D03*
D89*
X884000Y616000D02*
D03*
X591000Y102617D02*
D03*
D90*
X712429Y640571D02*
D03*
X997000Y601000D02*
D03*
X1002000Y530000D02*
D03*
X989000Y608000D02*
D03*
X872000Y120000D02*
D03*
X864000Y252000D02*
D03*
X759000Y306000D02*
D03*
X611000Y483000D02*
D03*
X665000Y51000D02*
D03*
X837000Y619000D02*
D03*
X826000Y594000D02*
D03*
X837000Y571000D02*
D03*
X925000Y496000D02*
D03*
X964000Y455000D02*
D03*
X895500Y390500D02*
D03*
X885000Y498000D02*
D03*
X793000Y406000D02*
D03*
X710000Y391000D02*
D03*
X841000Y299000D02*
D03*
X623000Y374000D02*
D03*
X493000Y216000D02*
D03*
X443000Y195000D02*
D03*
Y204000D02*
D03*
X691000Y562000D02*
D03*
X909000Y423000D02*
D03*
X722000Y382000D02*
D03*
X714000Y376000D02*
D03*
X807000Y398000D02*
D03*
X841000Y352000D02*
D03*
X749000Y484000D02*
D03*
X803000Y532000D02*
D03*
X782000Y451000D02*
D03*
X748000Y393000D02*
D03*
X711000Y118000D02*
D03*
X719000Y118000D02*
D03*
X699000Y254000D02*
D03*
X706000Y258000D02*
D03*
X699000Y287000D02*
D03*
X706000Y292000D02*
D03*
X716000Y427000D02*
D03*
X740000Y374000D02*
D03*
X426000Y405000D02*
D03*
X732000Y459000D02*
D03*
X748000Y415000D02*
D03*
X740000Y406000D02*
D03*
X756000Y421000D02*
D03*
X764000Y426000D02*
D03*
X999000Y339000D02*
D03*
X708000Y427000D02*
D03*
X774000Y360000D02*
D03*
X795000Y374000D02*
D03*
Y382000D02*
D03*
X738000Y233000D02*
D03*
Y264000D02*
D03*
X924000Y162000D02*
D03*
X948000Y114000D02*
D03*
X1005179Y331000D02*
D03*
X1005226Y355000D02*
D03*
X714841Y36000D02*
D03*
X746557D02*
D03*
X810886Y46000D02*
D03*
X803038D02*
D03*
X794913D02*
D03*
X786926D02*
D03*
X778894D02*
D03*
X771000D02*
D03*
X763000D02*
D03*
X1005000Y371338D02*
D03*
Y379100D02*
D03*
Y387186D02*
D03*
Y395164D02*
D03*
Y402711D02*
D03*
Y411120D02*
D03*
Y418775D02*
D03*
M02*
