G04*
G04 #@! TF.GenerationSoftware,Altium Limited,Altium Designer,22.0.2 (36)*
G04*
G04 Layer_Color=8421504*
%FSLAX44Y44*%
%MOMM*%
G71*
G04*
G04 #@! TF.SameCoordinates,5265F303-A955-4834-83B4-5BE1E65ADB8C*
G04*
G04*
G04 #@! TF.FilePolarity,Positive*
G04*
G01*
G75*
%ADD18R,0.6200X1.3600*%
%ADD19R,1.3600X0.6200*%
%ADD20O,2.3000X0.6000*%
%ADD21R,0.7000X1.3000*%
%ADD22R,0.9000X1.3000*%
%ADD23R,2.3000X2.3000*%
%ADD24R,2.3000X2.3000*%
%ADD25P,3.2527X4X180.0*%
%ADD26R,0.8000X1.0000*%
%ADD27R,3.6000X1.2000*%
%ADD28R,1.2000X3.8000*%
%ADD29C,3.5000*%
%ADD30R,1.3000X0.9000*%
%ADD31R,0.8000X0.8000*%
%ADD32R,1.3000X0.7000*%
%ADD33R,1.0000X0.8500*%
%ADD34R,0.9000X1.5000*%
%ADD35R,1.5000X0.9000*%
%ADD36R,0.9000X0.9000*%
%ADD37R,0.4000X1.3500*%
%ADD38R,1.6000X1.4000*%
%ADD39R,1.9000X1.9000*%
%ADD40R,1.6000X0.6000*%
%ADD41R,0.6000X1.6000*%
%ADD42R,2.7000X2.0000*%
%ADD43R,0.5500X1.0000*%
%ADD44R,1.0000X0.5500*%
%ADD45R,0.2700X0.9900*%
%ADD46R,0.9900X0.2700*%
%ADD47R,2.0554X2.0554*%
%ADD48R,0.4000X1.0900*%
%ADD49R,0.5588X0.6858*%
%ADD50R,0.9000X0.6000*%
G36*
X94500Y88500D02*
X85500D01*
Y93500D01*
X94500D01*
Y88500D01*
D02*
G37*
G36*
X102000Y79200D02*
X98400D01*
Y82800D01*
X102000D01*
Y79200D01*
D02*
G37*
G36*
X81800Y79100D02*
X78000D01*
Y82900D01*
X81800D01*
Y79100D01*
D02*
G37*
G36*
X94500Y68500D02*
X85500D01*
Y73500D01*
X94500D01*
Y68500D01*
D02*
G37*
G36*
X454500Y525500D02*
X445500D01*
Y530500D01*
X454500D01*
Y525500D01*
D02*
G37*
G36*
X462000Y516200D02*
X458400D01*
Y519800D01*
X462000D01*
Y516200D01*
D02*
G37*
G36*
X441800Y516100D02*
X438000D01*
Y519900D01*
X441800D01*
Y516100D01*
D02*
G37*
G36*
X454500Y505500D02*
X445500D01*
Y510500D01*
X454500D01*
Y505500D01*
D02*
G37*
D18*
X399900Y498000D02*
D03*
X374100D02*
D03*
D19*
X142000Y177900D02*
D03*
Y152100D02*
D03*
D20*
X24000Y404000D02*
D03*
Y388000D02*
D03*
Y380000D02*
D03*
Y372000D02*
D03*
Y396000D02*
D03*
Y500000D02*
D03*
Y444000D02*
D03*
Y452000D02*
D03*
Y460000D02*
D03*
Y468000D02*
D03*
Y476000D02*
D03*
Y484000D02*
D03*
Y492000D02*
D03*
Y364000D02*
D03*
Y356000D02*
D03*
Y348000D02*
D03*
Y292000D02*
D03*
Y300000D02*
D03*
Y308000D02*
D03*
Y316000D02*
D03*
Y276000D02*
D03*
Y284000D02*
D03*
Y332000D02*
D03*
Y340000D02*
D03*
Y324000D02*
D03*
Y268000D02*
D03*
D21*
X141500Y81000D02*
D03*
X160500D02*
D03*
X198500Y104000D02*
D03*
X217500D02*
D03*
X141500D02*
D03*
X160500D02*
D03*
X482000Y478000D02*
D03*
X463000D02*
D03*
X500500Y517000D02*
D03*
X481500D02*
D03*
X519500Y478000D02*
D03*
X500500D02*
D03*
X248500Y509000D02*
D03*
X229500D02*
D03*
X248500Y472000D02*
D03*
X229500D02*
D03*
X646000Y198000D02*
D03*
X662000D02*
D03*
X646000Y179000D02*
D03*
X662000D02*
D03*
X788000Y512000D02*
D03*
X772000D02*
D03*
X361000Y164000D02*
D03*
X380000D02*
D03*
X479000Y166000D02*
D03*
X498000D02*
D03*
X690500Y511000D02*
D03*
X709500D02*
D03*
X661000Y469500D02*
D03*
X642000D02*
D03*
X618000Y445500D02*
D03*
X599000D02*
D03*
X661000D02*
D03*
X642000D02*
D03*
X628000Y62000D02*
D03*
X609000D02*
D03*
D22*
X219000Y127000D02*
D03*
X200000D02*
D03*
X219000Y81000D02*
D03*
X200000D02*
D03*
X519500Y517000D02*
D03*
X538500D02*
D03*
X749500Y440500D02*
D03*
X730500D02*
D03*
X691500D02*
D03*
X710500D02*
D03*
X820500Y189000D02*
D03*
X801500D02*
D03*
X402500Y166000D02*
D03*
X421500D02*
D03*
X402500Y143000D02*
D03*
X421500D02*
D03*
X460500Y166000D02*
D03*
X441500D02*
D03*
X536000D02*
D03*
X517000D02*
D03*
X661500Y492500D02*
D03*
X642500D02*
D03*
X598500Y509500D02*
D03*
X617500D02*
D03*
X609500Y86000D02*
D03*
X628500D02*
D03*
X609500Y132000D02*
D03*
X628500D02*
D03*
X609500Y155000D02*
D03*
X628500D02*
D03*
X788500Y440500D02*
D03*
X769500D02*
D03*
X609500Y109000D02*
D03*
X628500D02*
D03*
D23*
X470500Y62500D02*
D03*
D24*
X541500Y133500D02*
D03*
X470500D02*
D03*
D25*
X538000Y66000D02*
D03*
D26*
X245000Y416000D02*
D03*
Y378000D02*
D03*
D27*
X183000Y431500D02*
D03*
D28*
X218000Y395000D02*
D03*
X148000D02*
D03*
D29*
X183000Y395000D02*
D03*
D30*
X543000Y479500D02*
D03*
Y460500D02*
D03*
X812000Y467000D02*
D03*
Y486000D02*
D03*
X781000Y488500D02*
D03*
Y469500D02*
D03*
X717000Y488500D02*
D03*
Y469500D02*
D03*
X656000Y60000D02*
D03*
Y79000D02*
D03*
X581000Y83000D02*
D03*
Y64000D02*
D03*
D31*
X154000Y502000D02*
D03*
Y518000D02*
D03*
X135000Y502000D02*
D03*
Y518000D02*
D03*
X813000Y121000D02*
D03*
Y105000D02*
D03*
X830000Y121000D02*
D03*
Y105000D02*
D03*
D32*
X157000Y462000D02*
D03*
Y481000D02*
D03*
X132000Y462000D02*
D03*
Y481000D02*
D03*
X581000Y103000D02*
D03*
Y122000D02*
D03*
X812000Y523000D02*
D03*
Y504000D02*
D03*
X330000Y154500D02*
D03*
Y135500D02*
D03*
X693000Y488500D02*
D03*
Y469500D02*
D03*
X805000Y145500D02*
D03*
Y164500D02*
D03*
X828000Y145500D02*
D03*
Y164500D02*
D03*
X740000Y110500D02*
D03*
Y129500D02*
D03*
X763000Y110500D02*
D03*
Y129500D02*
D03*
X820000Y77000D02*
D03*
Y58000D02*
D03*
X656000Y97500D02*
D03*
Y116500D02*
D03*
D33*
X188500Y499500D02*
D03*
Y518500D02*
D03*
X209500Y509000D02*
D03*
X188500Y462500D02*
D03*
Y481500D02*
D03*
X209500Y472000D02*
D03*
X374500Y142500D02*
D03*
Y123500D02*
D03*
X353500Y133000D02*
D03*
D34*
X767200Y407500D02*
D03*
X754500D02*
D03*
X741800D02*
D03*
X729100D02*
D03*
X716400D02*
D03*
X703700D02*
D03*
X691000D02*
D03*
X678300D02*
D03*
X665600D02*
D03*
X652900D02*
D03*
X640200D02*
D03*
X627500D02*
D03*
X614800D02*
D03*
X602100D02*
D03*
Y232500D02*
D03*
X614800D02*
D03*
X627500D02*
D03*
X640200D02*
D03*
X652900D02*
D03*
X665600D02*
D03*
X678300D02*
D03*
X691000D02*
D03*
X703700D02*
D03*
X716400D02*
D03*
X729100D02*
D03*
X741800D02*
D03*
X754500D02*
D03*
X767200D02*
D03*
D35*
X589600Y377150D02*
D03*
Y364450D02*
D03*
Y351750D02*
D03*
Y339050D02*
D03*
Y326350D02*
D03*
Y313650D02*
D03*
Y300950D02*
D03*
Y288250D02*
D03*
Y275550D02*
D03*
Y262850D02*
D03*
D36*
X704000Y349000D02*
D03*
Y335000D02*
D03*
Y321000D02*
D03*
X690000Y349000D02*
D03*
Y335000D02*
D03*
Y321000D02*
D03*
X676000Y349000D02*
D03*
Y335000D02*
D03*
Y321000D02*
D03*
D37*
X742000Y90750D02*
D03*
X748500D02*
D03*
X755000D02*
D03*
X761500D02*
D03*
X768000D02*
D03*
D38*
X787000Y88500D02*
D03*
X723000D02*
D03*
D39*
X743000Y64000D02*
D03*
X767000D02*
D03*
D40*
X306000Y242000D02*
D03*
Y252000D02*
D03*
Y262000D02*
D03*
Y272000D02*
D03*
Y282000D02*
D03*
Y292000D02*
D03*
Y302000D02*
D03*
Y312000D02*
D03*
Y322000D02*
D03*
Y332000D02*
D03*
Y342000D02*
D03*
Y352000D02*
D03*
Y362000D02*
D03*
Y372000D02*
D03*
Y382000D02*
D03*
Y392000D02*
D03*
Y402000D02*
D03*
X546000D02*
D03*
Y392000D02*
D03*
Y382000D02*
D03*
Y372000D02*
D03*
Y362000D02*
D03*
Y352000D02*
D03*
Y342000D02*
D03*
Y332000D02*
D03*
Y322000D02*
D03*
Y312000D02*
D03*
Y302000D02*
D03*
Y292000D02*
D03*
Y282000D02*
D03*
Y272000D02*
D03*
Y262000D02*
D03*
Y252000D02*
D03*
Y242000D02*
D03*
D41*
X346000Y442000D02*
D03*
X356000D02*
D03*
X366000D02*
D03*
X376000D02*
D03*
X386000D02*
D03*
X396000D02*
D03*
X406000D02*
D03*
X416000D02*
D03*
X426000D02*
D03*
X436000D02*
D03*
X446000D02*
D03*
X456000D02*
D03*
X466000D02*
D03*
X476000D02*
D03*
X486000D02*
D03*
X496000D02*
D03*
X506000D02*
D03*
Y202000D02*
D03*
X496000D02*
D03*
X486000D02*
D03*
X476000D02*
D03*
X466000D02*
D03*
X456000D02*
D03*
X446000D02*
D03*
X436000D02*
D03*
X426000D02*
D03*
X416000D02*
D03*
X406000D02*
D03*
X396000D02*
D03*
X386000D02*
D03*
X376000D02*
D03*
X366000D02*
D03*
X356000D02*
D03*
X346000D02*
D03*
D42*
X690000Y64000D02*
D03*
Y96000D02*
D03*
D43*
X739500Y465000D02*
D03*
X758500D02*
D03*
X739500Y492000D02*
D03*
X749000D02*
D03*
X758500D02*
D03*
D44*
X621500Y468000D02*
D03*
Y487000D02*
D03*
X594500Y468000D02*
D03*
Y477500D02*
D03*
Y487000D02*
D03*
D45*
X693000Y160400D02*
D03*
X698000D02*
D03*
X703000D02*
D03*
X708000D02*
D03*
X713000D02*
D03*
X718000D02*
D03*
X723000D02*
D03*
Y207600D02*
D03*
X718000D02*
D03*
X713000D02*
D03*
X708000D02*
D03*
X703000D02*
D03*
X698000D02*
D03*
X693000D02*
D03*
D46*
X731600Y169000D02*
D03*
Y174000D02*
D03*
Y179000D02*
D03*
Y184000D02*
D03*
Y189000D02*
D03*
Y194000D02*
D03*
Y199000D02*
D03*
X684400D02*
D03*
Y194000D02*
D03*
Y189000D02*
D03*
Y184000D02*
D03*
Y179000D02*
D03*
Y174000D02*
D03*
Y169000D02*
D03*
D47*
X708000Y184000D02*
D03*
D48*
X761500Y185200D02*
D03*
X768000D02*
D03*
X774500D02*
D03*
Y166800D02*
D03*
X768000D02*
D03*
X761500D02*
D03*
D49*
X731000Y512000D02*
D03*
X755384D02*
D03*
X424192Y123000D02*
D03*
X399808D02*
D03*
D50*
X786000Y109000D02*
D03*
Y124000D02*
D03*
X716000Y109500D02*
D03*
Y124500D02*
D03*
M02*
