G04*
G04 #@! TF.GenerationSoftware,Altium Limited,Altium Designer,22.0.2 (36)*
G04*
G04 Layer_Color=32896*
%FSLAX44Y44*%
%MOMM*%
G71*
G04*
G04 #@! TF.SameCoordinates,5265F303-A955-4834-83B4-5BE1E65ADB8C*
G04*
G04*
G04 #@! TF.FilePolarity,Positive*
G04*
G01*
G75*
%ADD10C,0.2000*%
%ADD11C,0.1500*%
%ADD13C,0.1000*%
%ADD14C,0.1270*%
%ADD16C,0.4000*%
%ADD17C,0.2540*%
%ADD95C,0.5000*%
%ADD118C,0.1524*%
D10*
X273000Y408000D02*
G03*
X273000Y408000I-1000J0D01*
G01*
X421000Y111000D02*
G03*
X421000Y111000I-1000J0D01*
G01*
X521000Y320000D02*
X535000D01*
X528000Y313000D02*
Y327000D01*
X601000Y320000D02*
X615000D01*
X554000Y340000D02*
Y370000D01*
X562000Y347000D02*
Y363000D01*
X576000Y340000D02*
Y370000D01*
X584000Y347000D02*
Y363000D01*
X562000Y355000D02*
X576000D01*
X439840Y59990D02*
Y93010D01*
X460160Y59990D02*
Y93010D01*
X439840Y59990D02*
X460160D01*
X439840Y93010D02*
X460160D01*
X301840Y94000D02*
X315840D01*
X301840Y126500D02*
X315840D01*
X301840Y96500D02*
Y126500D01*
X315840Y96500D02*
Y126500D01*
X308840Y96500D02*
X315840D01*
X301840D02*
X308840D01*
X315840Y94000D02*
Y96500D01*
X301840Y94000D02*
Y96500D01*
X318840Y94000D02*
X332840D01*
X318840Y126500D02*
X332840D01*
X318840Y96500D02*
Y126500D01*
X332840Y96500D02*
Y126500D01*
X325840Y96500D02*
X332840D01*
X318840D02*
X325840D01*
X332840Y94000D02*
Y96500D01*
X318840Y94000D02*
Y96500D01*
X318680Y90510D02*
X339000D01*
X318680Y57490D02*
X339000D01*
Y90510D01*
X318680Y57490D02*
Y90510D01*
X295680D02*
X316000D01*
X295680Y57490D02*
X316000D01*
Y90510D01*
X295680Y57490D02*
Y90510D01*
X383510Y116840D02*
Y137160D01*
X350490Y116840D02*
Y137160D01*
Y116840D02*
X383510D01*
X350490Y137160D02*
X383510D01*
X396490Y155840D02*
Y176160D01*
X429510Y155840D02*
Y176160D01*
X396490D02*
X429510D01*
X396490Y155840D02*
X429510D01*
X456840Y103220D02*
X477160D01*
X456840D02*
Y138780D01*
X477160Y103220D02*
Y138780D01*
X456840D02*
X477160D01*
X312840Y135220D02*
X333160D01*
X312840D02*
Y170780D01*
X333160Y135220D02*
Y170780D01*
X312840D02*
X333160D01*
X247220Y453840D02*
Y474160D01*
X282780D01*
X247220Y453840D02*
X282780D01*
Y474160D01*
X247220Y476840D02*
Y497160D01*
X282780D01*
X247220Y476840D02*
X282780D01*
Y497160D01*
X247220Y499840D02*
Y520160D01*
X282780D01*
X247220Y499840D02*
X282780D01*
Y520160D01*
X45840Y482780D02*
X66160D01*
Y447220D02*
Y482780D01*
X45840Y447220D02*
Y482780D01*
Y447220D02*
X66160D01*
D11*
X299000Y175000D02*
Y535000D01*
X839000Y175000D02*
Y535000D01*
X299000Y175000D02*
X839000D01*
X299000Y535000D02*
X839000D01*
D13*
X305840Y109750D02*
X312090D01*
X309090Y110500D02*
X311840Y113250D01*
X308840Y110500D02*
X309090D01*
X306090Y113250D02*
X308840Y110500D01*
X306090Y113250D02*
X311840D01*
X322840Y109750D02*
X329090D01*
X326090Y110500D02*
X328840Y113250D01*
X325840Y110500D02*
X326090D01*
X323090Y113250D02*
X325840Y110500D01*
X323090Y113250D02*
X328840D01*
X67000Y371248D02*
X65334D01*
X66167D01*
Y366250D01*
X67000D01*
X65334D01*
X60335Y371248D02*
X62002D01*
X62835Y370415D01*
Y367083D01*
X62002Y366250D01*
X60335D01*
X59502Y367083D01*
Y370415D01*
X60335Y371248D01*
X57836Y366250D02*
X56170D01*
X57003D01*
Y371248D01*
X57836Y370415D01*
X53671D02*
X52838Y371248D01*
X51172D01*
X50339Y370415D01*
Y369582D01*
X51172Y368749D01*
X52005D01*
X51172D01*
X50339Y367916D01*
Y367083D01*
X51172Y366250D01*
X52838D01*
X53671Y367083D01*
X67000Y363248D02*
X65334D01*
X66167D01*
Y358250D01*
X67000D01*
X65334D01*
X60335Y363248D02*
X62002D01*
X62835Y362415D01*
Y359083D01*
X62002Y358250D01*
X60335D01*
X59502Y359083D01*
Y362415D01*
X60335Y363248D01*
X57836Y358250D02*
X56170D01*
X57003D01*
Y363248D01*
X57836Y362415D01*
X50339Y358250D02*
X53671D01*
X50339Y361582D01*
Y362415D01*
X51172Y363248D01*
X52838D01*
X53671Y362415D01*
X67000Y355248D02*
X65334D01*
X66167D01*
Y350250D01*
X67000D01*
X65334D01*
X60335Y355248D02*
X62002D01*
X62835Y354415D01*
Y351083D01*
X62002Y350250D01*
X60335D01*
X59502Y351083D01*
Y354415D01*
X60335Y355248D01*
X57836Y350250D02*
X56170D01*
X57003D01*
Y355248D01*
X57836Y354415D01*
X51172Y350250D02*
Y355248D01*
X53671Y352749D01*
X50339D01*
X67000Y347248D02*
X65334D01*
X66167D01*
Y342250D01*
X67000D01*
X65334D01*
X60335Y347248D02*
X62002D01*
X62835Y346415D01*
Y343083D01*
X62002Y342250D01*
X60335D01*
X59502Y343083D01*
Y346415D01*
X60335Y347248D01*
X54504Y342250D02*
X57836D01*
X54504Y345582D01*
Y346415D01*
X55337Y347248D01*
X57003D01*
X57836Y346415D01*
X52838Y347248D02*
X49506D01*
Y346415D01*
X52838Y343083D01*
Y342250D01*
X67000Y338248D02*
X65334D01*
X66167D01*
Y333250D01*
X67000D01*
X65334D01*
X60335Y338248D02*
X62002D01*
X62835Y337415D01*
Y334083D01*
X62002Y333250D01*
X60335D01*
X59502Y334083D01*
Y337415D01*
X60335Y338248D01*
X54504Y333250D02*
X57836D01*
X54504Y336582D01*
Y337415D01*
X55337Y338248D01*
X57003D01*
X57836Y337415D01*
X49506Y338248D02*
X51172Y337415D01*
X52838Y335749D01*
Y334083D01*
X52005Y333250D01*
X50339D01*
X49506Y334083D01*
Y334916D01*
X50339Y335749D01*
X52838D01*
X67000Y330248D02*
X65334D01*
X66167D01*
Y325250D01*
X67000D01*
X65334D01*
X60335Y330248D02*
X62002D01*
X62835Y329415D01*
Y326083D01*
X62002Y325250D01*
X60335D01*
X59502Y326083D01*
Y329415D01*
X60335Y330248D01*
X54504Y325250D02*
X57836D01*
X54504Y328582D01*
Y329415D01*
X55337Y330248D01*
X57003D01*
X57836Y329415D01*
X49506Y330248D02*
X52838D01*
Y327749D01*
X51172Y328582D01*
X50339D01*
X49506Y327749D01*
Y326083D01*
X50339Y325250D01*
X52005D01*
X52838Y326083D01*
X67000Y322248D02*
X65334D01*
X66167D01*
Y317250D01*
X67000D01*
X65334D01*
X60335Y322248D02*
X62002D01*
X62835Y321415D01*
Y318083D01*
X62002Y317250D01*
X60335D01*
X59502Y318083D01*
Y321415D01*
X60335Y322248D01*
X57836Y321415D02*
X57003Y322248D01*
X55337D01*
X54504Y321415D01*
Y320582D01*
X55337Y319749D01*
X56170D01*
X55337D01*
X54504Y318916D01*
Y318083D01*
X55337Y317250D01*
X57003D01*
X57836Y318083D01*
X52838Y321415D02*
X52005Y322248D01*
X50339D01*
X49506Y321415D01*
Y320582D01*
X50339Y319749D01*
X51172D01*
X50339D01*
X49506Y318916D01*
Y318083D01*
X50339Y317250D01*
X52005D01*
X52838Y318083D01*
X67000Y314248D02*
X65334D01*
X66167D01*
Y309250D01*
X67000D01*
X65334D01*
X60335Y314248D02*
X62002D01*
X62835Y313415D01*
Y310083D01*
X62002Y309250D01*
X60335D01*
X59502Y310083D01*
Y313415D01*
X60335Y314248D01*
X57836Y313415D02*
X57003Y314248D01*
X55337D01*
X54504Y313415D01*
Y312582D01*
X55337Y311749D01*
X56170D01*
X55337D01*
X54504Y310916D01*
Y310083D01*
X55337Y309250D01*
X57003D01*
X57836Y310083D01*
X49506Y309250D02*
X52838D01*
X49506Y312582D01*
Y313415D01*
X50339Y314248D01*
X52005D01*
X52838Y313415D01*
X67000Y306248D02*
X65334D01*
X66167D01*
Y301250D01*
X67000D01*
X65334D01*
X60335Y306248D02*
X62002D01*
X62835Y305415D01*
Y302083D01*
X62002Y301250D01*
X60335D01*
X59502Y302083D01*
Y305415D01*
X60335Y306248D01*
X54504Y301250D02*
X57836D01*
X54504Y304582D01*
Y305415D01*
X55337Y306248D01*
X57003D01*
X57836Y305415D01*
X52838D02*
X52005Y306248D01*
X50339D01*
X49506Y305415D01*
Y304582D01*
X50339Y303749D01*
X51172D01*
X50339D01*
X49506Y302916D01*
Y302083D01*
X50339Y301250D01*
X52005D01*
X52838Y302083D01*
X67000Y298248D02*
X65334D01*
X66167D01*
Y293250D01*
X67000D01*
X65334D01*
X60335Y298248D02*
X62002D01*
X62835Y297415D01*
Y294083D01*
X62002Y293250D01*
X60335D01*
X59502Y294083D01*
Y297415D01*
X60335Y298248D01*
X54504Y293250D02*
X57836D01*
X54504Y296582D01*
Y297415D01*
X55337Y298248D01*
X57003D01*
X57836Y297415D01*
X49506Y293250D02*
X52838D01*
X49506Y296582D01*
Y297415D01*
X50339Y298248D01*
X52005D01*
X52838Y297415D01*
X67000Y290248D02*
X65334D01*
X66167D01*
Y285250D01*
X67000D01*
X65334D01*
X60335Y290248D02*
X62002D01*
X62835Y289415D01*
Y286083D01*
X62002Y285250D01*
X60335D01*
X59502Y286083D01*
Y289415D01*
X60335Y290248D01*
X54504Y285250D02*
X57836D01*
X54504Y288582D01*
Y289415D01*
X55337Y290248D01*
X57003D01*
X57836Y289415D01*
X52838Y285250D02*
X51172D01*
X52005D01*
Y290248D01*
X52838Y289415D01*
X67000Y282248D02*
X65334D01*
X66167D01*
Y277250D01*
X67000D01*
X65334D01*
X60335Y282248D02*
X62002D01*
X62835Y281415D01*
Y278083D01*
X62002Y277250D01*
X60335D01*
X59502Y278083D01*
Y281415D01*
X60335Y282248D01*
X57836Y277250D02*
X56170D01*
X57003D01*
Y282248D01*
X57836Y281415D01*
X53671Y278083D02*
X52838Y277250D01*
X51172D01*
X50339Y278083D01*
Y281415D01*
X51172Y282248D01*
X52838D01*
X53671Y281415D01*
Y280582D01*
X52838Y279749D01*
X50339D01*
X67000Y274248D02*
X65334D01*
X66167D01*
Y269250D01*
X67000D01*
X65334D01*
X60335Y274248D02*
X62002D01*
X62835Y273415D01*
Y270083D01*
X62002Y269250D01*
X60335D01*
X59502Y270083D01*
Y273415D01*
X60335Y274248D01*
X57836Y269250D02*
X56170D01*
X57003D01*
Y274248D01*
X57836Y273415D01*
X53671D02*
X52838Y274248D01*
X51172D01*
X50339Y273415D01*
Y272582D01*
X51172Y271749D01*
X50339Y270916D01*
Y270083D01*
X51172Y269250D01*
X52838D01*
X53671Y270083D01*
Y270916D01*
X52838Y271749D01*
X53671Y272582D01*
Y273415D01*
X52838Y271749D02*
X51172D01*
X67000Y266248D02*
X65334D01*
X66167D01*
Y261250D01*
X67000D01*
X65334D01*
X60335Y266248D02*
X62002D01*
X62835Y265415D01*
Y262083D01*
X62002Y261250D01*
X60335D01*
X59502Y262083D01*
Y265415D01*
X60335Y266248D01*
X57836Y261250D02*
X56170D01*
X57003D01*
Y266248D01*
X57836Y265415D01*
X50339Y266248D02*
X53671D01*
Y263749D01*
X52005Y264582D01*
X51172D01*
X50339Y263749D01*
Y262083D01*
X51172Y261250D01*
X52838D01*
X53671Y262083D01*
D14*
X379000Y178000D02*
G03*
X379000Y178000I-1000J0D01*
G01*
X426000Y150000D02*
G03*
X426000Y150000I-1000J0D01*
G01*
X253300Y422200D02*
Y435800D01*
X276700Y422200D02*
Y435800D01*
X370000Y107500D02*
X410000D01*
X370000Y56500D02*
X410000D01*
X73200Y397750D02*
Y434500D01*
Y486000D02*
Y536250D01*
X242800Y397750D02*
Y536250D01*
X73200Y397750D02*
X242800D01*
X73200Y536250D02*
X242800D01*
D16*
X76005Y354003D02*
X74005Y356002D01*
Y360001D01*
X76005Y362000D01*
X78004D01*
X80003Y360001D01*
Y356002D01*
X82003Y354003D01*
X84002D01*
X86001Y356002D01*
Y360001D01*
X84002Y362000D01*
X90000Y350004D02*
X78004D01*
Y344006D01*
X80003Y342006D01*
X84002D01*
X86001Y344006D01*
Y350004D01*
Y332010D02*
Y336008D01*
X84002Y338008D01*
X80003D01*
X78004Y336008D01*
Y332010D01*
X80003Y330010D01*
X82003D01*
Y338008D01*
X78004Y318014D02*
Y324012D01*
X80003Y326012D01*
X84002D01*
X86001Y324012D01*
Y318014D01*
Y314016D02*
Y310017D01*
Y312016D01*
X78004D01*
Y314016D01*
X86001Y302019D02*
X76005D01*
X80003D01*
Y304019D01*
Y300020D01*
Y302019D01*
X76005D01*
X74005Y300020D01*
X86001Y294022D02*
Y290023D01*
Y292023D01*
X78004D01*
Y294022D01*
Y276028D02*
Y282026D01*
X80003Y284025D01*
X84002D01*
X86001Y282026D01*
Y276028D01*
X78004Y270030D02*
Y266031D01*
X80003Y264032D01*
X86001D01*
Y270030D01*
X84002Y272029D01*
X82003Y270030D01*
Y264032D01*
X76005Y258034D02*
X78004D01*
Y260033D01*
Y256034D01*
Y258034D01*
X84002D01*
X86001Y256034D01*
Y250036D02*
Y246038D01*
Y248037D01*
X78004D01*
Y250036D01*
X86001Y238040D02*
Y234041D01*
X84002Y232042D01*
X80003D01*
X78004Y234041D01*
Y238040D01*
X80003Y240039D01*
X84002D01*
X86001Y238040D01*
Y228043D02*
X78004D01*
Y222045D01*
X80003Y220046D01*
X86001D01*
Y216047D02*
Y210049D01*
X84002Y208050D01*
X82003Y210049D01*
Y214048D01*
X80003Y216047D01*
X78004Y214048D01*
Y208050D01*
D17*
X146128Y362460D02*
X136131D01*
Y357462D01*
X137797Y355796D01*
X141129D01*
X142795Y357462D01*
Y362460D01*
Y359128D02*
X146128Y355796D01*
X139463Y352463D02*
X144462D01*
X146128Y350797D01*
Y345799D01*
X139463D01*
X146128Y342466D02*
X139463D01*
Y337468D01*
X141129Y335802D01*
X146128D01*
X136131Y322473D02*
Y315808D01*
Y319141D01*
X146128D01*
Y312476D02*
Y309144D01*
Y310810D01*
X139463D01*
Y312476D01*
X146128Y304146D02*
X139463D01*
Y302479D01*
X141129Y300813D01*
X146128D01*
X141129D01*
X139463Y299147D01*
X141129Y297481D01*
X146128D01*
Y289150D02*
Y292482D01*
X144462Y294149D01*
X141129D01*
X139463Y292482D01*
Y289150D01*
X141129Y287484D01*
X142795D01*
Y294149D01*
X139463Y284152D02*
Y282486D01*
X141129D01*
Y284152D01*
X139463D01*
X144462D02*
Y282486D01*
X146128D01*
Y284152D01*
X144462D01*
X146128Y259160D02*
Y265825D01*
X139463Y259160D01*
X137797D01*
X136131Y260826D01*
Y264158D01*
X137797Y265825D01*
X136131Y245831D02*
X146128D01*
Y240833D01*
X144462Y239166D01*
X137797D01*
X136131Y240833D01*
Y245831D01*
X139463Y234168D02*
Y230836D01*
X141129Y229170D01*
X146128D01*
Y234168D01*
X144462Y235834D01*
X142795Y234168D01*
Y229170D01*
X139463Y225837D02*
X144462D01*
X146128Y224171D01*
Y219173D01*
X147794D01*
X149460Y220839D01*
Y222505D01*
X146128Y219173D02*
X139463D01*
X146128Y215841D02*
Y210842D01*
X144462Y209176D01*
X142795Y210842D01*
Y214174D01*
X141129Y215841D01*
X139463Y214174D01*
Y209176D01*
X116131Y362460D02*
X126128D01*
Y357462D01*
X124462Y355796D01*
X122795D01*
X121129Y357462D01*
Y362460D01*
Y357462D01*
X119463Y355796D01*
X117797D01*
X116131Y357462D01*
Y362460D01*
X119463Y350797D02*
Y347465D01*
X121129Y345799D01*
X126128D01*
Y350797D01*
X124462Y352463D01*
X122795Y350797D01*
Y345799D01*
X117797Y340800D02*
X119463D01*
Y342466D01*
Y339134D01*
Y340800D01*
X124462D01*
X126128Y339134D01*
X117797Y332470D02*
X119463D01*
Y334136D01*
Y330804D01*
Y332470D01*
X124462D01*
X126128Y330804D01*
Y320807D02*
Y324139D01*
X124462Y325805D01*
X121129D01*
X119463Y324139D01*
Y320807D01*
X121129Y319141D01*
X122795D01*
Y325805D01*
X119463Y315808D02*
X126128D01*
X122795D01*
X121129Y314142D01*
X119463Y312476D01*
Y310810D01*
Y305812D02*
X124462D01*
X126128Y304146D01*
Y299147D01*
X127794D01*
X129460Y300813D01*
Y302479D01*
X126128Y299147D02*
X119463D01*
X116131Y285818D02*
X122795D01*
X126128Y282486D01*
X122795Y279153D01*
X116131D01*
X126128Y274155D02*
Y270823D01*
X124462Y269157D01*
X121129D01*
X119463Y270823D01*
Y274155D01*
X121129Y275821D01*
X124462D01*
X126128Y274155D01*
Y265825D02*
Y262492D01*
Y264158D01*
X116131D01*
Y265825D01*
X117797Y255828D02*
X119463D01*
Y257494D01*
Y254162D01*
Y255828D01*
X124462D01*
X126128Y254162D01*
X119463Y247497D02*
Y244165D01*
X121129Y242499D01*
X126128D01*
Y247497D01*
X124462Y249163D01*
X122795Y247497D01*
Y242499D01*
X129460Y235834D02*
Y234168D01*
X127794Y232502D01*
X119463D01*
Y237500D01*
X121129Y239166D01*
X124462D01*
X126128Y237500D01*
Y232502D01*
Y224171D02*
Y227504D01*
X124462Y229170D01*
X121129D01*
X119463Y227504D01*
Y224171D01*
X121129Y222505D01*
X122795D01*
Y229170D01*
X119463Y219173D02*
Y217507D01*
X121129D01*
Y219173D01*
X119463D01*
X124462D02*
Y217507D01*
X126128D01*
Y219173D01*
X124462D01*
X117797Y200845D02*
X116131Y199179D01*
Y195847D01*
X117797Y194181D01*
X119463D01*
X121129Y195847D01*
Y197513D01*
Y195847D01*
X122795Y194181D01*
X124462D01*
X126128Y195847D01*
Y199179D01*
X124462Y200845D01*
X126128Y190849D02*
X124462D01*
Y189182D01*
X126128D01*
Y190849D01*
X116131Y182518D02*
Y175854D01*
X117797D01*
X124462Y182518D01*
X126128D01*
X116131Y162525D02*
X122795D01*
X126128Y159192D01*
X122795Y155860D01*
X116131D01*
X126128Y150862D02*
Y147529D01*
X124462Y145863D01*
X121129D01*
X119463Y147529D01*
Y150862D01*
X121129Y152528D01*
X124462D01*
X126128Y150862D01*
Y142531D02*
Y139199D01*
Y140865D01*
X116131D01*
Y142531D01*
X117797Y132534D02*
X119463D01*
Y134200D01*
Y130868D01*
Y132534D01*
X124462D01*
X126128Y130868D01*
Y125870D02*
Y120871D01*
X124462Y119205D01*
X122795Y120871D01*
Y124204D01*
X121129Y125870D01*
X119463Y124204D01*
Y119205D01*
X96131Y362460D02*
X106128D01*
Y357462D01*
X104462Y355796D01*
X102795D01*
X101129Y357462D01*
Y362460D01*
Y357462D01*
X99463Y355796D01*
X97797D01*
X96131Y357462D01*
Y362460D01*
X99463Y350797D02*
Y347465D01*
X101129Y345799D01*
X106128D01*
Y350797D01*
X104462Y352463D01*
X102795Y350797D01*
Y345799D01*
X97797Y340800D02*
X99463D01*
Y342466D01*
Y339134D01*
Y340800D01*
X104462D01*
X106128Y339134D01*
X97797Y332470D02*
X99463D01*
Y334136D01*
Y330803D01*
Y332470D01*
X104462D01*
X106128Y330803D01*
Y320807D02*
Y324139D01*
X104462Y325805D01*
X101129D01*
X99463Y324139D01*
Y320807D01*
X101129Y319141D01*
X102795D01*
Y325805D01*
X99463Y315808D02*
X106128D01*
X102795D01*
X101129Y314142D01*
X99463Y312476D01*
Y310810D01*
Y305812D02*
X104462D01*
X106128Y304145D01*
Y299147D01*
X107794D01*
X109460Y300813D01*
Y302479D01*
X106128Y299147D02*
X99463D01*
X96131Y285818D02*
Y279153D01*
Y282486D01*
X106128D01*
X99463Y275821D02*
X104462D01*
X106128Y274155D01*
Y269157D01*
X107794D01*
X109460Y270823D01*
Y272489D01*
X106128Y269157D02*
X99463D01*
X109460Y265825D02*
X99463D01*
Y260826D01*
X101129Y259160D01*
X104462D01*
X106128Y260826D01*
Y265825D01*
Y250829D02*
Y254161D01*
X104462Y255828D01*
X101129D01*
X99463Y254161D01*
Y250829D01*
X101129Y249163D01*
X102795D01*
Y255828D01*
X99463Y245831D02*
Y244165D01*
X101129D01*
Y245831D01*
X99463D01*
X104462D02*
Y244165D01*
X106128D01*
Y245831D01*
X104462D01*
X96131Y227504D02*
X106128D01*
Y220839D01*
Y217507D02*
Y214174D01*
Y215841D01*
X99463D01*
Y217507D01*
X96131Y199179D02*
Y195847D01*
Y197513D01*
X106128D01*
Y199179D01*
Y195847D01*
Y189182D02*
Y185850D01*
X104462Y184184D01*
X101129D01*
X99463Y185850D01*
Y189182D01*
X101129Y190849D01*
X104462D01*
X106128Y189182D01*
Y180852D02*
X99463D01*
Y175854D01*
X101129Y174187D01*
X106128D01*
Y160858D02*
X96131D01*
Y155860D01*
X97797Y154194D01*
X101129D01*
X102795Y155860D01*
Y160858D01*
X106128Y149195D02*
Y145863D01*
X104462Y144197D01*
X101129D01*
X99463Y145863D01*
Y149195D01*
X101129Y150862D01*
X104462D01*
X106128Y149195D01*
Y140865D02*
Y137533D01*
Y139199D01*
X96131D01*
Y140865D01*
X99463Y132534D02*
X104462D01*
X106128Y130868D01*
Y125870D01*
X107794D01*
X109460Y127536D01*
Y129202D01*
X106128Y125870D02*
X99463D01*
X106128Y122537D02*
X99463D01*
Y120871D01*
X101129Y119205D01*
X106128D01*
X101129D01*
X99463Y117539D01*
X101129Y115873D01*
X106128D01*
Y107542D02*
Y110874D01*
X104462Y112541D01*
X101129D01*
X99463Y110874D01*
Y107542D01*
X101129Y105876D01*
X102795D01*
Y112541D01*
X99463Y102544D02*
X106128D01*
X102795D01*
X101129Y100878D01*
X99463Y99212D01*
Y97545D01*
X772460Y77540D02*
Y87537D01*
X767462D01*
X765796Y85871D01*
Y82538D01*
X767462Y80872D01*
X772460D01*
X769128D02*
X765796Y77540D01*
X757465D02*
X760797D01*
X762463Y79206D01*
Y82538D01*
X760797Y84205D01*
X757465D01*
X755799Y82538D01*
Y80872D01*
X762463D01*
X752466Y84205D02*
X749134Y77540D01*
X745802Y84205D01*
X742470D02*
X740804D01*
Y82538D01*
X742470D01*
Y84205D01*
Y79206D02*
X740804D01*
Y77540D01*
X742470D01*
Y79206D01*
X724142Y77540D02*
X720810D01*
X722476D01*
Y87537D01*
X724142Y85871D01*
X715812Y77540D02*
Y79206D01*
X714146D01*
Y77540D01*
X715812D01*
X707481Y85871D02*
X705815Y87537D01*
X702483D01*
X700816Y85871D01*
Y79206D01*
X702483Y77540D01*
X705815D01*
X707481Y79206D01*
Y85871D01*
X697484Y77540D02*
Y79206D01*
X695818D01*
Y77540D01*
X697484D01*
X689154Y85871D02*
X687487Y87537D01*
X684155D01*
X682489Y85871D01*
Y79206D01*
X684155Y77540D01*
X687487D01*
X689154Y79206D01*
Y85871D01*
X679157Y77540D02*
Y79206D01*
X677491D01*
Y77540D01*
X679157D01*
X670826Y85871D02*
X669160Y87537D01*
X665828D01*
X664162Y85871D01*
Y79206D01*
X665828Y77540D01*
X669160D01*
X670826Y79206D01*
Y85871D01*
X772460Y107537D02*
Y97540D01*
X767462D01*
X765796Y99206D01*
Y105871D01*
X767462Y107537D01*
X772460D01*
X760797Y104205D02*
X757465D01*
X755799Y102538D01*
Y97540D01*
X760797D01*
X762463Y99206D01*
X760797Y100872D01*
X755799D01*
X750800Y105871D02*
Y104205D01*
X752466D01*
X749134D01*
X750800D01*
Y99206D01*
X749134Y97540D01*
X739137D02*
X742470D01*
X744136Y99206D01*
Y102538D01*
X742470Y104205D01*
X739137D01*
X737471Y102538D01*
Y100872D01*
X744136D01*
X734139Y104205D02*
X732473D01*
Y102538D01*
X734139D01*
Y104205D01*
Y99206D02*
X732473D01*
Y97540D01*
X734139D01*
Y99206D01*
X715812Y97540D02*
X712479D01*
X714146D01*
Y107537D01*
X715812Y105871D01*
X700816Y97540D02*
X707481D01*
X700816Y104205D01*
Y105871D01*
X702483Y107537D01*
X705815D01*
X707481Y105871D01*
X687487Y97540D02*
Y107537D01*
X680823Y97540D01*
Y107537D01*
X675825Y97540D02*
X672492D01*
X670826Y99206D01*
Y102538D01*
X672492Y104205D01*
X675825D01*
X677491Y102538D01*
Y99206D01*
X675825Y97540D01*
X667494Y104205D02*
X664162Y97540D01*
X660829Y104205D01*
X640836Y97540D02*
X647500D01*
X640836Y104205D01*
Y105871D01*
X642502Y107537D01*
X645834D01*
X647500Y105871D01*
X637504D02*
X635837Y107537D01*
X632505D01*
X630839Y105871D01*
Y99206D01*
X632505Y97540D01*
X635837D01*
X637504Y99206D01*
Y105871D01*
X620842Y97540D02*
X627507D01*
X620842Y104205D01*
Y105871D01*
X622508Y107537D01*
X625841D01*
X627507Y105871D01*
X610845Y97540D02*
X617510D01*
X610845Y104205D01*
Y105871D01*
X612512Y107537D01*
X615844D01*
X617510Y105871D01*
X772460Y128535D02*
Y116539D01*
X766462D01*
X764463Y118538D01*
Y120537D01*
X766462Y122537D01*
X772460D01*
X766462D01*
X764463Y124536D01*
Y126536D01*
X766462Y128535D01*
X772460D01*
X760464Y124536D02*
Y118538D01*
X758465Y116539D01*
X752467D01*
Y114539D01*
X754466Y112540D01*
X756465D01*
X752467Y116539D02*
Y124536D01*
X736472Y128535D02*
X728474D01*
X732473D01*
Y116539D01*
X718477D02*
X722476D01*
X724475Y118538D01*
Y122537D01*
X722476Y124536D01*
X718477D01*
X716478Y122537D01*
Y120537D01*
X724475D01*
X710480Y124536D02*
X706481D01*
X704482Y122537D01*
Y116539D01*
X710480D01*
X712479Y118538D01*
X710480Y120537D01*
X704482D01*
X700483Y116539D02*
Y124536D01*
X698484D01*
X696485Y122537D01*
Y116539D01*
Y122537D01*
X694485Y124536D01*
X692486Y122537D01*
Y116539D01*
X668494Y126536D02*
X670493Y128535D01*
X674492D01*
X676491Y126536D01*
Y124536D01*
X674492Y122537D01*
X670493D01*
X668494Y120537D01*
Y118538D01*
X670493Y116539D01*
X674492D01*
X676491Y118538D01*
X658497Y116539D02*
X662496D01*
X664495Y118538D01*
Y122537D01*
X662496Y124536D01*
X658497D01*
X656497Y122537D01*
Y120537D01*
X664495D01*
X652499Y116539D02*
Y124536D01*
X646501D01*
X644501Y122537D01*
Y116539D01*
X638503Y126536D02*
Y124536D01*
X640503D01*
X636504D01*
X638503D01*
Y118538D01*
X636504Y116539D01*
X630506D02*
X626507D01*
X628507D01*
Y124536D01*
X630506D01*
X620509Y116539D02*
Y124536D01*
X614511D01*
X612512Y122537D01*
Y116539D01*
X602515D02*
X606514D01*
X608513Y118538D01*
Y122537D01*
X606514Y124536D01*
X602515D01*
X600516Y122537D01*
Y120537D01*
X608513D01*
X596517Y116539D02*
X592518D01*
X594518D01*
Y128535D01*
X596517D01*
X586520Y116539D02*
X580522D01*
X578523Y118538D01*
X580522Y120537D01*
X584521D01*
X586520Y122537D01*
X584521Y124536D01*
X578523D01*
D95*
X810000Y135000D02*
Y154993D01*
X800003D01*
X796671Y151661D01*
Y144997D01*
X800003Y141664D01*
X810000D01*
X790006Y135000D02*
Y154993D01*
X780010D01*
X776677Y151661D01*
Y144997D01*
X780010Y141664D01*
X790006D01*
X783342D02*
X776677Y135000D01*
X760016Y154993D02*
X766681D01*
X770013Y151661D01*
Y138332D01*
X766681Y135000D01*
X760016D01*
X756684Y138332D01*
Y151661D01*
X760016Y154993D01*
X736690D02*
X743355D01*
X740023D01*
Y138332D01*
X743355Y135000D01*
X746687D01*
X750019Y138332D01*
X716697Y154993D02*
X730026D01*
Y135000D01*
X716697D01*
X730026Y144997D02*
X723361D01*
X696703Y151661D02*
X700035Y154993D01*
X706700D01*
X710032Y151661D01*
Y138332D01*
X706700Y135000D01*
X700035D01*
X696703Y138332D01*
X690039Y154993D02*
X676710D01*
X683374D01*
Y135000D01*
X650051Y154993D02*
Y141664D01*
X643387Y135000D01*
X636722Y141664D01*
Y154993D01*
X616729D02*
X630058D01*
Y135000D01*
X616729D01*
X630058Y144997D02*
X623394D01*
X610064Y135000D02*
Y154993D01*
X596735Y135000D01*
Y154993D01*
X590071Y135000D02*
Y148329D01*
X583406Y154993D01*
X576742Y148329D01*
Y135000D01*
Y144997D01*
X590071D01*
X570077Y154993D02*
X556748D01*
X563413D01*
Y135000D01*
X540087Y154993D02*
X546752D01*
X550084Y151661D01*
Y138332D01*
X546752Y135000D01*
X540087D01*
X536755Y138332D01*
Y151661D01*
X540087Y154993D01*
D118*
X357800Y144000D02*
X374000D01*
X357800Y174000D02*
X374000D01*
X404800Y116000D02*
X421000D01*
X404800Y146000D02*
X421000D01*
M02*
