G04*
G04 #@! TF.GenerationSoftware,Altium Limited,Altium Designer,22.0.2 (36)*
G04*
G04 Layer_Physical_Order=1*
G04 Layer_Color=255*
%FSLAX44Y44*%
%MOMM*%
G71*
G04*
G04 #@! TF.SameCoordinates,5265F303-A955-4834-83B4-5BE1E65ADB8C*
G04*
G04*
G04 #@! TF.FilePolarity,Positive*
G04*
G01*
G75*
%ADD12C,0.3000*%
%ADD15C,1.0000*%
%ADD16C,0.4000*%
%ADD17C,0.2540*%
%ADD18R,0.6200X1.3600*%
%ADD19R,1.3600X0.6200*%
%ADD20O,2.3000X0.6000*%
%ADD21R,0.7000X1.3000*%
%ADD22R,0.9000X1.3000*%
%ADD23R,2.3000X2.3000*%
%ADD24R,2.3000X2.3000*%
%ADD25P,3.2527X4X180.0*%
%ADD26R,0.8000X1.0000*%
%ADD27R,3.6000X1.2000*%
%ADD28R,1.2000X3.8000*%
%ADD29C,3.5000*%
%ADD30R,1.3000X0.9000*%
%ADD31R,0.8000X0.8000*%
%ADD32R,1.3000X0.7000*%
%ADD33R,1.0000X0.8500*%
%ADD34R,0.9000X1.5000*%
%ADD35R,1.5000X0.9000*%
%ADD36R,0.9000X0.9000*%
%ADD37R,0.4000X1.3500*%
%ADD38R,1.6000X1.4000*%
%ADD39R,1.9000X1.9000*%
%ADD40R,1.6000X0.6000*%
%ADD41R,0.6000X1.6000*%
%ADD42R,2.7000X2.0000*%
%ADD43R,0.5500X1.0000*%
%ADD44R,1.0000X0.5500*%
%ADD45R,0.2700X0.9900*%
%ADD46R,0.9900X0.2700*%
%ADD48R,0.4000X1.0900*%
%ADD49R,0.5588X0.6858*%
%ADD50R,0.9000X0.6000*%
%ADD89R,0.4500X0.4500*%
%ADD90R,0.5000X0.5000*%
%ADD91R,0.5500X0.6000*%
%ADD92C,1.0160*%
%ADD93R,3.2500X3.2500*%
%ADD94C,0.7000*%
%ADD95C,0.5000*%
%ADD96C,0.3810*%
%ADD97C,0.3000*%
G04:AMPARAMS|DCode=98|XSize=2mm|YSize=1.2mm|CornerRadius=0.36mm|HoleSize=0mm|Usage=FLASHONLY|Rotation=90.000|XOffset=0mm|YOffset=0mm|HoleType=Round|Shape=RoundedRectangle|*
%AMROUNDEDRECTD98*
21,1,2.0000,0.4800,0,0,90.0*
21,1,1.2800,1.2000,0,0,90.0*
1,1,0.7200,0.2400,0.6400*
1,1,0.7200,0.2400,-0.6400*
1,1,0.7200,-0.2400,-0.6400*
1,1,0.7200,-0.2400,0.6400*
%
%ADD98ROUNDEDRECTD98*%
%ADD99C,1.9000*%
%ADD100R,1.9000X1.9000*%
%ADD101C,0.6000*%
G36*
X478000Y513000D02*
X463000D01*
X461000Y515000D01*
Y521000D01*
X463000Y523000D01*
X478000D01*
Y513000D01*
D02*
G37*
G36*
X790961Y525155D02*
Y520500D01*
X791116Y519720D01*
X791461Y519204D01*
Y504796D01*
X791116Y504280D01*
X790961Y503500D01*
Y484845D01*
X783155Y477039D01*
X756000D01*
X755220Y476884D01*
X754558Y476442D01*
X754116Y475780D01*
X753961Y475000D01*
Y472000D01*
X753750D01*
Y463417D01*
X752577Y462931D01*
X751880Y463628D01*
X750798Y464350D01*
X749522Y464604D01*
X744250D01*
Y472000D01*
X734750D01*
Y458000D01*
X734799D01*
X735325Y456730D01*
X734201Y455606D01*
X706648D01*
X705372Y455352D01*
X704290Y454630D01*
X700372Y450712D01*
X699650Y449630D01*
X699396Y448354D01*
Y432645D01*
X699650Y431370D01*
X700372Y430288D01*
X709368Y421292D01*
X710450Y420570D01*
X711725Y420316D01*
X728194D01*
X730336Y418173D01*
X729850Y417000D01*
X600239D01*
X599753Y418173D01*
X601357Y419777D01*
X602080Y420859D01*
X602334Y422135D01*
Y437000D01*
X604500D01*
Y454000D01*
X593500D01*
Y437000D01*
X595666D01*
Y423516D01*
X590643Y418493D01*
X589920Y417411D01*
X589666Y416135D01*
Y398000D01*
X589920Y396724D01*
X590643Y395643D01*
X608666Y377619D01*
Y271197D01*
X607396Y270812D01*
X607357Y270870D01*
X599870Y278358D01*
X599100Y278872D01*
Y294450D01*
Y307150D01*
Y319850D01*
Y332550D01*
Y345250D01*
Y357950D01*
Y370950D01*
X580100D01*
Y367334D01*
X578737D01*
X577832Y368239D01*
X575995Y369000D01*
X574005D01*
X572168Y368239D01*
X570761Y366832D01*
X570000Y364995D01*
Y363005D01*
X570761Y361168D01*
X572168Y359761D01*
X574005Y359000D01*
X575995D01*
X577832Y359761D01*
X578737Y360666D01*
X580100D01*
Y345250D01*
Y334553D01*
X579439Y334211D01*
X578830Y334056D01*
X577146Y335181D01*
X575000Y335608D01*
X572854Y335181D01*
X571035Y333965D01*
X569819Y332146D01*
X569392Y330000D01*
Y240000D01*
X569819Y237854D01*
X571035Y236035D01*
X572854Y234819D01*
X575000Y234392D01*
X577146Y234819D01*
X578965Y236035D01*
X580181Y237854D01*
X580608Y240000D01*
Y256350D01*
X594385D01*
X599815Y250919D01*
X600897Y250197D01*
X602173Y249943D01*
X604237D01*
X604723Y248770D01*
X602577Y246623D01*
X601803Y245466D01*
X601531Y244100D01*
Y242000D01*
X595600D01*
Y236069D01*
X594002D01*
X592832Y237239D01*
X590995Y238000D01*
X589005D01*
X587168Y237239D01*
X585761Y235832D01*
X585000Y233995D01*
Y232005D01*
X585761Y230168D01*
X587168Y228761D01*
X589005Y228000D01*
X590995D01*
X592832Y228761D01*
X593003Y228931D01*
X595600D01*
Y225069D01*
X553215D01*
X553180Y225103D01*
X552022Y225877D01*
X550657Y226149D01*
X490230D01*
X489381Y227419D01*
X489624Y228005D01*
Y229995D01*
X488863Y231832D01*
X487457Y233239D01*
X485619Y234000D01*
X484339D01*
X432982Y285357D01*
X431900Y286080D01*
X430625Y286334D01*
X363381D01*
X331334Y318381D01*
Y406000D01*
X331080Y407276D01*
X330358Y408358D01*
X317032Y421683D01*
X317519Y422856D01*
X360190D01*
X361466Y423110D01*
X362547Y423833D01*
X366628Y427912D01*
X367350Y428994D01*
X367604Y430270D01*
Y432000D01*
X409730D01*
X411000Y432000D01*
X412270Y432000D01*
X419730D01*
X421000Y432000D01*
X422270Y432000D01*
X429730D01*
X431000Y432000D01*
X432270Y432000D01*
X439730D01*
X441000Y432000D01*
X442270Y432000D01*
X451000D01*
Y452000D01*
X442270D01*
X441000Y452000D01*
X439730Y452000D01*
X432270D01*
X431000Y452000D01*
X429730Y452000D01*
X422270D01*
X421000Y452000D01*
X419730Y452000D01*
X412270D01*
X411000Y452000D01*
X409730Y452000D01*
X397000D01*
Y489200D01*
X398815D01*
X415008Y473008D01*
X416470Y471885D01*
X418173Y471180D01*
X420000Y470940D01*
X457500D01*
Y469500D01*
X468500D01*
Y472000D01*
X476500D01*
Y469500D01*
X487500D01*
Y470940D01*
X495000D01*
Y469500D01*
X506000D01*
Y472000D01*
X512940D01*
Y459925D01*
X505015Y452000D01*
X501000D01*
Y447983D01*
X499885Y446530D01*
X499180Y444827D01*
X498940Y443000D01*
Y442000D01*
X499180Y440173D01*
X499885Y438470D01*
X501000Y437017D01*
Y432000D01*
X511000D01*
Y437017D01*
X512114Y438470D01*
X512581Y439596D01*
X524992Y452007D01*
X526114Y453470D01*
X526820Y455173D01*
X527060Y457000D01*
Y476166D01*
X534500D01*
Y473000D01*
X551500D01*
Y486000D01*
X534500D01*
Y482834D01*
X525000D01*
Y486500D01*
X514000D01*
Y484000D01*
X507560D01*
Y513666D01*
X513000D01*
Y508500D01*
X526000D01*
Y525500D01*
X513000D01*
Y520334D01*
X506696D01*
X506614Y520530D01*
X506000Y521331D01*
Y525500D01*
X495000D01*
Y523000D01*
X487000D01*
Y525500D01*
X476000D01*
Y525060D01*
X470000D01*
X469839Y525039D01*
X463000D01*
X462220Y524884D01*
X461558Y524442D01*
X460116Y523000D01*
X455000D01*
Y513000D01*
X460116D01*
X461558Y511558D01*
X462220Y511116D01*
X463000Y510961D01*
X469839D01*
X470000Y510940D01*
X476000D01*
Y508500D01*
X487000D01*
Y511000D01*
X493440D01*
Y485060D01*
X487500D01*
Y486500D01*
X476500D01*
Y484000D01*
X468500D01*
Y486500D01*
X457500D01*
Y485060D01*
X422924D01*
X405000Y502985D01*
Y506800D01*
X397000D01*
Y533961D01*
X782155D01*
X790961Y525155D01*
D02*
G37*
G36*
X817961Y473500D02*
X818116Y472720D01*
X818461Y472204D01*
Y463308D01*
X817500Y462539D01*
X816720Y462384D01*
X816058Y461942D01*
X816058Y461942D01*
X804155Y450039D01*
X782000D01*
X781220Y449884D01*
X780558Y449442D01*
X780116Y448780D01*
X779961Y448000D01*
Y433000D01*
X780116Y432220D01*
X780558Y431558D01*
X781220Y431116D01*
X782000Y430961D01*
X840000D01*
X840000Y430961D01*
Y412000D01*
X778000D01*
Y228000D01*
X840000D01*
Y43000D01*
X706039D01*
Y75000D01*
X705884Y75780D01*
X705442Y76442D01*
X704780Y76884D01*
X704000Y77039D01*
X701582D01*
X701096Y78212D01*
X712442Y89558D01*
X712884Y90220D01*
X713039Y91000D01*
Y92155D01*
X714442Y93558D01*
X714884Y94220D01*
X715039Y95000D01*
Y95461D01*
X731068D01*
X731116Y95220D01*
X731558Y94558D01*
X731558Y94558D01*
X733961Y92155D01*
Y84000D01*
X734116Y83220D01*
X734558Y82558D01*
X735220Y82116D01*
X736000Y81961D01*
X744000D01*
X744197Y82000D01*
X765500D01*
Y91158D01*
X765564Y91480D01*
Y97666D01*
X792744D01*
X803767Y86643D01*
X804849Y85920D01*
X806124Y85666D01*
X814619D01*
X816515Y83770D01*
X816301Y82500D01*
X811500D01*
Y71500D01*
X828500D01*
Y82500D01*
X823334D01*
Y85000D01*
X823080Y86276D01*
X822357Y87358D01*
X818357Y91357D01*
X817276Y92080D01*
X816000Y92334D01*
X807871D01*
X807428Y92926D01*
X808086Y94166D01*
X822500D01*
X823776Y94420D01*
X824857Y95142D01*
X828715Y99000D01*
X836000D01*
Y111000D01*
X824000D01*
Y103715D01*
X821119Y100834D01*
X819000D01*
Y111000D01*
X808715D01*
X807334Y112381D01*
Y115000D01*
X819000D01*
Y127000D01*
X816569D01*
Y140500D01*
X816297Y141866D01*
X815523Y143023D01*
X813500Y145047D01*
Y151000D01*
X796500D01*
Y144874D01*
X795327Y144388D01*
X785358Y154358D01*
X784276Y155080D01*
X783000Y155334D01*
X765281D01*
X762439Y158177D01*
X762925Y159350D01*
X778500D01*
Y168453D01*
X793730Y183683D01*
X795000Y183235D01*
Y180500D01*
X808000D01*
Y197500D01*
X795000D01*
Y194004D01*
X794995Y194000D01*
X793005D01*
X791168Y193239D01*
X789761Y191832D01*
X789000Y189995D01*
Y189047D01*
X779673Y179720D01*
X778500Y180206D01*
Y192650D01*
X779533Y193223D01*
X780832Y193761D01*
X782239Y195168D01*
X783000Y197005D01*
Y198995D01*
X782239Y200832D01*
X780832Y202239D01*
X778995Y203000D01*
X777005D01*
X775168Y202239D01*
X774000Y201071D01*
X772832Y202239D01*
X770994Y203000D01*
X769005D01*
X767168Y202239D01*
X766000Y201071D01*
X764832Y202239D01*
X762995Y203000D01*
X761005D01*
X759414Y202341D01*
X758144Y202875D01*
Y207761D01*
X757890Y209037D01*
X757168Y210119D01*
X745459Y221827D01*
X745945Y223000D01*
X761000D01*
Y242000D01*
X758069D01*
Y250500D01*
X757797Y251866D01*
X757023Y253023D01*
X753220Y256827D01*
X753594Y258249D01*
X754832Y258761D01*
X756239Y260168D01*
X757000Y262005D01*
Y263995D01*
X756239Y265832D01*
X755569Y266502D01*
Y270000D01*
X755297Y271366D01*
X754523Y272523D01*
X745523Y281523D01*
X744366Y282297D01*
X743000Y282569D01*
X640000D01*
X638634Y282297D01*
X637477Y281523D01*
X616507Y260554D01*
X615334Y261040D01*
Y379000D01*
X615080Y380276D01*
X614357Y381357D01*
X608535Y387180D01*
X609160Y388351D01*
X609274Y388328D01*
X610695D01*
X610761Y388168D01*
X612168Y386761D01*
X614005Y386000D01*
X615995D01*
X617832Y386761D01*
X619239Y388168D01*
X620000Y390005D01*
Y391864D01*
X620335Y392137D01*
X621169Y392492D01*
X624000Y389660D01*
Y389005D01*
X624761Y387168D01*
X626168Y385761D01*
X628005Y385000D01*
X629995D01*
X631832Y385761D01*
X633239Y387168D01*
X634000Y389005D01*
Y390283D01*
X635144Y390794D01*
X636000Y390112D01*
Y389005D01*
X636761Y387168D01*
X638168Y385761D01*
X640005Y385000D01*
X641995D01*
X643832Y385761D01*
X645239Y387168D01*
X646000Y389005D01*
Y390995D01*
X645809Y391455D01*
X646886Y392175D01*
X650000Y389060D01*
Y389005D01*
X650761Y387168D01*
X652168Y385761D01*
X654005Y385000D01*
X655995D01*
X657832Y385761D01*
X659239Y387168D01*
X660000Y389005D01*
Y390284D01*
X661143Y390794D01*
X662000Y390112D01*
Y389005D01*
X662761Y387168D01*
X664168Y385761D01*
X666005Y385000D01*
X667995D01*
X669832Y385761D01*
X671239Y387168D01*
X671679Y388231D01*
X673054D01*
X673594Y386929D01*
X675000Y385522D01*
X676838Y384761D01*
X678827D01*
X680665Y385522D01*
X682071Y386929D01*
X682639Y388301D01*
X684000Y388335D01*
X685406Y386929D01*
X687244Y386168D01*
X689233D01*
X691071Y386929D01*
X692478Y388335D01*
X693239Y390173D01*
Y392162D01*
X692478Y394000D01*
X691071Y395406D01*
X689233Y396168D01*
X688295D01*
X687857Y396730D01*
X688478Y398000D01*
X738666D01*
Y388317D01*
X737349Y387000D01*
X737005D01*
X735168Y386239D01*
X733761Y384832D01*
X733000Y382995D01*
Y381005D01*
X733761Y379168D01*
X735168Y377761D01*
X737005Y377000D01*
X738995D01*
X740832Y377761D01*
X742239Y379168D01*
X743000Y381005D01*
Y382995D01*
X742934Y383155D01*
X744358Y384579D01*
X745080Y385660D01*
X745334Y386936D01*
Y398000D01*
X761000D01*
Y407524D01*
X761969Y408974D01*
X762318Y410730D01*
Y416520D01*
X772744Y426946D01*
X773739Y428434D01*
X774088Y430190D01*
Y432000D01*
X776000D01*
Y449000D01*
X763000D01*
Y432000D01*
X763162D01*
X763648Y430827D01*
X755035Y422213D01*
X754315Y421739D01*
X753305Y422183D01*
X737000Y438489D01*
Y449000D01*
X737902Y449889D01*
X737940Y449915D01*
X741858Y453832D01*
X742580Y454914D01*
X742834Y456190D01*
Y457936D01*
X748141D01*
X751705Y454372D01*
X752786Y453650D01*
X754062Y453396D01*
X783854D01*
X785130Y453650D01*
X786212Y454372D01*
X809128Y477288D01*
X809850Y478370D01*
X810075Y479500D01*
X817961D01*
Y473500D01*
D02*
G37*
G36*
X142943Y537827D02*
X142558Y537442D01*
X142558Y537442D01*
X129116Y524000D01*
X129000D01*
Y523884D01*
X128558Y523442D01*
X128116Y522780D01*
X127961Y522000D01*
Y513000D01*
X128116Y512220D01*
X128558Y511558D01*
X129220Y511116D01*
X130000Y510961D01*
X159000D01*
X159780Y511116D01*
X160442Y511558D01*
X160884Y512220D01*
X161039Y513000D01*
Y527155D01*
X167845Y533961D01*
X295000D01*
Y453270D01*
X295000Y453000D01*
X294000Y452000D01*
X294000Y452000D01*
X295796Y452000D01*
X349730D01*
X351000Y452000D01*
Y440592D01*
X350936Y440270D01*
Y434064D01*
X269151D01*
X235000Y468215D01*
Y480500D01*
X224000D01*
Y475334D01*
X216500D01*
Y478250D01*
X208124D01*
X207638Y479423D01*
X228715Y500500D01*
X235000D01*
Y517500D01*
X224000D01*
Y512334D01*
X216500D01*
Y515250D01*
X202500D01*
Y502750D01*
X216500D01*
Y505666D01*
X222655D01*
X223181Y504396D01*
X198872Y480088D01*
X198150Y479006D01*
X197896Y477730D01*
Y466396D01*
X198150Y465120D01*
X198872Y464038D01*
X238746Y424165D01*
X239000Y423000D01*
X239000Y423000D01*
X239000Y423000D01*
Y413715D01*
X227173Y401888D01*
X226000Y402374D01*
Y416000D01*
X215215D01*
X203000Y428215D01*
Y439500D01*
X163000D01*
Y427715D01*
X151285Y416000D01*
X140000D01*
Y374000D01*
X156000D01*
Y411285D01*
X168215Y423500D01*
X198285D01*
X209936Y411849D01*
Y399730D01*
X210000Y399408D01*
Y374000D01*
X226000D01*
Y393666D01*
X227000D01*
X228276Y393920D01*
X229357Y394642D01*
X243715Y409000D01*
X251000D01*
Y422856D01*
X283481D01*
X283967Y421683D01*
X247285Y385000D01*
X239000D01*
Y371000D01*
X251000D01*
Y379314D01*
X251087Y379372D01*
X290031Y418316D01*
X310969D01*
X324666Y404619D01*
Y317000D01*
X324920Y315724D01*
X325643Y314643D01*
X359642Y280643D01*
X360724Y279920D01*
X362000Y279666D01*
X429244D01*
X479624Y229285D01*
Y228005D01*
X479901Y227339D01*
X479052Y226069D01*
X476478D01*
X430023Y272523D01*
X428866Y273297D01*
X427500Y273569D01*
X386000D01*
X384634Y273297D01*
X383477Y272523D01*
X327477Y216523D01*
X326703Y215366D01*
X326431Y214000D01*
Y160000D01*
X321500D01*
Y160000D01*
X320357Y159527D01*
X312442Y167442D01*
X311780Y167884D01*
X311000Y168039D01*
X298000D01*
X297220Y167884D01*
X296558Y167442D01*
X296116Y166780D01*
X295961Y166000D01*
Y145000D01*
Y138000D01*
Y135000D01*
X296116Y134220D01*
X296558Y133558D01*
X320116Y110000D01*
X320283Y109888D01*
X320425Y109746D01*
X320611Y109670D01*
X320778Y109558D01*
X320961Y109522D01*
Y43000D01*
X44000D01*
Y155000D01*
X133200D01*
Y147000D01*
X134690D01*
Y105850D01*
X134680Y105827D01*
X134440Y104000D01*
X134680Y102173D01*
X135386Y100470D01*
X136000Y99669D01*
Y95500D01*
X147000D01*
Y98000D01*
X153440D01*
Y87000D01*
X147000D01*
Y89500D01*
X136000D01*
Y88039D01*
X102000D01*
X101220Y87884D01*
X100558Y87442D01*
X99116Y86000D01*
X95000D01*
Y76000D01*
X99116D01*
X100558Y74558D01*
X101220Y74116D01*
X102000Y73961D01*
X136000D01*
Y72500D01*
X147000D01*
Y75000D01*
X155000D01*
Y72500D01*
X166000D01*
Y76669D01*
X166614Y77470D01*
X167320Y79173D01*
X167560Y81000D01*
Y96940D01*
X193000D01*
Y95500D01*
X204000D01*
Y98000D01*
X212000D01*
Y95500D01*
X213931D01*
Y89500D01*
X212500D01*
Y72500D01*
X225500D01*
Y89500D01*
X221068D01*
Y95500D01*
X223000D01*
Y97940D01*
X231000D01*
X232827Y98180D01*
X234530Y98885D01*
X235992Y100007D01*
X260992Y125007D01*
X262114Y126470D01*
X262820Y128173D01*
X263060Y130000D01*
Y145000D01*
Y232076D01*
X285924Y254940D01*
X306000D01*
X307827Y255180D01*
X309530Y255886D01*
X310983Y257000D01*
X316000D01*
Y267000D01*
X310983D01*
X309530Y268114D01*
X307827Y268820D01*
X306000Y269060D01*
X283000D01*
X281173Y268820D01*
X279470Y268114D01*
X278008Y266992D01*
X251007Y239992D01*
X249886Y238530D01*
X249180Y236827D01*
X248940Y235000D01*
Y145000D01*
Y132924D01*
X228076Y112060D01*
X223000D01*
Y112500D01*
X212000D01*
Y110000D01*
X204000D01*
Y112500D01*
X202069D01*
Y118500D01*
X206500D01*
Y135500D01*
X193500D01*
Y118500D01*
X194931D01*
Y112500D01*
X193000D01*
Y111060D01*
X166000D01*
Y112500D01*
X155000D01*
Y110000D01*
X148810D01*
Y147000D01*
X150800D01*
Y155000D01*
X224000D01*
Y241000D01*
X65608D01*
Y378000D01*
Y386000D01*
X65181Y388146D01*
X63965Y389965D01*
X62146Y391181D01*
X60000Y391608D01*
X57854Y391181D01*
X56035Y389965D01*
X54819Y388146D01*
X54392Y386000D01*
Y378000D01*
Y241000D01*
X44000D01*
Y539000D01*
X142457D01*
X142943Y537827D01*
D02*
G37*
G36*
X840000Y433000D02*
X782000D01*
Y448000D01*
X805000D01*
X817500Y460500D01*
X820500D01*
Y473500D01*
X820000D01*
Y479500D01*
X820500D01*
Y492500D01*
X820000D01*
Y498500D01*
X820500D01*
Y509500D01*
X803500D01*
Y509000D01*
X803000D01*
Y482000D01*
X781064Y460064D01*
X756000D01*
Y475000D01*
X784000D01*
X793000Y484000D01*
Y503500D01*
X793500D01*
Y520500D01*
X793000D01*
Y526000D01*
X783000Y536000D01*
X167000D01*
X159000Y528000D01*
X159000D01*
Y513000D01*
X130000D01*
Y522000D01*
X144000Y536000D01*
X147000Y539000D01*
X840000D01*
Y433000D01*
D02*
G37*
G36*
X472477Y219977D02*
X473634Y219203D01*
X474675Y218996D01*
X475262Y217787D01*
X473643Y216168D01*
X472920Y215086D01*
X472666Y213810D01*
Y212898D01*
X471768Y212000D01*
X471000D01*
X469730Y212000D01*
X462270D01*
X461000Y212000D01*
X459730Y212000D01*
X442270D01*
X441000Y212000D01*
X439730Y212000D01*
X432270D01*
X431000Y212000D01*
X430232D01*
X429334Y212898D01*
Y243263D01*
X430239Y244168D01*
X431000Y246005D01*
Y247995D01*
X430239Y249832D01*
X428832Y251239D01*
X426995Y252000D01*
X425005D01*
X423168Y251239D01*
X421761Y249832D01*
X421000Y247995D01*
Y246005D01*
X421761Y244168D01*
X422666Y243263D01*
Y212898D01*
X421768Y212000D01*
X421000D01*
X419730Y212000D01*
X412270D01*
X411000Y212000D01*
X411000D01*
D01*
X409730Y212000D01*
D01*
X402039D01*
Y226000D01*
X401884Y226780D01*
X401442Y227442D01*
X400780Y227884D01*
X400000Y228039D01*
X372000D01*
X371220Y227884D01*
X370558Y227442D01*
X370116Y226780D01*
X369961Y226000D01*
Y193000D01*
X370116Y192220D01*
X370558Y191558D01*
X371220Y191116D01*
X372000Y190961D01*
X400000D01*
X400780Y191116D01*
X401442Y191558D01*
X401737Y192000D01*
X409730D01*
X410012Y192000D01*
X411533D01*
X411974Y191559D01*
X411974Y190021D01*
X411000Y189047D01*
D01*
X406997Y185043D01*
X402025D01*
X400659Y184772D01*
X399502Y183998D01*
X389989Y174486D01*
X389216Y173328D01*
X388944Y171962D01*
Y153991D01*
X382673Y147720D01*
X381500Y148206D01*
Y148750D01*
X367500D01*
Y145000D01*
Y136250D01*
X381500D01*
Y138931D01*
X382500D01*
X383866Y139203D01*
X385023Y139977D01*
X395036Y149989D01*
X395809Y151147D01*
X396081Y152513D01*
Y170484D01*
X403503Y177906D01*
X408475D01*
X409730Y178156D01*
X409841Y178178D01*
X410998Y178951D01*
X411691Y179644D01*
X412961Y179118D01*
Y134000D01*
X412961Y134000D01*
X413116Y133220D01*
X413558Y132558D01*
X417961Y128155D01*
Y121060D01*
X417961Y121060D01*
X418116Y120279D01*
X418558Y119618D01*
X418558Y119618D01*
X419398Y118778D01*
Y117571D01*
X428986D01*
Y117888D01*
X429442Y118193D01*
X429884Y118855D01*
X430039Y119635D01*
Y149155D01*
X436845Y155961D01*
X447000D01*
X447780Y156116D01*
X448442Y156558D01*
X448884Y157220D01*
X449039Y158000D01*
Y169155D01*
X452845Y172961D01*
X468155D01*
X471961Y169155D01*
Y158000D01*
X472116Y157220D01*
X472558Y156558D01*
X473220Y156116D01*
X474000Y155961D01*
X489000D01*
X489780Y156116D01*
X490442Y156558D01*
X490884Y157220D01*
X491039Y158000D01*
Y189000D01*
X490884Y189780D01*
X490442Y190442D01*
X490741Y191770D01*
X491000Y192000D01*
X491000D01*
X491000Y192000D01*
X493666D01*
Y174500D01*
X492500D01*
Y157500D01*
X503500D01*
Y162666D01*
X510500D01*
Y157500D01*
X523500D01*
Y174500D01*
X510500D01*
Y169334D01*
X503500D01*
Y174500D01*
X500334D01*
Y192000D01*
X511000D01*
Y198666D01*
X516263D01*
X517168Y197761D01*
X519005Y197000D01*
X520994D01*
X522832Y197761D01*
X524239Y199168D01*
X525000Y201005D01*
Y202995D01*
X524239Y204832D01*
X522832Y206239D01*
X520994Y207000D01*
X519005D01*
X517168Y206239D01*
X516263Y205334D01*
X511000D01*
Y209936D01*
X545420D01*
X548023Y207332D01*
X549105Y206610D01*
X550381Y206356D01*
X568961D01*
Y188845D01*
X541058Y160942D01*
X540616Y160280D01*
X540467Y159533D01*
X539720Y159384D01*
X539058Y158942D01*
X539058Y158942D01*
X537155Y157039D01*
X526340D01*
X526339Y157039D01*
X525559Y156884D01*
X524898Y156442D01*
X501182Y132726D01*
X500605Y132341D01*
X499924Y132205D01*
X498166D01*
X497386Y132050D01*
X496724Y131608D01*
X496724Y131608D01*
X463155Y98039D01*
X385845D01*
X361442Y122442D01*
X360780Y122884D01*
X360000Y123039D01*
X335845D01*
X330057Y128827D01*
X330543Y130000D01*
X338500D01*
Y130681D01*
X346500D01*
Y126750D01*
X360500D01*
Y139250D01*
X357569D01*
Y145000D01*
Y155500D01*
X366500D01*
Y172500D01*
X355500D01*
Y164517D01*
X354392Y164297D01*
X353234Y163523D01*
X351477Y161766D01*
X350703Y160608D01*
X350431Y159243D01*
Y145000D01*
Y139250D01*
X346500D01*
Y137819D01*
X338500D01*
Y141000D01*
X324039D01*
Y145000D01*
Y149000D01*
X338500D01*
Y160000D01*
X333568D01*
Y212522D01*
X387478Y266431D01*
X426022D01*
X472477Y219977D01*
D02*
G37*
G36*
X400000Y193000D02*
X372000D01*
Y226000D01*
X400000D01*
Y193000D01*
D02*
G37*
G36*
X640500Y204794D02*
Y189500D01*
X651500D01*
Y201453D01*
X655230Y205183D01*
X656500Y204657D01*
Y189500D01*
X663655D01*
X664000Y189431D01*
X665379D01*
X665969Y188697D01*
X665444Y187500D01*
X656500D01*
Y170500D01*
X666662D01*
X667000Y169995D01*
Y168309D01*
X666267Y167039D01*
X623000Y167039D01*
X622220Y166884D01*
X621558Y166442D01*
X621116Y165780D01*
X620961Y165000D01*
Y100071D01*
X621116Y99291D01*
X621484Y98740D01*
X621961Y97589D01*
Y96411D01*
X621484Y95260D01*
X621116Y94709D01*
X620961Y93929D01*
Y79000D01*
X621116Y78220D01*
X621558Y77558D01*
X622220Y77116D01*
X623000Y76961D01*
X633000D01*
X633400Y77040D01*
X633761Y76168D01*
X634666Y75263D01*
Y70751D01*
X633500Y70500D01*
Y70500D01*
X622500D01*
Y53500D01*
X621421Y53039D01*
X616039D01*
Y70000D01*
X615884Y70780D01*
X615442Y71442D01*
X614780Y71884D01*
X614000Y72039D01*
X609845D01*
X603039Y78845D01*
Y97961D01*
X613000D01*
X613780Y98116D01*
X614442Y98558D01*
X616442Y100558D01*
X616884Y101220D01*
X617039Y102000D01*
Y117000D01*
X616884Y117780D01*
X616442Y118442D01*
X615780Y118884D01*
X615000Y119039D01*
X604000D01*
X604000Y119039D01*
X603220Y118884D01*
X602558Y118442D01*
X602558Y118442D01*
X595155Y111039D01*
X556000D01*
X555220Y110884D01*
X554558Y110442D01*
X554116Y109780D01*
X553961Y109000D01*
Y97000D01*
X554116Y96220D01*
X554558Y95558D01*
X555220Y95116D01*
X556000Y94961D01*
X583155D01*
X589961Y88155D01*
Y72039D01*
X564000D01*
X564000Y72039D01*
X563220Y71884D01*
X562558Y71442D01*
X557997Y66881D01*
X557092Y66000D01*
X538000Y85092D01*
X518908Y66000D01*
X528696Y56213D01*
X528210Y55039D01*
X484000D01*
Y76000D01*
X484000D01*
X483673Y76789D01*
X499436Y92552D01*
X500653Y91335D01*
X502267Y90402D01*
X504068Y89920D01*
X505932D01*
X507733Y90402D01*
X509347Y91335D01*
X510665Y92653D01*
X511598Y94267D01*
X512080Y96068D01*
Y97932D01*
X511598Y99733D01*
X510665Y101347D01*
X509448Y102564D01*
X527211Y120327D01*
X528000Y120000D01*
Y120000D01*
X555000D01*
Y141953D01*
X589478Y176431D01*
X609000D01*
X610366Y176703D01*
X611523Y177477D01*
X639327Y205280D01*
X640500Y204794D01*
D02*
G37*
G36*
X489000Y158000D02*
X474000D01*
Y170000D01*
X469000Y175000D01*
X452000D01*
X447000Y170000D01*
Y158000D01*
X436000D01*
X428000Y150000D01*
Y119635D01*
X421424D01*
X420000Y121060D01*
Y129000D01*
X415000Y134000D01*
Y180000D01*
X469000D01*
X478000Y189000D01*
X489000D01*
Y158000D01*
D02*
G37*
G36*
X724650Y165650D02*
X733000D01*
Y156474D01*
X724037Y147510D01*
X716719Y154828D01*
Y160250D01*
X716447Y161616D01*
X716350Y161761D01*
Y165750D01*
X724650D01*
Y165650D01*
D02*
G37*
G36*
X668929Y165000D02*
X669168Y164761D01*
X671005Y164000D01*
X672995D01*
X674832Y164761D01*
X675071Y165000D01*
X677000D01*
X699831Y142169D01*
X699920Y141724D01*
X700642Y140642D01*
X703000Y138285D01*
Y131000D01*
X693000D01*
X689000Y135000D01*
Y135995D01*
X688239Y137832D01*
X686832Y139239D01*
X684995Y140000D01*
X683005D01*
X681168Y139239D01*
X679929Y138000D01*
X651000Y138000D01*
X634000Y121000D01*
Y82071D01*
X633761Y81832D01*
X633000Y79995D01*
Y79000D01*
X623000D01*
Y93929D01*
X623239Y94168D01*
X624000Y96005D01*
Y97995D01*
X623239Y99832D01*
X623000Y100071D01*
Y165000D01*
X668929Y165000D01*
D02*
G37*
G36*
X724650Y190650D02*
Y180650D01*
Y167789D01*
X716350D01*
X715570Y167634D01*
X715145Y167350D01*
X704650D01*
Y161499D01*
X704431Y160400D01*
Y146550D01*
X704703Y145185D01*
X705477Y144027D01*
X729527Y119977D01*
X730685Y119203D01*
X732050Y118931D01*
X747950D01*
X749315Y119203D01*
X750473Y119977D01*
X752523Y122027D01*
X753297Y123185D01*
X753385Y123626D01*
X754500Y124000D01*
X754500Y124000D01*
X771500D01*
Y135000D01*
X754500D01*
Y133069D01*
X752000D01*
X750634Y132797D01*
X749770Y132219D01*
X748500Y132674D01*
Y135000D01*
X736547D01*
X734797Y136750D01*
X744038Y145992D01*
X745115Y145272D01*
X745000Y144995D01*
Y143005D01*
X745761Y141168D01*
X747168Y139761D01*
X749005Y139000D01*
X750995D01*
X752832Y139761D01*
X754239Y141168D01*
X755000Y143005D01*
Y144995D01*
X754239Y146832D01*
X753334Y147737D01*
Y149121D01*
X754507Y149607D01*
X759472Y144642D01*
X760553Y143920D01*
X761829Y143666D01*
X779548D01*
X795666Y127548D01*
Y106000D01*
X795823Y105209D01*
X794914Y104235D01*
X794829Y104194D01*
X794125Y104334D01*
X792500D01*
Y114000D01*
X779500D01*
Y113731D01*
X771500D01*
Y116000D01*
X754500D01*
Y112174D01*
X753821Y111720D01*
X752364Y110263D01*
X751500Y109561D01*
X750636Y110263D01*
X749178Y111720D01*
X748500Y112174D01*
Y116000D01*
X731500D01*
Y113982D01*
X722500D01*
Y114500D01*
X709500D01*
Y108043D01*
X708327Y107557D01*
X707442Y108442D01*
X707442Y108442D01*
X703440Y112444D01*
X703105Y112668D01*
X702780Y112885D01*
X702779Y112885D01*
X702779Y112886D01*
X702391Y112963D01*
X702000Y113041D01*
X701999Y113041D01*
X701998Y113041D01*
X701990Y113039D01*
X700411D01*
X699323Y113490D01*
X698490Y114323D01*
X698039Y115411D01*
Y116990D01*
X698041Y116998D01*
X698041Y116999D01*
X698041Y117000D01*
X697963Y117391D01*
X697886Y117779D01*
X697885Y117779D01*
X697885Y117780D01*
X697668Y118105D01*
X697443Y118440D01*
X691039Y124845D01*
Y128400D01*
X691305Y128705D01*
X691479Y128821D01*
X692200Y129129D01*
X692220Y129116D01*
X693000Y128961D01*
X703000D01*
X703780Y129116D01*
X704442Y129558D01*
X704884Y130220D01*
X705039Y131000D01*
Y138285D01*
X705039Y138285D01*
X704884Y139065D01*
X704442Y139727D01*
X704442Y139727D01*
X702226Y141942D01*
X701841Y142520D01*
X701831Y142566D01*
X701755Y142752D01*
X701715Y142949D01*
X701604Y143116D01*
X701527Y143302D01*
X701385Y143444D01*
X701273Y143611D01*
X692607Y152277D01*
X693093Y153450D01*
X701350D01*
Y167350D01*
X691350D01*
Y180650D01*
Y190650D01*
Y200650D01*
X724650D01*
Y190650D01*
D02*
G37*
G36*
X585000Y185000D02*
X547000Y147000D01*
X528000D01*
Y124000D01*
X507626Y103626D01*
X505932Y104080D01*
X504068D01*
X502267Y103597D01*
X500653Y102665D01*
X499335Y101347D01*
X498402Y99733D01*
X497920Y97932D01*
Y96068D01*
X498374Y94374D01*
X480000Y76000D01*
X457000D01*
Y71000D01*
X441884D01*
X440442Y72442D01*
X439780Y72884D01*
X439000Y73039D01*
X392845D01*
X354442Y111442D01*
X353780Y111884D01*
X353000Y112039D01*
X323000D01*
X322220Y111884D01*
X321558Y111442D01*
X298000Y135000D01*
Y138000D01*
Y166000D01*
X311000D01*
X321500Y155500D01*
Y149000D01*
X322000D01*
Y141000D01*
X321500D01*
Y130000D01*
X326000D01*
X335000Y121000D01*
X360000D01*
X385000Y96000D01*
X464000D01*
X498166Y130166D01*
X500124D01*
X501400Y130420D01*
X502482Y131143D01*
X526339Y155000D01*
X538000D01*
X540500Y157500D01*
X542500D01*
Y159500D01*
X571000Y188000D01*
Y206356D01*
X585000D01*
Y185000D01*
D02*
G37*
G36*
X689000Y128401D02*
Y124000D01*
X696002Y116998D01*
X696000Y116995D01*
Y115005D01*
X696761Y113168D01*
X698168Y111761D01*
X700005Y111000D01*
X701995D01*
X701998Y111002D01*
X706000Y107000D01*
X706000D01*
X711000Y102000D01*
X741000D01*
X744000Y99000D01*
Y84000D01*
X736000D01*
Y93000D01*
X733000Y96000D01*
Y96000D01*
Y97500D01*
X713000D01*
Y95000D01*
X711000Y93000D01*
Y91000D01*
X696000Y76000D01*
X674500D01*
Y74000D01*
X649000D01*
Y84000D01*
X670000D01*
X675000Y89000D01*
Y107000D01*
X675000D01*
Y129375D01*
X675442Y129558D01*
X688361D01*
X689000Y128401D01*
D02*
G37*
G36*
X144000Y76000D02*
X102000D01*
X100000Y78000D01*
Y84000D01*
X102000Y86000D01*
X144000D01*
Y76000D01*
D02*
G37*
G36*
X679000Y135961D02*
Y134005D01*
X679472Y132867D01*
X678672Y131597D01*
X675442D01*
X674662Y131442D01*
X674220Y131259D01*
X673558Y130817D01*
X673558Y130817D01*
X673116Y130155D01*
X672961Y129375D01*
Y107000D01*
X672961Y107000D01*
Y89845D01*
X669155Y86039D01*
X649000D01*
X648220Y85884D01*
X647645Y85500D01*
X647500D01*
Y85355D01*
X647116Y84780D01*
X646961Y84000D01*
Y74000D01*
X647116Y73220D01*
X647500Y72645D01*
Y72500D01*
X647645D01*
X648220Y72116D01*
X649000Y71961D01*
X672961D01*
Y57845D01*
X668155Y53039D01*
X634579D01*
X633500Y53500D01*
Y58666D01*
X636512D01*
X637788Y58920D01*
X638870Y59643D01*
X640358Y61130D01*
X641080Y62212D01*
X641334Y63488D01*
Y75263D01*
X642239Y76168D01*
X643000Y78005D01*
Y79995D01*
X642239Y81832D01*
X640832Y83239D01*
X638994Y84000D01*
X637005D01*
X636039Y84646D01*
Y120155D01*
X651845Y135961D01*
X679000Y135961D01*
D02*
G37*
G36*
X615000Y102000D02*
X613000Y100000D01*
X601000D01*
Y78000D01*
X609000Y70000D01*
X614000D01*
Y53039D01*
X596961D01*
X592039Y57961D01*
Y70000D01*
X592000Y70197D01*
Y89000D01*
X584000Y97000D01*
X556000D01*
Y109000D01*
X596000D01*
X604000Y117000D01*
X615000D01*
Y102000D01*
D02*
G37*
G36*
X392000Y71000D02*
X439000D01*
X457000Y53000D01*
Y49000D01*
X484000D01*
Y53000D01*
X531908D01*
X538000Y46908D01*
X544092Y53000D01*
X547000D01*
X564000Y70000D01*
X590000D01*
Y56000D01*
X595000Y51000D01*
X669000D01*
X675000Y57000D01*
Y72060D01*
X675280Y72116D01*
X675942Y72558D01*
X676384Y73220D01*
X676531Y73961D01*
X696000D01*
X696780Y74116D01*
X697442Y74558D01*
X697442Y74558D01*
X697884Y75000D01*
X704000D01*
Y43000D01*
X323000D01*
Y110000D01*
X353000D01*
X392000Y71000D01*
D02*
G37*
%LPC*%
G36*
X751000Y531334D02*
X704500D01*
X703224Y531080D01*
X702142Y530358D01*
X691285Y519500D01*
X685000D01*
Y502500D01*
X689666D01*
Y494000D01*
X684500D01*
Y483000D01*
X701500D01*
Y494000D01*
X696334D01*
Y505500D01*
X696080Y506776D01*
X696000Y506896D01*
Y514785D01*
X701691Y520476D01*
X702961Y519950D01*
Y504000D01*
X703116Y503220D01*
X703558Y502558D01*
X704220Y502116D01*
X705000Y501961D01*
X736000D01*
X736780Y502116D01*
X737442Y502558D01*
X737884Y503220D01*
X738039Y504000D01*
Y521000D01*
X737884Y521780D01*
X737442Y522442D01*
X736780Y522884D01*
X736000Y523039D01*
X707192D01*
X706513Y524309D01*
X706751Y524666D01*
X749619D01*
X752050Y522235D01*
Y517429D01*
X750590D01*
Y506571D01*
X760178D01*
Y508666D01*
X766500D01*
Y503500D01*
X777500D01*
Y520500D01*
X766500D01*
Y515334D01*
X760178D01*
Y517429D01*
X758718D01*
Y523616D01*
X758464Y524892D01*
X757741Y525974D01*
X753357Y530358D01*
X752276Y531080D01*
X751000Y531334D01*
D02*
G37*
G36*
X753750Y499000D02*
X753750Y499000D01*
X744250D01*
Y490842D01*
X744186Y490520D01*
Y485901D01*
X739619Y481334D01*
X730881D01*
X725500Y486715D01*
Y495000D01*
X708500D01*
Y486715D01*
X696849Y475064D01*
X695230D01*
X694908Y475000D01*
X684500D01*
Y464000D01*
X701500D01*
Y470285D01*
X713215Y482000D01*
X720785D01*
X727142Y475643D01*
X728224Y474920D01*
X729500Y474666D01*
X741000D01*
X742276Y474920D01*
X743357Y475643D01*
X749877Y482162D01*
X750600Y483244D01*
X750854Y484520D01*
Y485000D01*
X752480D01*
X753750Y485000D01*
Y485000D01*
X753750D01*
Y485000D01*
X763250D01*
Y499000D01*
X755020D01*
X753750Y499000D01*
D02*
G37*
G36*
X653932Y529080D02*
X652068D01*
X650267Y528597D01*
X648653Y527665D01*
X647335Y526347D01*
X646403Y524733D01*
X645920Y522932D01*
Y521068D01*
X646403Y519267D01*
X647335Y517653D01*
X648653Y516335D01*
X648697Y516309D01*
X648356Y515039D01*
X637000D01*
X636220Y514884D01*
X635558Y514442D01*
X635116Y513780D01*
X634961Y513000D01*
Y500845D01*
X627155Y493039D01*
X615000D01*
X614220Y492884D01*
X613558Y492442D01*
X613116Y491780D01*
X612961Y491000D01*
Y482000D01*
X611963Y480834D01*
X602398D01*
X601500Y481732D01*
Y482250D01*
X601500D01*
Y482250D01*
X601500D01*
Y487354D01*
X601580Y487474D01*
X601834Y488750D01*
Y501000D01*
X605000D01*
Y518000D01*
X592000D01*
Y501000D01*
X595166D01*
Y491750D01*
X587500D01*
Y483520D01*
X587500Y482250D01*
X587500D01*
Y482250D01*
X587500D01*
Y472750D01*
X601500D01*
Y474166D01*
X621962D01*
X622059Y474020D01*
X621381Y472750D01*
X614500D01*
Y463250D01*
X618166D01*
Y454000D01*
X612500D01*
Y437000D01*
X623500D01*
Y449285D01*
X623857Y449642D01*
X624580Y450724D01*
X624834Y452000D01*
Y463250D01*
X627666D01*
Y453000D01*
X627920Y451724D01*
X628643Y450643D01*
X633642Y445643D01*
X634724Y444920D01*
X636000Y444666D01*
X636500D01*
Y437000D01*
X647500D01*
Y454000D01*
X636500D01*
Y453874D01*
X635327Y453388D01*
X634334Y454381D01*
Y459104D01*
X635330Y459474D01*
X635604Y459527D01*
X636220Y459116D01*
X637000Y458961D01*
X649000D01*
X649780Y459116D01*
X650442Y459558D01*
X650884Y460220D01*
X651039Y461000D01*
Y513000D01*
X650884Y513780D01*
X650768Y513953D01*
X651559Y515056D01*
X652068Y514920D01*
X653932D01*
X655733Y515402D01*
X657347Y516335D01*
X658665Y517653D01*
X659597Y519267D01*
X660080Y521068D01*
Y522932D01*
X659597Y524733D01*
X658665Y526347D01*
X657347Y527665D01*
X655733Y528597D01*
X653932Y529080D01*
D02*
G37*
G36*
X481000Y452000D02*
X479730Y452000D01*
X472270D01*
X471000Y452000D01*
X469730Y452000D01*
X461000D01*
Y432000D01*
X469730D01*
X471000Y432000D01*
X472270Y432000D01*
X479730D01*
X481000Y432000D01*
X482270Y432000D01*
X491000D01*
Y452000D01*
X481000Y452000D01*
D02*
G37*
G36*
X666500Y478000D02*
X655500D01*
Y461000D01*
X658166D01*
Y454000D01*
X655500D01*
Y437000D01*
X658166D01*
Y429237D01*
X657761Y428832D01*
X657000Y426995D01*
Y425005D01*
X657761Y423168D01*
X659168Y421761D01*
X661005Y421000D01*
X662995D01*
X664832Y421761D01*
X666239Y423168D01*
X667000Y425005D01*
Y426995D01*
X666239Y428832D01*
X664834Y430237D01*
Y437000D01*
X666500D01*
Y454000D01*
X664834D01*
Y461000D01*
X666500D01*
Y478000D01*
D02*
G37*
G36*
X556000Y397000D02*
X536000D01*
Y388270D01*
X536000Y387000D01*
X536000Y385732D01*
X535102Y384834D01*
X474237D01*
X473832Y385239D01*
X471995Y386000D01*
X470005D01*
X468168Y385239D01*
X466761Y383832D01*
X466000Y381995D01*
Y380005D01*
X466761Y378168D01*
X468168Y376761D01*
X470005Y376000D01*
X471995D01*
X473832Y376761D01*
X475237Y378166D01*
X499502D01*
X499754Y376896D01*
X498168Y376239D01*
X496761Y374832D01*
X496000Y372995D01*
Y371005D01*
X496761Y369168D01*
X498055Y367874D01*
X497989Y367349D01*
X497665Y366604D01*
X473206D01*
X471930Y366350D01*
X471249Y365895D01*
X470994Y366000D01*
X469005D01*
X467168Y365239D01*
X465761Y363832D01*
X465000Y361995D01*
Y360005D01*
X465761Y358168D01*
X467168Y356761D01*
X469005Y356000D01*
X470994D01*
X472832Y356761D01*
X474239Y358168D01*
X474971Y359936D01*
X479430D01*
X480278Y358666D01*
X480000Y357995D01*
Y356005D01*
X480761Y354168D01*
X482168Y352761D01*
X484005Y352000D01*
X485285D01*
X487643Y349642D01*
X488095Y349340D01*
X487961Y348666D01*
Y241000D01*
X488116Y240220D01*
X488558Y239558D01*
X489220Y239116D01*
X490000Y238961D01*
X509000D01*
X509780Y239116D01*
X510442Y239558D01*
X510884Y240220D01*
X511039Y241000D01*
Y348666D01*
X536000D01*
Y347000D01*
X556000D01*
Y355730D01*
X556000Y357000D01*
X556000D01*
Y357000D01*
X556000D01*
Y365730D01*
X556000Y367000D01*
X556000Y368270D01*
Y375730D01*
X556000Y377000D01*
X556000Y378270D01*
Y385730D01*
X556000Y387000D01*
X556000Y388270D01*
Y397000D01*
D02*
G37*
G36*
Y337000D02*
X536000D01*
Y328270D01*
X536000Y327000D01*
X536000Y325730D01*
Y318270D01*
X536000Y317000D01*
X536000Y315730D01*
Y308270D01*
X536000Y307000D01*
X536000Y305730D01*
Y297000D01*
Y288270D01*
X536000Y287000D01*
X536000Y285730D01*
Y278270D01*
X536000Y277000D01*
X536000Y275730D01*
Y268270D01*
X536000Y267000D01*
X536000Y265730D01*
Y258270D01*
X536000Y257000D01*
X536000Y255730D01*
Y247000D01*
X556000D01*
Y255730D01*
X556000Y257000D01*
X556000Y258270D01*
Y265730D01*
X556000Y267000D01*
X556000Y268270D01*
Y275730D01*
X556000Y277000D01*
X556000Y278270D01*
Y285730D01*
X556000Y287000D01*
X556000Y288270D01*
Y297000D01*
Y305730D01*
X556000Y307000D01*
X556000Y308270D01*
Y315730D01*
X556000Y317000D01*
X556000Y318270D01*
Y325730D01*
X556000Y327000D01*
X556000Y328270D01*
Y337000D01*
D02*
G37*
%LPD*%
G36*
X736000Y504000D02*
X705000D01*
Y521000D01*
X736000D01*
Y504000D01*
D02*
G37*
G36*
X649000Y461000D02*
X637000D01*
Y474000D01*
X629000Y482000D01*
X615000D01*
Y491000D01*
X628000D01*
X637000Y500000D01*
Y513000D01*
X649000D01*
Y461000D01*
D02*
G37*
G36*
X509000Y241000D02*
X490000D01*
Y348666D01*
X509000D01*
Y241000D01*
D02*
G37*
%LPC*%
G36*
X836000Y172039D02*
X797000D01*
X796220Y171884D01*
X795558Y171442D01*
X795116Y170780D01*
X794961Y170000D01*
Y159000D01*
X795116Y158220D01*
X795558Y157558D01*
X796220Y157116D01*
X797000Y156961D01*
X836000D01*
X836780Y157116D01*
X837442Y157558D01*
X837884Y158220D01*
X838039Y159000D01*
Y170000D01*
X837884Y170780D01*
X837442Y171442D01*
X836780Y171884D01*
X836000Y172039D01*
D02*
G37*
G36*
X836500Y151000D02*
X819500D01*
Y140000D01*
X826431D01*
Y127000D01*
X824000D01*
Y115000D01*
X836000D01*
Y127000D01*
X833569D01*
Y140000D01*
X836500D01*
Y151000D01*
D02*
G37*
%LPD*%
G36*
X836000Y159000D02*
X797000D01*
Y170000D01*
X836000D01*
Y159000D01*
D02*
G37*
%LPC*%
G36*
X77932Y526080D02*
X76068D01*
X74267Y525597D01*
X72653Y524665D01*
X71335Y523347D01*
X70402Y521733D01*
X69920Y519932D01*
Y518068D01*
X70402Y516267D01*
X71335Y514653D01*
X72653Y513335D01*
X74267Y512402D01*
X76068Y511920D01*
X77932D01*
X79733Y512402D01*
X81347Y513335D01*
X82665Y514653D01*
X83597Y516267D01*
X84080Y518068D01*
Y519932D01*
X83597Y521733D01*
X82665Y523347D01*
X81347Y524665D01*
X79733Y525597D01*
X77932Y526080D01*
D02*
G37*
G36*
X160000Y508000D02*
X148000D01*
Y496000D01*
X150666D01*
Y486500D01*
X148500D01*
Y475500D01*
X165500D01*
Y486500D01*
X157334D01*
Y496000D01*
X160000D01*
Y508000D01*
D02*
G37*
G36*
X141000D02*
X129000D01*
Y496000D01*
X131666D01*
Y486500D01*
X123500D01*
Y475500D01*
X140500D01*
Y486500D01*
X138334D01*
Y496000D01*
X141000D01*
Y508000D01*
D02*
G37*
G36*
X195500Y505750D02*
X181500D01*
Y497965D01*
X171642Y488107D01*
X170920Y487026D01*
X170666Y485750D01*
Y477381D01*
X160785Y467500D01*
X148500D01*
Y458564D01*
X143151D01*
X140500Y461215D01*
Y467500D01*
X123500D01*
Y456500D01*
X135785D01*
X139412Y452873D01*
X140494Y452150D01*
X141770Y451896D01*
X164854D01*
X166130Y452150D01*
X167212Y452873D01*
X173505Y459166D01*
X181500D01*
Y456250D01*
X195500D01*
Y468750D01*
X181500D01*
Y465834D01*
X172124D01*
X170849Y465580D01*
X169767Y464858D01*
X167535Y462626D01*
X166159Y463046D01*
X166094Y463379D01*
X176357Y473643D01*
X177080Y474724D01*
X177334Y476000D01*
Y484369D01*
X186215Y493250D01*
X195500D01*
Y505750D01*
D02*
G37*
G36*
X316000Y397000D02*
X296000D01*
Y387000D01*
X316000D01*
Y397000D01*
D02*
G37*
G36*
Y377000D02*
X296000D01*
Y368270D01*
X296000Y367000D01*
X296000Y365730D01*
Y358270D01*
X296000Y357000D01*
X296000Y355730D01*
Y347000D01*
Y338270D01*
X296000Y337000D01*
X296000Y335730D01*
Y328270D01*
X296000Y327000D01*
X296000Y325730D01*
Y318270D01*
X296000Y317000D01*
X296000Y315730D01*
Y308270D01*
X296000Y307000D01*
X296000Y305730D01*
Y297000D01*
Y287000D01*
X316000D01*
Y297000D01*
Y305730D01*
X316000Y307000D01*
X316000Y308270D01*
Y315730D01*
X316000Y317000D01*
X316000Y318270D01*
Y325730D01*
X316000Y327000D01*
X316000Y328270D01*
Y335730D01*
X316000Y337000D01*
X316000Y338270D01*
Y347000D01*
Y355730D01*
X316000Y357000D01*
X316000Y358270D01*
Y365730D01*
X316000Y367000D01*
X316000Y368270D01*
Y377000D01*
D02*
G37*
G36*
X216000Y353000D02*
X193000D01*
Y330000D01*
X201166D01*
Y287512D01*
X200061Y287216D01*
X197439Y285702D01*
X195298Y283561D01*
X193784Y280939D01*
X193000Y278014D01*
Y274986D01*
X193784Y272061D01*
X195298Y269439D01*
X197439Y267298D01*
X200061Y265784D01*
X202986Y265000D01*
X206014D01*
X208939Y265784D01*
X211561Y267298D01*
X213702Y269439D01*
X215216Y272061D01*
X216000Y274986D01*
Y278014D01*
X215216Y280939D01*
X213702Y283561D01*
X211561Y285702D01*
X208939Y287216D01*
X207834Y287512D01*
Y330000D01*
X216000D01*
Y353000D01*
D02*
G37*
G36*
X270932Y73080D02*
X269068D01*
X267267Y72597D01*
X265653Y71665D01*
X264335Y70347D01*
X263403Y68733D01*
X262920Y66932D01*
Y65068D01*
X263403Y63267D01*
X264335Y61653D01*
X265653Y60335D01*
X267267Y59402D01*
X269068Y58920D01*
X270932D01*
X272733Y59402D01*
X274347Y60335D01*
X275665Y61653D01*
X276597Y63267D01*
X277080Y65068D01*
Y66932D01*
X276597Y68733D01*
X275665Y70347D01*
X274347Y71665D01*
X272733Y72597D01*
X270932Y73080D01*
D02*
G37*
G36*
X651500Y187500D02*
X640500D01*
Y186227D01*
X639230Y185841D01*
X638832Y186239D01*
X636995Y187000D01*
X635005D01*
X633168Y186239D01*
X631761Y184832D01*
X631000Y182995D01*
Y181005D01*
X631761Y179168D01*
X633168Y177761D01*
X635005Y177000D01*
X636995D01*
X638832Y177761D01*
X639230Y178159D01*
X640500Y177773D01*
Y170500D01*
X651500D01*
Y187500D01*
D02*
G37*
G36*
X581995Y139000D02*
X580005D01*
X578168Y138239D01*
X576761Y136832D01*
X576000Y134995D01*
Y133005D01*
X576761Y131168D01*
X577431Y130498D01*
Y127500D01*
X572500D01*
Y116500D01*
X589500D01*
Y127500D01*
X584569D01*
Y130498D01*
X585239Y131168D01*
X586000Y133005D01*
Y134995D01*
X585239Y136832D01*
X583832Y138239D01*
X581995Y139000D01*
D02*
G37*
G36*
X656994Y131000D02*
X655005D01*
X653168Y130239D01*
X651761Y128832D01*
X651000Y126995D01*
Y125005D01*
X651719Y123270D01*
X651532Y122742D01*
X651133Y122000D01*
X647500D01*
Y111000D01*
X664500D01*
Y122000D01*
X660867D01*
X660468Y122742D01*
X660281Y123270D01*
X661000Y125005D01*
Y126995D01*
X660239Y128832D01*
X658832Y130239D01*
X656994Y131000D01*
D02*
G37*
%LPD*%
D12*
X330000Y214000D02*
X386000Y270000D01*
X427500D01*
X475000Y222500D01*
X636000Y182000D02*
X646000D01*
X475000Y222500D02*
X487709D01*
X678000Y255000D02*
X678300Y254700D01*
X741800Y232500D02*
Y251200D01*
X729000Y264000D02*
X741800Y251200D01*
X665600Y254600D02*
X666000Y255000D01*
X665600Y232500D02*
Y254600D01*
X678300Y232500D02*
Y254700D01*
X703700Y232500D02*
Y254700D01*
X704000Y255000D01*
X729000Y272000D02*
X733000D01*
X754500Y250500D01*
X743000Y279000D02*
X752000Y270000D01*
X605100Y244100D02*
X640000Y279000D01*
X743000D01*
X754500Y232500D02*
Y250500D01*
X752000Y263000D02*
Y270000D01*
X662000Y181000D02*
X664000Y179000D01*
X662000Y181000D02*
Y182000D01*
X664000Y179000D02*
X684400D01*
X353500Y133000D02*
X354000Y133500D01*
Y159243D01*
X355757Y161000D01*
X359000D01*
X361000Y163000D02*
Y164000D01*
X359000Y161000D02*
X361000Y163000D01*
X198500Y104000D02*
Y125500D01*
X200000Y127000D01*
X713150Y153350D02*
X722976Y143524D01*
X737000Y129500D02*
X739555D01*
X729750Y136750D02*
X737000Y129500D01*
X729750Y136750D02*
X743867Y150867D01*
X738154Y156581D02*
X743867Y150867D01*
X724037Y142463D02*
X738154Y156581D01*
X722976Y143524D02*
X724037Y142463D01*
X739555Y129500D02*
X740000D01*
X487709Y222500D02*
X487789Y222580D01*
X550657D01*
X551737Y221500D02*
X608050D01*
X610100Y223550D01*
X550657Y222580D02*
X551737Y221500D01*
X217500Y82500D02*
X219000Y81000D01*
X217500Y82500D02*
Y104000D01*
X374500Y142500D02*
X382500D01*
X392513Y171962D02*
X402025Y181475D01*
X382500Y142500D02*
X392513Y152513D01*
X408475Y181475D02*
X416000Y189000D01*
X402025Y181475D02*
X408475D01*
X392513Y152513D02*
Y171962D01*
X416000Y189000D02*
Y202000D01*
X352250Y134250D02*
X353500Y133000D01*
X330000Y135500D02*
X331250Y134250D01*
X352250D01*
X330000Y154500D02*
Y214000D01*
X610100Y224800D02*
X614800Y229500D01*
X610100Y223550D02*
Y224800D01*
X614800Y229500D02*
Y232500D01*
X590000Y233000D02*
X590500Y232500D01*
X602100D01*
X581000Y122000D02*
Y134000D01*
X541500Y133500D02*
X588000Y180000D01*
X609000D01*
X649900Y220900D01*
Y229500D02*
X652900Y232500D01*
X649900Y220900D02*
Y229500D01*
X716400Y232500D02*
X718000Y234100D01*
Y248000D01*
X729000Y232600D02*
Y248000D01*
Y232600D02*
X729100Y232500D01*
X646000Y198000D02*
Y201000D01*
X654426Y209426D02*
Y210426D01*
X646000Y201000D02*
X654426Y209426D01*
Y210426D02*
X655000Y211000D01*
X605100Y235500D02*
Y244100D01*
X602100Y232500D02*
X605100Y235500D01*
X801500Y189000D02*
Y191000D01*
X703000Y179000D02*
X708000Y184000D01*
Y146550D02*
Y160400D01*
Y146550D02*
X732050Y122500D01*
X747950D01*
X750000Y124550D01*
Y127500D01*
X752000Y129500D01*
X763000D01*
X713150Y153350D02*
Y160250D01*
X713000Y160400D02*
X713150Y160250D01*
X805000Y145500D02*
X808000D01*
X813000Y121000D02*
Y140500D01*
X808000Y145500D02*
X813000Y140500D01*
X830000Y121000D02*
Y143500D01*
X828000Y145500D02*
X830000Y143500D01*
X773500Y168500D02*
X794000Y189000D01*
X773500Y167000D02*
Y168500D01*
X794000Y189000D02*
X801500D01*
X662000Y195000D02*
X664000Y193000D01*
X667000D01*
X676000Y184000D01*
X662000Y195000D02*
Y198000D01*
X676000Y184000D02*
X684400D01*
D15*
X141500Y104000D02*
X141750Y104250D01*
Y151850D01*
X520000Y457000D02*
Y477500D01*
X506000Y442000D02*
Y443000D01*
X520000Y457000D01*
X519500Y478000D02*
X520000Y477500D01*
X399900Y498000D02*
X400000D01*
X420000Y478000D02*
X463000D01*
X400000Y498000D02*
X420000Y478000D01*
X218500Y105000D02*
X231000D01*
X256000Y130000D01*
X217500Y104000D02*
X218500Y105000D01*
X256000Y130000D02*
Y235000D01*
X283000Y262000D01*
X306000D01*
X500500Y478000D02*
Y517000D01*
X480500Y518000D02*
X481500Y517000D01*
X470000Y518000D02*
X480500D01*
X482000Y478000D02*
X500500D01*
X160500Y81000D02*
Y104000D01*
X198500D01*
D16*
X738750Y495000D02*
X739500Y494250D01*
Y492000D02*
Y494250D01*
X732541Y497000D02*
X734541Y495000D01*
X738750D01*
X732000Y497000D02*
X732541D01*
X739500Y492000D02*
Y494250D01*
X656250Y97750D02*
X668750D01*
X669000Y98000D01*
X656000Y97500D02*
X656250Y97750D01*
X656000Y60000D02*
X669000D01*
X24000Y444000D02*
X57000D01*
X57000Y444000D01*
X56000Y452000D02*
X57000Y453000D01*
X24000Y452000D02*
X56000D01*
X24000Y460000D02*
X59000D01*
X59000Y460000D01*
X24000Y468000D02*
X57000D01*
X58000Y469000D01*
X24000Y476000D02*
X58000D01*
X58000Y476000D01*
X24000Y484000D02*
X58000D01*
X59000Y485000D01*
X24000Y492000D02*
X58000D01*
X58000Y492000D01*
X24000Y500000D02*
X56000D01*
X56000Y500000D01*
X761000Y257672D02*
X767200Y251472D01*
Y229500D02*
Y251472D01*
X761000Y257672D02*
Y258000D01*
X556000Y408000D02*
X563000Y401000D01*
Y342000D02*
Y401000D01*
X577000Y387000D01*
X691750Y457750D02*
X692000Y458000D01*
X691500Y440500D02*
X691750Y440750D01*
X691617Y458383D02*
X692000Y458000D01*
X662250Y489750D02*
Y525591D01*
X691750Y440750D02*
Y457750D01*
X688460Y458383D02*
X691617D01*
X676230Y470613D02*
Y475770D01*
Y470613D02*
X688460Y458383D01*
X662250Y489750D02*
X676230Y475770D01*
X618500Y97000D02*
X619000D01*
X609500Y88000D02*
X618500Y97000D01*
X690000Y349000D02*
X697000D01*
X704778Y335000D02*
X709500Y330278D01*
X706389Y336611D02*
X709500Y339722D01*
X704778Y335000D02*
X706389Y336611D01*
X704000Y337500D02*
Y342000D01*
Y337500D02*
X704889Y336611D01*
X706389D01*
X704000Y321000D02*
Y328000D01*
X690000Y321000D02*
X697000D01*
X683000D02*
X690000D01*
Y328000D01*
Y335000D02*
X697000D01*
X690000D02*
Y342000D01*
X683000Y335000D02*
X690000D01*
X676000Y321000D02*
Y328000D01*
X670500Y344278D02*
X676000Y349778D01*
X676000Y335000D02*
Y342000D01*
X676000Y349778D02*
X676778Y349000D01*
X683000D01*
X772700Y227000D02*
X795700Y204000D01*
X767200Y229500D02*
X769700Y227000D01*
X772700D01*
X795700Y204000D02*
X821000D01*
X277000Y442000D02*
X346000D01*
X266000Y453000D02*
Y464000D01*
Y453000D02*
X277000Y442000D01*
X556000Y451000D02*
Y460000D01*
Y408000D02*
Y451000D01*
X448756Y133500D02*
Y136244D01*
X439000Y146000D02*
X448756Y136244D01*
X747000Y371000D02*
X767200Y391200D01*
X725000Y349000D02*
X747000Y371000D01*
X767200Y391200D02*
Y407500D01*
X704778Y349000D02*
X725000D01*
X704000D02*
X704778D01*
X675222Y335000D02*
X676000D01*
X670500Y339722D02*
X675222Y335000D01*
X670500Y339722D02*
Y344278D01*
Y330278D02*
X675222Y335000D01*
X670500Y325722D02*
Y330278D01*
Y325722D02*
X675222Y321000D01*
X676000D01*
X690000Y320222D02*
X694722Y315500D01*
X690000Y320222D02*
Y321000D01*
X676000Y320222D02*
Y321000D01*
Y320222D02*
X680722Y315500D01*
X685278D01*
X690000Y320222D01*
X699278Y315500D02*
X704000Y320222D01*
Y321000D01*
X694722Y315500D02*
X699278D01*
X704778Y335000D02*
X704778D01*
X704000D02*
X704778D01*
X704000Y321000D02*
X704778D01*
X709500Y325722D01*
Y330278D01*
Y339722D02*
Y344278D01*
X704778Y349000D02*
X709500Y344278D01*
X704000Y349000D02*
Y349778D01*
X699278Y354500D02*
X704000Y349778D01*
X694722Y354500D02*
X699278D01*
X690000Y349778D02*
X694722Y354500D01*
X690000Y349000D02*
Y349778D01*
X258000Y472000D02*
X266000Y464000D01*
X248500Y472000D02*
X258000D01*
X266000Y464000D02*
Y464541D01*
X265000Y465541D02*
Y487000D01*
Y465541D02*
X266000Y464541D01*
X265000Y487000D02*
Y511000D01*
X346000Y442000D02*
Y456000D01*
X346000Y456000D02*
X346000Y456000D01*
X609500Y143500D02*
Y155000D01*
Y132000D02*
Y143500D01*
X746000Y451000D02*
Y451500D01*
X726000Y461000D02*
Y462500D01*
X717000Y469500D02*
X719000D01*
X726000Y462500D01*
X788000Y499000D02*
Y512000D01*
Y493500D02*
Y499000D01*
X788000D01*
X769343D02*
X788000D01*
X766343Y502000D02*
X769343Y499000D01*
X745593Y502000D02*
X766343D01*
X656761Y531080D02*
X662250Y525591D01*
X623621Y531080D02*
X656761D01*
X618041Y525500D02*
X623621Y531080D01*
X617500Y525500D02*
X618041D01*
X577000Y386750D02*
Y387000D01*
X561000Y242000D02*
Y242541D01*
X563000Y244541D02*
Y342000D01*
X561000Y242541D02*
X563000Y244541D01*
X768000Y77875D02*
Y90750D01*
Y65000D02*
Y77875D01*
X189250Y518500D02*
X215750D01*
X188500D02*
X189250D01*
X241000Y519500D02*
X248500Y512000D01*
Y509000D02*
Y512000D01*
X216750Y519500D02*
X241000D01*
X215750Y518500D02*
X216750Y519500D01*
X173500Y518500D02*
X188500D01*
X189250Y481500D02*
X197500Y489750D01*
Y510250D01*
X188500Y481500D02*
X189250D01*
Y518500D02*
X197500Y510250D01*
X248500Y472000D02*
Y509000D01*
X801657Y458657D02*
X810000Y467000D01*
X812000D01*
X781000Y488500D02*
X783000D01*
X788000Y493500D01*
X739500Y494250D02*
X742250Y497000D01*
Y498657D01*
X745593Y502000D01*
X746000Y451000D02*
X747000Y450000D01*
Y443000D02*
Y450000D01*
Y443000D02*
X749500Y440500D01*
X820500Y189000D02*
Y203500D01*
X821000Y204000D01*
X356000Y202000D02*
Y218000D01*
Y202000D02*
X366000D01*
X346000D02*
X356000D01*
X609500Y86000D02*
Y88000D01*
X565000Y83000D02*
X581000D01*
X564000Y84000D02*
X565000Y83000D01*
X788000Y61878D02*
X791878Y58000D01*
X820000D01*
X788000Y61878D02*
Y64000D01*
X767000D02*
X768000Y65000D01*
X788000Y64000D02*
Y87500D01*
X787000Y88500D02*
X788000Y87500D01*
X767000Y64000D02*
X788000D01*
X743000D02*
X767000D01*
X722000D02*
X743000D01*
X722000D02*
Y87500D01*
X723000Y88500D01*
X586600Y377150D02*
X589600D01*
X577000Y386750D02*
X586600Y377150D01*
X546000Y242000D02*
X561000D01*
X546000Y342000D02*
X563000D01*
X617500Y509500D02*
Y525500D01*
X581000Y468000D02*
X594500D01*
X538500Y517000D02*
X549000D01*
X429000Y518000D02*
X440000D01*
X450000Y508000D01*
X440000Y518000D02*
X450000Y528000D01*
X555500Y460500D02*
X556000Y460000D01*
X543000Y460500D02*
X555500D01*
X546000Y402000D02*
X547000Y403000D01*
X558000D01*
X496000Y428000D02*
Y442000D01*
X496000Y428000D02*
X496000Y428000D01*
X456000Y428000D02*
Y442000D01*
X290000Y382000D02*
X306000D01*
X291000Y402000D02*
X306000D01*
X183000Y365000D02*
Y395000D01*
X159500Y341500D02*
X183000Y365000D01*
D17*
X426000Y202000D02*
Y247000D01*
X328000Y317000D02*
X362000Y283000D01*
X328000Y317000D02*
Y406000D01*
X362000Y283000D02*
X430625D01*
X484624Y229000D01*
X204500Y276500D02*
Y341500D01*
X684000Y102000D02*
Y135000D01*
Y102000D02*
X690000Y96000D01*
X750000Y144000D02*
Y152000D01*
X740000Y162000D02*
X750000Y152000D01*
X740000Y162000D02*
Y164200D01*
X731600Y169000D02*
X735200D01*
X740000Y164200D01*
X750270Y158559D02*
Y205230D01*
X754810Y161090D02*
Y207761D01*
Y161090D02*
X763900Y152000D01*
X750270Y158559D02*
X761829Y147000D01*
X739000Y216500D02*
X750270Y205230D01*
X741071Y221500D02*
X754810Y207761D01*
X670530Y397063D02*
X677832Y389761D01*
X670530Y397063D02*
Y399570D01*
X665600Y404500D02*
Y407500D01*
Y404500D02*
X670530Y399570D01*
X652900Y404500D02*
X657830Y399570D01*
X661588Y394888D02*
X662112D01*
X667000Y390000D01*
X652900Y404500D02*
Y407500D01*
X657830Y398646D02*
Y399570D01*
Y398646D02*
X661588Y394888D01*
X645130Y398646D02*
X653113Y390662D01*
X645130Y398646D02*
Y399570D01*
X653113Y390662D02*
X654338D01*
X640200Y404500D02*
Y407500D01*
Y404500D02*
X645130Y399570D01*
X654338Y390662D02*
X655000Y390000D01*
X632430Y398570D02*
Y399570D01*
X627500Y404500D02*
X632430Y399570D01*
Y398570D02*
X641000Y390000D01*
X627500Y404500D02*
Y407500D01*
X681530Y397877D02*
Y404270D01*
Y397877D02*
X688239Y391168D01*
X619730Y398646D02*
X628376Y390000D01*
X629000D01*
X672000Y169000D02*
X684400D01*
X672662Y194813D02*
Y198338D01*
X672000Y199000D02*
X672662Y198338D01*
Y194813D02*
X678395Y189080D01*
X731600Y174000D02*
X731600Y174000D01*
X744000D01*
X731600Y184000D02*
X744000D01*
X589150Y364000D02*
X589600Y364450D01*
X575000Y364000D02*
X589150D01*
X528000Y161376D02*
Y182000D01*
X532770Y169230D02*
Y177230D01*
X500124Y133500D02*
X528000Y161376D01*
Y182000D02*
X532770Y177230D01*
Y169230D02*
X536000Y166000D01*
X470500Y133500D02*
X500124D01*
X706662Y116662D02*
X714500Y124500D01*
X701000Y116000D02*
X701662Y116662D01*
X706662D01*
X470000Y361000D02*
X470936D01*
X485000Y357000D02*
X490000Y352000D01*
X470936Y361000D02*
X473206Y363270D01*
X490000Y352000D02*
X546000D01*
X473206Y363270D02*
X544730D01*
X546000Y362000D01*
X597512Y276000D02*
X605000Y268512D01*
Y260000D02*
Y268512D01*
X594000Y276000D02*
X597512D01*
X593000Y275000D02*
X594000Y276000D01*
X589600Y275550D02*
X592450D01*
X593000Y275000D01*
X593000Y398000D02*
X612000Y379000D01*
Y257746D02*
Y379000D01*
X607531Y253277D02*
X612000Y257746D01*
X602173Y253277D02*
X607531D01*
X592600Y262850D02*
X602173Y253277D01*
X589600Y262850D02*
X592600D01*
X609274Y391662D02*
X614338D01*
X615000Y391000D01*
X605330Y395606D02*
X609274Y391662D01*
X614800Y404500D02*
X619730Y399570D01*
X599000Y422135D02*
Y445500D01*
X593000Y416135D02*
X599000Y422135D01*
X619730Y398646D02*
Y399570D01*
X614800Y404500D02*
Y407500D01*
X593000Y398000D02*
Y416135D01*
X605330Y395606D02*
Y404270D01*
X602100Y407500D02*
X605330Y404270D01*
X678300Y407500D02*
X681530Y404270D01*
X448756Y133500D02*
X451338Y130918D01*
Y125662D02*
X452000Y125000D01*
X451338Y125662D02*
Y130918D01*
X183000Y365000D02*
X217624D01*
X241607Y388983D01*
Y390833D01*
X258522Y407748D01*
X371520Y126480D02*
X374500Y123500D01*
X366520Y126480D02*
X371520D01*
X365000Y128000D02*
X366520Y126480D01*
X365000Y149000D02*
X371000Y155000D01*
X365000Y128000D02*
Y149000D01*
X380000Y161000D02*
Y164000D01*
X374000Y155000D02*
X380000Y161000D01*
X371000Y155000D02*
X374000D01*
X438000Y101000D02*
X452000Y115000D01*
Y125000D01*
X747520Y484520D02*
Y490520D01*
X749000Y492000D01*
X741000Y478000D02*
X747520Y484520D01*
X719000Y488500D02*
X729500Y478000D01*
X717000Y488500D02*
X719000D01*
X729500Y478000D02*
X741000D01*
X636512Y62000D02*
X638000Y63488D01*
Y79000D01*
X628000Y62000D02*
X636512D01*
X742000Y386936D02*
Y407300D01*
X738000Y382936D02*
X742000Y386936D01*
X738000Y382000D02*
Y382936D01*
X312350Y421650D02*
X328000Y406000D01*
X402500Y141000D02*
X412887Y130613D01*
Y123458D02*
Y130613D01*
Y123458D02*
X420043Y116301D01*
X431557D01*
X448756Y133500D01*
X402500Y141000D02*
Y143000D01*
X448756Y133500D02*
X470500D01*
X783854Y456730D02*
X806770Y479646D01*
Y482770D02*
X810000Y486000D01*
X754062Y456730D02*
X783854D01*
X806770Y479646D02*
Y482770D01*
X735582Y452272D02*
X739500Y456190D01*
Y462750D01*
X706648Y452272D02*
X735582D01*
X749522Y461270D02*
X754062Y456730D01*
X460500Y143500D02*
X470500Y133500D01*
X460500Y143500D02*
Y166000D01*
X374500Y123500D02*
X375000Y123000D01*
X399808D01*
Y140308D01*
X402500Y143000D01*
Y166000D01*
X366000Y190115D02*
X380000Y176115D01*
Y164000D02*
Y176115D01*
X366000Y190115D02*
Y202000D01*
X786000Y124000D02*
Y131000D01*
X782000Y135000D02*
X786000Y131000D01*
X714500Y124500D02*
X716000D01*
X712770Y126230D02*
X714500Y124500D01*
X712770Y126230D02*
Y133230D01*
X703000Y143000D02*
X712770Y133230D01*
X703000Y143000D02*
Y160400D01*
X695230Y471730D02*
X698230D01*
X715000Y488500D01*
X693000Y469500D02*
X695230Y471730D01*
X715000Y488500D02*
X717000D01*
X498000Y166000D02*
X517000D01*
X816000Y89000D02*
X820000Y85000D01*
Y77000D02*
Y85000D01*
X806124Y89000D02*
X816000D01*
X762230Y91480D02*
Y99512D01*
X763718Y101000D01*
X794125D01*
X806124Y89000D01*
X761500Y90750D02*
X762230Y91480D01*
X661500Y426500D02*
Y446000D01*
X546800Y213270D02*
X550381Y209690D01*
X479920Y217730D02*
X489685D01*
X489730Y211355D02*
X491646Y213270D01*
X476000Y213810D02*
X479920Y217730D01*
X486000Y207000D02*
X489730Y210730D01*
X489765Y217810D02*
X548681D01*
X489685Y217730D02*
X489765Y217810D01*
X486000Y202000D02*
Y207000D01*
X548681Y217810D02*
X552261Y214230D01*
X491646Y213270D02*
X546800D01*
X489730Y210730D02*
Y211355D01*
X476000Y202000D02*
Y213810D01*
X614742Y214230D02*
X624270Y223758D01*
X550381Y209690D02*
X629690D01*
X552261Y214230D02*
X614742D01*
X629690Y209690D02*
X640200Y220200D01*
Y232500D01*
X506000Y202000D02*
X520000D01*
X624270Y229270D02*
X627500Y232500D01*
X624270Y223758D02*
Y229270D01*
X545500Y381500D02*
X546000Y382000D01*
X471500Y381500D02*
X545500D01*
X471000Y381000D02*
X471500Y381500D01*
X501000Y372000D02*
X546000D01*
X288650Y421650D02*
X312350D01*
X248730Y381730D02*
X288650Y421650D01*
X497000Y167000D02*
X498000Y166000D01*
X496000Y202000D02*
X497000Y201000D01*
Y167000D02*
Y201000D01*
X506000Y202000D02*
Y207000D01*
X245000Y378000D02*
Y379000D01*
X247730Y381730D01*
X248730D01*
X364270Y430270D02*
Y440270D01*
X360190Y426190D02*
X364270Y430270D01*
Y440270D02*
X366000Y442000D01*
X241436Y426190D02*
X360190D01*
X354270Y440270D02*
X356000Y442000D01*
X354270Y432000D02*
Y440270D01*
X353000Y430730D02*
X354270Y432000D01*
X267770Y430730D02*
X353000D01*
X229500Y506000D02*
Y509000D01*
X201230Y477730D02*
X229500Y506000D01*
X201230Y466396D02*
Y477730D01*
Y466396D02*
X241436Y426190D01*
X229500Y469000D02*
X267770Y430730D01*
X356000Y437000D02*
Y442000D01*
X229500Y469000D02*
Y472000D01*
X195000Y431500D02*
X213270Y413230D01*
Y399730D02*
Y413230D01*
Y399730D02*
X218000Y395000D01*
X183000Y431500D02*
X195000D01*
X148000Y408000D02*
X166270Y426270D01*
X148000Y395000D02*
Y408000D01*
X166270Y426270D02*
Y426770D01*
X171000Y431500D01*
X183000D01*
X220000Y397000D02*
X227000D01*
X218000Y395000D02*
X220000Y397000D01*
X245000Y415000D02*
Y416000D01*
X227000Y397000D02*
X245000Y415000D01*
X209500Y472000D02*
X229500D01*
X209500Y509000D02*
X229500D01*
X229500Y509000D01*
X174000Y485750D02*
X187750Y499500D01*
X174000Y476000D02*
Y485750D01*
X187750Y499500D02*
X188500D01*
X157000Y462000D02*
X160000D01*
X174000Y476000D01*
X135000Y462000D02*
X141770Y455230D01*
X132000Y462000D02*
X135000D01*
X172124Y462500D02*
X188500D01*
X164854Y455230D02*
X172124Y462500D01*
X141770Y455230D02*
X164854D01*
X154000Y483230D02*
X156230Y481000D01*
X157000D01*
X154000Y483230D02*
Y502000D01*
X132770Y481000D02*
X135000Y483230D01*
Y502000D01*
X132000Y481000D02*
X132770D01*
X500500Y517000D02*
X519500D01*
X521000Y479500D02*
X543000D01*
X519500Y478000D02*
X521000Y479500D01*
X594500Y477500D02*
Y487000D01*
X596750D02*
X598500Y488750D01*
Y509500D01*
X594500Y487000D02*
X596750D01*
X704500Y528000D02*
X751000D01*
X690500Y514000D02*
X704500Y528000D01*
X690500Y511000D02*
Y514000D01*
X751000Y528000D02*
X755384Y523616D01*
Y512000D02*
Y523616D01*
Y512000D02*
X772000D01*
X812000Y486000D02*
Y504000D01*
X690500Y508000D02*
Y511000D01*
X693000Y488500D02*
Y505500D01*
X690500Y508000D02*
X693000Y505500D01*
X749000Y492000D02*
X758500D01*
X778000Y197133D02*
Y198000D01*
X774500Y193633D02*
X778000Y197133D01*
X768000Y185200D02*
Y195064D01*
X770000Y197064D02*
Y198000D01*
X768000Y195064D02*
X770000Y197064D01*
X774500Y185200D02*
Y193633D01*
X773770Y184470D02*
X774500Y185200D01*
X684320Y189080D02*
X684400Y189000D01*
X678395Y189080D02*
X684320D01*
X656000Y116500D02*
Y126000D01*
X621500Y452000D02*
Y468000D01*
X618000Y448500D02*
X621500Y452000D01*
X618000Y445500D02*
Y448500D01*
X636000Y448000D02*
X639770D01*
X642000Y445500D02*
Y445770D01*
X639770Y448000D02*
X642000Y445770D01*
X631000Y453000D02*
X636000Y448000D01*
X631000Y453000D02*
Y470874D01*
X624374Y477500D02*
X631000Y470874D01*
X594500Y477500D02*
X624374D01*
X661500Y446000D02*
Y469000D01*
Y426500D02*
X662000Y426000D01*
X661000Y469500D02*
X661500Y469000D01*
X661000Y445500D02*
X661500Y446000D01*
X711725Y423650D02*
X729575D01*
X738570Y410730D02*
Y414655D01*
Y410730D02*
X742000Y407300D01*
X702730Y448354D02*
X706648Y452272D01*
X729575Y423650D02*
X738570Y414655D01*
X702730Y432645D02*
X711725Y423650D01*
X702730Y432645D02*
Y448354D01*
X810000Y486000D02*
X812000D01*
X740980Y461270D02*
X749522D01*
X739500Y462750D02*
X740980Y461270D01*
X739500Y462750D02*
Y465000D01*
X761500Y196500D02*
X762000Y197000D01*
Y198000D01*
X761500Y185200D02*
Y196500D01*
X767270Y178144D02*
Y184470D01*
X773770Y178144D02*
Y184470D01*
X762230Y167530D02*
Y173104D01*
X768730D02*
X773770Y178144D01*
X768730Y167530D02*
Y173104D01*
X762230D02*
X767270Y178144D01*
X768000Y166800D02*
X768730Y167530D01*
X767270Y184470D02*
X768000Y185200D01*
X761500Y166800D02*
X762230Y167530D01*
X703000Y160400D02*
Y179000D01*
X822500Y97500D02*
X830000Y105000D01*
X807500Y97500D02*
X822500D01*
X799000Y106000D02*
X807500Y97500D01*
X799000Y106000D02*
Y128929D01*
X780929Y147000D02*
X799000Y128929D01*
X763900Y152000D02*
X783000D01*
X804000Y111000D02*
Y131000D01*
X783000Y152000D02*
X804000Y131000D01*
X761829Y147000D02*
X780929D01*
X710650Y216500D02*
X739000D01*
X703000Y216000D02*
X708500Y221500D01*
X708150Y214000D02*
X710650Y216500D01*
X708150Y207750D02*
Y214000D01*
X708000Y207600D02*
X708150Y207750D01*
X708500Y221500D02*
X741071D01*
X810500Y107500D02*
X813000Y105000D01*
X807500Y107500D02*
X810500D01*
X804000Y111000D02*
X807500Y107500D01*
X703000Y207600D02*
Y216000D01*
D18*
X399900Y498000D02*
D03*
X374100D02*
D03*
D19*
X142000Y177900D02*
D03*
Y152100D02*
D03*
D20*
X24000Y404000D02*
D03*
Y388000D02*
D03*
Y380000D02*
D03*
Y372000D02*
D03*
Y396000D02*
D03*
Y500000D02*
D03*
Y444000D02*
D03*
Y452000D02*
D03*
Y460000D02*
D03*
Y468000D02*
D03*
Y476000D02*
D03*
Y484000D02*
D03*
Y492000D02*
D03*
Y364000D02*
D03*
Y356000D02*
D03*
Y348000D02*
D03*
Y292000D02*
D03*
Y300000D02*
D03*
Y308000D02*
D03*
Y316000D02*
D03*
Y276000D02*
D03*
Y284000D02*
D03*
Y332000D02*
D03*
Y340000D02*
D03*
Y324000D02*
D03*
Y268000D02*
D03*
D21*
X141500Y81000D02*
D03*
X160500D02*
D03*
X198500Y104000D02*
D03*
X217500D02*
D03*
X141500D02*
D03*
X160500D02*
D03*
X482000Y478000D02*
D03*
X463000D02*
D03*
X500500Y517000D02*
D03*
X481500D02*
D03*
X519500Y478000D02*
D03*
X500500D02*
D03*
X248500Y509000D02*
D03*
X229500D02*
D03*
X248500Y472000D02*
D03*
X229500D02*
D03*
X646000Y198000D02*
D03*
X662000D02*
D03*
X646000Y179000D02*
D03*
X662000D02*
D03*
X788000Y512000D02*
D03*
X772000D02*
D03*
X361000Y164000D02*
D03*
X380000D02*
D03*
X479000Y166000D02*
D03*
X498000D02*
D03*
X690500Y511000D02*
D03*
X709500D02*
D03*
X661000Y469500D02*
D03*
X642000D02*
D03*
X618000Y445500D02*
D03*
X599000D02*
D03*
X661000D02*
D03*
X642000D02*
D03*
X628000Y62000D02*
D03*
X609000D02*
D03*
D22*
X219000Y127000D02*
D03*
X200000D02*
D03*
X219000Y81000D02*
D03*
X200000D02*
D03*
X519500Y517000D02*
D03*
X538500D02*
D03*
X749500Y440500D02*
D03*
X730500D02*
D03*
X691500D02*
D03*
X710500D02*
D03*
X820500Y189000D02*
D03*
X801500D02*
D03*
X402500Y166000D02*
D03*
X421500D02*
D03*
X402500Y143000D02*
D03*
X421500D02*
D03*
X460500Y166000D02*
D03*
X441500D02*
D03*
X536000D02*
D03*
X517000D02*
D03*
X661500Y492500D02*
D03*
X642500D02*
D03*
X598500Y509500D02*
D03*
X617500D02*
D03*
X609500Y86000D02*
D03*
X628500D02*
D03*
X609500Y132000D02*
D03*
X628500D02*
D03*
X609500Y155000D02*
D03*
X628500D02*
D03*
X788500Y440500D02*
D03*
X769500D02*
D03*
X609500Y109000D02*
D03*
X628500D02*
D03*
D23*
X470500Y62500D02*
D03*
D24*
X541500Y133500D02*
D03*
X470500D02*
D03*
D25*
X538000Y66000D02*
D03*
D26*
X245000Y416000D02*
D03*
Y378000D02*
D03*
D27*
X183000Y431500D02*
D03*
D28*
X218000Y395000D02*
D03*
X148000D02*
D03*
D29*
X183000Y395000D02*
D03*
D30*
X543000Y479500D02*
D03*
Y460500D02*
D03*
X812000Y467000D02*
D03*
Y486000D02*
D03*
X781000Y488500D02*
D03*
Y469500D02*
D03*
X717000Y488500D02*
D03*
Y469500D02*
D03*
X656000Y60000D02*
D03*
Y79000D02*
D03*
X581000Y83000D02*
D03*
Y64000D02*
D03*
D31*
X154000Y502000D02*
D03*
Y518000D02*
D03*
X135000Y502000D02*
D03*
Y518000D02*
D03*
X813000Y121000D02*
D03*
Y105000D02*
D03*
X830000Y121000D02*
D03*
Y105000D02*
D03*
D32*
X157000Y462000D02*
D03*
Y481000D02*
D03*
X132000Y462000D02*
D03*
Y481000D02*
D03*
X581000Y103000D02*
D03*
Y122000D02*
D03*
X812000Y523000D02*
D03*
Y504000D02*
D03*
X330000Y154500D02*
D03*
Y135500D02*
D03*
X693000Y488500D02*
D03*
Y469500D02*
D03*
X805000Y145500D02*
D03*
Y164500D02*
D03*
X828000Y145500D02*
D03*
Y164500D02*
D03*
X740000Y110500D02*
D03*
Y129500D02*
D03*
X763000Y110500D02*
D03*
Y129500D02*
D03*
X820000Y77000D02*
D03*
Y58000D02*
D03*
X656000Y97500D02*
D03*
Y116500D02*
D03*
D33*
X188500Y499500D02*
D03*
Y518500D02*
D03*
X209500Y509000D02*
D03*
X188500Y462500D02*
D03*
Y481500D02*
D03*
X209500Y472000D02*
D03*
X374500Y142500D02*
D03*
Y123500D02*
D03*
X353500Y133000D02*
D03*
D34*
X767200Y407500D02*
D03*
X754500D02*
D03*
X741800D02*
D03*
X729100D02*
D03*
X716400D02*
D03*
X703700D02*
D03*
X691000D02*
D03*
X678300D02*
D03*
X665600D02*
D03*
X652900D02*
D03*
X640200D02*
D03*
X627500D02*
D03*
X614800D02*
D03*
X602100D02*
D03*
Y232500D02*
D03*
X614800D02*
D03*
X627500D02*
D03*
X640200D02*
D03*
X652900D02*
D03*
X665600D02*
D03*
X678300D02*
D03*
X691000D02*
D03*
X703700D02*
D03*
X716400D02*
D03*
X729100D02*
D03*
X741800D02*
D03*
X754500D02*
D03*
X767200D02*
D03*
D35*
X589600Y377150D02*
D03*
Y364450D02*
D03*
Y351750D02*
D03*
Y339050D02*
D03*
Y326350D02*
D03*
Y313650D02*
D03*
Y300950D02*
D03*
Y288250D02*
D03*
Y275550D02*
D03*
Y262850D02*
D03*
D36*
X704000Y349000D02*
D03*
Y335000D02*
D03*
Y321000D02*
D03*
X690000Y349000D02*
D03*
Y335000D02*
D03*
Y321000D02*
D03*
X676000Y349000D02*
D03*
Y335000D02*
D03*
Y321000D02*
D03*
D37*
X742000Y90750D02*
D03*
X748500D02*
D03*
X755000D02*
D03*
X761500D02*
D03*
X768000D02*
D03*
D38*
X787000Y88500D02*
D03*
X723000D02*
D03*
D39*
X743000Y64000D02*
D03*
X767000D02*
D03*
D40*
X306000Y242000D02*
D03*
Y252000D02*
D03*
Y262000D02*
D03*
Y272000D02*
D03*
Y282000D02*
D03*
Y292000D02*
D03*
Y302000D02*
D03*
Y312000D02*
D03*
Y322000D02*
D03*
Y332000D02*
D03*
Y342000D02*
D03*
Y352000D02*
D03*
Y362000D02*
D03*
Y372000D02*
D03*
Y382000D02*
D03*
Y392000D02*
D03*
Y402000D02*
D03*
X546000D02*
D03*
Y392000D02*
D03*
Y382000D02*
D03*
Y372000D02*
D03*
Y362000D02*
D03*
Y352000D02*
D03*
Y342000D02*
D03*
Y332000D02*
D03*
Y322000D02*
D03*
Y312000D02*
D03*
Y302000D02*
D03*
Y292000D02*
D03*
Y282000D02*
D03*
Y272000D02*
D03*
Y262000D02*
D03*
Y252000D02*
D03*
Y242000D02*
D03*
D41*
X346000Y442000D02*
D03*
X356000D02*
D03*
X366000D02*
D03*
X376000D02*
D03*
X386000D02*
D03*
X396000D02*
D03*
X406000D02*
D03*
X416000D02*
D03*
X426000D02*
D03*
X436000D02*
D03*
X446000D02*
D03*
X456000D02*
D03*
X466000D02*
D03*
X476000D02*
D03*
X486000D02*
D03*
X496000D02*
D03*
X506000D02*
D03*
Y202000D02*
D03*
X496000D02*
D03*
X486000D02*
D03*
X476000D02*
D03*
X466000D02*
D03*
X456000D02*
D03*
X446000D02*
D03*
X436000D02*
D03*
X426000D02*
D03*
X416000D02*
D03*
X406000D02*
D03*
X396000D02*
D03*
X386000D02*
D03*
X376000D02*
D03*
X366000D02*
D03*
X356000D02*
D03*
X346000D02*
D03*
D42*
X690000Y64000D02*
D03*
Y96000D02*
D03*
D43*
X739500Y465000D02*
D03*
X758500D02*
D03*
X739500Y492000D02*
D03*
X749000D02*
D03*
X758500D02*
D03*
D44*
X621500Y468000D02*
D03*
Y487000D02*
D03*
X594500Y468000D02*
D03*
Y477500D02*
D03*
Y487000D02*
D03*
D45*
X693000Y160400D02*
D03*
X698000D02*
D03*
X703000D02*
D03*
X708000D02*
D03*
X713000D02*
D03*
X718000D02*
D03*
X723000D02*
D03*
Y207600D02*
D03*
X718000D02*
D03*
X713000D02*
D03*
X708000D02*
D03*
X703000D02*
D03*
X698000D02*
D03*
X693000D02*
D03*
D46*
X731600Y169000D02*
D03*
Y174000D02*
D03*
Y179000D02*
D03*
Y184000D02*
D03*
Y189000D02*
D03*
Y194000D02*
D03*
Y199000D02*
D03*
X684400D02*
D03*
Y194000D02*
D03*
Y189000D02*
D03*
Y184000D02*
D03*
Y179000D02*
D03*
Y174000D02*
D03*
Y169000D02*
D03*
D48*
X761500Y185200D02*
D03*
X768000D02*
D03*
X774500D02*
D03*
Y166800D02*
D03*
X768000D02*
D03*
X761500D02*
D03*
D49*
X731000Y512000D02*
D03*
X755384D02*
D03*
X424192Y123000D02*
D03*
X399808D02*
D03*
D50*
X786000Y109000D02*
D03*
Y124000D02*
D03*
X716000Y109500D02*
D03*
Y124500D02*
D03*
D89*
X450000Y508000D02*
D03*
Y528000D02*
D03*
X90000Y91000D02*
D03*
Y71000D02*
D03*
D90*
X440000Y518000D02*
D03*
X80000Y81000D02*
D03*
D91*
X459750Y518000D02*
D03*
X99750Y81000D02*
D03*
D92*
X77000Y519000D02*
D03*
X270000Y66000D02*
D03*
X653000Y522000D02*
D03*
X505000Y97000D02*
D03*
D93*
X708000Y184000D02*
D03*
D94*
X452000Y506000D02*
X468000D01*
X489000Y504000D02*
X490000Y503000D01*
Y496000D02*
Y503000D01*
X468000Y506000D02*
X474722D01*
X476722Y504000D02*
X489000D01*
X474722Y506000D02*
X476722Y504000D01*
X437000Y488500D02*
X454000D01*
X456500Y491000D01*
X424349Y488500D02*
X426000D01*
X456500Y491000D02*
X482000D01*
X426000Y488500D02*
X437000D01*
X482000Y491000D02*
X485000D01*
X490000Y496000D01*
X575000Y240000D02*
Y330000D01*
X60000Y236000D02*
Y378000D01*
Y228000D02*
Y236000D01*
Y378000D02*
Y386000D01*
X555000Y450000D02*
X556000Y451000D01*
X546000Y450000D02*
X555000D01*
X545425Y450575D02*
X546000Y450000D01*
X528425Y450575D02*
X545425D01*
X516500Y438651D02*
X528425Y450575D01*
X516500Y433722D02*
Y438651D01*
X496000Y428000D02*
X510778D01*
X516500Y433722D01*
X401000Y510300D02*
X405278D01*
X410675Y502175D02*
Y504904D01*
X405278Y510300D02*
X410675Y504904D01*
Y502175D02*
X410675D01*
X424349Y488500D01*
X450000Y508000D02*
X452000Y506000D01*
D95*
X730500Y438500D02*
X750730Y418270D01*
X752500Y409500D02*
Y415730D01*
X730500Y438500D02*
Y440500D01*
X750730Y417500D02*
Y418270D01*
Y417500D02*
X752500Y415730D01*
Y409500D02*
X754500Y407500D01*
X757730Y418420D02*
X769500Y430190D01*
X757730Y410730D02*
Y418420D01*
X754500Y407500D02*
X757730Y410730D01*
X769500Y430190D02*
Y440500D01*
X710500D02*
X730500D01*
X816500Y164500D02*
X828000D01*
X805000D02*
X816500D01*
D96*
X761405Y108905D02*
X763000Y110500D01*
X756637Y108905D02*
X761405D01*
X755000Y90750D02*
Y95500D01*
X754405Y106673D02*
X756637Y108905D01*
X754405Y103517D02*
X754655Y103267D01*
X754405Y103517D02*
Y106673D01*
X754655Y95845D02*
X755000Y95500D01*
X754655Y95845D02*
Y103267D01*
X748595Y101110D02*
X748845Y100860D01*
Y95845D02*
Y100860D01*
X746363Y108905D02*
X748595Y106673D01*
Y101110D02*
Y106673D01*
X748500Y95500D02*
X748845Y95845D01*
X748500Y90750D02*
Y95500D01*
X740000Y110500D02*
X741595Y108905D01*
X746363D01*
X763750Y109750D02*
X785250D01*
X739500Y110000D02*
X740000Y110500D01*
X717500Y110000D02*
X739500D01*
X717000Y109500D02*
X717500Y110000D01*
X763000Y110500D02*
X763750Y109750D01*
X785250D02*
X786000Y109000D01*
D97*
X704000Y342000D02*
D03*
Y328000D02*
D03*
X697000Y349000D02*
D03*
Y335000D02*
D03*
Y321000D02*
D03*
X690000Y342000D02*
D03*
Y328000D02*
D03*
X683000Y349000D02*
D03*
Y335000D02*
D03*
Y321000D02*
D03*
X676000Y342000D02*
D03*
Y328000D02*
D03*
D98*
X788000Y64000D02*
D03*
X722000D02*
D03*
D99*
X204500Y276500D02*
D03*
X159500D02*
D03*
Y341500D02*
D03*
D100*
X204500D02*
D03*
D101*
X426000Y247000D02*
D03*
X684000Y135000D02*
D03*
X750000Y144000D02*
D03*
X677832Y389761D02*
D03*
X688239Y391168D02*
D03*
X667000Y390000D02*
D03*
X655000D02*
D03*
X641000D02*
D03*
X629000D02*
D03*
X672000Y169000D02*
D03*
Y199000D02*
D03*
X744000Y174000D02*
D03*
Y184000D02*
D03*
X575000Y364000D02*
D03*
X480000Y504000D02*
D03*
X459000Y491000D02*
D03*
X470000D02*
D03*
X482000D02*
D03*
X669000Y98000D02*
D03*
X636000Y182000D02*
D03*
X669000Y60000D02*
D03*
X528000Y182000D02*
D03*
X143000Y68000D02*
D03*
X575000Y525000D02*
D03*
X560000Y500000D02*
D03*
X535000D02*
D03*
X120000Y280000D02*
D03*
X80000D02*
D03*
X285000Y235000D02*
D03*
Y210000D02*
D03*
Y185000D02*
D03*
Y160000D02*
D03*
Y135000D02*
D03*
Y110000D02*
D03*
Y85000D02*
D03*
X260000D02*
D03*
X235000Y60000D02*
D03*
X170000Y135000D02*
D03*
X60000D02*
D03*
X110000D02*
D03*
X85000D02*
D03*
X210000Y60000D02*
D03*
X185000D02*
D03*
X160000Y59000D02*
D03*
X135000D02*
D03*
X110000Y60000D02*
D03*
X85000D02*
D03*
X60000Y65000D02*
D03*
Y90000D02*
D03*
Y115000D02*
D03*
X85000D02*
D03*
X110000D02*
D03*
X504000Y530000D02*
D03*
X492000D02*
D03*
X481000D02*
D03*
X469000Y528000D02*
D03*
X511000Y501000D02*
D03*
Y489000D02*
D03*
X468000Y508000D02*
D03*
X490000Y496000D02*
D03*
X448000Y488000D02*
D03*
X437000D02*
D03*
X426000D02*
D03*
X418000Y496000D02*
D03*
X410000Y504000D02*
D03*
X401000Y481000D02*
D03*
X409000Y473000D02*
D03*
X421000Y468000D02*
D03*
X432000D02*
D03*
X443000D02*
D03*
X454000Y465000D02*
D03*
X465000D02*
D03*
X476000D02*
D03*
X487000D02*
D03*
X498000D02*
D03*
X509000Y464000D02*
D03*
X526000Y447000D02*
D03*
X171000Y82000D02*
D03*
X169000Y69000D02*
D03*
X156000Y68000D02*
D03*
X131000Y71000D02*
D03*
X121000D02*
D03*
X109000D02*
D03*
Y91000D02*
D03*
X121000D02*
D03*
X131000Y94000D02*
D03*
Y105000D02*
D03*
Y115000D02*
D03*
Y125000D02*
D03*
Y135000D02*
D03*
X129000Y146000D02*
D03*
X153000Y125000D02*
D03*
Y135000D02*
D03*
X155000Y146000D02*
D03*
X181000Y114000D02*
D03*
X191000D02*
D03*
X171000D02*
D03*
Y94000D02*
D03*
X181000D02*
D03*
X191490Y93840D02*
D03*
X229000Y95000D02*
D03*
X240000Y99000D02*
D03*
X248000Y107000D02*
D03*
X256000Y115000D02*
D03*
X264000Y123000D02*
D03*
X266000Y133000D02*
D03*
Y143000D02*
D03*
Y153000D02*
D03*
Y164000D02*
D03*
Y174000D02*
D03*
Y184000D02*
D03*
Y194000D02*
D03*
Y204000D02*
D03*
Y214000D02*
D03*
Y224000D02*
D03*
X270000Y234000D02*
D03*
X278000Y242000D02*
D03*
X286000Y250000D02*
D03*
X233000Y122000D02*
D03*
X240000Y129000D02*
D03*
X246000Y137000D02*
D03*
Y147000D02*
D03*
Y157000D02*
D03*
Y167000D02*
D03*
Y177000D02*
D03*
Y187000D02*
D03*
Y197000D02*
D03*
Y207000D02*
D03*
Y217000D02*
D03*
Y227000D02*
D03*
Y237000D02*
D03*
X251000Y245000D02*
D03*
X259000Y253000D02*
D03*
X267000Y261000D02*
D03*
X275000Y269000D02*
D03*
X285000Y272000D02*
D03*
X304000Y150000D02*
D03*
Y161000D02*
D03*
X575000Y203000D02*
D03*
Y195000D02*
D03*
Y247000D02*
D03*
Y240000D02*
D03*
Y330000D02*
D03*
X330000Y47000D02*
D03*
X60000Y236000D02*
D03*
Y386000D02*
D03*
Y228000D02*
D03*
Y378000D02*
D03*
X628000Y488000D02*
D03*
X621000Y485000D02*
D03*
X701000Y116000D02*
D03*
X494000Y247000D02*
D03*
X506000D02*
D03*
X500000Y254000D02*
D03*
Y247000D02*
D03*
Y345000D02*
D03*
X485000Y357000D02*
D03*
X605000Y260000D02*
D03*
X729000Y264000D02*
D03*
Y272000D02*
D03*
X666000Y255000D02*
D03*
X678150Y254850D02*
D03*
X704000Y255000D02*
D03*
X752000Y263000D02*
D03*
X761000Y258000D02*
D03*
X615000Y391000D02*
D03*
X692000Y458000D02*
D03*
X619000Y97000D02*
D03*
X794000Y189000D02*
D03*
X258522Y407748D02*
D03*
X438000Y101000D02*
D03*
X452000Y125000D02*
D03*
X439000Y146000D02*
D03*
X821000Y204000D02*
D03*
X638000Y79000D02*
D03*
X747000Y371000D02*
D03*
X738000Y382000D02*
D03*
X346000Y456000D02*
D03*
X266000Y464000D02*
D03*
X265000Y487000D02*
D03*
Y511000D02*
D03*
X320000Y242000D02*
D03*
X319000Y282000D02*
D03*
X726000Y461000D02*
D03*
X173500Y518500D02*
D03*
X746000Y451500D02*
D03*
X802000Y455000D02*
D03*
X788000Y499000D02*
D03*
X768000Y77875D02*
D03*
X782000Y135000D02*
D03*
X356000Y218000D02*
D03*
X564000Y84000D02*
D03*
X609500Y143500D02*
D03*
X581000Y468000D02*
D03*
X617500Y525500D02*
D03*
X429000Y518000D02*
D03*
X549000Y517000D02*
D03*
X558000Y403000D02*
D03*
X556000Y460000D02*
D03*
X496000Y428000D02*
D03*
X456000D02*
D03*
X183000Y365000D02*
D03*
X290000Y382000D02*
D03*
X291000Y402000D02*
D03*
X344290Y101050D02*
D03*
X433000Y63000D02*
D03*
X698000Y135000D02*
D03*
X724000Y152000D02*
D03*
X598000Y103000D02*
D03*
X816500Y164500D02*
D03*
X153000Y532000D02*
D03*
X643000Y508000D02*
D03*
X799500Y518500D02*
D03*
X720067Y511000D02*
D03*
X561000Y103000D02*
D03*
X482000Y184000D02*
D03*
X386000Y221000D02*
D03*
X581000Y134000D02*
D03*
X590000Y233000D02*
D03*
X520000Y202000D02*
D03*
X484624Y229000D02*
D03*
X471000Y381000D02*
D03*
X470000Y361000D02*
D03*
X501000Y372000D02*
D03*
X778000Y198000D02*
D03*
X770000D02*
D03*
X656000Y126000D02*
D03*
X729000Y248000D02*
D03*
X718000D02*
D03*
X655000Y211000D02*
D03*
X662000Y426000D02*
D03*
X762000Y198000D02*
D03*
M02*
