M48
;Layer_Color=9474304
;FILE_FORMAT=4:4
METRIC,LZ
;TYPE=PLATED
T1F00S00C0.2000
T2F00S00C0.3000
T4F00S00C1.0000
%
T01
X00683Y00321
X00697
X00704Y00328
X00697Y00335
X00704Y00342
X00697Y00349
X0069Y00342
X00683Y00349
Y00335
X0069Y00328
X00676
Y00342
T02
X0006Y00065
Y0009
Y00115
Y00135
X00085
Y00115
X0011
Y00135
X00131
Y00125
Y00115
Y00105
Y00094
X00121Y00091
X00109
Y00071
X0011Y0006
X00121Y00071
X00131
X00143Y00068
X00156
X0016Y00059
X00169Y00069
X00171Y00082
Y00094
X00181
X0019149Y0009384
X00191Y00114
X00181
X00171
X0017Y00135
X00153
Y00125
X00155Y00146
X00129
X00135Y00059
X00185Y0006
X0021
X00235
X00229Y00095
X0024Y00099
X00248Y00107
X00256Y00115
X00264Y00123
X00266Y00133
Y00143
Y00153
Y00164
Y00174
Y00184
Y00194
Y00204
Y00214
Y00224
X0027Y00234
X00285Y00235
X00278Y00242
X00286Y0025
X00285Y00272
X00275Y00269
X00267Y00261
X00259Y00253
X00251Y00245
X00246Y00237
Y00227
Y00217
Y00207
Y00197
Y00187
Y00177
Y00167
Y00157
Y00147
Y00137
X0024Y00129
X00233Y00122
X00285Y0011
Y00135
Y0016
X00304Y00161
Y0015
X00285Y00185
Y0021
X0032Y00242
X00319Y00282
X00356Y00218
X00386Y00221
X0034429Y0010105
X0033Y00047
X00285Y00085
X0026
X00085Y0006
X0006Y00228
Y00236
X0008Y0028
X0012
X00183Y00365
X0029Y00382
X0006Y00386
Y00378
X00471Y00381
X0047Y00361
X00485Y00357
X005Y00345
X00501Y00372
X00575Y00364
Y0033
Y00247
Y0024
X0059Y00233
X00605Y0026
X00666Y00255
X0067815Y0025485
X00704Y00255
X00718Y00248
X00729
Y00264
Y00272
X00752Y00263
X00761Y00258
X00762Y00198
X0077
X00778
X00744Y00184
Y00174
X0075Y00144
X00724Y00152
X00698Y00135
X00684
X00701Y00116
X00669Y00098
Y0006
X00638Y00079
X00619Y00097
X00598Y00103
X00561
X00564Y00084
X00581Y00134
X006095Y001435
X00656Y00126
X00672Y00169
Y00199
X00655Y00211
X00636Y00182
X00575Y00195
Y00203
X0052Y00202
X00528Y00182
X00482Y00184
X00484624Y00229
X00494Y00247
X005
X00506
X005Y00254
X00426Y00247
X00439Y00146
X00452Y00125
X00438Y00101
X00433Y00063
X00768Y00077875
X00782Y00135
X00747Y00371
X00738Y00382
X00688239Y00391168
X00677832Y00389761
X00667Y0039
X00655
X00641
X00629
X00615Y00391
X00794Y00189
X00821Y00204
X008165Y001645
X00802Y00455
X007995Y005185
X00788Y00499
X00720067Y00511
X00726Y00461
X00746Y004515
X00692Y00458
X00662Y00426
X00628Y00488
X00621Y00485
X006175Y005255
X00575Y00525
X00549Y00517
X0056Y005
X00535
X00511Y00501
Y00489
X00509Y00464
X00498Y00465
X00487
X00476
X00465
X00454
X00443Y00468
X00432
X00421
X00409Y00473
X00401Y00481
X00426Y00488
X00437
X00448
X00459Y00491
X0047
X00482
X0049Y00496
X0048Y00504
X00468Y00508
X00469Y00528
X00481Y0053
X00492
X00504
X00429Y00518
X00418Y00496
X0041Y00504
X00456Y00428
X00496
X00526Y00447
X00556Y0046
X00581Y00468
X00558Y00403
X00643Y00508
X00346Y00456
X00266Y00464
X00265Y00487
Y00511
X001735Y005185
X00153Y00532
X00258522Y00407748
X00291Y00402
T04
X001595Y002765
X002045
Y003415
X001595
M30
