G04*
G04 #@! TF.GenerationSoftware,Altium Limited,Altium Designer,22.0.2 (36)*
G04*
G04 Layer_Color=8388736*
%FSLAX44Y44*%
%MOMM*%
G71*
G04*
G04 #@! TF.SameCoordinates,5265F303-A955-4834-83B4-5BE1E65ADB8C*
G04*
G04*
G04 #@! TF.FilePolarity,Negative*
G04*
G01*
G75*
%ADD20O,2.3000X0.6000*%
%ADD35R,1.5000X0.9000*%
%ADD51R,0.8200X1.5600*%
%ADD52R,1.5600X0.8200*%
%ADD53R,0.7000X0.7000*%
%ADD54R,0.7500X0.8000*%
%ADD55R,0.9000X1.5000*%
%ADD56R,1.1000X1.5000*%
%ADD57R,2.5000X2.5000*%
%ADD58R,2.5000X2.5000*%
%ADD59P,3.5355X4X180.0*%
%ADD60R,1.0000X1.2000*%
%ADD61R,3.8000X1.4000*%
%ADD62R,1.4000X4.0000*%
%ADD63C,3.7000*%
%ADD64R,1.5000X1.1000*%
%ADD65R,1.0000X1.0000*%
%ADD66R,1.2000X1.0500*%
%ADD67R,1.1000X1.7000*%
%ADD68R,1.7000X1.1000*%
%ADD69R,1.1000X1.1000*%
%ADD70R,0.5000X1.4500*%
%ADD71R,1.8000X1.6000*%
%ADD72R,2.1000X2.1000*%
%ADD73R,1.8000X0.8000*%
%ADD74R,0.8000X1.8000*%
%ADD75R,2.9000X2.2000*%
%ADD76C,3.0480*%
%ADD77R,0.7500X1.2000*%
%ADD78R,1.2000X0.7500*%
%ADD79R,0.3700X1.0900*%
%ADD80R,1.0900X0.3700*%
%ADD81R,3.3500X3.3500*%
%ADD82R,0.5000X1.1900*%
%ADD83R,0.7588X0.8858*%
%ADD84R,1.1000X0.8000*%
G04:AMPARAMS|DCode=85|XSize=2.1mm|YSize=1.3mm|CornerRadius=0.41mm|HoleSize=0mm|Usage=FLASHONLY|Rotation=90.000|XOffset=0mm|YOffset=0mm|HoleType=Round|Shape=RoundedRectangle|*
%AMROUNDEDRECTD85*
21,1,2.1000,0.4800,0,0,90.0*
21,1,1.2800,1.3000,0,0,90.0*
1,1,0.8200,0.2400,0.6400*
1,1,0.8200,0.2400,-0.6400*
1,1,0.8200,-0.2400,-0.6400*
1,1,0.8200,-0.2400,0.6400*
%
%ADD85ROUNDEDRECTD85*%
%ADD86C,2.1000*%
%ADD87R,2.1000X2.1000*%
%ADD88C,0.8000*%
G36*
X88500Y75300D02*
X89100Y74500D01*
X90900D01*
X91500Y75300D01*
X98900D01*
Y67500D01*
X81100D01*
Y75300D01*
X88500D01*
D02*
G37*
G36*
X98900Y94500D02*
Y86700D01*
X91500D01*
X90900Y87500D01*
X89100D01*
X88500Y86700D01*
X81100D01*
Y94500D01*
X98900D01*
D02*
G37*
G36*
X42000Y518500D02*
Y245500D01*
X10000D01*
Y518500D01*
X42000D01*
D02*
G37*
G36*
X448500Y512300D02*
X449100Y511500D01*
X450900D01*
X451500Y512300D01*
X458900D01*
Y504500D01*
X441100D01*
Y512300D01*
X448500D01*
D02*
G37*
G36*
X458900Y531500D02*
Y523700D01*
X451500D01*
X450900Y524500D01*
X449100D01*
X448500Y523700D01*
X441100D01*
Y531500D01*
X458900D01*
D02*
G37*
D20*
X24000Y404000D02*
D03*
Y388000D02*
D03*
Y380000D02*
D03*
Y372000D02*
D03*
Y396000D02*
D03*
Y500000D02*
D03*
Y444000D02*
D03*
Y452000D02*
D03*
Y460000D02*
D03*
Y468000D02*
D03*
Y476000D02*
D03*
Y484000D02*
D03*
Y492000D02*
D03*
Y364000D02*
D03*
Y356000D02*
D03*
Y348000D02*
D03*
Y292000D02*
D03*
Y300000D02*
D03*
Y308000D02*
D03*
Y316000D02*
D03*
Y276000D02*
D03*
Y284000D02*
D03*
Y332000D02*
D03*
Y340000D02*
D03*
Y324000D02*
D03*
Y268000D02*
D03*
D35*
X157000Y462000D02*
D03*
Y481000D02*
D03*
X132000Y462000D02*
D03*
Y481000D02*
D03*
X581000Y103000D02*
D03*
Y122000D02*
D03*
X812000Y523000D02*
D03*
Y504000D02*
D03*
X330000Y154500D02*
D03*
Y135500D02*
D03*
X693000Y488500D02*
D03*
Y469500D02*
D03*
X805000Y145500D02*
D03*
Y164500D02*
D03*
X828000Y145500D02*
D03*
Y164500D02*
D03*
X740000Y110500D02*
D03*
Y129500D02*
D03*
X763000Y110500D02*
D03*
Y129500D02*
D03*
X820000Y77000D02*
D03*
Y58000D02*
D03*
X656000Y97500D02*
D03*
Y116500D02*
D03*
D51*
X399900Y498000D02*
D03*
X374100D02*
D03*
D52*
X142000Y177900D02*
D03*
Y152100D02*
D03*
D53*
X440000Y518000D02*
D03*
X80000Y81000D02*
D03*
D54*
X459750Y518000D02*
D03*
X99750Y81000D02*
D03*
D55*
X141500D02*
D03*
X160500D02*
D03*
X198500Y104000D02*
D03*
X217500D02*
D03*
X141500D02*
D03*
X160500D02*
D03*
X482000Y478000D02*
D03*
X463000D02*
D03*
X500500Y517000D02*
D03*
X481500D02*
D03*
X519500Y478000D02*
D03*
X500500D02*
D03*
X248500Y509000D02*
D03*
X229500D02*
D03*
X248500Y472000D02*
D03*
X229500D02*
D03*
X646000Y198000D02*
D03*
X662000D02*
D03*
X646000Y179000D02*
D03*
X662000D02*
D03*
X788000Y512000D02*
D03*
X772000D02*
D03*
X361000Y164000D02*
D03*
X380000D02*
D03*
X479000Y166000D02*
D03*
X498000D02*
D03*
X690500Y511000D02*
D03*
X709500D02*
D03*
X661000Y469500D02*
D03*
X642000D02*
D03*
X618000Y445500D02*
D03*
X599000D02*
D03*
X661000D02*
D03*
X642000D02*
D03*
X628000Y62000D02*
D03*
X609000D02*
D03*
D56*
X219000Y127000D02*
D03*
X200000D02*
D03*
X219000Y81000D02*
D03*
X200000D02*
D03*
X519500Y517000D02*
D03*
X538500D02*
D03*
X749500Y440500D02*
D03*
X730500D02*
D03*
X691500D02*
D03*
X710500D02*
D03*
X820500Y189000D02*
D03*
X801500D02*
D03*
X402500Y166000D02*
D03*
X421500D02*
D03*
X402500Y143000D02*
D03*
X421500D02*
D03*
X460500Y166000D02*
D03*
X441500D02*
D03*
X536000D02*
D03*
X517000D02*
D03*
X661500Y492500D02*
D03*
X642500D02*
D03*
X598500Y509500D02*
D03*
X617500D02*
D03*
X609500Y86000D02*
D03*
X628500D02*
D03*
X609500Y132000D02*
D03*
X628500D02*
D03*
X609500Y155000D02*
D03*
X628500D02*
D03*
X788500Y440500D02*
D03*
X769500D02*
D03*
X609500Y109000D02*
D03*
X628500D02*
D03*
D57*
X470500Y62500D02*
D03*
D58*
X541500Y133500D02*
D03*
X470500D02*
D03*
D59*
X538000Y66000D02*
D03*
D60*
X245000Y416000D02*
D03*
Y378000D02*
D03*
D61*
X183000Y431500D02*
D03*
D62*
X218000Y395000D02*
D03*
X148000D02*
D03*
D63*
X183000Y395000D02*
D03*
D64*
X543000Y479500D02*
D03*
Y460500D02*
D03*
X812000Y467000D02*
D03*
Y486000D02*
D03*
X781000Y488500D02*
D03*
Y469500D02*
D03*
X717000Y488500D02*
D03*
Y469500D02*
D03*
X656000Y60000D02*
D03*
Y79000D02*
D03*
X581000Y83000D02*
D03*
Y64000D02*
D03*
D65*
X154000Y502000D02*
D03*
Y518000D02*
D03*
X135000Y502000D02*
D03*
Y518000D02*
D03*
X813000Y121000D02*
D03*
Y105000D02*
D03*
X830000Y121000D02*
D03*
Y105000D02*
D03*
D66*
X188500Y499500D02*
D03*
Y518500D02*
D03*
X209500Y509000D02*
D03*
X188500Y462500D02*
D03*
Y481500D02*
D03*
X209500Y472000D02*
D03*
X374500Y142500D02*
D03*
Y123500D02*
D03*
X353500Y133000D02*
D03*
D67*
X767200Y407500D02*
D03*
X754500D02*
D03*
X741800D02*
D03*
X729100D02*
D03*
X716400D02*
D03*
X703700D02*
D03*
X691000D02*
D03*
X678300D02*
D03*
X665600D02*
D03*
X652900D02*
D03*
X640200D02*
D03*
X627500D02*
D03*
X614800D02*
D03*
X602100D02*
D03*
Y232500D02*
D03*
X614800D02*
D03*
X627500D02*
D03*
X640200D02*
D03*
X652900D02*
D03*
X665600D02*
D03*
X678300D02*
D03*
X691000D02*
D03*
X703700D02*
D03*
X716400D02*
D03*
X729100D02*
D03*
X741800D02*
D03*
X754500D02*
D03*
X767200D02*
D03*
D68*
X589600Y377150D02*
D03*
Y364450D02*
D03*
Y351750D02*
D03*
Y339050D02*
D03*
Y326350D02*
D03*
Y313650D02*
D03*
Y300950D02*
D03*
Y288250D02*
D03*
Y275550D02*
D03*
Y262850D02*
D03*
D69*
X704000Y349000D02*
D03*
Y335000D02*
D03*
Y321000D02*
D03*
X690000Y349000D02*
D03*
Y335000D02*
D03*
Y321000D02*
D03*
X676000Y349000D02*
D03*
Y335000D02*
D03*
Y321000D02*
D03*
D70*
X742000Y90750D02*
D03*
X748500D02*
D03*
X755000D02*
D03*
X761500D02*
D03*
X768000D02*
D03*
D71*
X787000Y88500D02*
D03*
X723000D02*
D03*
D72*
X743000Y64000D02*
D03*
X767000D02*
D03*
D73*
X306000Y242000D02*
D03*
Y252000D02*
D03*
Y262000D02*
D03*
Y272000D02*
D03*
Y282000D02*
D03*
Y292000D02*
D03*
Y302000D02*
D03*
Y312000D02*
D03*
Y322000D02*
D03*
Y332000D02*
D03*
Y342000D02*
D03*
Y352000D02*
D03*
Y362000D02*
D03*
Y372000D02*
D03*
Y382000D02*
D03*
Y392000D02*
D03*
Y402000D02*
D03*
X546000D02*
D03*
Y392000D02*
D03*
Y382000D02*
D03*
Y372000D02*
D03*
Y362000D02*
D03*
Y352000D02*
D03*
Y342000D02*
D03*
Y332000D02*
D03*
Y322000D02*
D03*
Y312000D02*
D03*
Y302000D02*
D03*
Y292000D02*
D03*
Y282000D02*
D03*
Y272000D02*
D03*
Y262000D02*
D03*
Y252000D02*
D03*
Y242000D02*
D03*
D74*
X346000Y442000D02*
D03*
X356000D02*
D03*
X366000D02*
D03*
X376000D02*
D03*
X386000D02*
D03*
X396000D02*
D03*
X406000D02*
D03*
X416000D02*
D03*
X426000D02*
D03*
X436000D02*
D03*
X446000D02*
D03*
X456000D02*
D03*
X466000D02*
D03*
X476000D02*
D03*
X486000D02*
D03*
X496000D02*
D03*
X506000D02*
D03*
Y202000D02*
D03*
X496000D02*
D03*
X486000D02*
D03*
X476000D02*
D03*
X466000D02*
D03*
X456000D02*
D03*
X446000D02*
D03*
X436000D02*
D03*
X426000D02*
D03*
X416000D02*
D03*
X406000D02*
D03*
X396000D02*
D03*
X386000D02*
D03*
X376000D02*
D03*
X366000D02*
D03*
X356000D02*
D03*
X346000D02*
D03*
D75*
X690000Y64000D02*
D03*
Y96000D02*
D03*
D76*
X77000Y519000D02*
D03*
X270000Y66000D02*
D03*
X653000Y522000D02*
D03*
X505000Y97000D02*
D03*
D77*
X739500Y465000D02*
D03*
X758500D02*
D03*
X739500Y492000D02*
D03*
X749000D02*
D03*
X758500D02*
D03*
D78*
X621500Y468000D02*
D03*
Y487000D02*
D03*
X594500Y468000D02*
D03*
Y477500D02*
D03*
Y487000D02*
D03*
D79*
X693000Y160400D02*
D03*
X698000D02*
D03*
X703000D02*
D03*
X708000D02*
D03*
X713000D02*
D03*
X718000D02*
D03*
X723000D02*
D03*
Y207600D02*
D03*
X718000D02*
D03*
X713000D02*
D03*
X708000D02*
D03*
X703000D02*
D03*
X698000D02*
D03*
X693000D02*
D03*
D80*
X731600Y169000D02*
D03*
Y174000D02*
D03*
Y179000D02*
D03*
Y184000D02*
D03*
Y189000D02*
D03*
Y194000D02*
D03*
Y199000D02*
D03*
X684400D02*
D03*
Y194000D02*
D03*
Y189000D02*
D03*
Y184000D02*
D03*
Y179000D02*
D03*
Y174000D02*
D03*
Y169000D02*
D03*
D81*
X708000Y184000D02*
D03*
D82*
X761500Y185200D02*
D03*
X768000D02*
D03*
X774500D02*
D03*
Y166800D02*
D03*
X768000D02*
D03*
X761500D02*
D03*
D83*
X731000Y512000D02*
D03*
X755384D02*
D03*
X424192Y123000D02*
D03*
X399808D02*
D03*
D84*
X786000Y109000D02*
D03*
Y124000D02*
D03*
X716000Y109500D02*
D03*
Y124500D02*
D03*
D85*
X788000Y64000D02*
D03*
X722000D02*
D03*
D86*
X204500Y276500D02*
D03*
X159500D02*
D03*
Y341500D02*
D03*
D87*
X204500D02*
D03*
D88*
X426000Y247000D02*
D03*
X684000Y135000D02*
D03*
X750000Y144000D02*
D03*
X677832Y389761D02*
D03*
X688239Y391168D02*
D03*
X667000Y390000D02*
D03*
X655000D02*
D03*
X641000D02*
D03*
X629000D02*
D03*
X672000Y169000D02*
D03*
Y199000D02*
D03*
X744000Y174000D02*
D03*
Y184000D02*
D03*
X575000Y364000D02*
D03*
X480000Y504000D02*
D03*
X459000Y491000D02*
D03*
X470000D02*
D03*
X482000D02*
D03*
X669000Y98000D02*
D03*
X636000Y182000D02*
D03*
X669000Y60000D02*
D03*
X528000Y182000D02*
D03*
X143000Y68000D02*
D03*
X575000Y525000D02*
D03*
X560000Y500000D02*
D03*
X535000D02*
D03*
X120000Y280000D02*
D03*
X80000D02*
D03*
X285000Y235000D02*
D03*
Y210000D02*
D03*
Y185000D02*
D03*
Y160000D02*
D03*
Y135000D02*
D03*
Y110000D02*
D03*
Y85000D02*
D03*
X260000D02*
D03*
X235000Y60000D02*
D03*
X170000Y135000D02*
D03*
X60000D02*
D03*
X110000D02*
D03*
X85000D02*
D03*
X210000Y60000D02*
D03*
X185000D02*
D03*
X160000Y59000D02*
D03*
X135000D02*
D03*
X110000Y60000D02*
D03*
X85000D02*
D03*
X60000Y65000D02*
D03*
Y90000D02*
D03*
Y115000D02*
D03*
X85000D02*
D03*
X110000D02*
D03*
X504000Y530000D02*
D03*
X492000D02*
D03*
X481000D02*
D03*
X469000Y528000D02*
D03*
X511000Y501000D02*
D03*
Y489000D02*
D03*
X468000Y508000D02*
D03*
X490000Y496000D02*
D03*
X448000Y488000D02*
D03*
X437000D02*
D03*
X426000D02*
D03*
X418000Y496000D02*
D03*
X410000Y504000D02*
D03*
X401000Y481000D02*
D03*
X409000Y473000D02*
D03*
X421000Y468000D02*
D03*
X432000D02*
D03*
X443000D02*
D03*
X454000Y465000D02*
D03*
X465000D02*
D03*
X476000D02*
D03*
X487000D02*
D03*
X498000D02*
D03*
X509000Y464000D02*
D03*
X526000Y447000D02*
D03*
X171000Y82000D02*
D03*
X169000Y69000D02*
D03*
X156000Y68000D02*
D03*
X131000Y71000D02*
D03*
X121000D02*
D03*
X109000D02*
D03*
Y91000D02*
D03*
X121000D02*
D03*
X131000Y94000D02*
D03*
Y105000D02*
D03*
Y115000D02*
D03*
Y125000D02*
D03*
Y135000D02*
D03*
X129000Y146000D02*
D03*
X153000Y125000D02*
D03*
Y135000D02*
D03*
X155000Y146000D02*
D03*
X181000Y114000D02*
D03*
X191000D02*
D03*
X171000D02*
D03*
Y94000D02*
D03*
X181000D02*
D03*
X191490Y93840D02*
D03*
X229000Y95000D02*
D03*
X240000Y99000D02*
D03*
X248000Y107000D02*
D03*
X256000Y115000D02*
D03*
X264000Y123000D02*
D03*
X266000Y133000D02*
D03*
Y143000D02*
D03*
Y153000D02*
D03*
Y164000D02*
D03*
Y174000D02*
D03*
Y184000D02*
D03*
Y194000D02*
D03*
Y204000D02*
D03*
Y214000D02*
D03*
Y224000D02*
D03*
X270000Y234000D02*
D03*
X278000Y242000D02*
D03*
X286000Y250000D02*
D03*
X233000Y122000D02*
D03*
X240000Y129000D02*
D03*
X246000Y137000D02*
D03*
Y147000D02*
D03*
Y157000D02*
D03*
Y167000D02*
D03*
Y177000D02*
D03*
Y187000D02*
D03*
Y197000D02*
D03*
Y207000D02*
D03*
Y217000D02*
D03*
Y227000D02*
D03*
Y237000D02*
D03*
X251000Y245000D02*
D03*
X259000Y253000D02*
D03*
X267000Y261000D02*
D03*
X275000Y269000D02*
D03*
X285000Y272000D02*
D03*
X304000Y150000D02*
D03*
Y161000D02*
D03*
X575000Y203000D02*
D03*
Y195000D02*
D03*
Y247000D02*
D03*
Y240000D02*
D03*
Y330000D02*
D03*
X330000Y47000D02*
D03*
X60000Y236000D02*
D03*
Y386000D02*
D03*
Y228000D02*
D03*
Y378000D02*
D03*
X628000Y488000D02*
D03*
X621000Y485000D02*
D03*
X701000Y116000D02*
D03*
X494000Y247000D02*
D03*
X506000D02*
D03*
X500000Y254000D02*
D03*
Y247000D02*
D03*
Y345000D02*
D03*
X485000Y357000D02*
D03*
X605000Y260000D02*
D03*
X729000Y264000D02*
D03*
Y272000D02*
D03*
X666000Y255000D02*
D03*
X678150Y254850D02*
D03*
X704000Y255000D02*
D03*
X752000Y263000D02*
D03*
X761000Y258000D02*
D03*
X615000Y391000D02*
D03*
X692000Y458000D02*
D03*
X619000Y97000D02*
D03*
X794000Y189000D02*
D03*
X258522Y407748D02*
D03*
X438000Y101000D02*
D03*
X452000Y125000D02*
D03*
X439000Y146000D02*
D03*
X821000Y204000D02*
D03*
X638000Y79000D02*
D03*
X747000Y371000D02*
D03*
X738000Y382000D02*
D03*
X346000Y456000D02*
D03*
X266000Y464000D02*
D03*
X265000Y487000D02*
D03*
Y511000D02*
D03*
X320000Y242000D02*
D03*
X319000Y282000D02*
D03*
X726000Y461000D02*
D03*
X173500Y518500D02*
D03*
X746000Y451500D02*
D03*
X802000Y455000D02*
D03*
X788000Y499000D02*
D03*
X768000Y77875D02*
D03*
X782000Y135000D02*
D03*
X356000Y218000D02*
D03*
X564000Y84000D02*
D03*
X609500Y143500D02*
D03*
X581000Y468000D02*
D03*
X617500Y525500D02*
D03*
X429000Y518000D02*
D03*
X549000Y517000D02*
D03*
X558000Y403000D02*
D03*
X556000Y460000D02*
D03*
X496000Y428000D02*
D03*
X456000D02*
D03*
X183000Y365000D02*
D03*
X290000Y382000D02*
D03*
X291000Y402000D02*
D03*
X344290Y101050D02*
D03*
X433000Y63000D02*
D03*
X698000Y135000D02*
D03*
X724000Y152000D02*
D03*
X598000Y103000D02*
D03*
X816500Y164500D02*
D03*
X153000Y532000D02*
D03*
X643000Y508000D02*
D03*
X799500Y518500D02*
D03*
X720067Y511000D02*
D03*
X561000Y103000D02*
D03*
X482000Y184000D02*
D03*
X386000Y221000D02*
D03*
X581000Y134000D02*
D03*
X590000Y233000D02*
D03*
X520000Y202000D02*
D03*
X484624Y229000D02*
D03*
X471000Y381000D02*
D03*
X470000Y361000D02*
D03*
X501000Y372000D02*
D03*
X778000Y198000D02*
D03*
X770000D02*
D03*
X656000Y126000D02*
D03*
X729000Y248000D02*
D03*
X718000D02*
D03*
X655000Y211000D02*
D03*
X662000Y426000D02*
D03*
X762000Y198000D02*
D03*
M02*
