M48
;Layer_Color=9474304
;FILE_FORMAT=4:4
METRIC,LZ
;TYPE=PLATED
T1F00S00C0.2000
T3F00S00C1.1000
T4F00S00C1.5000
T5F00S00C2.2000
T6F00S00C3.2000
;TYPE=NON_PLATED
T7F00S00C1.1000
T8F00S00C1.6000
%
T01
X00443Y00195
Y00204
X00493Y00216
X00699Y00254
X00706Y00258
Y00292
X00699Y00287
X00738Y00264
Y00233
X00759Y00306
X00774Y0036
X0074Y00374
X00722Y00382
X00714Y00376
X0071Y00391
X00748Y00393
X00623Y00374
X00711Y00118
X00719Y00118
X00714841Y00036
X00746557
X00763Y00046
X00771
X00778894
X00786926
X00665Y00051
X00794913Y00046
X00803038
X00810886
X00872Y0012
X00948Y00114
X00924Y00162
X00864Y00252
X00841Y00299
Y00352
X00795Y00374
Y00382
X008955Y003905
X01005Y00387186
Y00395164
Y003791
Y00371338
X01005226Y00355
X00999Y00339
X01005179Y00331
X01005Y00402711
Y0041112
Y00418775
X00964Y00455
X00925Y00496
X00885Y00498
X00909Y00423
X00807Y00398
X00803Y00532
X00837Y00571
X00826Y00594
X00837Y00619
X00989Y00608
X00997Y00601
X01002Y0053
X00749Y00484
X00732Y00459
X00716Y00427
X00708
X00748Y00415
X00756Y00421
X00764Y00426
X00782Y00451
X00793Y00406
X0074Y00406
X00691Y00562
X00712429Y00640571
X00611Y00483
X00426Y00405
T03
X00369Y003416
Y00367
Y003924
X004576
Y00367
Y003416
Y003162
X00483
Y003416
Y00367
Y003924
Y002908
Y002654
X004576
Y002908
X005402Y00102617
Y00077217
X005656
X00591
Y00102617
X005656
X00884Y00616
Y006414
X009094
X009348
Y00616
X009094
X00483Y004686
X004576
Y004432
Y004178
X00483
Y004432
T04
X0023Y00058
Y00178
X00352
X00372Y00118
X00352Y00058
T05
X00103Y00071
Y001218
Y001726
T06
X0007Y0026
X006Y0027
X0048Y0062
T07
X007Y00054
X00986Y00308
T08
X0095Y00054
X00986Y00558
M30
